<?xml version="1.0" encoding="utf-8"?>
<!-- Generator: Adobe Illustrator 21.0.2, SVG Export Plug-In . SVG Version: 6.00 Build 0)  -->
<svg version="1.1" id="Layer_1" xmlns="http://www.w3.org/2000/svg" xmlns:xlink="http://www.w3.org/1999/xlink" x="0px" y="0px"
	 viewBox="0 0 2065 1972" style="enable-background:new 0 0 2065 1972;" xml:space="preserve">
<style type="text/css">
	.st0{fill:#CAD0E6;}
	.st1{fill:#E1E6F0;}
	.st2{fill:#FFFFFF;}
	.st3{fill:#6F99FB;}
	.st4{fill:#6490FF;}
	.st5{fill:#4C7FF7;}
	.st6{fill:#FFC891;}
	.st7{fill:#B3553B;}
	.st8{fill:#454563;}
	.st9{fill:#FFBF91;}
	.st10{fill:#005BEA;}
	.st11{fill:url(#SVGID_1_);}
	.st12{fill:url(#SVGID_2_);}
	.st13{fill:#21D3B5;}
	.st14{fill:#E5E5E5;}
	.st15{fill:url(#SVGID_3_);}
	.st16{fill:url(#SVGID_4_);}
	.st17{fill:#EEE1D2;}
	.st18{fill:#D4C0B1;}
	.st19{fill:url(#SVGID_5_);}
	.st20{fill:url(#SVGID_6_);}
	.st21{fill:url(#SVGID_7_);}
	.st22{fill:url(#SVGID_8_);}
	.st23{fill:url(#SVGID_9_);}
	.st24{fill:#BBCAD8;}
	.st25{fill:url(#SVGID_10_);}
	.st26{fill:url(#SVGID_11_);}
	.st27{fill:url(#SVGID_12_);}
	.st28{fill:url(#SVGID_13_);}
	.st29{fill:url(#SVGID_14_);}
	.st30{fill:url(#SVGID_15_);}
	.st31{fill:url(#SVGID_16_);}
	.st32{fill:url(#SVGID_17_);}
	.st33{fill:url(#SVGID_18_);}
	.st34{fill:url(#SVGID_19_);}
	.st35{fill:url(#SVGID_20_);}
	.st36{fill:url(#SVGID_21_);}
	.st37{fill:url(#SVGID_22_);}
	.st38{fill:url(#SVGID_23_);}
	.st39{enable-background:new    ;}
	.st40{fill:url(#SVGID_24_);}
	.st41{fill:#D9D9D9;}
	.st42{fill:#FF5643;}
	.st43{fill:#E6E6E6;}
	.st44{clip-path:url(#SVGID_34_);enable-background:new    ;}
	.st45{clip-path:url(#SVGID_36_);}
	.st46{opacity:0.7;enable-background:new    ;}
	.st47{clip-path:url(#SVGID_38_);}
	.st48{clip-path:url(#SVGID_40_);}
	.st49{opacity:6.000000e-02;fill:#94C5FF;}
	.st50{clip-path:url(#SVGID_42_);}
	.st51{opacity:0.14;fill:#0092FF;}
	.st52{clip-path:url(#SVGID_44_);}
	.st53{opacity:8.000000e-02;fill:#0092FF;}
	.st54{fill:url(#SVGID_47_);}
	.st55{fill:url(#SVGID_48_);}
	.st56{fill:#9BB2CC;}
	.st57{fill:url(#SVGID_49_);}
	.st58{fill:url(#SVGID_50_);}
	.st59{fill:url(#SVGID_51_);}
	.st60{fill:url(#SVGID_52_);}
	.st61{fill:url(#SVGID_53_);}
	.st62{fill:url(#SVGID_54_);}
	.st63{fill:url(#SVGID_55_);}
	.st64{fill:url(#SVGID_56_);}
	.st65{fill:#21C1A7;}
	.st66{fill:#21DEB6;}
	.st67{fill:#00067D;}
	.st68{fill:#E36F6F;}
	.st69{fill:url(#SVGID_57_);}
	.st70{fill:url(#SVGID_58_);}
	.st71{fill:url(#SVGID_59_);}
	.st72{fill:url(#SVGID_60_);}
	.st73{fill:url(#SVGID_61_);}
	.st74{fill:url(#SVGID_62_);}
	.st75{fill:url(#SVGID_63_);}
	.st76{fill:url(#SVGID_64_);}
	.st77{fill:#72B0FC;}
	.st78{fill:#2E7EFF;}
	.st79{fill:#6A95FF;}
	.st80{fill:#AFDAFA;}
	.st81{fill:#81BAFE;}
	.st82{fill:#96CAFF;}
	.st83{fill:#72A2FC;}
	.st84{fill:#2D47FE;}
	.st85{fill:#60D0FE;}
	.st86{fill:#47A8FF;}
	.st87{fill:#2C62FA;}
	.st88{fill:#478DFF;}
	.st89{fill:#3C77FF;}
	.st90{fill:url(#SVGID_65_);}
</style>
<g>
	<path class="st3" d="M206.2,1155.9l698.7,403.4c70.3,40.6,156.9,40.6,227.2,0l698.7-403.4c51.7-29.9,51.7-104.5,0-134.4
		l-698.7-403.4c-70.3-40.6-156.9-40.6-227.2,0l-698.7,403.4C154.5,1051.3,154.5,1126,206.2,1155.9z"/>
	<g>
		<g>
			<path class="st0" d="M1006.3,365.1c-11.4-19.8-28-36.7-48.5-48.5l-163.9-96.8c-15.1-8.7-32-7.6-45.2,0l-26.5,15.3l252.7,148.1
				l0,573l26.5-15.3c13.2-7.6,22.6-21.8,22.6-39.2V431.3C1024,407.6,1017.7,384.9,1006.3,365.1z"/>
			<path class="st1" d="M767.4,235.1L935.9,330c41,23.7,66.2,67.4,66.2,114.7l0,470.4c0,34.8-37.7,56.6-67.9,39.2l-168.5-94.9
				c-41-23.7-66.2-67.4-66.2-114.7l0-470.4C699.5,239.5,737.2,217.7,767.4,235.1z"/>
			<path class="st2" d="M770.4,274.4L923.9,356c22.2,12.8,47.1,43.1,47.1,68.7l0,467.2c0,20.3-22,33-39.5,22.8l-164.7-88.1
				c-22.2-12.8-35.9-36.5-35.9-62.2l0-467.2C730.9,276.9,752.9,264.3,770.4,274.4z"/>
		</g>
		<g>
			<g>
				<polygon class="st10" points="902.1,855.8 902.1,709.7 925.9,723.4 925.9,869.6 				"/>
				<polygon class="st10" points="862.7,824.3 862.7,727.5 886.5,741.3 886.5,838 				"/>
				<polygon class="st10" points="823.2,801.5 823.2,738.1 847,751.8 847,815.2 				"/>
				<polygon class="st10" points="783.7,778.7 783.7,738.1 807.5,751.8 807.5,792.4 				"/>
				<polygon class="st10" points="744.3,755.9 744.3,738.3 768.1,752.1 768.1,769.6 				"/>
			</g>
			<path class="st0" d="M765.9,534.9c0.3-5.9,3.8-8.8,7.8-6.5l95.2,55c4,2.3,7.1,9,6.8,14.9c-0.3,5.9-3.8,8.8-7.8,6.5l-95.2-55
				C768.6,547.5,765.6,540.8,765.9,534.9z"/>
			<path class="st1" d="M815.2,607.1c0.3-5.9,3.8-8.8,7.8-6.5l95.2,55c4,2.3,7.1,9,6.8,14.9c-0.3,5.9-3.8,8.8-7.8,6.5l-95.2-55
				C817.9,619.7,814.9,613,815.2,607.1z"/>
			<path class="st1" d="M887.7,605.2c0.3-5.9,3.8-8.8,7.8-6.5l26.1,15.1c4,2.3,7.1,9,6.8,14.9c-0.3,5.9-3.8,8.8-7.8,6.5l-26.1-15.1
				C890.4,617.8,887.4,611.1,887.7,605.2z"/>
			<path class="st1" d="M763.8,576.7c0.3-5.9,3.8-8.8,7.8-6.5l26.1,15.1c4,2.3,7.1,9,6.8,14.9c-0.3,5.9-3.8,8.8-7.8,6.5l-26.1-15.1
				C766.5,589.3,763.5,582.6,763.8,576.7z"/>
		</g>
	</g>
	<g>
		<ellipse class="st0" cx="702.2" cy="1213.3" rx="86" ry="47.8"/>
		<g>
			
				<rect x="717.2" y="883.3" transform="matrix(0.4377 0.8991 -0.8991 0.4377 1221.4777 -147.089)" class="st6" width="22.3" height="39.4"/>
			
				<ellipse transform="matrix(0.8991 -0.4377 0.4377 0.8991 -316.1693 416.7098)" class="st6" cx="746" cy="894.3" rx="11.1" ry="11.1"/>
		</g>
		<g>
			<polygon class="st6" points="737.4,887.4 755.9,899.5 788.4,838.3 781.2,833.6 			"/>
			
				<ellipse transform="matrix(0.5457 -0.838 0.838 0.5457 -410.5122 1031.5006)" class="st6" cx="746" cy="894.3" rx="11.1" ry="11.1"/>
			
				<ellipse transform="matrix(0.9996 -2.755972e-02 2.755972e-02 0.9996 -22.8208 21.8973)" class="st6" cx="783" cy="838.8" rx="9.5" ry="9.5"/>
		</g>
		
			<rect x="681.3" y="1008.9" transform="matrix(-1 -1.224647e-16 1.224647e-16 -1 1428.4082 2092.8186)" class="st8" width="65.9" height="74.9"/>
		<path class="st67" d="M679.8,908.4l39-16.4c5.6-2.4,12.5,1.3,15.4,8.2c2.9,6.9,0.7,14.4-4.9,16.7l-39,16.4L679.8,908.4z"/>
		<g>
			<path class="st8" d="M681.8,1222l28.7-16.6c4.8-2.8,6.5-9,3.7-13.8l-1.8-3.2c-2.8-4.8-9-6.5-13.8-3.7l-28.7,16.6
				c-4.8,2.8-6.5,9-3.7,13.8l1.8,3.2C670.8,1223.1,677,1224.8,681.8,1222z"/>
			<g>
				
					<rect x="678.8" y="998.3" transform="matrix(-1 -1.224647e-16 1.224647e-16 -1 1394.3867 2096.1184)" class="st6" width="36.8" height="99.5"/>
				<circle class="st6" cx="697.2" cy="1097.8" r="18.4"/>
			</g>
			<g>
				<path class="st6" d="M714.9,1103l-36-6.9L668.2,1203c-0.4,4.1,2.4,7.8,6.4,8.5l0,0c4,0.8,7.8-1.6,9-5.4L714.9,1103z"/>
				
					<ellipse transform="matrix(0.1874 -0.9823 0.9823 0.1874 -511.7913 1576.9435)" class="st6" cx="697.2" cy="1097.8" rx="18.4" ry="18.4"/>
			</g>
		</g>
		<g>
			<path class="st8" d="M714.6,1243l28.7-16.6c4.8-2.8,6.5-9,3.7-13.8l-1.8-3.2c-2.8-4.8-9-6.5-13.8-3.7l-28.7,16.6
				c-4.8,2.8-6.5,9-3.7,13.8l1.8,3.2C703.6,1244.1,709.8,1245.8,714.6,1243z"/>
			<g>
				
					<rect x="711.6" y="1019.3" transform="matrix(-1 -1.224647e-16 1.224647e-16 -1 1459.9738 2138.0312)" class="st6" width="36.8" height="99.5"/>
				<circle class="st6" cx="730" cy="1118.7" r="18.4"/>
			</g>
			<g>
				<path class="st6" d="M747.6,1123.9l-36-6.9L701,1223.9c-0.4,4.1,2.4,7.8,6.4,8.5l0,0c4,0.8,7.8-1.6,9-5.4L747.6,1123.9z"/>
				
					<ellipse transform="matrix(0.1874 -0.9823 0.9823 0.1874 -505.7289 1626.1829)" class="st6" cx="730" cy="1118.7" rx="18.4" ry="18.4"/>
			</g>
		</g>
		<circle class="st6" cx="702.2" cy="832.5" r="32.7"/>
		<path class="st68" d="M752.2,921.4c-3.8-27.5-26.2-36.8-45.8-36.8s-40.7,19.6-43.7,41.5c-4.5,33,15.1,42.7,13,83.3
			c-2.9,56.9-39.9,116-39.9,116l111.2,36.6C747,1161.9,768.3,1038.1,752.2,921.4z"/>
		<path class="st6" d="M715.6,859.4l0.1,30.9c0,4.4-6,8.1-13.5,8.1c-7.5,0-13.5-3.5-13.5-8l-0.1-30.9L715.6,859.4z"/>
		<g>
			
				<rect x="746" y="942.7" transform="matrix(-0.9109 0.4127 -0.4127 -0.9109 1843.9832 1526.4994)" class="st6" width="22.3" height="39.4"/>
			
				<ellipse transform="matrix(0.9109 -0.4127 0.4127 0.9109 -336.3781 403.2217)" class="st6" cx="765.3" cy="980.3" rx="11.1" ry="11.1"/>
		</g>
		<g>
			<polygon class="st6" points="772.5,971.8 759.9,990.1 820.1,1024.2 825,1017.1 			"/>
			
				<ellipse transform="matrix(0.5686 -0.8226 0.8226 0.5686 -476.2933 1052.4746)" class="st6" cx="765.3" cy="980.3" rx="11.1" ry="11.1"/>
			<circle class="st6" cx="819.7" cy="1018.8" r="9.5"/>
		</g>
		<path class="st68" d="M751.4,914.3l16.3,39c2.3,5.6-1.3,12.5-8.2,15.4c-6.9,2.9-14.4,0.6-16.7-5l-16.3-39L751.4,914.3z"/>
		<g>
			<g>
				<path class="st8" d="M700.1,795.9c5.8,0,11.3,1.4,16.2,3.9c3.1,5.3,4.8,11.4,4.8,17.9c0,3.2-0.4,6.3-1.2,9.3
					c-1.1-0.4-2.2-0.6-3.4-0.6c-5.7,0-10.3,4.6-10.3,10.3c0,2.9,1.2,5.6,3.2,7.5c-6.4,5.8-14.8,9.3-24.1,9.3
					c-5.8,0-11.3-1.4-16.2-3.9c-3.1-5.3-4.8-11.4-4.8-17.9C664.4,811.9,680.4,795.9,700.1,795.9z"/>
			</g>
			<circle class="st8" cx="672.6" cy="849.2" r="14.7"/>
			<circle class="st8" cx="665.5" cy="868" r="18.8"/>
			<circle class="st8" cx="659.7" cy="890.3" r="26.2"/>
		</g>
	</g>
</g>
<g>
	<g>
		<g>
			
				<ellipse transform="matrix(0.3543 -0.9351 0.9351 0.3543 -494.4736 1462.2992)" class="st6" cx="811.7" cy="1089.2" rx="9.5" ry="9.5"/>
			<path class="st6" d="M788.5,990.6c0,0-13.7,32-15.1,46.7c-1.4,14.6,31.5,53.9,31.5,53.9l9.4-7.7c0,0-17.3-27.7-18.8-43.5
				c-1.3-13.7,13.4-41.2,13.4-41.2L788.5,990.6z"/>
			<path class="st0" d="M821.4,974.3l-15.6,39.3c-2.2,5.7-9.7,8-16.6,5.3c-6.9-2.7-10.7-9.6-8.5-15.2l15.6-39.3
				C803.1,947.1,828.5,956.9,821.4,974.3z"/>
		</g>
		<ellipse class="st0" cx="835.4" cy="1292.8" rx="86" ry="47.8"/>
		<path class="st2" d="M850.2,1324.2l25.5-14.7c5.7-3.3,7.7-10.6,4.4-16.3l0,0c-3.3-5.7-10.6-7.7-16.3-4.4l-25.5,14.7
			c-5.7,3.3-7.7,10.6-4.4,16.3l0,0C837.2,1325.5,844.5,1327.5,850.2,1324.2z"/>
		<path class="st2" d="M821.4,1302.1l25.5-14.7c5.7-3.3,7.7-10.6,4.4-16.3v0c-3.3-5.7-10.6-7.7-16.3-4.4l-25.5,14.7
			c-5.7,3.3-7.7,10.6-4.4,16.3l0,0C808.4,1303.5,815.7,1305.4,821.4,1302.1z"/>
		<g>
			
				<rect x="799.9" y="1069.1" transform="matrix(-1 -1.224647e-16 1.224647e-16 -1 1681.0558 2213.1577)" class="st8" width="81.2" height="74.9"/>
			<path class="st8" d="M844.3,1091.9c0,0,0.1,77,0.1,97.8c0,20.8-8.6,119-8.6,119c-0.1,11,14.2,9.1,15.9,3.2
				c0,0,29.5-101.3,29.5-130.3c0-29,0-89.7,0-89.7H844.3z"/>
			<path class="st8" d="M799.9,1091.9c0,0,0.1,40.9,0.1,61.7s7.8,132.3,7.8,132.3c0,8.6,14.4,11.7,15.9,3.2c0,0,13-106.1,13-135.1
				s0-62.1,0-62.1H799.9z"/>
		</g>
		
			<ellipse transform="matrix(0.1445 -0.9895 0.9895 0.1445 -173.7323 1609.6808)" class="st6" cx="844" cy="905.3" rx="32.3" ry="32.3"/>
		<path class="st1" d="M886.3,1101.1c0,0,0-96.6,0-119.5c0-22.9-26.2-36.8-45.8-36.8c-19.6,0-45,10.6-45,32.7c0,22.1,0,47.9,0,101.5
			S886.3,1101.1,886.3,1101.1z"/>
		
			<ellipse transform="matrix(0.9991 -4.166235e-02 4.166235e-02 0.9991 -39.1514 35.8552)" class="st8" cx="840.7" cy="957.3" rx="22.3" ry="13.1"/>
		<path class="st6" d="M852.5,925l2.3,30.8c0.3,4.4-5.4,8.5-12.9,9.1c-7.4,0.6-13.7-2.6-14.1-7l-2.3-30.8L852.5,925z"/>
		<g>
			
				<ellipse transform="matrix(0.5412 -0.8409 0.8409 0.5412 -516.1447 1274.4998)" class="st6" cx="909.8" cy="1110.2" rx="9.5" ry="9.5"/>
			<path class="st6" d="M862.9,1007.2c0,0,0.9,34.8,5.7,48.7c4.8,13.9,34.3,54.8,34.3,54.8l10.8-5.6c0,0-20.5-42.6-23.9-56
				c-3.4-13.4-4.9-43-4.9-43L862.9,1007.2z"/>
			<path class="st0" d="M886,978.7l2.2,42.2c0.3,6.1-5.5,11.3-12.9,11.7c-7.5,0.4-13.7-4.2-14.1-10.3l-2.2-42.2
				C858.1,961.6,885.2,960,886,978.7z"/>
		</g>
	</g>
	<path class="st7" d="M862.6,895.3c-5,6.4,1.2,14.1-1.3,21.4c-3.5,10.4-24.4,19.6-38.8,10.8c-14-8.5-12-28.4-11.7-31.1
		c0.3-2.8,2.2-16.6,14.1-24.9c15.8-11,40.4-5.9,45.2,4.5c1.4,3.1,1.9,8.5-0.4,12.6C867.7,892.4,865,892.2,862.6,895.3z"/>
	<circle class="st7" cx="858.7" cy="874.5" r="19"/>
</g>
<g>
	<g>
		<polygon class="st13" points="1123.2,1024.2 935,1139 1259.6,1321.6 1455.5,1211.3 		"/>
	</g>
	<g>
		<g>
			<polygon class="st14" points="1123.2,598.4 1455.5,406.6 1787,591.5 1455.5,790.3 			"/>
			<polygon class="st0" points="1455.5,451.9 1455.5,430.7 1749.1,598.4 1749.1,619.6 			"/>
			<polygon class="st0" points="1455.5,430.7 1455.5,451.9 1160.7,623.9 1160.7,602.7 			"/>
			<polygon class="st0" points="1455.5,1211.3 1787,1025.8 1787,591.5 1455.5,789.7 			"/>
			<linearGradient id="SVGID_1_" gradientUnits="userSpaceOnUse" x1="1123.2161" y1="904.8402" x2="1455.4712" y2="904.8402">
				<stop  offset="0" style="stop-color:#E1E6F0"/>
				<stop  offset="1" style="stop-color:#FFFFFF"/>
			</linearGradient>
			<polygon class="st11" points="1123.2,598.4 1123.2,1024.2 1455.5,1211.3 1455.5,789.7 			"/>
			<polygon class="st1" points="1787,591.5 1455.5,789.7 1455.5,749.6 1751.9,572 			"/>
			<polygon class="st1" points="1123.6,598.4 1455.1,789.7 1455.1,752.4 1158.6,581.6 			"/>
			<linearGradient id="SVGID_2_" gradientUnits="userSpaceOnUse" x1="1194.3152" y1="602.1368" x2="1709.8726" y2="602.1368">
				<stop  offset="6.300000e-07" style="stop-color:#FFFFFF"/>
				<stop  offset="1" style="stop-color:#E1E6F0"/>
			</linearGradient>
			<polygon class="st12" points="1455.5,451.9 1709.9,597.2 1455.1,752.4 1194.3,602.1 			"/>
		</g>
	</g>
	<g>
		<g>
			<g>
				<g>
					<g>
						<g>
							<g>
								<polygon class="st17" points="1746.3,732.3 1746.3,669.5 1692,701.4 1692,764.7 								"/>
								<polygon class="st2" points="1708,700.6 1710.7,699 1717.5,695 1723,691.8 1738.8,682.5 1738.8,700.8 1738.8,707.2 
									1738.8,715.1 1738.8,718.3 1738.8,728.1 1734.5,730.7 1727.7,734.7 1725.2,736.2 1722.9,737.6 1699.5,751.6 1699.5,724.2 
									1699.5,721.5 1699.5,718.6 1699.5,710.6 1699.5,705.6 								"/>
								<g>
									<g>
										<polygon class="st5" points="1710.7,699 1738.8,715.1 1738.8,718.3 1708,700.6 										"/>
										<polygon class="st5" points="1717.5,695 1738.8,707.2 1738.8,715.1 1710.7,699 										"/>
										<polygon class="st5" points="1723,691.8 1738.8,700.8 1738.8,707.2 1717.5,695 										"/>
										<polygon class="st5" points="1738.8,682.5 1738.8,700.8 1723,691.8 										"/>
										<polygon class="st5" points="1699.5,710.6 1734.5,730.7 1727.7,734.7 1699.5,718.6 										"/>
										<polygon class="st5" points="1699.5,705.6 1708,700.6 1738.8,718.3 1738.8,728.1 1734.5,730.7 1699.5,710.6 										"/>
										<polygon class="st5" points="1699.5,724.2 1722.9,737.6 1699.5,751.6 										"/>
										<polygon class="st5" points="1699.5,721.5 1725.2,736.2 1722.9,737.6 1699.5,724.2 										"/>
										<polygon class="st5" points="1699.5,718.6 1727.7,734.7 1725.2,736.2 1699.5,721.5 										"/>
									</g>
								</g>
								<polygon class="st18" points="1692,701.4 1699.5,705.6 1738.8,682.5 1746.3,669.5 								"/>
								<polygon class="st18" points="1692,764.7 1699.5,751.6 1738.8,728.1 1746.3,732.3 								"/>
								<polygon class="st17" points="1738.8,728.1 1736.7,726.3 1699.5,748.6 1699.5,751.6 								"/>
								<polygon class="st18" points="1736.7,726.3 1736.7,683.7 1738.8,682.5 1738.8,728.1 								"/>
								<polygon class="st18" points="1692,764.7 1689.1,763 1689.1,699.4 1692,701.4 								"/>
								<polygon class="st17" points="1746.3,669.5 1743.5,667.5 1689.1,699.4 1692,701.4 								"/>
							</g>
						</g>
					</g>
				</g>
				<g>
					<g>
						<g>
							<g>
								<polygon class="st17" points="1746.3,787.1 1746.3,724.3 1692,756.2 1692,819.5 								"/>
								<polygon class="st2" points="1708,755.4 1710.7,753.8 1717.5,749.8 1723,746.6 1738.8,737.3 1738.8,755.6 1738.8,762 
									1738.8,769.9 1738.8,773.1 1738.8,782.9 1734.5,785.5 1727.7,789.5 1725.2,791 1722.9,792.4 1699.5,806.4 1699.5,779 
									1699.5,776.3 1699.5,773.4 1699.5,765.4 1699.5,760.4 								"/>
								<g>
									<g>
										<polygon class="st5" points="1710.7,753.8 1738.8,769.9 1738.8,773.1 1708,755.4 										"/>
										<polygon class="st5" points="1717.5,749.8 1738.8,762 1738.8,769.9 1710.7,753.8 										"/>
										<polygon class="st5" points="1723,746.6 1738.8,755.6 1738.8,762 1717.5,749.8 										"/>
										<polygon class="st5" points="1738.8,737.3 1738.8,755.6 1723,746.6 										"/>
										<polygon class="st5" points="1699.5,765.4 1734.5,785.5 1727.7,789.5 1699.5,773.4 										"/>
										<polygon class="st5" points="1699.5,760.4 1708,755.4 1738.8,773.1 1738.8,782.9 1734.5,785.5 1699.5,765.4 										"/>
										<polygon class="st5" points="1699.5,779 1722.9,792.4 1699.5,806.4 										"/>
										<polygon class="st5" points="1699.5,776.3 1725.2,791 1722.9,792.4 1699.5,779 										"/>
										<polygon class="st5" points="1699.5,773.4 1727.7,789.5 1725.2,791 1699.5,776.3 										"/>
									</g>
								</g>
								<polygon class="st18" points="1692,756.2 1699.5,760.4 1738.8,737.3 1746.3,724.3 								"/>
								<polygon class="st18" points="1692,819.5 1699.5,806.4 1738.8,782.9 1746.3,787.1 								"/>
								<polygon class="st17" points="1738.8,782.9 1736.7,781.1 1699.5,803.3 1699.5,806.4 								"/>
								<polygon class="st18" points="1736.7,781.1 1736.7,738.5 1738.8,737.3 1738.8,782.9 								"/>
								<polygon class="st18" points="1692,819.5 1689.1,817.8 1689.1,754.2 1692,756.2 								"/>
								<polygon class="st17" points="1746.3,724.3 1743.5,722.3 1689.1,754.2 1692,756.2 								"/>
							</g>
						</g>
					</g>
				</g>
			</g>
			<g>
				<g>
					<g>
						<g>
							<g>
								<polygon class="st17" points="1553.4,850.7 1553.4,787.9 1499.1,819.8 1499.1,883.1 								"/>
								<polygon class="st2" points="1515,819 1517.8,817.4 1524.6,813.4 1530.1,810.2 1545.9,800.9 1545.9,819.2 1545.9,825.6 
									1545.9,833.5 1545.9,836.7 1545.9,846.5 1541.6,849.1 1534.8,853.1 1532.3,854.6 1530,856 1506.6,870 1506.6,842.6 
									1506.6,839.9 1506.6,837 1506.6,829 1506.6,824 								"/>
								<g>
									<g>
										<polygon class="st5" points="1517.8,817.4 1545.9,833.5 1545.9,836.7 1515,819 										"/>
										<polygon class="st5" points="1524.6,813.4 1545.9,825.6 1545.9,833.5 1517.8,817.4 										"/>
										<polygon class="st5" points="1530.1,810.2 1545.9,819.2 1545.9,825.6 1524.6,813.4 										"/>
										<polygon class="st5" points="1545.9,800.9 1545.9,819.2 1530.1,810.2 										"/>
										<polygon class="st5" points="1506.6,829 1541.6,849.1 1534.8,853.1 1506.6,837 										"/>
										<polygon class="st5" points="1506.6,824 1515,819 1545.9,836.7 1545.9,846.5 1541.6,849.1 1506.6,829 										"/>
										<polygon class="st5" points="1506.6,842.6 1530,856 1506.6,870 										"/>
										<polygon class="st5" points="1506.6,839.9 1532.3,854.6 1530,856 1506.6,842.6 										"/>
										<polygon class="st5" points="1506.6,837 1534.8,853.1 1532.3,854.6 1506.6,839.9 										"/>
									</g>
								</g>
								<polygon class="st18" points="1499.1,819.8 1506.6,824 1545.9,800.9 1553.4,787.9 								"/>
								<polygon class="st18" points="1499.1,883.1 1506.6,870 1545.9,846.5 1553.4,850.7 								"/>
								<polygon class="st17" points="1545.9,846.5 1543.8,844.7 1506.6,867 1506.6,870 								"/>
								<polygon class="st18" points="1543.8,844.7 1543.8,802.1 1545.9,800.9 1545.9,846.5 								"/>
								<polygon class="st18" points="1499.1,883.1 1496.2,881.4 1496.2,817.8 1499.1,819.8 								"/>
								<polygon class="st17" points="1553.4,787.9 1550.6,785.9 1496.2,817.8 1499.1,819.8 								"/>
							</g>
						</g>
					</g>
				</g>
				<g>
					<g>
						<g>
							<g>
								<polygon class="st17" points="1553.4,905.5 1553.4,842.7 1499.1,874.6 1499.1,937.9 								"/>
								<polygon class="st2" points="1515,873.8 1517.8,872.2 1524.6,868.2 1530.1,865 1545.9,855.7 1545.9,874 1545.9,880.4 
									1545.9,888.3 1545.9,891.5 1545.9,901.3 1541.6,903.9 1534.8,907.9 1532.3,909.4 1530,910.8 1506.6,924.8 1506.6,897.4 
									1506.6,894.7 1506.6,891.8 1506.6,883.8 1506.6,878.8 								"/>
								<g>
									<g>
										<polygon class="st5" points="1517.8,872.2 1545.9,888.3 1545.9,891.5 1515,873.8 										"/>
										<polygon class="st5" points="1524.6,868.2 1545.9,880.4 1545.9,888.3 1517.8,872.2 										"/>
										<polygon class="st5" points="1530.1,865 1545.9,874 1545.9,880.4 1524.6,868.2 										"/>
										<polygon class="st5" points="1545.9,855.7 1545.9,874 1530.1,865 										"/>
										<polygon class="st5" points="1506.6,883.8 1541.6,903.9 1534.8,907.9 1506.6,891.8 										"/>
										<polygon class="st5" points="1506.6,878.8 1515,873.8 1545.9,891.5 1545.9,901.3 1541.6,903.9 1506.6,883.8 										"/>
										<polygon class="st5" points="1506.6,897.4 1530,910.8 1506.6,924.8 										"/>
										<polygon class="st5" points="1506.6,894.7 1532.3,909.4 1530,910.8 1506.6,897.4 										"/>
										<polygon class="st5" points="1506.6,891.8 1534.8,907.9 1532.3,909.4 1506.6,894.7 										"/>
									</g>
								</g>
								<polygon class="st18" points="1499.1,874.6 1506.6,878.8 1545.9,855.7 1553.4,842.7 								"/>
								<polygon class="st18" points="1499.1,937.9 1506.6,924.8 1545.9,901.3 1553.4,905.5 								"/>
								<polygon class="st17" points="1545.9,901.3 1543.8,899.5 1506.6,921.7 1506.6,924.8 								"/>
								<polygon class="st18" points="1543.8,899.5 1543.8,856.9 1545.9,855.7 1545.9,901.3 								"/>
								<polygon class="st18" points="1499.1,937.9 1496.2,936.2 1496.2,872.6 1499.1,874.6 								"/>
								<polygon class="st17" points="1553.4,842.7 1550.6,840.7 1496.2,872.6 1499.1,874.6 								"/>
							</g>
						</g>
					</g>
				</g>
			</g>
		</g>
		<g>
			<g>
				<g>
					<g>
						<g>
							<g>
								<polygon class="st17" points="1746.3,913.9 1746.3,851.1 1692,883 1692,946.3 								"/>
								<polygon class="st2" points="1708,882.2 1710.7,880.6 1717.5,876.6 1723,873.4 1738.8,864.1 1738.8,882.4 1738.8,888.8 
									1738.8,896.7 1738.8,899.9 1738.8,909.7 1734.5,912.3 1727.7,916.3 1725.2,917.8 1722.9,919.2 1699.5,933.2 1699.5,905.8 
									1699.5,903.1 1699.5,900.2 1699.5,892.2 1699.5,887.2 								"/>
								<g>
									<g>
										<polygon class="st5" points="1710.7,880.6 1738.8,896.7 1738.8,899.9 1708,882.2 										"/>
										<polygon class="st5" points="1717.5,876.6 1738.8,888.8 1738.8,896.7 1710.7,880.6 										"/>
										<polygon class="st5" points="1723,873.4 1738.8,882.4 1738.8,888.8 1717.5,876.6 										"/>
										<polygon class="st5" points="1738.8,864.1 1738.8,882.4 1723,873.4 										"/>
										<polygon class="st5" points="1699.5,892.2 1734.5,912.3 1727.7,916.3 1699.5,900.2 										"/>
										<polygon class="st5" points="1699.5,887.2 1708,882.2 1738.8,899.9 1738.8,909.7 1734.5,912.3 1699.5,892.2 										"/>
										<polygon class="st5" points="1699.5,905.8 1722.9,919.2 1699.5,933.2 										"/>
										<polygon class="st5" points="1699.5,903.1 1725.2,917.8 1722.9,919.2 1699.5,905.8 										"/>
										<polygon class="st5" points="1699.5,900.2 1727.7,916.3 1725.2,917.8 1699.5,903.1 										"/>
									</g>
								</g>
								<polygon class="st18" points="1692,883 1699.5,887.2 1738.8,864.1 1746.3,851.1 								"/>
								<polygon class="st18" points="1692,946.3 1699.5,933.2 1738.8,909.7 1746.3,913.9 								"/>
								<polygon class="st17" points="1738.8,909.7 1736.7,907.9 1699.5,930.1 1699.5,933.2 								"/>
								<polygon class="st18" points="1736.7,907.9 1736.7,865.3 1738.8,864.1 1738.8,909.7 								"/>
								<polygon class="st18" points="1692,946.3 1689.1,944.6 1689.1,881 1692,883 								"/>
								<polygon class="st17" points="1746.3,851.1 1743.5,849.1 1689.1,881 1692,883 								"/>
							</g>
						</g>
					</g>
				</g>
				<g>
					<g>
						<g>
							<g>
								<polygon class="st17" points="1746.3,968.7 1746.3,905.9 1692,937.8 1692,1001.1 								"/>
								<polygon class="st2" points="1708,937 1710.7,935.4 1717.5,931.4 1723,928.2 1738.8,918.9 1738.8,937.2 1738.8,943.6 
									1738.8,951.5 1738.8,954.7 1738.8,964.5 1734.5,967.1 1727.7,971.1 1725.2,972.6 1722.9,974 1699.5,987.9 1699.5,960.6 
									1699.5,957.9 1699.5,955 1699.5,947 1699.5,942 								"/>
								<g>
									<g>
										<polygon class="st5" points="1710.7,935.4 1738.8,951.5 1738.8,954.7 1708,937 										"/>
										<polygon class="st5" points="1717.5,931.4 1738.8,943.6 1738.8,951.5 1710.7,935.4 										"/>
										<polygon class="st5" points="1723,928.2 1738.8,937.2 1738.8,943.6 1717.5,931.4 										"/>
										<polygon class="st5" points="1738.8,918.9 1738.8,937.2 1723,928.2 										"/>
										<polygon class="st5" points="1699.5,947 1734.5,967.1 1727.7,971.1 1699.5,955 										"/>
										<polygon class="st5" points="1699.5,942 1708,937 1738.8,954.7 1738.8,964.5 1734.5,967.1 1699.5,947 										"/>
										<polygon class="st5" points="1699.5,960.6 1722.9,974 1699.5,987.9 										"/>
										<polygon class="st5" points="1699.5,957.9 1725.2,972.6 1722.9,974 1699.5,960.6 										"/>
										<polygon class="st5" points="1699.5,955 1727.7,971.1 1725.2,972.6 1699.5,957.9 										"/>
									</g>
								</g>
								<polygon class="st18" points="1692,937.8 1699.5,942 1738.8,918.9 1746.3,905.9 								"/>
								<polygon class="st18" points="1692,1001.1 1699.5,987.9 1738.8,964.5 1746.3,968.7 								"/>
								<polygon class="st17" points="1738.8,964.5 1736.7,962.7 1699.5,984.9 1699.5,987.9 								"/>
								<polygon class="st18" points="1736.7,962.7 1736.7,920.1 1738.8,918.9 1738.8,964.5 								"/>
								<polygon class="st18" points="1692,1001.1 1689.1,999.4 1689.1,935.8 1692,937.8 								"/>
								<polygon class="st17" points="1746.3,905.9 1743.5,903.9 1689.1,935.8 1692,937.8 								"/>
							</g>
						</g>
					</g>
				</g>
			</g>
			<g>
				<g>
					<g>
						<g>
							<g>
								<polygon class="st17" points="1553.4,1032.3 1553.4,969.5 1499.1,1001.4 1499.1,1064.7 								"/>
								<polygon class="st2" points="1515,1000.6 1517.8,999 1524.6,995 1530.1,991.8 1545.9,982.5 1545.9,1000.8 1545.9,1007.2 
									1545.9,1015.1 1545.9,1018.3 1545.9,1028.1 1541.6,1030.7 1534.8,1034.7 1532.3,1036.2 1530,1037.6 1506.6,1051.6 
									1506.6,1024.2 1506.6,1021.5 1506.6,1018.6 1506.6,1010.6 1506.6,1005.6 								"/>
								<g>
									<g>
										<polygon class="st5" points="1517.8,999 1545.9,1015.1 1545.9,1018.3 1515,1000.6 										"/>
										<polygon class="st5" points="1524.6,995 1545.9,1007.2 1545.9,1015.1 1517.8,999 										"/>
										<polygon class="st5" points="1530.1,991.8 1545.9,1000.8 1545.9,1007.2 1524.6,995 										"/>
										<polygon class="st5" points="1545.9,982.5 1545.9,1000.8 1530.1,991.8 										"/>
										<polygon class="st5" points="1506.6,1010.6 1541.6,1030.7 1534.8,1034.7 1506.6,1018.6 										"/>
										<polygon class="st5" points="1506.6,1005.6 1515,1000.6 1545.9,1018.3 1545.9,1028.1 1541.6,1030.7 1506.6,1010.6 
																					"/>
										<polygon class="st5" points="1506.6,1024.2 1530,1037.6 1506.6,1051.6 										"/>
										<polygon class="st5" points="1506.6,1021.5 1532.3,1036.2 1530,1037.6 1506.6,1024.2 										"/>
										<polygon class="st5" points="1506.6,1018.6 1534.8,1034.7 1532.3,1036.2 1506.6,1021.5 										"/>
									</g>
								</g>
								<polygon class="st18" points="1499.1,1001.4 1506.6,1005.6 1545.9,982.5 1553.4,969.5 								"/>
								<polygon class="st18" points="1499.1,1064.7 1506.6,1051.6 1545.9,1028.1 1553.4,1032.3 								"/>
								<polygon class="st17" points="1545.9,1028.1 1543.8,1026.3 1506.6,1048.6 1506.6,1051.6 								"/>
								<polygon class="st18" points="1543.8,1026.3 1543.8,983.7 1545.9,982.5 1545.9,1028.1 								"/>
								<polygon class="st18" points="1499.1,1064.7 1496.2,1063 1496.2,999.4 1499.1,1001.4 								"/>
								<polygon class="st17" points="1553.4,969.5 1550.6,967.5 1496.2,999.4 1499.1,1001.4 								"/>
							</g>
						</g>
					</g>
				</g>
				<g>
					<g>
						<g>
							<g>
								<polygon class="st17" points="1553.4,1087.1 1553.4,1024.3 1499.1,1056.2 1499.1,1119.5 								"/>
								<polygon class="st2" points="1515,1055.4 1517.8,1053.8 1524.6,1049.8 1530.1,1046.6 1545.9,1037.3 1545.9,1055.6 
									1545.9,1062 1545.9,1069.9 1545.9,1073.1 1545.9,1082.9 1541.6,1085.5 1534.8,1089.5 1532.3,1091 1530,1092.4 
									1506.6,1106.3 1506.6,1079 1506.6,1076.3 1506.6,1073.4 1506.6,1065.4 1506.6,1060.4 								"/>
								<g>
									<g>
										<polygon class="st5" points="1517.8,1053.8 1545.9,1069.9 1545.9,1073.1 1515,1055.4 										"/>
										<polygon class="st5" points="1524.6,1049.8 1545.9,1062 1545.9,1069.9 1517.8,1053.8 										"/>
										<polygon class="st5" points="1530.1,1046.6 1545.9,1055.6 1545.9,1062 1524.6,1049.8 										"/>
										<polygon class="st5" points="1545.9,1037.3 1545.9,1055.6 1530.1,1046.6 										"/>
										<polygon class="st5" points="1506.6,1065.4 1541.6,1085.5 1534.8,1089.5 1506.6,1073.4 										"/>
										<polygon class="st5" points="1506.6,1060.4 1515,1055.4 1545.9,1073.1 1545.9,1082.9 1541.6,1085.5 1506.6,1065.4 
																					"/>
										<polygon class="st5" points="1506.6,1079 1530,1092.4 1506.6,1106.3 										"/>
										<polygon class="st5" points="1506.6,1076.3 1532.3,1091 1530,1092.4 1506.6,1079 										"/>
										<polygon class="st5" points="1506.6,1073.4 1534.8,1089.5 1532.3,1091 1506.6,1076.3 										"/>
									</g>
								</g>
								<polygon class="st18" points="1499.1,1056.2 1506.6,1060.4 1545.9,1037.3 1553.4,1024.3 								"/>
								<polygon class="st18" points="1499.1,1119.5 1506.6,1106.3 1545.9,1082.9 1553.4,1087.1 								"/>
								<polygon class="st17" points="1545.9,1082.9 1543.8,1081.1 1506.6,1103.3 1506.6,1106.3 								"/>
								<polygon class="st18" points="1543.8,1081.1 1543.8,1038.5 1545.9,1037.3 1545.9,1082.9 								"/>
								<polygon class="st18" points="1499.1,1119.5 1496.2,1117.8 1496.2,1054.2 1499.1,1056.2 								"/>
								<polygon class="st17" points="1553.4,1024.3 1550.6,1022.3 1496.2,1054.2 1499.1,1056.2 								"/>
							</g>
						</g>
					</g>
				</g>
			</g>
		</g>
	</g>
	<g>
		<g>
			<g>
				<g>
					<polygon class="st17" points="1354.4,848 1354.4,785.1 1408.7,817 1408.7,880.4 					"/>
					<polygon class="st2" points="1392.7,816.3 1390,814.7 1383.2,810.7 1377.6,807.4 1361.9,798.2 1361.9,816.5 1361.9,822.9 
						1361.9,830.8 1361.9,833.9 1361.9,843.8 1366.2,846.3 1373,850.4 1375.5,851.9 1377.8,853.3 1401.2,867.2 1401.2,839.9 
						1401.2,837.2 1401.2,834.2 1401.2,826.3 1401.2,821.3 					"/>
					<g>
						<g>
							<polygon class="st5" points="1390,814.7 1361.9,830.8 1361.9,833.9 1392.7,816.3 							"/>
							<polygon class="st5" points="1383.2,810.7 1361.9,822.9 1361.9,830.8 1390,814.7 							"/>
							<polygon class="st5" points="1377.6,807.4 1361.9,816.5 1361.9,822.9 1383.2,810.7 							"/>
							<polygon class="st5" points="1361.9,798.2 1361.9,816.5 1377.6,807.4 							"/>
							<polygon class="st5" points="1401.2,826.3 1366.2,846.3 1373,850.4 1401.2,834.2 							"/>
							<polygon class="st5" points="1401.2,821.3 1392.7,816.3 1361.9,833.9 1361.9,843.8 1366.2,846.3 1401.2,826.3 							"/>
							<polygon class="st5" points="1401.2,839.9 1377.8,853.3 1401.2,867.2 							"/>
							<polygon class="st5" points="1401.2,837.2 1375.5,851.9 1377.8,853.3 1401.2,839.9 							"/>
							<polygon class="st5" points="1401.2,834.2 1373,850.4 1375.5,851.9 1401.2,837.2 							"/>
						</g>
					</g>
					<polygon class="st18" points="1408.7,817 1401.2,821.3 1361.9,798.2 1354.4,785.1 					"/>
					<polygon class="st18" points="1408.7,880.4 1401.2,867.2 1361.9,843.8 1354.4,848 					"/>
					<polygon class="st17" points="1361.9,843.8 1364,842 1401.2,864.2 1401.2,867.2 					"/>
					<polygon class="st18" points="1364,842 1364,799.4 1361.9,798.2 1361.9,843.8 					"/>
					<polygon class="st18" points="1408.7,880.4 1411.6,878.7 1411.6,815.1 1408.7,817 					"/>
					<polygon class="st17" points="1354.4,785.1 1357.2,783.1 1411.6,815.1 1408.7,817 					"/>
				</g>
			</g>
		</g>
	</g>
	<g>
		<g>
			<g>
				<g>
					<polygon class="st17" points="1249.9,791 1249.9,728.1 1304.2,760 1304.2,823.4 					"/>
					<polygon class="st2" points="1288.2,759.3 1285.5,757.7 1278.7,753.7 1273.1,750.4 1257.4,741.2 1257.4,759.4 1257.4,765.9 
						1257.4,773.8 1257.4,776.9 1257.4,786.8 1261.7,789.3 1268.5,793.4 1271,794.9 1273.3,796.3 1296.7,810.2 1296.7,782.9 
						1296.7,780.1 1296.7,777.2 1296.7,769.3 1296.7,764.3 					"/>
					<g>
						<g>
							<polygon class="st5" points="1285.5,757.7 1257.4,773.8 1257.4,776.9 1288.2,759.3 							"/>
							<polygon class="st5" points="1278.7,753.7 1257.4,765.9 1257.4,773.8 1285.5,757.7 							"/>
							<polygon class="st5" points="1273.1,750.4 1257.4,759.4 1257.4,765.9 1278.7,753.7 							"/>
							<polygon class="st5" points="1257.4,741.2 1257.4,759.4 1273.1,750.4 							"/>
							<polygon class="st5" points="1296.7,769.3 1261.7,789.3 1268.5,793.4 1296.7,777.2 							"/>
							<polygon class="st5" points="1296.7,764.3 1288.2,759.3 1257.4,776.9 1257.4,786.8 1261.7,789.3 1296.7,769.3 							"/>
							<polygon class="st5" points="1296.7,782.9 1273.3,796.3 1296.7,810.2 							"/>
							<polygon class="st5" points="1296.7,780.1 1271,794.9 1273.3,796.3 1296.7,782.9 							"/>
							<polygon class="st5" points="1296.7,777.2 1268.5,793.4 1271,794.9 1296.7,780.1 							"/>
						</g>
					</g>
					<polygon class="st18" points="1304.2,760 1296.7,764.3 1257.4,741.2 1249.9,728.1 					"/>
					<polygon class="st18" points="1304.2,823.4 1296.7,810.2 1257.4,786.8 1249.9,791 					"/>
					<polygon class="st17" points="1257.4,786.8 1259.5,785 1296.7,807.2 1296.7,810.2 					"/>
					<polygon class="st18" points="1259.5,785 1259.5,742.4 1257.4,741.2 1257.4,786.8 					"/>
					<polygon class="st18" points="1304.2,823.4 1307.1,821.6 1307.1,758.1 1304.2,760 					"/>
					<polygon class="st17" points="1249.9,728.1 1252.7,726.1 1307.1,758.1 1304.2,760 					"/>
				</g>
			</g>
		</g>
	</g>
	<g>
		<g>
			<g>
				<g>
					<polygon class="st17" points="1149.9,736.2 1149.9,673.4 1204.2,705.3 1204.2,768.6 					"/>
					<polygon class="st2" points="1188.2,704.5 1185.5,702.9 1178.7,698.9 1173.1,695.7 1157.4,686.4 1157.4,704.7 1157.4,711.1 
						1157.4,719 1157.4,722.2 1157.4,732 1161.7,734.6 1168.5,738.6 1171,740.1 1173.3,741.5 1196.7,755.5 1196.7,728.1 
						1196.7,725.4 1196.7,722.5 1196.7,714.5 1196.7,709.5 					"/>
					<g>
						<g>
							<polygon class="st5" points="1185.5,702.9 1157.4,719 1157.4,722.2 1188.2,704.5 							"/>
							<polygon class="st5" points="1178.7,698.9 1157.4,711.1 1157.4,719 1185.5,702.9 							"/>
							<polygon class="st5" points="1173.1,695.7 1157.4,704.7 1157.4,711.1 1178.7,698.9 							"/>
							<polygon class="st5" points="1157.4,686.4 1157.4,704.7 1173.1,695.7 							"/>
							<polygon class="st5" points="1196.7,714.5 1161.7,734.6 1168.5,738.6 1196.7,722.5 							"/>
							<polygon class="st5" points="1196.7,709.5 1188.2,704.5 1157.4,722.2 1157.4,732 1161.7,734.6 1196.7,714.5 							"/>
							<polygon class="st5" points="1196.7,728.1 1173.3,741.5 1196.7,755.5 							"/>
							<polygon class="st5" points="1196.7,725.4 1171,740.1 1173.3,741.5 1196.7,728.1 							"/>
							<polygon class="st5" points="1196.7,722.5 1168.5,738.6 1171,740.1 1196.7,725.4 							"/>
						</g>
					</g>
					<polygon class="st18" points="1204.2,705.3 1196.7,709.5 1157.4,686.4 1149.9,673.4 					"/>
					<polygon class="st18" points="1204.2,768.6 1196.7,755.5 1157.4,732 1149.9,736.2 					"/>
					<polygon class="st17" points="1157.4,732 1159.5,730.2 1196.7,752.4 1196.7,755.5 					"/>
					<polygon class="st18" points="1159.5,730.2 1159.5,687.6 1157.4,686.4 1157.4,732 					"/>
					<polygon class="st18" points="1204.2,768.6 1207.1,766.9 1207.1,703.3 1204.2,705.3 					"/>
					<polygon class="st17" points="1149.9,673.4 1152.7,671.4 1207.1,703.3 1204.2,705.3 					"/>
				</g>
			</g>
		</g>
	</g>
	<g>
		<g>
			<g>
				<g>
					<g>
						<polygon class="st17" points="1236.6,1063.5 1236.6,913 1280.3,938.7 1280.3,1089.6 						"/>
						<polygon class="st2" points="1267.5,938.1 1265.3,936.8 1259.8,933.6 1255.3,931 1242.7,923.5 1242.7,938.2 1242.7,943.4 
							1242.7,949.8 1242.7,1061 1242.7,1060.1 1246.1,1062.2 1251.6,1065.4 1253.6,1066.6 1255.5,1067.7 1274.3,1079 1274.3,1057 
							1274.3,1054.8 1274.3,1061.2 1274.3,946.2 1274.3,942.1 						"/>
						<g>
							<polygon class="st5" points="1242.7,1030.5 1274.3,1012.4 1274.3,1009.1 1242.7,1027.2 							"/>
							<polygon class="st5" points="1242.7,1027.2 1274.3,1009.1 1274.3,974.9 1242.7,993 							"/>
							<polygon class="st5" points="1242.7,1054.2 1274.3,1036.1 1274.3,1019.1 1242.7,1037.2 							"/>
							<polygon class="st5" points="1242.7,1037.2 1274.3,1019.1 1274.3,1012.4 1242.7,1030.5 							"/>
							<polygon class="st5" points="1242.7,1061 1242.7,1060.1 1246.1,1062.2 1251.6,1065.4 1253.6,1066.6 1255.5,1067.7 
								1274.3,1079 1274.3,1057 1274.3,1054.8 1274.3,1061.2 1274.3,1036.1 1242.7,1054.2 							"/>
							<polygon class="st5" points="1242.7,993 1274.3,974.9 1274.3,971.5 1242.7,989.7 							"/>
							<polygon class="st5" points="1255.3,931 1242.7,923.5 1242.7,938.2 1242.7,943.3 1259.7,933.5 							"/>
							<polygon class="st5" points="1242.7,989.7 1274.3,971.5 1274.3,964.9 1242.7,983 							"/>
							<polygon class="st5" points="1259.8,933.6 1259.7,933.5 1242.7,943.3 1242.7,943.4 1242.7,949.8 1242.7,949.9 1265.4,936.9 
								1265.3,936.8 							"/>
							<polygon class="st5" points="1242.7,983 1274.3,964.9 1274.3,958.9 1242.7,977 							"/>
							<polygon class="st5" points="1242.7,977 1274.3,958.9 1274.3,946.2 1274.3,942.1 1267.5,938.1 1265.4,936.9 1242.7,949.9 
															"/>
						</g>
						<polygon class="st18" points="1280.3,938.7 1274.3,942.1 1242.7,923.5 1236.6,913 						"/>
						<polygon class="st18" points="1280.3,1089.6 1274.3,1079 1242.7,1060.1 1236.6,1063.5 						"/>
						<polygon class="st17" points="1242.7,1060.1 1244.4,1058.7 1274.3,1076.6 1274.3,1079 						"/>
						<polygon class="st18" points="1244.4,1058.7 1244.4,924.5 1242.7,923.5 1242.7,1060.1 						"/>
						<polygon class="st18" points="1280.3,1089.6 1282.7,1088.2 1282.7,937.1 1280.3,938.7 						"/>
						<polygon class="st17" points="1236.6,913 1238.9,911.4 1282.7,937.1 1280.3,938.7 						"/>
					</g>
				</g>
			</g>
		</g>
		<g>
			<g>
				<g>
					<g>
						<polygon class="st17" points="1274.3,1085.6 1274.3,935.2 1318,960.8 1318,1111.7 						"/>
						<polygon class="st2" points="1305.2,960.3 1303,959 1297.5,955.7 1293,953.1 1280.3,945.7 1280.3,960.4 1280.3,965.6 
							1280.3,971.9 1280.3,1083.1 1280.3,1082.2 1283.8,1084.3 1289.3,1087.6 1291.3,1088.8 1293.1,1089.9 1312,1101.1 1312,1079.1 
							1312,1076.9 1312,1083.3 1312,968.3 1312,964.3 						"/>
						<g>
							<polygon class="st5" points="1280.3,1052.6 1312,1034.5 1312,1031.2 1280.3,1049.3 							"/>
							<polygon class="st5" points="1280.3,1049.3 1312,1031.2 1312,997.1 1280.3,1015.2 							"/>
							<polygon class="st5" points="1280.3,1076.4 1312,1058.3 1312,1041.2 1280.3,1059.4 							"/>
							<polygon class="st5" points="1280.3,1059.4 1312,1041.2 1312,1034.5 1280.3,1052.6 							"/>
							<polygon class="st5" points="1280.3,1083.1 1280.3,1082.2 1283.8,1084.3 1289.3,1087.6 1291.3,1088.8 1293.1,1089.9 
								1312,1101.1 1312,1079.1 1312,1076.9 1312,1083.3 1312,1058.3 1280.3,1076.4 							"/>
							<polygon class="st5" points="1280.3,1015.2 1312,997.1 1312,993.7 1280.3,1011.8 							"/>
							<polygon class="st5" points="1293,953.1 1280.3,945.7 1280.3,960.4 1280.3,965.4 1297.4,955.7 							"/>
							<polygon class="st5" points="1280.3,1011.8 1312,993.7 1312,987 1280.3,1005.1 							"/>
							<polygon class="st5" points="1297.5,955.7 1297.4,955.7 1280.3,965.4 1280.3,965.6 1280.3,971.9 1280.3,972 1303.1,959 
								1303,959 							"/>
							<polygon class="st5" points="1280.3,1005.1 1312,987 1312,981 1280.3,999.1 							"/>
							<polygon class="st5" points="1280.3,999.1 1312,981 1312,968.3 1312,964.3 1305.2,960.3 1303.1,959 1280.3,972 							"/>
						</g>
						<polygon class="st18" points="1318,960.8 1312,964.3 1280.3,945.7 1274.3,935.2 						"/>
						<polygon class="st18" points="1318,1111.7 1312,1101.1 1280.3,1082.2 1274.3,1085.6 						"/>
						<polygon class="st17" points="1280.3,1082.2 1282,1080.8 1312,1098.7 1312,1101.1 						"/>
						<polygon class="st18" points="1282,1080.8 1282,946.6 1280.3,945.7 1280.3,1082.2 						"/>
						<polygon class="st18" points="1318,1111.7 1320.3,1110.3 1320.3,959.3 1318,960.8 						"/>
						<polygon class="st17" points="1274.3,935.2 1276.6,933.5 1320.3,959.3 1318,960.8 						"/>
					</g>
				</g>
			</g>
		</g>
	</g>
	<g>
		<g>
			<linearGradient id="SVGID_3_" gradientUnits="userSpaceOnUse" x1="1040.2921" y1="1136.2788" x2="1398.4094" y2="1136.2788">
				<stop  offset="6.300000e-07" style="stop-color:#FFFFFF"/>
				<stop  offset="1" style="stop-color:#E1E6F0"/>
			</linearGradient>
			<polygon class="st15" points="1040.3,1117.7 1179.6,1031 1398.4,1158.5 1259.6,1241.6 			"/>
			<polygon class="st0" points="1259.6,1257.6 1398.4,1177.8 1398.4,1158.5 1259.6,1241.2 			"/>
			<linearGradient id="SVGID_4_" gradientUnits="userSpaceOnUse" x1="1040.2921" y1="1187.6327" x2="1259.5513" y2="1187.6327">
				<stop  offset="0" style="stop-color:#E1E6F0"/>
				<stop  offset="1" style="stop-color:#FFFFFF"/>
			</linearGradient>
			<polygon class="st16" points="1040.3,1117.7 1040.3,1134.1 1259.6,1257.6 1259.6,1241.2 			"/>
		</g>
		<g>
			<linearGradient id="SVGID_5_" gradientUnits="userSpaceOnUse" x1="1040.2921" y1="883.0453" x2="1398.4094" y2="883.0453">
				<stop  offset="6.300000e-07" style="stop-color:#FFFFFF"/>
				<stop  offset="1" style="stop-color:#E1E6F0"/>
			</linearGradient>
			<polygon class="st19" points="1040.3,863.2 1179.6,779.2 1398.4,901.3 1259.6,986.9 			"/>
			<polygon class="st0" points="1259.6,1021.9 1398.4,937 1398.4,901.3 1259.6,986.4 			"/>
			<linearGradient id="SVGID_6_" gradientUnits="userSpaceOnUse" x1="1040.2921" y1="942.5588" x2="1259.5513" y2="942.5588">
				<stop  offset="0" style="stop-color:#E1E6F0"/>
				<stop  offset="1" style="stop-color:#FFFFFF"/>
			</linearGradient>
			<polygon class="st20" points="1040.3,863.2 1040.3,896 1259.6,1021.9 1259.6,986.4 			"/>
		</g>
	</g>
	<g>
		<polygon class="st0" points="1540.1,612.8 1640.1,558.7 1640.1,467.4 1540.1,527.4 		"/>
		<linearGradient id="SVGID_7_" gradientUnits="userSpaceOnUse" x1="1375.7913" y1="446.4055" x2="1622.0914" y2="446.4055">
			<stop  offset="6.300000e-07" style="stop-color:#FFFFFF"/>
			<stop  offset="1" style="stop-color:#E1E6F0"/>
		</linearGradient>
		<polygon class="st21" points="1375.8,422.2 1457.7,375.4 1622.1,470.6 1540.1,517.4 		"/>
		<polygon class="st24" points="1457.7,375.4 1457.7,360.4 1622.1,455.6 1622.1,470.6 		"/>
		<polygon class="st1" points="1457.7,360.4 1457.7,347 1648.2,457.4 1622.1,455.6 		"/>
		<polygon class="st1" points="1457.7,347 1350,409 1375.8,407.2 1457.7,360.4 		"/>
		<polygon class="st24" points="1457.7,360.4 1457.7,375.4 1375.8,422.2 1375.8,407.2 		"/>
		<polygon class="st1" points="1648.2,457.4 1540.1,517.3 1540.1,498.8 1622.1,455.6 		"/>
		<polygon class="st1" points="1375.8,407.2 1540.1,498.8 1540.1,517.3 1350,409 		"/>
		<polygon class="st24" points="1647.9,457.4 1647.9,466.6 1539.8,527.4 1539.8,517.3 		"/>
		<polygon class="st24" points="1540.1,527.4 1350,417.9 1350,409 1540.1,517.3 		"/>
		<linearGradient id="SVGID_8_" gradientUnits="userSpaceOnUse" x1="1357.4135" y1="517.488" x2="1540.1342" y2="517.488">
			<stop  offset="0" style="stop-color:#E1E6F0"/>
			<stop  offset="1" style="stop-color:#FFFFFF"/>
		</linearGradient>
		<polygon class="st22" points="1357.4,422.2 1357.4,509.6 1540.1,612.8 1540.1,527.4 		"/>
	</g>
</g>
<g>
	<g>
		<path class="st78" d="M889.3,442.2c-1.9,31.3-23.3,48.3-47.7,38c-24.4-10.3-42.7-44-40.7-75.2s23.3-48.3,47.7-38
			C873,377.3,891.2,410.9,889.3,442.2z"/>
		<path class="st84" d="M887,479.2c-1.9,31.3-23.3,48.3-47.7,38c-24.4-10.3-42.7-44-40.7-75.2c1.9-31.3,23.3-48.3,47.7-38
			C870.7,414.3,888.9,447.9,887,479.2z"/>
		<path class="st85" d="M912.7,469.7c-1.9,31.3-23.3,48.3-47.7,38c-24.4-10.3-42.7-44-40.7-75.2c1.9-31.3,23.3-48.3,47.7-38
			C896.3,404.7,914.6,438.4,912.7,469.7z"/>
		<path class="st78" d="M889.3,442.2c-1.9,31.3-23.3,48.3-47.7,38c-24.4-10.3-42.7-44-40.7-75.2s23.3-48.3,47.7-38
			C873,377.3,891.2,410.9,889.3,442.2z"/>
		<path class="st86" d="M824.2,432.4c-0.9,14.9,2.7,30.3,9.4,43.5c2.6,1.7,5.2,3.1,7.9,4.3c24.4,10.3,45.8-6.7,47.7-38
			c0.9-14.9-2.7-30.3-9.4-43.5c-2.6-1.7-5.2-3.1-7.9-4.3C847.5,384.2,826.1,401.2,824.2,432.4z"/>
		<path class="st87" d="M846.3,404c-19.4-8.2-36.8,0.8-44.2,20.5c4.6,24.7,20.1,47.6,39.5,55.7c19.4,8.2,36.8-0.8,44.2-20.5
			C881.1,435,865.6,412.1,846.3,404z"/>
		<path class="st88" d="M846.3,404c-3.5-1.5-6.9-2.4-10.2-2.8c-6.6,7.1-11,17.9-11.8,31.2c-1.9,31.3,16.3,65,40.7,75.2
			c3.5,1.5,6.9,2.4,10.2,2.8c6.6-7.1,11-17.9,11.8-31.2C888.9,447.9,870.7,414.3,846.3,404z"/>
		<path class="st89" d="M844.2,403.2c-0.4-0.1-0.8-0.3-1.2-0.4c-0.1,0-0.3-0.1-0.4-0.1c-0.5-0.2-1-0.3-1.5-0.4
			c-0.1,0-0.3-0.1-0.4-0.1c-0.4-0.1-0.7-0.2-1.1-0.3c-0.2,0-0.4-0.1-0.6-0.1c-0.4-0.1-0.8-0.1-1.1-0.2c-0.1,0-0.3-0.1-0.4-0.1
			c-0.4-0.1-0.8-0.1-1.3-0.2c-6.6,7.1-11,17.9-11.8,31.2c-0.9,14.9,2.7,30.3,9.4,43.5c2.6,1.7,5.2,3.1,7.9,4.3
			c19.4,8.2,36.8-0.8,44.2-20.5c-0.3-1.5-0.6-3.1-1-4.6c0,0,0-0.1,0-0.1c-0.4-1.5-0.8-3-1.2-4.4c0,0,0-0.1,0-0.1
			c-0.7-2.2-1.4-4.4-2.3-6.6c0,0,0-0.1,0-0.1c-0.5-1.4-1.1-2.8-1.7-4.2c0,0,0-0.1-0.1-0.1c-0.6-1.4-1.3-2.7-1.9-4c0,0,0-0.1-0.1-0.1
			c-0.3-0.7-0.7-1.3-1-1.9c0,0,0-0.1-0.1-0.1c-0.7-1.3-1.4-2.5-2.2-3.8c0-0.1-0.1-0.1-0.1-0.2c-0.8-1.2-1.5-2.4-2.3-3.5
			c-0.1-0.1-0.1-0.1-0.2-0.2c-0.4-0.6-0.8-1.1-1.2-1.7c0,0-0.1-0.1-0.1-0.1c-0.4-0.5-0.8-1.1-1.2-1.6c0,0-0.1-0.1-0.1-0.1
			c-0.4-0.5-0.8-1.1-1.3-1.6c-0.1-0.1-0.1-0.2-0.2-0.2c-0.9-1-1.7-2-2.7-3c-0.1-0.1-0.2-0.2-0.2-0.3c-0.4-0.5-0.9-0.9-1.4-1.4
			c0,0-0.1-0.1-0.1-0.1c-0.4-0.4-0.9-0.8-1.3-1.2c-0.1-0.1-0.2-0.1-0.2-0.2c-0.5-0.4-0.9-0.8-1.4-1.2c-0.1-0.1-0.2-0.2-0.3-0.2
			c-0.4-0.4-0.9-0.8-1.4-1.1c0,0-0.1-0.1-0.1-0.1c-0.5-0.4-1-0.8-1.5-1.1c-0.1-0.1-0.2-0.2-0.3-0.2c-0.5-0.4-1-0.7-1.5-1.1
			c0,0-0.1-0.1-0.1-0.1c-0.5-0.3-0.9-0.6-1.4-0.9c-0.1-0.1-0.2-0.1-0.3-0.2c-0.5-0.3-1-0.6-1.5-0.9c-0.1-0.1-0.2-0.1-0.3-0.2
			c-0.5-0.3-0.9-0.5-1.4-0.8c-0.1,0-0.2-0.1-0.2-0.1c-0.5-0.3-1-0.5-1.6-0.8c-0.1-0.1-0.2-0.1-0.4-0.2c-0.5-0.2-1.1-0.5-1.6-0.7
			c-0.5-0.2-1.1-0.4-1.6-0.6C844.5,403.3,844.3,403.2,844.2,403.2z"/>
	</g>
	<g>
		<g>
			<path class="st2" d="M853.7,409.3c-14.8-5.8-27.9,4.6-29.4,23.4c0,0.3,0,0.5-0.1,0.8c0,0,0,0,0,0.1c0,0,0,0,0,0
				c-1.2,19.7,10.3,41,25.7,47.5c9.7,4.1,18.7,1.3,24.3-6.2c1.6-2.1,0.2-6.3-2.3-7.4l0,0c-1.5-0.6-2.9-0.3-3.9,0.8
				c-4.5,5.4-11.4,7-18.8,3.4c-9.8-4.8-17.3-17.7-18.1-30.5l41.3,17.4l3.8,1.6l0,0c0.8,0.4,1.6,0.3,2.3-0.1c0,0,0,0,0,0
				c0,0,0,0,0.1,0c0.8-0.5,1.3-1.5,1.4-2.8c0,0,0,0,0,0C881.3,437,869.5,415.4,853.7,409.3z M831.8,432.1c2.4-12,11.7-18,22-13.6
				c10.4,4.4,18.4,17.7,19.3,31L831.8,432.1z"/>
		</g>
	</g>
</g>
<polygon class="st0" points="1261.5,1235 1280,1222.2 1280,1152.4 1261.5,1167.3 "/>
<linearGradient id="SVGID_9_" gradientUnits="userSpaceOnUse" x1="1243" y1="1194.2672" x2="1261.5203" y2="1194.2672">
	<stop  offset="0" style="stop-color:#E1E6F0"/>
	<stop  offset="1" style="stop-color:#FFFFFF"/>
</linearGradient>
<polygon class="st23" points="1243,1153.5 1243,1221.9 1261.5,1235 1261.5,1167.3 "/>
<polygon class="st65" points="1260.7,1167.9 1308,1138 1308,1064.6 1260.7,1094.6 "/>
<polygon class="st66" points="1193,1055.8 1193,1127.4 1260.7,1167.9 1260.7,1094.6 "/>
<polygon class="st13" points="1193,1056 1237.5,1026.9 1308.7,1065.6 1260.7,1094.6 "/>
<path class="st2" d="M1203.5,1104.6l10,20.3c0.3,1.6,1.4,2.8,2.8,3.3c1.7,0.6,3.2-0.3,3.4-0.4l27.8-27.4c3.2-2.9,1.3-4.9-2.1-2.2
	c-4.5,3.5-13.8,11-16.3,12.5c-0.3,0.2-4.3,2.5-7.7,2.9c-5.6,0.6-11.8-3.8-16-10.6c-0.5-0.3-1.1-0.2-1.5,0.1
	C1203.6,1103.5,1203.4,1104,1203.5,1104.6z"/>
</svg>
