<svg width="256" height="256" viewBox="0 0 256 256" fill="none" xmlns="http://www.w3.org/2000/svg">
<path d="M0 128C0 198.692 57.3076 256 128 256C198.692 256 256 198.692 256 128C256 57.3076 198.692 0 128 0C57.3076 0 0 57.3076 0 128Z" fill="#FF0C64"/>
<path fill-rule="evenodd" clip-rule="evenodd" d="M139.773 72C139.341 72 138.925 72.1577 138.601 72.4426L129.172 79.1462C128.5 79.7343 127.499 79.7343 126.829 79.1462L117.4 72.4426C117.075 72.1577 116.659 72 116.228 72H74.5796C74.0871 72 73.6129 72.2022 73.2764 72.5621C60.7652 85.9217 53.0786 103.865 53.0006 123.605C52.84 164.58 86.0047 198.42 126.926 198.992C168.839 199.579 203 165.738 203 123.909C203 104.048 195.298 85.9906 182.723 72.5621C182.386 72.2022 181.914 72 181.421 72H139.773ZM177.195 124.689C177.195 152.94 153.478 175.986 124.934 174.476C99.4818 173.13 79.9274 151.995 79.0448 126.491C78.5889 113.329 82.8976 101.226 90.8565 92.1087C91.4668 91.4088 91.4225 90.3535 90.7678 89.6965L76.0579 75.2445L125.907 110.995C127.209 112.043 129.063 112.043 130.365 110.995L180.191 75.2445L165.214 89.698C164.561 90.3551 164.512 91.4103 165.121 92.1087C172.727 100.817 177.195 112.21 177.195 124.689Z" fill="white"/>
</svg>
