<?xml version="1.0" encoding="utf-8"?>
<!-- Generator: Adobe Illustrator 21.0.2, SVG Export Plug-In . SVG Version: 6.00 Build 0)  -->
<svg version="1.1" id="Layer_1" xmlns="http://www.w3.org/2000/svg" xmlns:xlink="http://www.w3.org/1999/xlink" x="0px" y="0px"
	 viewBox="0 0 1972 2037" style="enable-background:new 0 0 1972 2037;" xml:space="preserve">
<style type="text/css">
	.st0{fill:#CAD0E6;}
	.st1{fill:#E1E6F0;}
	.st2{fill:#FFFFFF;}
	.st3{fill:#6F99FB;}
	.st4{fill:#6490FF;}
	.st5{fill:#4C7FF7;}
	.st6{fill:#FFC891;}
	.st7{fill:#B3553B;}
	.st8{fill:#454563;}
	.st9{fill:#FFBF91;}
	.st10{fill:#005BEA;}
	.st11{fill:url(#SVGID_1_);}
	.st12{fill:url(#SVGID_2_);}
	.st13{fill:#21D3B5;}
	.st14{fill:#E5E5E5;}
	.st15{fill:url(#SVGID_3_);}
	.st16{fill:url(#SVGID_4_);}
	.st17{fill:#EEE1D2;}
	.st18{fill:#D4C0B1;}
	.st19{fill:url(#SVGID_5_);}
	.st20{fill:url(#SVGID_6_);}
	.st21{fill:url(#SVGID_7_);}
	.st22{fill:url(#SVGID_8_);}
	.st23{fill:url(#SVGID_9_);}
	.st24{fill:#BBCAD8;}
	.st25{fill:url(#SVGID_10_);}
	.st26{fill:url(#SVGID_11_);}
	.st27{fill:url(#SVGID_12_);}
	.st28{fill:url(#SVGID_13_);}
	.st29{fill:url(#SVGID_14_);}
	.st30{fill:url(#SVGID_15_);}
	.st31{fill:url(#SVGID_16_);}
	.st32{fill:url(#SVGID_17_);}
	.st33{fill:url(#SVGID_18_);}
	.st34{fill:url(#SVGID_19_);}
	.st35{fill:url(#SVGID_20_);}
	.st36{fill:url(#SVGID_21_);}
	.st37{fill:url(#SVGID_22_);}
	.st38{fill:url(#SVGID_23_);}
	.st39{enable-background:new    ;}
	.st40{fill:url(#SVGID_24_);}
	.st41{fill:#D9D9D9;}
	.st42{fill:#FF5643;}
	.st43{fill:#E6E6E6;}
	.st44{clip-path:url(#SVGID_34_);enable-background:new    ;}
	.st45{clip-path:url(#SVGID_36_);}
	.st46{opacity:0.7;enable-background:new    ;}
	.st47{clip-path:url(#SVGID_38_);}
	.st48{clip-path:url(#SVGID_40_);}
	.st49{opacity:6.000000e-02;fill:#94C5FF;}
	.st50{clip-path:url(#SVGID_42_);}
	.st51{opacity:0.14;fill:#0092FF;}
	.st52{clip-path:url(#SVGID_44_);}
	.st53{opacity:8.000000e-02;fill:#0092FF;}
	.st54{fill:url(#SVGID_47_);}
	.st55{fill:url(#SVGID_48_);}
	.st56{fill:#9BB2CC;}
	.st57{fill:url(#SVGID_49_);}
	.st58{fill:url(#SVGID_50_);}
	.st59{fill:url(#SVGID_51_);}
	.st60{fill:url(#SVGID_52_);}
	.st61{fill:url(#SVGID_53_);}
	.st62{fill:url(#SVGID_54_);}
	.st63{fill:url(#SVGID_55_);}
	.st64{fill:url(#SVGID_56_);}
	.st65{fill:#21C1A7;}
	.st66{fill:#21DEB6;}
	.st67{fill:#00067D;}
	.st68{fill:#E36F6F;}
	.st69{fill:url(#SVGID_57_);}
	.st70{fill:url(#SVGID_58_);}
	.st71{fill:url(#SVGID_59_);}
	.st72{fill:url(#SVGID_60_);}
	.st73{fill:url(#SVGID_61_);}
	.st74{fill:url(#SVGID_62_);}
	.st75{fill:url(#SVGID_63_);}
	.st76{fill:url(#SVGID_64_);}
	.st77{fill:#72B0FC;}
	.st78{fill:#2E7EFF;}
	.st79{fill:#6A95FF;}
	.st80{fill:#AFDAFA;}
	.st81{fill:#81BAFE;}
	.st82{fill:#96CAFF;}
	.st83{fill:#72A2FC;}
	.st84{fill:#2D47FE;}
	.st85{fill:#60D0FE;}
	.st86{fill:#47A8FF;}
	.st87{fill:#2C62FA;}
	.st88{fill:#478DFF;}
	.st89{fill:#3C77FF;}
	.st90{fill:url(#SVGID_65_);}
</style>
<g>
	<path class="st0" d="M237.1,1389.5l850.5,491c46.2,26.7,103.2,26.7,149.4,0l459.4-265.3c34-19.6,34-68.7,0-88.4l-850.5-491
		c-46.2-26.7-103.2-26.7-149.4,0l-459.4,265.3C203.1,1320.8,203.1,1369.9,237.1,1389.5z"/>
	<g>
		<path class="st1" d="M1237,1780.9l459.4-265.3c17-9.8,25.5-27,25.5-44.2v-116l-559.6,323.1v122.3
			C1188.1,1800.9,1213.9,1794.2,1237,1780.9z"/>
		<path class="st1" d="M237.1,1289.8l850.5,491c23.1,13.3,48.9,20,74.7,20v-122.3l-950.7-548.9v116
			C211.6,1262.8,220.1,1280,237.1,1289.8z"/>
	</g>
	<path class="st2" d="M237.1,1173.8l850.5,491c46.2,26.7,103.2,26.7,149.4,0l459.4-265.3c34-19.6,34-68.7,0-88.4L846,820.2
		c-46.2-26.7-103.2-26.7-149.4,0l-459.4,265.3C203.1,1105.1,203.1,1154.2,237.1,1173.8z"/>
</g>
<g>
	<g>
		<path class="st0" d="M671.1,930.2l823.7,475.6c15.8,9.1,35.3,9.1,51.1,0l52.9-30.5c11.6-6.7,11.6-23.5,0-30.2L775.1,869.5
			c-15.8-9.1-35.3-9.1-51.1,0L671.1,900C659.5,906.7,659.5,923.5,671.1,930.2z"/>
	</g>
	<g>
		<path class="st3" d="M1555.6,584.7c-10.4-18-25.5-33.4-44.1-44.1L728.1,88.4c-13.7-7.9-29.2-6.9-41.2,0l-24.1,13.9L1527,601.2
			v720.6l24.1-13.9c12-6.9,20.6-19.8,20.6-35.7V645C1571.7,623.5,1566,602.8,1555.6,584.7z"/>
		<path class="st4" d="M704,102.3l783.3,452.3c37.3,21.5,60.3,61.3,60.3,104.4v627.3c0,31.7-34.3,51.5-61.8,35.7L702.5,869.6
			c-37.3-21.5-60.3-61.3-60.3-104.4l0-627.3C642.2,106.2,676.5,86.4,704,102.3z"/>
		<path class="st2" d="M735,153.8l721.1,416.3c32.9,19,53.1,54.1,53.1,92l0,576.7c0,27.9-30.3,45.4-54.5,31.4L733.7,854
			c-32.9-19-53.1-54.1-53.1-92l0-576.7C680.6,157.3,710.8,139.9,735,153.8z"/>
	</g>
	<g>
		<path class="st1" d="M754.9,300l435,251.1c27,15.6,36.7,35.3,36.7,58.2v347.9c0,16.9-18.2,27.4-32.8,19L758.7,725
			c-19.8-11.5-32.1-32.6-32.1-55.5l0-347.9C726.7,304.8,737,289.7,754.9,300z"/>
		<path class="st1" d="M1269.6,601l192.3,111c13.6,7.9,22,22.4,22,38.2v118.6c0,11.6-12.5,18.8-22.6,13l-192.3-111
			c-13.6-7.9-22-22.4-22-38.2l0-118.6C1247,602.5,1259.6,595.2,1269.6,601z"/>
		<path class="st1" d="M1269.6,1035.4l89.5,51.7c13.6,7.9,22,22.4,22,38.2v60.3c0,11.6-12.5,18.8-22.6,13l-89.5-51.7
			c-13.6-7.9-22-22.4-22-38.2l0-60.3C1247,1036.8,1259.6,1029.6,1269.6,1035.4z"/>
		<g>
			<g>
				<polygon class="st2" points="1176.5,826.3 1070,792.2 994.1,702.5 932.3,730.6 875.8,529.5 765.4,529.5 765.4,522.7 881,522.7 
					936.7,721.2 995.9,694.3 1073.9,786.3 1178.6,819.8 				"/>
				
					<ellipse transform="matrix(0.9104 -0.4138 0.4138 0.9104 -235.0416 561.0471)" class="st2" cx="1177.5" cy="823.1" rx="14.3" ry="20.5"/>
				
					<ellipse transform="matrix(0.9104 -0.4138 0.4138 0.9104 -230.5106 514.3079)" class="st2" cx="1071.9" cy="789.2" rx="14.3" ry="20.5"/>
				
					<ellipse transform="matrix(0.9104 -0.4138 0.4138 0.9104 -199.8174 474.3358)" class="st2" cx="995" cy="698.4" rx="14.3" ry="20.5"/>
				
					<ellipse transform="matrix(0.9104 -0.4138 0.4138 0.9104 -199.8173 474.3355)" class="st10" cx="995" cy="698.4" rx="9" ry="12.8"/>
				
					<ellipse transform="matrix(0.9104 -0.4138 0.4138 0.9104 -216.6178 451.7683)" class="st2" cx="934.5" cy="725.9" rx="14.3" ry="20.5"/>
				
					<ellipse transform="matrix(0.9104 -0.4138 0.4138 0.9104 -138.9669 410.644)" class="st2" cx="878.4" cy="526.1" rx="45.4" ry="65"/>
				
					<ellipse transform="matrix(0.9104 -0.4138 0.4138 0.9104 -138.9669 410.6443)" class="st10" cx="878.4" cy="526.1" rx="39.4" ry="56.4"/>
				
					<ellipse transform="matrix(0.9104 -0.4138 0.4138 0.9104 -138.9667 410.6422)" class="st2" cx="878.4" cy="526.1" rx="9.3" ry="13.3"/>
				
					<ellipse transform="matrix(0.9104 -0.4138 0.4138 0.9104 -126.9379 424.301)" class="st2" cx="915.9" cy="505.2" rx="9.3" ry="13.3"/>
				
					<ellipse transform="matrix(0.9104 -0.4138 0.4138 0.9104 -159.0561 406.7325)" class="st2" cx="859.3" cy="570.5" rx="12" ry="17.1"/>
				
					<ellipse transform="matrix(0.9104 -0.4138 0.4138 0.9104 -149.0941 363.8908)" class="st2" cx="765.4" cy="526.1" rx="14.3" ry="20.5"/>
			</g>
		</g>
		<path class="st1" d="M1248.2,796.5c0-4.1,2.5-6,5.6-4.2l73.2,42.3c3.1,1.8,5.6,6.6,5.6,10.7c0,4.1-2.5,6-5.6,4.2l-73.2-42.3
			C1250.8,805.4,1248.2,800.6,1248.2,796.5z"/>
		<path class="st1" d="M1287.8,849.2c0-4.1,2.5-6,5.6-4.2l73.2,42.3c3.1,1.8,5.6,6.6,5.6,10.7c0,4.1-2.5,6-5.6,4.2l-73.2-42.3
			C1290.3,858.1,1287.8,853.3,1287.8,849.2z"/>
		<path class="st1" d="M1249.8,880.3c0-11.5,7-16.7,15.6-11.8l203,117.2c8.6,5,15.6,18.3,15.6,29.8c0,11.5-7,16.7-15.6,11.8
			l-203-117.2C1256.8,905.1,1249.8,891.7,1249.8,880.3z"/>
		<path class="st1" d="M989.3,394c0-11.5,7-16.7,15.6-11.8l463.5,267.6c8.6,5,15.6,18.3,15.6,29.8c0,11.5-7,16.7-15.6,11.8
			l-463.5-267.6C996.3,418.8,989.3,405.4,989.3,394z"/>
		<path class="st1" d="M723.2,240.3c0-11.5,7-16.7,15.6-11.8l212.4,122.6c8.6,5,15.6,18.3,15.6,29.8c0,11.5-7,16.7-15.6,11.8
			L738.8,270.1C730.1,265.1,723.2,251.8,723.2,240.3z"/>
		<path class="st1" d="M1249.8,942.9c0-11.5,7-16.7,15.6-11.8l203,117.2c8.6,5,15.6,18.3,15.6,29.8c0,11.5-7,16.7-15.6,11.8
			l-203-117.2C1256.8,967.7,1249.8,954.4,1249.8,942.9z"/>
		<path class="st1" d="M1341.9,850.6c0-4.1,2.5-6,5.6-4.2l20.1,11.6c3.1,1.8,5.6,6.6,5.6,10.7s-2.5,6-5.6,4.2l-20.1-11.6
			C1344.4,859.5,1341.9,854.7,1341.9,850.6z"/>
		<path class="st1" d="M1052.8,379.4c0-4.1,2.5-6,5.6-4.2l73.2,42.3c3.1,1.8,5.6,6.6,5.6,10.7c0,4.1-2.5,6-5.6,4.2l-73.2-42.3
			C1055.3,388.4,1052.8,383.6,1052.8,379.4z"/>
		<path class="st1" d="M1146.5,433.5c0-4.1,2.5-6,5.6-4.2l20.1,11.6c3.1,1.8,5.6,6.6,5.6,10.7s-2.5,6-5.6,4.2l-20.1-11.6
			C1149,442.5,1146.5,437.7,1146.5,433.5z"/>
		<path class="st2" d="M1004.9,403.7c0-4.1,2.5-6,5.6-4.2l36.6,21.1c3.1,1.8,5.6,6.6,5.6,10.7s-2.5,6-5.6,4.2l-36.6-21.1
			C1007.4,412.6,1004.9,407.8,1004.9,403.7z"/>
		<path class="st1" d="M1442,607.9c0-4.1,2.5-6,5.6-4.2l20.1,11.6c3.1,1.8,5.6,6.6,5.6,10.7c0,4.1-2.5,6-5.6,4.2l-20.1-11.6
			C1444.6,616.8,1442,612,1442,607.9z"/>
		<path class="st1" d="M1248.2,825.8c0-4.1,2.5-6,5.6-4.2l20.1,11.6c3.1,1.8,5.6,6.6,5.6,10.7c0,4.1-2.5,6-5.6,4.2l-20.1-11.6
			C1250.8,834.7,1248.2,829.9,1248.2,825.8z"/>
		<path class="st1" d="M1396.5,1113.3c0-4.1,2.5-6,5.6-4.2l73.2,42.3c3.1,1.8,5.6,6.6,5.6,10.7c0,4.1-2.5,6-5.6,4.2l-73.2-42.3
			C1399,1122.2,1396.5,1117.4,1396.5,1113.3z"/>
		<path class="st1" d="M1396.5,1170.5c0-4.1,2.5-6,5.6-4.2l73.2,42.3c3.1,1.8,5.6,6.6,5.6,10.7c0,4.1-2.5,6-5.6,4.2l-73.2-42.3
			C1399,1179.5,1396.5,1174.6,1396.5,1170.5z"/>
		<path class="st1" d="M1396.5,1199.8c0-4.1,2.5-6,5.6-4.2l44.3,25.6c3.1,1.8,5.6,6.6,5.6,10.7c0,4.1-2.5,6-5.6,4.2l-44.3-25.6
			C1399,1208.8,1396.5,1203.9,1396.5,1199.8z"/>
		<path class="st1" d="M1436.1,1165.9c0-4.1,2.5-6,5.6-4.2l31.7,18.3c3.1,1.8,5.6,6.6,5.6,10.7s-2.5,6-5.6,4.2l-31.7-18.3
			C1438.6,1174.9,1436.1,1170.1,1436.1,1165.9z"/>
		<path class="st1" d="M1396.5,1142.6c0-4.1,2.5-6,5.6-4.2l20.1,11.6c3.1,1.8,5.6,6.6,5.6,10.7c0,4.1-2.5,6-5.6,4.2l-20.1-11.6
			C1399,1151.5,1396.5,1146.7,1396.5,1142.6z"/>
		<path class="st1" d="M846.7,794.2l89.5,51.7c13.6,7.9,22,22.4,22,38.2v60.3c0,11.6-12.5,18.8-22.6,13l-89.5-51.7
			c-13.6-7.9-22-22.4-22-38.2v-60.3C824.1,795.6,836.7,788.4,846.7,794.2z"/>
		<path class="st1" d="M973.6,872.1c0-4.1,2.5-6,5.6-4.2l73.2,42.3c3.1,1.8,5.6,6.6,5.6,10.7s-2.5,6-5.6,4.2l-73.2-42.3
			C976.1,881.1,973.6,876.2,973.6,872.1z"/>
		<path class="st1" d="M973.6,929.3c0-4.1,2.5-6,5.6-4.2l73.2,42.3c3.1,1.8,5.6,6.6,5.6,10.7c0,4.1-2.5,6-5.6,4.2l-73.2-42.3
			C976.1,938.3,973.6,933.5,973.6,929.3z"/>
		<path class="st1" d="M973.6,958.6c0-4.1,2.5-6,5.6-4.2l44.3,25.6c3.1,1.8,5.6,6.6,5.6,10.7c0,4.1-2.5,6-5.6,4.2l-44.3-25.6
			C976.1,967.6,973.6,962.8,973.6,958.6z"/>
		<path class="st1" d="M1013.1,924.8c0-4.1,2.5-6,5.6-4.2l31.7,18.3c3.1,1.8,5.6,6.6,5.6,10.7c0,4.1-2.5,6-5.6,4.2l-31.7-18.3
			C1015.7,933.7,1013.1,928.9,1013.1,924.8z"/>
		<path class="st1" d="M973.6,901.4c0-4.1,2.5-6,5.6-4.2l20.1,11.6c3.1,1.8,5.6,6.6,5.6,10.7c0,4.1-2.5,6-5.6,4.2l-20.1-11.6
			C976.1,910.4,973.6,905.5,973.6,901.4z"/>
		<path class="st1" d="M1287.8,1016.4c0-4.1,2.5-6,5.6-4.2l73.2,42.3c3.1,1.8,5.6,6.6,5.6,10.7c0,4.1-2.5,6-5.6,4.2l-73.2-42.3
			C1290.3,1025.3,1287.8,1020.5,1287.8,1016.4z"/>
		<path class="st1" d="M1248.2,993.1c0-4.1,2.5-6,5.6-4.2l20.1,11.6c3.1,1.8,5.6,6.6,5.6,10.7c0,4.1-2.5,6-5.6,4.2l-20.1-11.6
			C1250.8,1002,1248.2,997.2,1248.2,993.1z"/>
		<g>
			<g>
				<polygon class="st2" points="1169.7,743.3 1169.7,619.4 1189.9,631.1 1189.9,755 				"/>
				<polygon class="st2" points="1136.3,716.5 1136.3,634.6 1156.4,646.2 1156.4,728.2 				"/>
				<polygon class="st2" points="1102.8,697.2 1102.8,643.5 1123,655.2 1123,708.9 				"/>
				<polygon class="st2" points="1069.3,677.9 1069.3,643.5 1089.5,655.1 1089.5,689.6 				"/>
				<polygon class="st2" points="1035.9,658.6 1035.9,643.7 1056.1,655.4 1056.1,670.3 				"/>
			</g>
		</g>
	</g>
</g>
<g>
	<ellipse class="st0" cx="1179.3" cy="1342.5" rx="120.3" ry="66.9"/>
	<g>
		<rect x="1122" y="1041.3" class="st8" width="92.2" height="104.8"/>
		<g>
			<path class="st8" d="M1227.4,1358.3l-40.1,23.2c-6.7,3.9-15.4,1.6-19.3-5.2l-2.6-4.5c-3.9-6.7-1.6-15.4,5.2-19.3l40.1-23.2
				c6.7-3.9,15.4-1.6,19.3,5.2l2.6,4.5C1236.4,1345.7,1234.1,1354.4,1227.4,1358.3z"/>
			<g>
				<rect x="1188.4" y="1054" class="st8" width="51.5" height="139.2"/>
				<circle class="st8" cx="1214.2" cy="1193.2" r="25.8"/>
			</g>
			<g>
				<path class="st8" d="M1188.6,1195.7h51.3l-13.3,149.6c-0.5,5.7-5.3,10-11,10l0,0c-5.6,0-10.4-4.2-11-9.9L1188.6,1195.7z"/>
				<circle class="st8" cx="1214.2" cy="1193.2" r="25.8"/>
			</g>
		</g>
		<g>
			<path class="st8" d="M1131,1326l40.1-23.2c6.7-3.9,15.4-1.6,19.3,5.2l2.6,4.5c3.9,6.7,1.6,15.4-5.2,19.3l-40.1,23.2
				c-6.7,3.9-15.4,1.6-19.3-5.2l-2.6-4.5C1122,1338.6,1124.3,1329.9,1131,1326z"/>
			<g>
				<rect x="1120.3" y="1030.5" class="st8" width="51.5" height="139.2"/>
				<circle class="st8" cx="1146" cy="1169.6" r="25.8"/>
			</g>
			<g>
				<path class="st8" d="M1121.3,1176.9l50.4-9.6l15,149.5c0.6,5.7-3.3,10.9-8.9,11.9l0,0c-5.5,1.1-11-2.2-12.6-7.6L1121.3,1176.9z"
					/>
				
					<ellipse transform="matrix(0.9823 -0.1874 0.1874 0.9823 -198.8605 235.4496)" class="st8" cx="1146" cy="1169.6" rx="25.8" ry="25.8"/>
			</g>
		</g>
	</g>
	<g>
		<path class="st6" d="M1025.2,745.9l12.9,17.9l-0.5,28.5c0,0-28.7-38.5-27.8-38.5C1010.7,753.7,1025.2,745.9,1025.2,745.9z"/>
		<g>
			
				<rect x="1097.2" y="830.5" transform="matrix(-0.5898 0.8076 -0.8076 -0.5898 2472.1978 472.2337)" class="st10" width="37.9" height="67.1"/>
			
				<ellipse transform="matrix(0.5898 -0.8076 0.8076 0.5898 -235.0234 1225.8459)" class="st8" cx="1089.1" cy="844.3" rx="18.9" ry="18.9"/>
		</g>
		<polygon class="st10" points="1103.2,831.7 1072.8,853.8 1014.9,766.4 1034.7,752 		"/>
		
			<ellipse transform="matrix(0.8087 -0.5882 0.5882 0.8087 -288.2657 802.0564)" class="st10" cx="1089.1" cy="844.3" rx="18.9" ry="18.9"/>
		
			<ellipse transform="matrix(0.9997 -2.403409e-02 2.403409e-02 0.9997 -17.5882 24.5973)" class="st6" cx="1014.5" cy="744" rx="14" ry="14"/>
	</g>
	
		<ellipse transform="matrix(2.422641e-03 -1 1 2.422641e-03 384.3989 1974.15)" class="st6" cx="1181.7" cy="794.4" rx="45.2" ry="45.2"/>
	<path class="st5" d="M1120.3,1066.7c0,0-7.2-156.1-7.1-188.2c0.1-32.1,36.8-23.3,64.3-23.2c27.5,0.1,59.6,20.2,68.4,56.2
		c7.3,30-6,194.4-6,194.4L1120.3,1066.7z"/>
	<path class="st5" d="M1148.4,861.5c0-25.6,71.8-18,61.1,6.2l-54.6,128.9L1148.4,861.5z"/>
	<path class="st6" d="M1159.5,824.2l0.6,43.2c0.1,6.2,8.6,11.1,19.1,11c10.4-0.2,18.8-5.3,18.7-11.5l-0.6-43.2L1159.5,824.2z"/>
	<g>
		<path class="st8" d="M1205.5,743.9c-2.6-1.2-5.2-2.1-7.7-2.8c-32.6-9-51.7,35.7-22.8,53.4l12.7,7.8c5.2-3.8,12.5-3.9,18,0.5
			c4.9,4,6.7,10.9,4.3,16.7c-1.3,3.2-3.5,5.6-6.2,7.2l4.7,7.2c8.6-4.5,16-11.6,20.9-21.1C1242.7,787.5,1231.5,755.9,1205.5,743.9z"
			/>
	</g>
	<g>
		<path class="st6" d="M1237.3,1077.2l-0.2-22.1l16.9-23c0,0,1.1,48,0.4,47.5C1253.6,1079.2,1237.3,1077.2,1237.3,1077.2z"/>
		<g>
			<path class="st10" d="M1260,954l-35.9,12l-16.2-48.4c-2.8-8.4,1.7-17.5,10.1-20.3l5.5-1.9c8.4-2.8,17.5,1.7,20.3,10.1L1260,954z"
				/>
			
				<ellipse transform="matrix(0.9484 -0.3171 0.3171 0.9484 -240.3041 443.4207)" class="st8" cx="1242.1" cy="960" rx="18.9" ry="18.9"/>
		</g>
		<polygon class="st10" points="1223.3,962 1261,961.6 1257.6,1066.4 1233,1066.7 		"/>
		
			<ellipse transform="matrix(0.9999 -1.146143e-02 1.146143e-02 0.9999 -10.9209 14.2992)" class="st10" cx="1242.1" cy="960" rx="18.9" ry="18.9"/>
		
			<ellipse transform="matrix(0.5591 -0.8291 0.8291 0.5591 -350.6129 1510.4434)" class="st6" cx="1244.9" cy="1084.9" rx="14" ry="14"/>
	</g>
</g>
<g>
	<path class="st0" d="M311.9,1168.7l224.5,129.6c22.6,13,50.4,13,73,0l224.5-129.6c16.6-9.6,16.6-33.6,0-43.2L609.4,995.9
		c-22.6-13-50.4-13-73,0l-224.5,129.6C295.3,1135.1,295.3,1159.1,311.9,1168.7z"/>
	<g>
		<path class="st1" d="M609.4,1237.1l224.5-129.6c8.3-4.8,12.5-13.2,12.5-21.6v-56.7l-273.4,157.9v59.8
			C585.5,1246.9,598.1,1243.6,609.4,1237.1z"/>
		<path class="st1" d="M311.9,1107.5l224.5,129.6c11.3,6.5,23.9,9.8,36.5,9.8v-59.8l-273.4-157.9v56.7
			C299.5,1094.3,303.6,1102.7,311.9,1107.5z"/>
	</g>
	<path class="st2" d="M311.9,1050.8l224.5,129.6c22.6,13,50.4,13,73,0l224.5-129.6c16.6-9.6,16.6-33.6,0-43.2L609.4,878.1
		c-22.6-13-50.4-13-73,0l-224.5,129.6C295.3,1017.3,295.3,1041.2,311.9,1050.8z"/>
</g>
<g>
	<g>
		<path class="st0" d="M688.5,942.6C658.9,922.4,618,910,572.9,910c-90.3,0-163.5,49.8-163.5,111.3c0,61.5,73.2,111.3,163.5,111.3
			c45.1,0,86-12.5,115.6-32.6c29.6-20.1,47.9-48,47.9-78.7C736.4,990.6,718.1,962.7,688.5,942.6z"/>
		<linearGradient id="SVGID_1_" gradientUnits="userSpaceOnUse" x1="412.393" y1="953.7707" x2="735.4716" y2="953.7707">
			<stop  offset="0" style="stop-color:#DEE8FF"/>
			<stop  offset="1" style="stop-color:#788ACB"/>
		</linearGradient>
		<path class="st11" d="M678.5,886.4c-28.5-16.4-65.4-26.4-105.6-26.4s-77.1,9.9-105.6,26.4h-57.8v49.7
			c0,61.5,73.2,111.3,163.5,111.3c45.1,0,86-12.5,115.6-32.6c29.6-20.1,47.9-48,47.9-78.7v-49.7H678.5z"/>
	</g>
</g>
<linearGradient id="SVGID_2_" gradientUnits="userSpaceOnUse" x1="409.4377" y1="884.3002" x2="736.3782" y2="884.3002">
	<stop  offset="6.300000e-07" style="stop-color:#FFFFFF"/>
	<stop  offset="1" style="stop-color:#E1E6F0"/>
</linearGradient>
<path class="st12" d="M688.5,805.6C658.9,785.4,618,773,572.9,773c-90.3,0-163.5,49.8-163.5,111.3c0,61.5,73.2,111.3,163.5,111.3
	c45.1,0,86-12.5,115.6-32.6c29.6-20.1,47.9-48,47.9-78.7S718.1,825.7,688.5,805.6z"/>
<g>
	<g>
		<polygon class="st13" points="504.9,864.6 450.5,897.8 544.4,950.6 601.1,918.7 		"/>
	</g>
	<g>
		<g>
			<polygon class="st14" points="504.9,741.3 601.1,685.8 697,739.3 601.1,796.9 			"/>
			<polygon class="st0" points="601.1,698.9 601.1,692.8 686,741.3 686,747.5 			"/>
			<polygon class="st0" points="601.1,692.8 601.1,698.9 515.8,748.7 515.8,742.6 			"/>
			<polygon class="st0" points="601.1,918.7 697,865 697,739.3 601.1,796.7 			"/>
			<linearGradient id="SVGID_3_" gradientUnits="userSpaceOnUse" x1="504.9171" y1="830.0109" x2="601.0637" y2="830.0109">
				<stop  offset="0" style="stop-color:#E1E6F0"/>
				<stop  offset="1" style="stop-color:#FFFFFF"/>
			</linearGradient>
			<polygon class="st15" points="504.9,741.3 504.9,864.6 601.1,918.7 601.1,796.7 			"/>
			<polygon class="st1" points="697,739.3 601.1,796.7 601.1,785.1 686.9,733.7 			"/>
			<polygon class="st1" points="505,741.3 601,796.7 601,785.9 515.2,736.5 			"/>
			<linearGradient id="SVGID_4_" gradientUnits="userSpaceOnUse" x1="525.4915" y1="742.4159" x2="674.6812" y2="742.4159">
				<stop  offset="6.300000e-07" style="stop-color:#FFFFFF"/>
				<stop  offset="1" style="stop-color:#E1E6F0"/>
			</linearGradient>
			<polygon class="st16" points="601.1,698.9 674.7,741 601,785.9 525.5,742.4 			"/>
		</g>
	</g>
	<g>
		<g>
			<g>
				<g>
					<g>
						<g>
							<g>
								<polygon class="st17" points="685.2,780.1 685.2,761.9 669.5,771.1 669.5,789.5 								"/>
								<polygon class="st2" points="674.1,770.9 674.9,770.5 676.9,769.3 678.5,768.4 683,765.7 683,771 683,772.8 683,775.1 
									683,776 683,778.9 681.8,779.6 679.8,780.8 679.1,781.2 678.4,781.6 671.7,785.7 671.7,777.7 671.7,777 671.7,776.1 
									671.7,773.8 671.7,772.4 								"/>
								<g>
									<g>
										<polygon class="st5" points="674.9,770.5 683,775.1 683,776 674.1,770.9 										"/>
										<polygon class="st5" points="676.9,769.3 683,772.8 683,775.1 674.9,770.5 										"/>
										<polygon class="st5" points="678.5,768.4 683,771 683,772.8 676.9,769.3 										"/>
										<polygon class="st5" points="683,765.7 683,771 678.5,768.4 										"/>
										<polygon class="st5" points="671.7,773.8 681.8,779.6 679.8,780.8 671.7,776.1 										"/>
										<polygon class="st5" points="671.7,772.4 674.1,770.9 683,776 683,778.9 681.8,779.6 671.7,773.8 										"/>
										<polygon class="st5" points="671.7,777.7 678.4,781.6 671.7,785.7 										"/>
										<polygon class="st5" points="671.7,777 679.1,781.2 678.4,781.6 671.7,777.7 										"/>
										<polygon class="st5" points="671.7,776.1 679.8,780.8 679.1,781.2 671.7,777 										"/>
									</g>
								</g>
								<polygon class="st18" points="669.5,771.1 671.7,772.4 683,765.7 685.2,761.9 								"/>
								<polygon class="st18" points="669.5,789.5 671.7,785.7 683,778.9 685.2,780.1 								"/>
								<polygon class="st17" points="683,778.9 682.4,778.4 671.7,784.8 671.7,785.7 								"/>
								<polygon class="st18" points="682.4,778.4 682.4,766 683,765.7 683,778.9 								"/>
								<polygon class="st18" points="669.5,789.5 668.7,789 668.7,770.6 669.5,771.1 								"/>
								<polygon class="st17" points="685.2,761.9 684.4,761.3 668.7,770.6 669.5,771.1 								"/>
							</g>
						</g>
					</g>
				</g>
				<g>
					<g>
						<g>
							<g>
								<polygon class="st17" points="685.2,795.9 685.2,777.8 669.5,787 669.5,805.3 								"/>
								<polygon class="st2" points="674.1,786.8 674.9,786.3 676.9,785.2 678.5,784.2 683,781.5 683,786.8 683,788.7 683,791 
									683,791.9 683,794.7 681.8,795.5 679.8,796.6 679.1,797.1 678.4,797.5 671.7,801.5 671.7,793.6 671.7,792.8 671.7,792 
									671.7,789.7 671.7,788.2 								"/>
								<g>
									<g>
										<polygon class="st5" points="674.9,786.3 683,791 683,791.9 674.1,786.8 										"/>
										<polygon class="st5" points="676.9,785.2 683,788.7 683,791 674.9,786.3 										"/>
										<polygon class="st5" points="678.5,784.2 683,786.8 683,788.7 676.9,785.2 										"/>
										<polygon class="st5" points="683,781.5 683,786.8 678.5,784.2 										"/>
										<polygon class="st5" points="671.7,789.7 681.8,795.5 679.8,796.6 671.7,792 										"/>
										<polygon class="st5" points="671.7,788.2 674.1,786.8 683,791.9 683,794.7 681.8,795.5 671.7,789.7 										"/>
										<polygon class="st5" points="671.7,793.6 678.4,797.5 671.7,801.5 										"/>
										<polygon class="st5" points="671.7,792.8 679.1,797.1 678.4,797.5 671.7,793.6 										"/>
										<polygon class="st5" points="671.7,792 679.8,796.6 679.1,797.1 671.7,792.8 										"/>
									</g>
								</g>
								<polygon class="st18" points="669.5,787 671.7,788.2 683,781.5 685.2,777.8 								"/>
								<polygon class="st18" points="669.5,805.3 671.7,801.5 683,794.7 685.2,795.9 								"/>
								<polygon class="st17" points="683,794.7 682.4,794.2 671.7,800.6 671.7,801.5 								"/>
								<polygon class="st18" points="682.4,794.2 682.4,781.9 683,781.5 683,794.7 								"/>
								<polygon class="st18" points="669.5,805.3 668.7,804.8 668.7,786.4 669.5,787 								"/>
								<polygon class="st17" points="685.2,777.8 684.4,777.2 668.7,786.4 669.5,787 								"/>
							</g>
						</g>
					</g>
				</g>
			</g>
			<g>
				<g>
					<g>
						<g>
							<g>
								<polygon class="st17" points="629.4,814.4 629.4,796.2 613.7,805.4 613.7,823.7 								"/>
								<polygon class="st2" points="618.3,805.2 619.1,804.7 621.1,803.6 622.7,802.6 627.2,799.9 627.2,805.2 627.2,807.1 
									627.2,809.4 627.2,810.3 627.2,813.1 626,813.9 624,815 623.3,815.5 622.6,815.9 615.8,819.9 615.8,812 615.8,811.2 
									615.8,810.4 615.8,808.1 615.8,806.6 								"/>
								<g>
									<g>
										<polygon class="st5" points="619.1,804.7 627.2,809.4 627.2,810.3 618.3,805.2 										"/>
										<polygon class="st5" points="621.1,803.6 627.2,807.1 627.2,809.4 619.1,804.7 										"/>
										<polygon class="st5" points="622.7,802.6 627.2,805.2 627.2,807.1 621.1,803.6 										"/>
										<polygon class="st5" points="627.2,799.9 627.2,805.2 622.7,802.6 										"/>
										<polygon class="st5" points="615.8,808.1 626,813.9 624,815 615.8,810.4 										"/>
										<polygon class="st5" points="615.8,806.6 618.3,805.2 627.2,810.3 627.2,813.1 626,813.9 615.8,808.1 										"/>
										<polygon class="st5" points="615.8,812 622.6,815.9 615.8,819.9 										"/>
										<polygon class="st5" points="615.8,811.2 623.3,815.5 622.6,815.9 615.8,812 										"/>
										<polygon class="st5" points="615.8,810.4 624,815 623.3,815.5 615.8,811.2 										"/>
									</g>
								</g>
								<polygon class="st18" points="613.7,805.4 615.8,806.6 627.2,799.9 629.4,796.2 								"/>
								<polygon class="st18" points="613.7,823.7 615.8,819.9 627.2,813.1 629.4,814.4 								"/>
								<polygon class="st17" points="627.2,813.1 626.6,812.6 615.8,819 615.8,819.9 								"/>
								<polygon class="st18" points="626.6,812.6 626.6,800.3 627.2,799.9 627.2,813.1 								"/>
								<polygon class="st18" points="613.7,823.7 612.9,823.2 612.9,804.8 613.7,805.4 								"/>
								<polygon class="st17" points="629.4,796.2 628.6,795.6 612.9,804.8 613.7,805.4 								"/>
							</g>
						</g>
					</g>
				</g>
				<g>
					<g>
						<g>
							<g>
								<polygon class="st17" points="629.4,830.2 629.4,812 613.7,821.2 613.7,839.6 								"/>
								<polygon class="st2" points="618.3,821 619.1,820.6 621.1,819.4 622.7,818.5 627.2,815.8 627.2,821.1 627.2,822.9 
									627.2,825.2 627.2,826.1 627.2,829 626,829.7 624,830.9 623.3,831.3 622.6,831.7 615.8,835.8 615.8,827.9 615.8,827.1 
									615.8,826.2 615.8,823.9 615.8,822.5 								"/>
								<g>
									<g>
										<polygon class="st5" points="619.1,820.6 627.2,825.2 627.2,826.1 618.3,821 										"/>
										<polygon class="st5" points="621.1,819.4 627.2,822.9 627.2,825.2 619.1,820.6 										"/>
										<polygon class="st5" points="622.7,818.5 627.2,821.1 627.2,822.9 621.1,819.4 										"/>
										<polygon class="st5" points="627.2,815.8 627.2,821.1 622.7,818.5 										"/>
										<polygon class="st5" points="615.8,823.9 626,829.7 624,830.9 615.8,826.2 										"/>
										<polygon class="st5" points="615.8,822.5 618.3,821 627.2,826.1 627.2,829 626,829.7 615.8,823.9 										"/>
										<polygon class="st5" points="615.8,827.9 622.6,831.7 615.8,835.8 										"/>
										<polygon class="st5" points="615.8,827.1 623.3,831.3 622.6,831.7 615.8,827.9 										"/>
										<polygon class="st5" points="615.8,826.2 624,830.9 623.3,831.3 615.8,827.1 										"/>
									</g>
								</g>
								<polygon class="st18" points="613.7,821.2 615.8,822.5 627.2,815.8 629.4,812 								"/>
								<polygon class="st18" points="613.7,839.6 615.8,835.8 627.2,829 629.4,830.2 								"/>
								<polygon class="st17" points="627.2,829 626.6,828.5 615.8,834.9 615.8,835.8 								"/>
								<polygon class="st18" points="626.6,828.5 626.6,816.1 627.2,815.8 627.2,829 								"/>
								<polygon class="st18" points="613.7,839.6 612.9,839.1 612.9,820.7 613.7,821.2 								"/>
								<polygon class="st17" points="629.4,812 628.6,811.4 612.9,820.7 613.7,821.2 								"/>
							</g>
						</g>
					</g>
				</g>
			</g>
		</g>
		<g>
			<g>
				<g>
					<g>
						<g>
							<g>
								<polygon class="st17" points="685.2,832.6 685.2,814.5 669.5,823.7 669.5,842 								"/>
								<polygon class="st2" points="674.1,823.5 674.9,823 676.9,821.8 678.5,820.9 683,818.2 683,823.5 683,825.4 683,827.7 
									683,828.6 683,831.4 681.8,832.2 679.8,833.3 679.1,833.8 678.4,834.2 671.7,838.2 671.7,830.3 671.7,829.5 671.7,828.7 
									671.7,826.4 671.7,824.9 								"/>
								<g>
									<g>
										<polygon class="st5" points="674.9,823 683,827.7 683,828.6 674.1,823.5 										"/>
										<polygon class="st5" points="676.9,821.8 683,825.4 683,827.7 674.9,823 										"/>
										<polygon class="st5" points="678.5,820.9 683,823.5 683,825.4 676.9,821.8 										"/>
										<polygon class="st5" points="683,818.2 683,823.5 678.5,820.9 										"/>
										<polygon class="st5" points="671.7,826.4 681.8,832.2 679.8,833.3 671.7,828.7 										"/>
										<polygon class="st5" points="671.7,824.9 674.1,823.5 683,828.6 683,831.4 681.8,832.2 671.7,826.4 										"/>
										<polygon class="st5" points="671.7,830.3 678.4,834.2 671.7,838.2 										"/>
										<polygon class="st5" points="671.7,829.5 679.1,833.8 678.4,834.2 671.7,830.3 										"/>
										<polygon class="st5" points="671.7,828.7 679.8,833.3 679.1,833.8 671.7,829.5 										"/>
									</g>
								</g>
								<polygon class="st18" points="669.5,823.7 671.7,824.9 683,818.2 685.2,814.5 								"/>
								<polygon class="st18" points="669.5,842 671.7,838.2 683,831.4 685.2,832.6 								"/>
								<polygon class="st17" points="683,831.4 682.4,830.9 671.7,837.3 671.7,838.2 								"/>
								<polygon class="st18" points="682.4,830.9 682.4,818.6 683,818.2 683,831.4 								"/>
								<polygon class="st18" points="669.5,842 668.7,841.5 668.7,823.1 669.5,823.7 								"/>
								<polygon class="st17" points="685.2,814.5 684.4,813.9 668.7,823.1 669.5,823.7 								"/>
							</g>
						</g>
					</g>
				</g>
				<g>
					<g>
						<g>
							<g>
								<polygon class="st17" points="685.2,848.5 685.2,830.3 669.5,839.5 669.5,857.9 								"/>
								<polygon class="st2" points="674.1,839.3 674.9,838.9 676.9,837.7 678.5,836.8 683,834.1 683,839.4 683,841.2 683,843.5 
									683,844.4 683,847.3 681.8,848 679.8,849.2 679.1,849.6 678.4,850 671.7,854.1 671.7,846.1 671.7,845.4 671.7,844.5 
									671.7,842.2 671.7,840.8 								"/>
								<g>
									<g>
										<polygon class="st5" points="674.9,838.9 683,843.5 683,844.4 674.1,839.3 										"/>
										<polygon class="st5" points="676.9,837.7 683,841.2 683,843.5 674.9,838.9 										"/>
										<polygon class="st5" points="678.5,836.8 683,839.4 683,841.2 676.9,837.7 										"/>
										<polygon class="st5" points="683,834.1 683,839.4 678.5,836.8 										"/>
										<polygon class="st5" points="671.7,842.2 681.8,848 679.8,849.2 671.7,844.5 										"/>
										<polygon class="st5" points="671.7,840.8 674.1,839.3 683,844.4 683,847.3 681.8,848 671.7,842.2 										"/>
										<polygon class="st5" points="671.7,846.1 678.4,850 671.7,854.1 										"/>
										<polygon class="st5" points="671.7,845.4 679.1,849.6 678.4,850 671.7,846.1 										"/>
										<polygon class="st5" points="671.7,844.5 679.8,849.2 679.1,849.6 671.7,845.4 										"/>
									</g>
								</g>
								<polygon class="st18" points="669.5,839.5 671.7,840.8 683,834.1 685.2,830.3 								"/>
								<polygon class="st18" points="669.5,857.9 671.7,854.1 683,847.3 685.2,848.5 								"/>
								<polygon class="st17" points="683,847.3 682.4,846.8 671.7,853.2 671.7,854.1 								"/>
								<polygon class="st18" points="682.4,846.8 682.4,834.4 683,834.1 683,847.3 								"/>
								<polygon class="st18" points="669.5,857.9 668.7,857.4 668.7,839 669.5,839.5 								"/>
								<polygon class="st17" points="685.2,830.3 684.4,829.7 668.7,839 669.5,839.5 								"/>
							</g>
						</g>
					</g>
				</g>
			</g>
			<g>
				<g>
					<g>
						<g>
							<g>
								<polygon class="st17" points="629.4,866.9 629.4,848.7 613.7,857.9 613.7,876.3 								"/>
								<polygon class="st2" points="618.3,857.7 619.1,857.3 621.1,856.1 622.7,855.2 627.2,852.5 627.2,857.8 627.2,859.6 
									627.2,861.9 627.2,862.8 627.2,865.7 626,866.4 624,867.6 623.3,868 622.6,868.4 615.8,872.5 615.8,864.5 615.8,863.8 
									615.8,862.9 615.8,860.6 615.8,859.2 								"/>
								<g>
									<g>
										<polygon class="st5" points="619.1,857.3 627.2,861.9 627.2,862.8 618.3,857.7 										"/>
										<polygon class="st5" points="621.1,856.1 627.2,859.6 627.2,861.9 619.1,857.3 										"/>
										<polygon class="st5" points="622.7,855.2 627.2,857.8 627.2,859.6 621.1,856.1 										"/>
										<polygon class="st5" points="627.2,852.5 627.2,857.8 622.7,855.2 										"/>
										<polygon class="st5" points="615.8,860.6 626,866.4 624,867.6 615.8,862.9 										"/>
										<polygon class="st5" points="615.8,859.2 618.3,857.7 627.2,862.8 627.2,865.7 626,866.4 615.8,860.6 										"/>
										<polygon class="st5" points="615.8,864.5 622.6,868.4 615.8,872.5 										"/>
										<polygon class="st5" points="615.8,863.8 623.3,868 622.6,868.4 615.8,864.5 										"/>
										<polygon class="st5" points="615.8,862.9 624,867.6 623.3,868 615.8,863.8 										"/>
									</g>
								</g>
								<polygon class="st18" points="613.7,857.9 615.8,859.2 627.2,852.5 629.4,848.7 								"/>
								<polygon class="st18" points="613.7,876.3 615.8,872.5 627.2,865.7 629.4,866.9 								"/>
								<polygon class="st17" points="627.2,865.7 626.6,865.2 615.8,871.6 615.8,872.5 								"/>
								<polygon class="st18" points="626.6,865.2 626.6,852.8 627.2,852.5 627.2,865.7 								"/>
								<polygon class="st18" points="613.7,876.3 612.9,875.8 612.9,857.4 613.7,857.9 								"/>
								<polygon class="st17" points="629.4,848.7 628.6,848.1 612.9,857.4 613.7,857.9 								"/>
							</g>
						</g>
					</g>
				</g>
				<g>
					<g>
						<g>
							<g>
								<polygon class="st17" points="629.4,882.8 629.4,864.6 613.7,873.8 613.7,892.1 								"/>
								<polygon class="st2" points="618.3,873.6 619.1,873.1 621.1,872 622.7,871 627.2,868.3 627.2,873.6 627.2,875.5 
									627.2,877.8 627.2,878.7 627.2,881.5 626,882.3 624,883.4 623.3,883.9 622.6,884.3 615.8,888.3 615.8,880.4 615.8,879.6 
									615.8,878.8 615.8,876.5 615.8,875 								"/>
								<g>
									<g>
										<polygon class="st5" points="619.1,873.1 627.2,877.8 627.2,878.7 618.3,873.6 										"/>
										<polygon class="st5" points="621.1,872 627.2,875.5 627.2,877.8 619.1,873.1 										"/>
										<polygon class="st5" points="622.7,871 627.2,873.6 627.2,875.5 621.1,872 										"/>
										<polygon class="st5" points="627.2,868.3 627.2,873.6 622.7,871 										"/>
										<polygon class="st5" points="615.8,876.5 626,882.3 624,883.4 615.8,878.8 										"/>
										<polygon class="st5" points="615.8,875 618.3,873.6 627.2,878.7 627.2,881.5 626,882.3 615.8,876.5 										"/>
										<polygon class="st5" points="615.8,880.4 622.6,884.3 615.8,888.3 										"/>
										<polygon class="st5" points="615.8,879.6 623.3,883.9 622.6,884.3 615.8,880.4 										"/>
										<polygon class="st5" points="615.8,878.8 624,883.4 623.3,883.9 615.8,879.6 										"/>
									</g>
								</g>
								<polygon class="st18" points="613.7,873.8 615.8,875 627.2,868.3 629.4,864.6 								"/>
								<polygon class="st18" points="613.7,892.1 615.8,888.3 627.2,881.5 629.4,882.8 								"/>
								<polygon class="st17" points="627.2,881.5 626.6,881 615.8,887.5 615.8,888.3 								"/>
								<polygon class="st18" points="626.6,881 626.6,868.7 627.2,868.3 627.2,881.5 								"/>
								<polygon class="st18" points="613.7,892.1 612.9,891.6 612.9,873.2 613.7,873.8 								"/>
								<polygon class="st17" points="629.4,864.6 628.6,864 612.9,873.2 613.7,873.8 								"/>
							</g>
						</g>
					</g>
				</g>
			</g>
		</g>
	</g>
	<g>
		<g>
			<g>
				<g>
					<polygon class="st17" points="571.8,813.6 571.8,795.4 587.5,804.6 587.5,822.9 					"/>
					<polygon class="st2" points="582.9,804.4 582.1,803.9 580.1,802.8 578.5,801.8 574,799.1 574,804.4 574,806.3 574,808.6 
						574,809.5 574,812.3 575.2,813.1 577.2,814.3 577.9,814.7 578.6,815.1 585.4,819.1 585.4,811.2 585.4,810.4 585.4,809.6 
						585.4,807.3 585.4,805.8 					"/>
					<g>
						<g>
							<polygon class="st5" points="582.1,803.9 574,808.6 574,809.5 582.9,804.4 							"/>
							<polygon class="st5" points="580.1,802.8 574,806.3 574,808.6 582.1,803.9 							"/>
							<polygon class="st5" points="578.5,801.8 574,804.4 574,806.3 580.1,802.8 							"/>
							<polygon class="st5" points="574,799.1 574,804.4 578.5,801.8 							"/>
							<polygon class="st5" points="585.4,807.3 575.2,813.1 577.2,814.3 585.4,809.6 							"/>
							<polygon class="st5" points="585.4,805.8 582.9,804.4 574,809.5 574,812.3 575.2,813.1 585.4,807.3 							"/>
							<polygon class="st5" points="585.4,811.2 578.6,815.1 585.4,819.1 							"/>
							<polygon class="st5" points="585.4,810.4 577.9,814.7 578.6,815.1 585.4,811.2 							"/>
							<polygon class="st5" points="585.4,809.6 577.2,814.3 577.9,814.7 585.4,810.4 							"/>
						</g>
					</g>
					<polygon class="st18" points="587.5,804.6 585.4,805.8 574,799.1 571.8,795.4 					"/>
					<polygon class="st18" points="587.5,822.9 585.4,819.1 574,812.3 571.8,813.6 					"/>
					<polygon class="st17" points="574,812.3 574.6,811.8 585.4,818.3 585.4,819.1 					"/>
					<polygon class="st18" points="574.6,811.8 574.6,799.5 574,799.1 574,812.3 					"/>
					<polygon class="st18" points="587.5,822.9 588.4,822.4 588.4,804 587.5,804.6 					"/>
					<polygon class="st17" points="571.8,795.4 572.6,794.8 588.4,804 587.5,804.6 					"/>
				</g>
			</g>
		</g>
	</g>
	<g>
		<g>
			<g>
				<g>
					<polygon class="st17" points="541.6,797.1 541.6,778.9 557.3,788.1 557.3,806.4 					"/>
					<polygon class="st2" points="552.7,787.9 551.9,787.4 549.9,786.3 548.3,785.3 543.7,782.6 543.7,787.9 543.7,789.8 
						543.7,792.1 543.7,793 543.7,795.8 545,796.6 547,797.8 547.7,798.2 548.3,798.6 555.1,802.6 555.1,794.7 555.1,793.9 
						555.1,793.1 555.1,790.8 555.1,789.3 					"/>
					<g>
						<g>
							<polygon class="st5" points="551.9,787.4 543.7,792.1 543.7,793 552.7,787.9 							"/>
							<polygon class="st5" points="549.9,786.3 543.7,789.8 543.7,792.1 551.9,787.4 							"/>
							<polygon class="st5" points="548.3,785.3 543.7,787.9 543.7,789.8 549.9,786.3 							"/>
							<polygon class="st5" points="543.7,782.6 543.7,787.9 548.3,785.3 							"/>
							<polygon class="st5" points="555.1,790.8 545,796.6 547,797.8 555.1,793.1 							"/>
							<polygon class="st5" points="555.1,789.3 552.7,787.9 543.7,793 543.7,795.8 545,796.6 555.1,790.8 							"/>
							<polygon class="st5" points="555.1,794.7 548.3,798.6 555.1,802.6 							"/>
							<polygon class="st5" points="555.1,793.9 547.7,798.2 548.3,798.6 555.1,794.7 							"/>
							<polygon class="st5" points="555.1,793.1 547,797.8 547.7,798.2 555.1,793.9 							"/>
						</g>
					</g>
					<polygon class="st18" points="557.3,788.1 555.1,789.3 543.7,782.6 541.6,778.9 					"/>
					<polygon class="st18" points="557.3,806.4 555.1,802.6 543.7,795.8 541.6,797.1 					"/>
					<polygon class="st17" points="543.7,795.8 544.4,795.3 555.1,801.8 555.1,802.6 					"/>
					<polygon class="st18" points="544.4,795.3 544.4,783 543.7,782.6 543.7,795.8 					"/>
					<polygon class="st18" points="557.3,806.4 558.1,805.9 558.1,787.5 557.3,788.1 					"/>
					<polygon class="st17" points="541.6,778.9 542.4,778.3 558.1,787.5 557.3,788.1 					"/>
				</g>
			</g>
		</g>
	</g>
	<g>
		<g>
			<g>
				<g>
					<polygon class="st17" points="512.6,781.2 512.6,763 528.3,772.3 528.3,790.6 					"/>
					<polygon class="st2" points="523.7,772 522.9,771.6 521,770.4 519.4,769.5 514.8,766.8 514.8,772.1 514.8,774 514.8,776.2 
						514.8,777.2 514.8,780 516,780.7 518,781.9 518.7,782.3 519.4,782.7 526.2,786.8 526.2,778.9 526.2,778.1 526.2,777.2 
						526.2,774.9 526.2,773.5 					"/>
					<g>
						<g>
							<polygon class="st5" points="522.9,771.6 514.8,776.2 514.8,777.2 523.7,772 							"/>
							<polygon class="st5" points="521,770.4 514.8,774 514.8,776.2 522.9,771.6 							"/>
							<polygon class="st5" points="519.4,769.5 514.8,772.1 514.8,774 521,770.4 							"/>
							<polygon class="st5" points="514.8,766.8 514.8,772.1 519.4,769.5 							"/>
							<polygon class="st5" points="526.2,774.9 516,780.7 518,781.9 526.2,777.2 							"/>
							<polygon class="st5" points="526.2,773.5 523.7,772 514.8,777.2 514.8,780 516,780.7 526.2,774.9 							"/>
							<polygon class="st5" points="526.2,778.9 519.4,782.7 526.2,786.8 							"/>
							<polygon class="st5" points="526.2,778.1 518.7,782.3 519.4,782.7 526.2,778.9 							"/>
							<polygon class="st5" points="526.2,777.2 518,781.9 518.7,782.3 526.2,778.1 							"/>
						</g>
					</g>
					<polygon class="st18" points="528.3,772.3 526.2,773.5 514.8,766.8 512.6,763 					"/>
					<polygon class="st18" points="528.3,790.6 526.2,786.8 514.8,780 512.6,781.2 					"/>
					<polygon class="st17" points="514.8,780 515.4,779.5 526.2,785.9 526.2,786.8 					"/>
					<polygon class="st18" points="515.4,779.5 515.4,767.2 514.8,766.8 514.8,780 					"/>
					<polygon class="st18" points="528.3,790.6 529.2,790.1 529.2,771.7 528.3,772.3 					"/>
					<polygon class="st17" points="512.6,763 513.5,762.5 529.2,771.7 528.3,772.3 					"/>
				</g>
			</g>
		</g>
	</g>
	<g>
		<g>
			<g>
				<g>
					<g>
						<polygon class="st17" points="537.7,875.9 537.7,832.4 550.4,839.8 550.4,883.5 						"/>
						<polygon class="st2" points="546.7,839.6 546,839.3 544.4,838.3 543.2,837.6 539.5,835.4 539.5,839.7 539.5,841.2 539.5,843 
							539.5,875.2 539.5,874.9 540.5,875.5 542.1,876.5 542.6,876.8 543.2,877.2 548.6,880.4 548.6,874 548.6,873.4 548.6,875.3 
							548.6,842 548.6,840.8 						"/>
						<g>
							<polygon class="st5" points="539.5,866.4 548.6,861.1 548.6,860.2 539.5,865.4 							"/>
							<polygon class="st5" points="539.5,865.4 548.6,860.2 548.6,850.3 539.5,855.5 							"/>
							<polygon class="st5" points="539.5,873.2 548.6,868 548.6,863.1 539.5,868.3 							"/>
							<polygon class="st5" points="539.5,868.3 548.6,863.1 548.6,861.1 539.5,866.4 							"/>
							<polygon class="st5" points="539.5,875.2 539.5,874.9 540.5,875.5 542.1,876.5 542.6,876.8 543.2,877.2 548.6,880.4 
								548.6,874 548.6,873.4 548.6,875.3 548.6,868 539.5,873.2 							"/>
							<polygon class="st5" points="539.5,855.5 548.6,850.3 548.6,849.3 539.5,854.6 							"/>
							<polygon class="st5" points="543.2,837.6 539.5,835.4 539.5,839.7 539.5,841.1 544.4,838.3 							"/>
							<polygon class="st5" points="539.5,854.6 548.6,849.3 548.6,847.4 539.5,852.6 							"/>
							<polygon class="st5" points="544.4,838.3 544.4,838.3 539.5,841.1 539.5,841.2 539.5,843 539.5,843 546.1,839.3 546,839.3 
															"/>
							<polygon class="st5" points="539.5,852.6 548.6,847.4 548.6,845.6 539.5,850.9 							"/>
							<polygon class="st5" points="539.5,850.9 548.6,845.6 548.6,842 548.6,840.8 546.7,839.6 546.1,839.3 539.5,843 							"/>
						</g>
						<polygon class="st18" points="550.4,839.8 548.6,840.8 539.5,835.4 537.7,832.4 						"/>
						<polygon class="st18" points="550.4,883.5 548.6,880.4 539.5,874.9 537.7,875.9 						"/>
						<polygon class="st17" points="539.5,874.9 540,874.5 548.6,879.7 548.6,880.4 						"/>
						<polygon class="st18" points="540,874.5 540,835.7 539.5,835.4 539.5,874.9 						"/>
						<polygon class="st18" points="550.4,883.5 551.1,883.1 551.1,839.4 550.4,839.8 						"/>
						<polygon class="st17" points="537.7,832.4 538.4,831.9 551.1,839.4 550.4,839.8 						"/>
					</g>
				</g>
			</g>
		</g>
		<g>
			<g>
				<g>
					<g>
						<polygon class="st17" points="548.6,882.3 548.6,838.8 561.3,846.2 561.3,889.9 						"/>
						<polygon class="st2" points="557.6,846 556.9,845.7 555.3,844.7 554.1,844 550.4,841.8 550.4,846.1 550.4,847.6 550.4,849.4 
							550.4,881.6 550.4,881.3 551.4,881.9 553,882.9 553.5,883.2 554.1,883.6 559.5,886.8 559.5,880.4 559.5,879.8 559.5,881.7 
							559.5,848.4 559.5,847.2 						"/>
						<g>
							<polygon class="st5" points="550.4,872.8 559.5,867.5 559.5,866.6 550.4,871.8 							"/>
							<polygon class="st5" points="550.4,871.8 559.5,866.6 559.5,856.7 550.4,861.9 							"/>
							<polygon class="st5" points="550.4,879.7 559.5,874.4 559.5,869.5 550.4,874.7 							"/>
							<polygon class="st5" points="550.4,874.7 559.5,869.5 559.5,867.5 550.4,872.8 							"/>
							<polygon class="st5" points="550.4,881.6 550.4,881.3 551.4,881.9 553,882.9 553.5,883.2 554.1,883.6 559.5,886.8 
								559.5,880.4 559.5,879.8 559.5,881.7 559.5,874.4 550.4,879.7 							"/>
							<polygon class="st5" points="550.4,861.9 559.5,856.7 559.5,855.7 550.4,861 							"/>
							<polygon class="st5" points="554.1,844 550.4,841.8 550.4,846.1 550.4,847.5 555.3,844.7 							"/>
							<polygon class="st5" points="550.4,861 559.5,855.7 559.5,853.8 550.4,859 							"/>
							<polygon class="st5" points="555.3,844.7 555.3,844.7 550.4,847.5 550.4,847.6 550.4,849.4 550.4,849.4 557,845.7 
								556.9,845.7 							"/>
							<polygon class="st5" points="550.4,859 559.5,853.8 559.5,852 550.4,857.3 							"/>
							<polygon class="st5" points="550.4,857.3 559.5,852 559.5,848.4 559.5,847.2 557.6,846 557,845.7 550.4,849.4 							"/>
						</g>
						<polygon class="st18" points="561.3,846.2 559.5,847.2 550.4,841.8 548.6,838.8 						"/>
						<polygon class="st18" points="561.3,889.9 559.5,886.8 550.4,881.3 548.6,882.3 						"/>
						<polygon class="st17" points="550.4,881.3 550.9,880.9 559.5,886.1 559.5,886.8 						"/>
						<polygon class="st18" points="550.9,880.9 550.9,842.1 550.4,841.8 550.4,881.3 						"/>
						<polygon class="st18" points="561.3,889.9 562,889.5 562,845.8 561.3,846.2 						"/>
						<polygon class="st17" points="548.6,838.8 549.3,838.3 562,845.8 561.3,846.2 						"/>
					</g>
				</g>
			</g>
		</g>
	</g>
	<g>
		<g>
			<linearGradient id="SVGID_5_" gradientUnits="userSpaceOnUse" x1="480.9209" y1="896.9836" x2="584.5513" y2="896.9836">
				<stop  offset="6.300000e-07" style="stop-color:#FFFFFF"/>
				<stop  offset="1" style="stop-color:#E1E6F0"/>
			</linearGradient>
			<polygon class="st19" points="480.9,891.6 521.2,866.5 584.6,903.4 544.4,927.5 			"/>
			<polygon class="st0" points="544.4,932.1 584.6,909 584.6,903.4 544.4,927.3 			"/>
			<linearGradient id="SVGID_6_" gradientUnits="userSpaceOnUse" x1="480.9209" y1="911.8441" x2="544.3692" y2="911.8441">
				<stop  offset="0" style="stop-color:#E1E6F0"/>
				<stop  offset="1" style="stop-color:#FFFFFF"/>
			</linearGradient>
			<polygon class="st20" points="480.9,891.6 480.9,896.4 544.4,932.1 544.4,927.3 			"/>
		</g>
		<g>
			<linearGradient id="SVGID_7_" gradientUnits="userSpaceOnUse" x1="480.9209" y1="823.704" x2="584.5513" y2="823.704">
				<stop  offset="6.300000e-07" style="stop-color:#FFFFFF"/>
				<stop  offset="1" style="stop-color:#E1E6F0"/>
			</linearGradient>
			<polygon class="st21" points="480.9,818 521.2,793.7 584.6,829 544.4,853.7 			"/>
			<polygon class="st0" points="544.4,863.9 584.6,839.3 584.6,829 544.4,853.6 			"/>
			<linearGradient id="SVGID_8_" gradientUnits="userSpaceOnUse" x1="480.9209" y1="840.9257" x2="544.3692" y2="840.9257">
				<stop  offset="0" style="stop-color:#E1E6F0"/>
				<stop  offset="1" style="stop-color:#FFFFFF"/>
			</linearGradient>
			<polygon class="st22" points="480.9,818 480.9,827.5 544.4,863.9 544.4,853.6 			"/>
		</g>
	</g>
	<g>
		<polygon class="st0" points="625.6,745.5 654.5,729.9 654.5,703.4 625.6,720.8 		"/>
		<linearGradient id="SVGID_9_" gradientUnits="userSpaceOnUse" x1="578.0062" y1="697.3511" x2="649.2795" y2="697.3511">
			<stop  offset="6.300000e-07" style="stop-color:#FFFFFF"/>
			<stop  offset="1" style="stop-color:#E1E6F0"/>
		</linearGradient>
		<polygon class="st23" points="578,690.3 601.7,676.8 649.3,704.4 625.6,717.9 		"/>
		<polygon class="st24" points="601.7,676.8 601.7,672.5 649.3,700 649.3,704.4 		"/>
		<polygon class="st1" points="601.7,672.5 601.7,668.6 656.8,700.5 649.3,700 		"/>
		<polygon class="st1" points="601.7,668.6 570.5,686.5 578,686 601.7,672.5 		"/>
		<polygon class="st24" points="601.7,672.5 601.7,676.8 578,690.3 578,686 		"/>
		<polygon class="st1" points="656.8,700.5 625.6,717.9 625.6,712.5 649.3,700 		"/>
		<polygon class="st1" points="578,686 625.6,712.5 625.6,717.9 570.5,686.5 		"/>
		<polygon class="st24" points="656.7,700.5 656.7,703.2 625.5,720.8 625.5,717.9 		"/>
		<polygon class="st24" points="625.6,720.8 570.5,689.1 570.5,686.5 625.6,717.9 		"/>
		<linearGradient id="SVGID_10_" gradientUnits="userSpaceOnUse" x1="572.6881" y1="717.9206" x2="625.563" y2="717.9206">
			<stop  offset="0" style="stop-color:#E1E6F0"/>
			<stop  offset="1" style="stop-color:#FFFFFF"/>
		</linearGradient>
		<polygon class="st25" points="572.7,690.3 572.7,715.6 625.6,745.5 625.6,720.8 		"/>
	</g>
</g>
<g>
	<g>
		<defs>
			<line id="SVGID_33_" x1="3256" y1="8305" x2="5133" y2="8305"/>
		</defs>
		<clipPath id="SVGID_11_">
			<use xlink:href="#SVGID_33_"  style="overflow:visible;"/>
		</clipPath>
		<g style="clip-path:url(#SVGID_11_);enable-background:new    ;">
			<g>
				<defs>
					<polyline id="SVGID_35_" points="5791,1304 1953,1304 1953,3709 					"/>
				</defs>
				<clipPath id="SVGID_12_">
					<use xlink:href="#SVGID_35_"  style="overflow:visible;"/>
				</clipPath>
				<g style="clip-path:url(#SVGID_12_);">
					<g class="st46">
						<g>
							<defs>
								<polyline id="SVGID_37_" points="5791,1304 1953,1304 1953,3709 								"/>
							</defs>
							<clipPath id="SVGID_13_">
								<use xlink:href="#SVGID_37_"  style="overflow:visible;"/>
							</clipPath>
							<g style="clip-path:url(#SVGID_13_);">
								<defs>
									<path id="SVGID_39_" d="M1953.6,3046.4l581.5-1416.9c80.5-196.2,272-324.4,484.6-324.4l1727.3-0.2"/>
								</defs>
								<clipPath id="SVGID_14_">
									<use xlink:href="#SVGID_39_"  style="overflow:visible;"/>
								</clipPath>
								<g style="clip-path:url(#SVGID_14_);">
									<polyline class="st49" points="4752,1299.8 1948.6,1299.8 1948.6,3051.4 									"/>
								</g>
							</g>
						</g>
					</g>
				</g>
			</g>
		</g>
	</g>
</g>
</svg>
