<?xml version="1.0" encoding="utf-8"?>
<!-- Generator: Adobe Illustrator 21.1.0, SVG Export Plug-In . SVG Version: 6.00 Build 0)  -->
<svg version="1.1" id="Calque_1" xmlns="http://www.w3.org/2000/svg" xmlns:xlink="http://www.w3.org/1999/xlink" x="0px" y="0px"
	 viewBox="0 0 300 100" style="enable-background:new 0 0 300 100;" xml:space="preserve">
<style type="text/css">
	.st0{fill:#2D6DFF;}
	.st1{fill:#2E7EFF;}
	.st2{fill:#2D47FE;}
	.st3{fill:#60D0FE;}
	.st4{fill:#47A8FF;}
	.st5{fill:#2C62FA;}
	.st6{fill:#478DFF;}
	.st7{fill:#3C77FF;}
	.st8{fill:#FFFFFF;}
	.st9{fill:#2060F6;}
</style>
<g>
	<g>
		
			<rect x="52.6" y="20.3" transform="matrix(0.4763 -0.8793 0.8793 0.4763 4.5709 63.9513)" class="st0" width="6.7" height="15.7"/>
		
			<rect x="53.8" y="62.9" transform="matrix(0.5378 0.843 -0.843 0.5378 86.0286 -15.4286)" class="st0" width="6.7" height="15.7"/>
		<g>
			<rect x="16.7" y="42.1" class="st0" width="6.7" height="15.7"/>
			<g>
				<g>
					<circle class="st1" cx="40.2" cy="42.3" r="23.5"/>
					<circle class="st2" cx="40.2" cy="57.7" r="23.5"/>
					<circle class="st3" cx="53.1" cy="49.5" r="23.5"/>
					<circle class="st1" cx="40.2" cy="42.3" r="23.5"/>
					<path class="st4" d="M29.7,49.5c0,6.2,2.4,11.8,6.3,16c1.4,0.3,2.8,0.4,4.2,0.4c13,0,23.5-10.5,23.5-23.5
						c0-6.2-2.4-11.8-6.3-16C56,26.1,54.6,26,53.1,26C40.2,26,29.7,36.5,29.7,49.5z"/>
					<path class="st5" d="M40.2,34.2c-10.3,0-19,6.6-22.2,15.8c3.2,9.2,11.9,15.8,22.2,15.8s19-6.6,22.2-15.8
						C59.2,40.8,50.4,34.2,40.2,34.2z"/>
					<path class="st6" d="M40.2,34.2c-1.9,0-3.7,0.2-5.4,0.6c-3.2,4-5.1,9.1-5.1,14.6c0,13,10.5,23.5,23.5,23.5
						c1.9,0,3.7-0.2,5.4-0.6c3.2-4,5.1-9.1,5.1-14.6C63.6,44.7,53.1,34.2,40.2,34.2z"/>
					<path class="st7" d="M39.1,34.2c-0.2,0-0.4,0-0.6,0c-0.1,0-0.2,0-0.2,0c-0.3,0-0.5,0-0.8,0.1c-0.1,0-0.2,0-0.2,0
						c-0.2,0-0.4,0.1-0.6,0.1c-0.1,0-0.2,0-0.3,0c-0.2,0-0.4,0.1-0.6,0.1c-0.1,0-0.2,0-0.2,0c-0.2,0-0.4,0.1-0.7,0.1
						c-3.2,4-5.1,9.1-5.1,14.6c0,6.2,2.4,11.8,6.3,16c1.4,0.3,2.8,0.4,4.2,0.4c10.3,0,19-6.6,22.2-15.8c-0.2-0.6-0.4-1.1-0.7-1.7
						c0,0,0,0,0,0c-0.2-0.5-0.5-1.1-0.8-1.6c0,0,0,0,0,0c-0.4-0.8-0.9-1.5-1.4-2.3c0,0,0,0,0,0c-0.3-0.5-0.7-0.9-1-1.4c0,0,0,0,0,0
						c-0.4-0.4-0.7-0.9-1.1-1.3c0,0,0,0,0,0c-0.2-0.2-0.4-0.4-0.6-0.6c0,0,0,0,0,0c-0.4-0.4-0.8-0.8-1.3-1.1c0,0,0,0-0.1-0.1
						c-0.4-0.4-0.9-0.7-1.3-1c0,0-0.1,0-0.1-0.1c-0.2-0.2-0.4-0.3-0.7-0.5c0,0,0,0-0.1,0c-0.2-0.1-0.4-0.3-0.7-0.4c0,0,0,0-0.1,0
						c-0.2-0.1-0.5-0.3-0.7-0.4c0,0-0.1,0-0.1-0.1c-0.5-0.3-1-0.5-1.5-0.8c0,0-0.1,0-0.1-0.1c-0.2-0.1-0.5-0.2-0.7-0.3
						c0,0,0,0-0.1,0c-0.2-0.1-0.5-0.2-0.7-0.3c0,0-0.1,0-0.1,0c-0.3-0.1-0.5-0.2-0.8-0.3c0,0-0.1,0-0.1,0c-0.2-0.1-0.5-0.2-0.7-0.2
						c0,0,0,0-0.1,0c-0.3-0.1-0.5-0.1-0.8-0.2c-0.1,0-0.1,0-0.2,0c-0.3-0.1-0.5-0.1-0.8-0.2c0,0,0,0-0.1,0c-0.3-0.1-0.5-0.1-0.8-0.1
						c-0.1,0-0.1,0-0.2,0c-0.3,0-0.5-0.1-0.8-0.1c-0.1,0-0.1,0-0.2,0c-0.2,0-0.5-0.1-0.7-0.1c0,0-0.1,0-0.1,0c-0.3,0-0.6,0-0.8,0
						c-0.1,0-0.1,0-0.2,0c-0.3,0-0.6,0-0.9,0c-0.3,0-0.6,0-0.9,0C39.2,34.2,39.1,34.2,39.1,34.2z"/>
				</g>
				<g>
					<g>
						<path class="st8" d="M44.2,35.1c-7.9,0.2-14.3,6.6-14.5,14.5c0,0.1,0,0.2,0,0.3c0,0,0,0,0,0c0,0,0,0,0,0
							c0,8.2,6.6,14.8,14.8,14.8c5.2,0,9.7-2.6,12.4-6.7c0.7-1.1-0.1-2.6-1.4-2.6h0c-0.8,0-1.5,0.4-2,1c-2.1,2.9-5.7,4.8-9.6,4.6
							c-5.2-0.3-9.5-4.2-10.3-9.2h21.9h2h0c0.4,0,0.8-0.2,1.2-0.4c0,0,0,0,0,0c0,0,0,0,0,0c0.4-0.3,0.6-0.8,0.6-1.4c0,0,0,0,0,0
							C59.4,41.6,52.5,34.9,44.2,35.1z M33.6,48c0.9-5.2,5.5-9.3,11-9.3c5.5,0,10.1,4,11,9.3H33.6z"/>
					</g>
				</g>
			</g>
		</g>
	</g>
	<path class="st9" d="M146.8,31.7c9.8,0,17.7,8,17.7,17.7s-8,17.7-17.7,17.7s-17.7-8-17.7-17.7S137,31.7,146.8,31.7 M146.8,25.8
		c-13.1,0-23.6,10.6-23.6,23.6s10.6,23.6,23.6,23.6s23.6-10.6,23.6-23.6S159.9,25.8,146.8,25.8L146.8,25.8z"/>
	<path class="st9" d="M203.3,25.8h-29.5c-1.6,0-3,1.3-3,3c0,1.6,1.3,3,3,3h11.8v38.4c0,1.6,1.3,3,3,3c1.6,0,3-1.3,3-3V31.7h11.8
		c1.6,0,3-1.3,3-3C206.3,27.1,205,25.8,203.3,25.8z"/>
	<g>
		<path class="st9" d="M241.9,67.2h-23.6V52.4c0,0,0,0,0,0h23.6c1.7,0,3.1-1.4,2.9-3.1c-0.1-1.6-1.5-2.8-3.1-2.8h-23.5c0,0,0,0,0,0
			V31.7c0,0,0,0,0,0h23.6c1.7,0,3.1-1.4,2.9-3.1c-0.1-1.6-1.5-2.8-3.1-2.8h-26.1c-1.8,0-3.3,1.5-3.3,3.3v41l0,0c0,0,0,0,0,0
			c0,1.6,1.3,3,3,3h26.6c1.6,0,3-1.3,3-3C244.8,68.5,243.5,67.2,241.9,67.2z"/>
	</g>
	<path class="st9" d="M282.9,68.9l-14.4-23.7l14-14.2c1.2-1.2,1.1-3.1-0.3-4.2c-1.3-1.1-3.4-1-4.6,0.2l-20.3,20.7V28.8
		c0-1.6-1.5-3-3.2-3c-1.8,0-3.2,1.3-3.2,3v41.4c0,1.6,1.5,3,3.2,3c1.8,0,3.2-1.3,3.2-3V56.5l6.6-6.7l13.3,21.9
		c0.6,1,1.7,1.5,2.8,1.5c0.5,0,1.1-0.1,1.6-0.4C283.2,72.1,283.8,70.3,282.9,68.9z"/>
	<path class="st9" d="M92.4,73.1c-1.6-0.1-2.8-1.5-2.8-3V29.1c0-1.8,1.5-3.3,3.3-3.3h12.7c7.3,0,13.4,5.7,13.5,13
		c0.2,7.5-5.9,13.6-13.3,13.6H95.6v17.7C95.6,71.8,94.2,73.2,92.4,73.1z M95.6,46.5h10.3c4.1,0,7.4-3.3,7.4-7.4s-3.3-7.4-7.4-7.4
		H95.6V46.5z"/>
</g>
</svg>
