<?xml version="1.0" encoding="UTF-8"?>
<svg width="677px" height="89px" viewBox="0 0 677 89" version="1.1" xmlns="http://www.w3.org/2000/svg" xmlns:xlink="http://www.w3.org/1999/xlink">
    <!-- Generator: Sketch 41.2 (35397) - http://www.bohemiancoding.com/sketch -->
    <title>Logo/Black</title>
    <desc>Created with Sketch.</desc>
    <defs></defs>
    <g id="Symbols" stroke="none" stroke-width="1" fill="none" fill-rule="evenodd">
        <g id="Logo/Black">
            <g id="logo_black">
                <g id="Calque_1">
                    <path d="M229.6,40.56 C223.96,44.7 218.21,45.62 208.32,45.62 L191.99,45.62 L191.99,88.5 L188.54,88.5 L188.54,0 L208.35,0 C218.47,0 223.99,0.92 229.63,5.06 C235.161686,8.97396033 238.394041,15.3749965 238.26,22.15 C238.23,29.87 234.66,36.88 229.6,40.56 L229.6,40.56 Z M227.76,7.82 C222.93,4.25 218.1,3.1 208.44,3.1 L191.99,3.1 L191.99,42.52 L208.44,42.52 C217.99,42.52 222.92,40.88 227.75,37.32 C231.89,34.32 234.75,28.72 234.75,22.32 C234.78,15.6 231.9,10.82 227.76,7.83 L227.76,7.82 Z" id="Shape" fill="#0E1C2D"></path>
                    <path d="M332.27,88.43 C307.89,88.43 288.1,69.91 288.1,44.38 C288.1,18.85 307.88,0.33 332.27,0.33 C356.66,0.33 376.44,18.85 376.44,44.38 C376.44,69.91 356.66,88.43 332.27,88.43 L332.27,88.43 Z M332.27,3.43 C309.73,3.43 291.55,20.8 291.55,44.38 C291.55,67.96 309.72,85.33 332.27,85.33 C354.82,85.33 372.99,67.96 372.99,44.38 C372.99,20.8 354.82,3.43 332.27,3.43 L332.27,3.43 Z" id="Shape" fill="#0E1C2D"></path>
                    <polygon id="Shape" fill="#0E1C2D" points="453.05 88.43 449.6 88.43 449.6 3.37 426.48 3.37 426.48 0.22 476.17 0.22 476.17 3.33 453.05 3.33"></polygon>
                    <polygon id="Shape" fill="#0E1C2D" points="526.93 0 573.63 0 573.63 3.11 530.35 3.11 530.35 42.53 573.6 42.53 573.6 45.34 530.35 45.34 530.35 85.34 573.6 85.34 573.6 88.45 526.9 88.45"></polygon>
                    <polygon id="Shape" fill="#0E1C2D" points="672.01 88.48 640.91 46.56 627.11 64.73 627.11 88.48 623.66 88.48 623.66 0 627.11 0 627.11 59.32 627.35 59.32 672.02 5.68434189e-14 676.16 5.68434189e-14 643.11 43.79 676.16 88.48 672.02 88.48"></polygon>
                    <path d="M82.99,56.94 C77.84,73.86 62.46,85.31 44.17,85.31 C21.94,85.31 3.97,68.41 3.48,45.31 L88.35,45.31 L88.35,44.31 C88.35,18.78 68.57,0.26 44.18,0.26 C19.79,0.26 0.01,18.78 0.01,44.31 C0.01,69.84 19.79,88.36 44.18,88.36 C64.34,88.36 81.31,75.69 86.6,56.88 L83,56.88 L82.99,56.94 Z M44.17,3.42 C66.11,3.42 83.91,19.88 84.84,42.5 L3.5,42.5 C4.43,19.88 22.23,3.43 44.17,3.43 L44.17,3.42 Z" id="Shape" fill="#4990E2"></path>
                    <path d="M113.5,43.55 L163.5,43.55" id="Line" stroke="#0E1C2D" stroke-width="3.1" stroke-linecap="square"></path>
                </g>
            </g>
        </g>
    </g>
</svg>