<?xml version="1.0" encoding="UTF-8"?>
<svg width="222px" height="230px" viewBox="0 0 222 230" version="1.1" xmlns="http://www.w3.org/2000/svg" xmlns:xlink="http://www.w3.org/1999/xlink">
    <!-- Generator: Sketch 52.5 (67469) - http://www.bohemiancoding.com/sketch -->
    <title>E-Potek_icone_300x300_no-border</title>
    <desc>Created with Sketch.</desc>
    <g id="Page-1" stroke="none" stroke-width="1" fill="none" fill-rule="evenodd">
        <g id="E-Potek_icone_300x300_no-border">
            <rect id="Rectangle" fill="#2D6DFF" transform="translate(145.395575, 34.388085) rotate(-61.556442) translate(-145.395575, -34.388085) " x="133.095389" y="5.33764664" width="24.6003712" height="58.1008767"></rect>
            <rect id="Rectangle" fill="#2D6DFF" transform="translate(149.501450, 191.487690) rotate(57.463767) translate(-149.501450, -191.487690) " x="137.202201" y="162.439464" width="24.5984974" height="58.0964511"></rect>
            <g id="Group">
                <rect id="Rectangle" fill="#2D6DFF" x="0.6" y="86" width="24.6" height="58.1"></rect>
                <g>
                    <g>
                        <circle id="Oval" fill="#2E7EFF" cx="87.1" cy="86.7" r="86.5"></circle>
                        <circle id="Oval" fill="#2D47FE" cx="87.1" cy="143.3" r="86.5"></circle>
                        <circle id="Oval" fill="#60D0FE" cx="134.9" cy="113" r="86.5"></circle>
                        <circle id="Oval" fill="#2E7EFF" cx="87.1" cy="86.7" r="86.5"></circle>
                        <path d="M48.4,113 C48.4,135.7 57.2,156.4 71.5,171.8 C76.6,172.7 81.8,173.2 87.1,173.2 C134.9,173.2 173.6,134.5 173.6,86.7 C173.6,64 164.8,43.3 150.5,27.9 C145.4,27 140.2,26.5 134.9,26.5 C87.1,26.5 48.4,65.2 48.4,113 Z" id="Path" fill="#47A8FF"></path>
                        <path d="M87.1,56.8 C49.2,56.8 17,81.1 5.3,115 C17,148.9 49.2,173.2 87.1,173.2 C125,173.2 157.2,148.9 168.9,115 C157.2,81.1 125,56.8 87.1,56.8 Z" id="Path" fill="#2C62FA"></path>
                        <path d="M87.1,56.8 C80.3,56.8 73.6,57.6 67.3,59.1 C55.5,73.9 48.4,92.6 48.4,113 C48.4,160.8 87.1,199.5 134.9,199.5 C141.7,199.5 148.4,198.7 154.7,197.2 C166.5,182.4 173.6,163.7 173.6,143.3 C173.6,95.5 134.9,56.8 87.1,56.8 Z" id="Path" fill="#478DFF"></path>
                        <path d="M83,56.9 C82.2,56.9 81.4,57 80.6,57 C80.3,57 80,57 79.8,57.1 C78.8,57.2 77.8,57.3 76.8,57.4 C76.5,57.4 76.2,57.5 75.9,57.5 C75.2,57.6 74.4,57.7 73.7,57.8 C73.3,57.9 72.9,57.9 72.6,58 C71.9,58.1 71.1,58.3 70.4,58.4 C70.1,58.5 69.8,58.5 69.6,58.6 C68.8,58.8 68,59 67.2,59.1 C55.4,73.9 48.3,92.6 48.3,113 C48.3,135.7 57.1,156.4 71.4,171.8 C76.5,172.7 81.7,173.2 87,173.2 C124.9,173.2 157.1,148.9 168.8,115 C168.1,112.9 167.3,110.8 166.4,108.8 C166.4,108.8 166.4,108.7 166.3,108.7 C165.4,106.7 164.5,104.7 163.5,102.8 C163.5,102.8 163.5,102.7 163.4,102.7 C161.9,99.8 160.2,97 158.3,94.3 C158.3,94.3 158.2,94.2 158.2,94.2 C157,92.4 155.7,90.7 154.4,89.1 C154.4,89 154.3,89 154.3,88.9 C153,87.3 151.6,85.7 150.1,84.1 C150.1,84.1 150,84 150,84 C149.3,83.2 148.5,82.5 147.8,81.7 C147.8,81.7 147.7,81.6 147.7,81.6 C146.2,80.1 144.7,78.7 143.1,77.4 C143,77.3 142.9,77.2 142.8,77.2 C141.2,75.9 139.6,74.6 137.9,73.4 C137.8,73.3 137.7,73.2 137.6,73.2 C136.8,72.6 135.9,72 135.1,71.5 C135,71.4 134.9,71.4 134.9,71.3 C134.1,70.8 133.3,70.2 132.4,69.7 C132.3,69.7 132.2,69.6 132.2,69.6 C131.3,69.1 130.5,68.6 129.6,68.1 C129.5,68 129.3,67.9 129.2,67.9 C127.4,66.9 125.6,66 123.8,65.1 C123.6,65 123.5,64.9 123.3,64.9 C122.4,64.5 121.5,64.1 120.6,63.7 C120.5,63.7 120.4,63.6 120.3,63.6 C119.4,63.2 118.6,62.9 117.7,62.6 C117.5,62.5 117.4,62.5 117.2,62.4 C116.3,62.1 115.3,61.7 114.4,61.4 C114.2,61.3 114,61.3 113.9,61.2 C113,60.9 112.1,60.6 111.2,60.4 C111.1,60.4 111,60.3 111,60.3 C110,60 109.1,59.8 108.1,59.5 C107.9,59.4 107.7,59.4 107.5,59.3 C106.5,59.1 105.5,58.8 104.5,58.6 C104.4,58.6 104.3,58.6 104.3,58.6 C103.4,58.4 102.4,58.2 101.5,58.1 C101.3,58.1 101.1,58 100.9,58 C99.9,57.8 98.9,57.7 97.9,57.6 C97.7,57.6 97.5,57.6 97.3,57.5 C96.4,57.4 95.5,57.3 94.5,57.2 C94.3,57.2 94.2,57.2 94,57.2 C93,57.1 92,57.1 90.9,57 C90.7,57 90.4,57 90.2,57 C89.2,57 88.1,56.9 87,56.9 C85.9,56.9 84.9,56.9 83.8,57 C83.6,56.8 83.3,56.9 83,56.9 Z" id="Path" fill="#3C77FF"></path>
                    </g>
                    <path d="M101.9,60 C72.9,60.7 49.3,84.3 48.6,113.3 C48.6,113.7 48.6,114.1 48.6,114.5 C48.6,114.5 48.6,114.6 48.6,114.6 C48.6,114.6 48.6,114.6 48.6,114.6 C48.6,144.8 73.1,169.2 103.2,169.2 C122.3,169.2 139,159.4 148.8,144.7 C151.5,140.6 148.5,135.1 143.6,135.1 C140.7,135.1 138,136.4 136.3,138.7 C128.4,149.5 115.4,156.3 100.9,155.5 C81.7,154.5 65.9,140 62.8,121.4 L143.6,121.4 L151,121.4 C152.6,121.4 154.1,120.8 155.3,119.9 C155.3,119.9 155.3,119.9 155.3,119.9 C155.3,119.9 155.4,119.8 155.4,119.8 C156.9,118.6 157.8,116.7 157.8,114.7 C157.8,114.7 157.8,114.7 157.8,114.6 C157.9,84 132.7,59.3 101.9,60 Z M62.8,107.8 C66.1,88.4 82.9,73.7 103.2,73.7 C123.5,73.7 140.3,88.5 143.6,107.8 L62.8,107.8 Z" id="Shape" fill="#FFFFFF" fill-rule="nonzero"></path>
                </g>
            </g>
        </g>
    </g>
</svg>