<?xml version="1.0" encoding="UTF-8"?>
<svg width="24px" height="28px" viewBox="0 0 24 28" version="1.1" xmlns="http://www.w3.org/2000/svg" xmlns:xlink="http://www.w3.org/1999/xlink">
    <!-- Generator: Sketch 50.2 (55047) - http://www.bohemiancoding.com/sketch -->
    <title>Group 2</title>
    <desc>Created with Sketch.</desc>
    <defs></defs>
    <g id="Widget-1-V2-Copy" stroke="none" stroke-width="1" fill="none" fill-rule="evenodd">
        <g id="Variante-A3" transform="translate(-1047.000000, -196.000000)" fill="#FFFFFF" fill-rule="nonzero">
            <g id="Group-2" transform="translate(1047.000000, 196.000000)">
                <path d="M23.0024615,18.3418462 C24.9286154,13.2446154 23.0212308,7.376 18.4658462,4.38892308 C18.1095385,4.15446154 17.6304615,4.25415385 17.3953846,4.61138462 C17.1609231,4.96830769 17.2606154,5.44738462 17.6178462,5.68184615 C21.5723077,8.27538462 23.2283077,13.3698462 21.556,17.7953846 C20.0489231,21.7833846 16.1526154,24.3892308 11.9735385,24.3753846 L13.9021538,23.1018462 C14.2584615,22.8667692 14.3566154,22.3873846 14.1215385,22.0310769 C13.8858462,21.6747692 13.4070769,21.5766154 13.0501538,21.8116923 L9.64984615,24.0569231 C9.44061538,24.1956923 9.31076923,24.4270769 9.30307692,24.6784615 C9.296,24.9295385 9.41076923,25.1689231 9.61138462,25.3203077 L9.87230769,25.5169231 C9.95415385,25.6215385 10.0627692,25.7036923 10.1889231,25.7553846 L12.8338462,27.7458462 C12.9732308,27.8504615 13.136,27.9009231 13.2984615,27.9009231 C13.5329231,27.9009231 13.7649231,27.7944615 13.9169231,27.5926154 C14.1735385,27.252 14.1049231,26.7667692 13.7636923,26.5101538 L12.9332308,25.8852308 C17.372,25.5258462 21.3827692,22.6255385 23.0024615,18.3418462 Z" id="Shape"></path>
                <path d="M10.5876923,0.474461538 C10.3286154,0.813538462 10.3935385,1.29907692 10.7326154,1.55784615 L11.9206154,2.46646154 C7.16707692,2.51815385 2.76307692,5.50123077 1.04553846,10.0427692 C-0.88,15.14 1.028,21.008 5.58276923,23.9966154 C5.71384615,24.0824615 5.86030769,24.1233846 6.00646154,24.1233846 C6.25753846,24.1233846 6.50461538,24.0003077 6.65323077,23.7741538 C6.88769231,23.4172308 6.788,22.9375385 6.43076923,22.7036923 C2.47723077,20.1092308 0.820307692,15.0144615 2.49230769,10.5895385 C3.99353846,6.61846154 7.86307692,4.01876923 12.0230769,4.01107692 L10.5578462,4.96246154 C10.1996923,5.19507692 10.0981538,5.67415385 10.3307692,6.03169231 C10.4784615,6.26 10.7267692,6.384 10.9796923,6.384 C11.124,6.384 11.2698462,6.34369231 11.3996923,6.25969231 L14.8209231,4.03784615 C15.032,3.90092308 15.1627692,3.67015385 15.1726154,3.41876923 C15.1824615,3.16738462 15.0692308,2.92769231 14.8698462,2.77507692 L11.672,0.329538462 C11.3316923,0.0704615385 10.8473846,0.134769231 10.5876923,0.474461538 Z" id="Shape"></path>
                <path d="M4.98123077,17.5313846 C4.55384615,17.5313846 4.20769231,17.8775385 4.20769231,18.3043077 C4.20769231,18.7316923 4.55384615,19.0778462 4.98123077,19.0778462 L7.31846154,19.0778462 C7.32092308,19.0778462 7.32276923,19.0784615 7.32461538,19.0784615 L10.636,19.0784615 L13.4612308,19.0784615 L16.724,19.0784615 C16.7258462,19.0784615 16.7276923,19.0778462 16.7301538,19.0778462 L19.068,19.0778462 C19.4947692,19.0778462 19.8409231,18.7316923 19.8409231,18.3043077 C19.8409231,17.8775385 19.4947692,17.5313846 19.068,17.5313846 L17.4972308,17.5313846 L17.4972308,12.8153846 L18.648,13.56 C19.0061538,13.792 19.4852308,13.6898462 19.7172308,13.3304615 C19.9492308,12.9723077 19.8464615,12.4932308 19.4876923,12.2618462 L12.4433846,7.70615385 C12.188,7.54092308 11.8593846,7.54092308 11.6036923,7.70615385 L9.23230769,9.23969231 L9.23230769,8.35446154 C9.23230769,7.92707692 8.88615385,7.58092308 8.45938462,7.58092308 L7.32430769,7.58092308 C6.89753846,7.58092308 6.55138462,7.92707692 6.55138462,8.35446154 L6.55138462,10.9741538 L4.56092308,12.2621538 C4.20215385,12.4941538 4.1,12.9726154 4.332,13.3307692 C4.47969231,13.5596923 4.728,13.684 4.98153846,13.684 C5.12523077,13.684 5.27107692,13.6443077 5.40030769,13.5603077 L6.55107692,12.8156923 L6.55107692,17.5313846 L4.98123077,17.5313846 Z M12.688,17.5313846 L11.4092308,17.5313846 L11.4092308,14.8763077 L12.688,14.8763077 L12.688,17.5313846 Z M8.09784615,11.8153846 L12.0233846,9.27569231 L15.9501538,11.8153846 L15.9501538,17.5310769 L14.2344615,17.5310769 L14.2344615,14.1033846 C14.2344615,13.676 13.8883077,13.3298462 13.4609231,13.3298462 L10.6356923,13.3298462 C10.2089231,13.3298462 9.86276923,13.676 9.86276923,14.1033846 L9.86276923,17.5313846 L8.09784615,17.5313846 L8.09784615,11.8153846 Z" id="Shape"></path>
            </g>
        </g>
    </g>
</svg>