<?xml version="1.0" encoding="UTF-8"?>
<svg width="3164px" height="1298px" viewBox="0 0 3164 1298" version="1.1" xmlns="http://www.w3.org/2000/svg" xmlns:xlink="http://www.w3.org/1999/xlink">
    <!-- Generator: Sketch 51.3 (57544) - http://www.bohemiancoding.com/sketch -->
    <title>homepage-closing</title>
    <desc>Created with Sketch.</desc>
    <defs>
        <linearGradient x1="0.00484501956%" y1="49.998401%" x2="99.9913331%" y2="49.998401%" id="linearGradient-1">
            <stop stop-color="#E1E6F0" offset="0%"></stop>
            <stop stop-color="#FFFFFF" offset="100%"></stop>
        </linearGradient>
        <linearGradient x1="0.00294802172%" y1="49.9956073%" x2="99.9946858%" y2="49.9956073%" id="linearGradient-2">
            <stop stop-color="#FFFFFF" offset="6.3e-05%"></stop>
            <stop stop-color="#E1E6F0" offset="100%"></stop>
        </linearGradient>
        <linearGradient x1="-0.00220608769%" y1="49.9899335%" x2="100.002625%" y2="49.9899335%" id="linearGradient-3">
            <stop stop-color="#FFFFFF" offset="6.3e-05%"></stop>
            <stop stop-color="#E1E6F0" offset="100%"></stop>
        </linearGradient>
        <linearGradient x1="-0.00360237118%" y1="49.987634%" x2="99.977793%" y2="49.987634%" id="linearGradient-4">
            <stop stop-color="#E1E6F0" offset="0%"></stop>
            <stop stop-color="#FFFFFF" offset="100%"></stop>
        </linearGradient>
        <linearGradient x1="-0.00220608769%" y1="49.9977371%" x2="100.002625%" y2="49.9977371%" id="linearGradient-5">
            <stop stop-color="#FFFFFF" offset="6.3e-05%"></stop>
            <stop stop-color="#E1E6F0" offset="100%"></stop>
        </linearGradient>
        <linearGradient x1="-0.00360237118%" y1="50.0055451%" x2="99.977793%" y2="50.0055451%" id="linearGradient-6">
            <stop stop-color="#E1E6F0" offset="0%"></stop>
            <stop stop-color="#FFFFFF" offset="100%"></stop>
        </linearGradient>
        <linearGradient x1="-0.00353227771%" y1="50.0038732%" x2="99.9965083%" y2="50.0038732%" id="linearGradient-7">
            <stop stop-color="#FFFFFF" offset="6.3e-05%"></stop>
            <stop stop-color="#E1E6F0" offset="100%"></stop>
        </linearGradient>
        <linearGradient x1="0.00738916256%" y1="49.9937041%" x2="100.018719%" y2="49.9937041%" id="linearGradient-8">
            <stop stop-color="#E1E6F0" offset="0%"></stop>
            <stop stop-color="#FFFFFF" offset="100%"></stop>
        </linearGradient>
        <linearGradient x1="0%" y1="50.0211043%" x2="100.10973%" y2="50.0211043%" id="linearGradient-9">
            <stop stop-color="#E1E6F0" offset="0%"></stop>
            <stop stop-color="#FFFFFF" offset="100%"></stop>
        </linearGradient>
    </defs>
    <g id="Assets" stroke="none" stroke-width="1" fill="none" fill-rule="evenodd">
        <g id="Artboard" transform="translate(-1.000000, 0.000000)" fill-rule="nonzero">
            <g id="homepage-closing">
                <g>
                    <g id="Group">
                        <path d="M3164.27016,1297.72069 L1728.70677,426.718353 C1654.67655,383.951715 1563.48142,383.951715 1489.4512,426.718353 L0.996253546,1297.76617 L3164.27016,1297.72069 Z" id="Shape" fill="#6F99FB"></path>
                        <g transform="translate(1272.625834, 0.000000)" id="Shape">
                            <g>
                                <path d="M323.605799,160.216888 C311.600898,139.360252 294.120077,121.558376 272.532317,109.128663 L99.9355365,7.16288521 C84.0343078,-2.0013944 66.2375684,-0.842692378 52.3371566,7.16288521 L24.4310268,23.2793769 L290.539668,179.282803 L290.539668,782.861219 L318.445798,766.744728 C332.34621,758.73915 342.244988,743.78136 342.244988,725.452801 L342.244988,229.949683 C342.244988,204.984921 335.610701,181.073525 323.605799,160.216888 Z" fill="#CAD0E6"></path>
                                <path d="M72.0294067,23.2793769 L249.47027,123.24376 C292.645791,148.208522 319.182941,194.240593 319.182941,244.06478 L319.182941,739.567898 C319.182941,776.225017 279.482523,799.188384 247.680065,780.859825 L70.2392022,680.895442 C27.0636806,655.93068 0.526530751,609.898609 0.526530751,560.074422 L0.526530751,64.5713035 C0.526530751,27.914185 40.2269494,4.95081772 72.0294067,23.2793769 Z" fill="#E1E6F0"></path>
                                <path d="M75.1885912,64.67664 L236.833532,150.631263 C260.211497,164.114341 286.432728,196.031314 286.432728,222.997471 L286.432728,715.129819 C286.432728,736.513138 263.265375,749.89088 244.836799,739.146552 L71.3975698,646.345054 C48.0196045,632.861976 33.5926619,607.897214 33.5926619,580.825722 L33.5926619,88.6933728 C33.5926619,67.3100537 56.7600149,54.0376487 75.1885912,64.67664 Z" fill="#FFFFFF"></path>
                            </g>
                            <g transform="translate(47.387768, 330.756758)">
                                <g transform="translate(0.000000, 191.712516)" fill="#005BEA">
                                    <polygon points="166.489023 154.634051 166.489023 0.737355831 191.551887 15.1684628 191.551887 169.170495"></polygon>
                                    <polygon points="124.9984 121.453039 124.9984 19.4872612 150.061264 34.0237048 150.061264 135.884146"></polygon>
                                    <polygon points="83.4024709 97.4363062 83.4024709 30.6529353 108.465335 45.0840422 108.465335 111.867413"></polygon>
                                    <polygon points="41.8065416 73.4195734 41.8065416 30.6529353 66.8694053 45.0840422 66.8694053 87.8506804"></polygon>
                                    <polygon points="0.31591845 49.4028407 0.31591845 30.8636083 25.3787822 45.4000519 25.3787822 63.8339476"></polygon>
                                </g>
                                <path d="M23.0620469,8.32158723 C23.3779653,2.10673095 27.0636806,-0.948028925 31.2759266,1.47471166 L131.527382,59.4098127 C135.739628,61.8325532 139.004118,68.8901019 138.6882,75.1049582 C138.372281,81.3198145 134.686566,84.3745744 130.47432,81.9518338 L30.2228651,24.0167328 C25.9053129,21.5939922 22.7461284,14.5364435 23.0620469,8.32158723 Z" fill="#CAD0E6"></path>
                                <path d="M74.9779789,84.3745744 C75.2938974,78.1597181 78.9796126,75.1049582 83.1918586,77.5276988 L183.443314,135.4628 C187.65556,137.88554 190.92005,144.943089 190.604132,151.157945 C190.288213,157.372802 186.602498,160.427561 182.390252,158.004821 L82.1387971,100.06972 C77.821245,97.6469793 74.6620605,90.5894306 74.9779789,84.3745744 Z" fill="#E1E6F0"></path>
                                <path d="M151.324938,82.37318 C151.640856,76.1583237 155.326571,73.1035638 159.538817,75.5263044 L187.023723,91.432123 C191.235969,93.8548636 194.500459,100.912412 194.184541,107.127269 C193.868622,113.342125 190.182907,116.396885 185.970661,113.974144 L158.485756,98.0683255 C154.168204,95.6455849 151.009019,88.5880362 151.324938,82.37318 Z" fill="#E1E6F0"></path>
                                <path d="M20.8506177,52.352264 C21.1665362,46.1374077 24.8522514,43.0826478 29.0644974,45.5053884 L56.5494026,61.4112071 C60.7616486,63.8339476 64.0261393,70.8914963 63.7102208,77.1063526 C63.3943024,83.3212089 59.7085871,86.3759688 55.4963411,83.9532282 L28.0114359,68.0474095 C23.6938838,65.6246689 20.5346993,58.5671203 20.8506177,52.352264 Z" fill="#E1E6F0"></path>
                            </g>
                        </g>
                        <g transform="translate(1185.221729, 613.058705)">
                            <ellipse id="Oval" fill="#CAD0E6" cx="90.7739014" cy="440.622777" rx="90.5632891" ry="50.3508696"></ellipse>
                            <g transform="translate(93.722474, 88.482700)" fill="#FFC891">
                                <rect id="Rectangle-path" transform="translate(24.630261, 25.295081) rotate(64.042248) translate(-24.630261, -25.295081) " x="12.8888476" y="4.54417474" width="23.4828265" height="41.5018131"></rect>
                                <ellipse id="Oval" transform="translate(43.169635, 16.064592) rotate(-25.957752) translate(-43.169635, -16.064592) " cx="43.1696349" cy="16.0645924" rx="11.6887612" ry="11.6921352"></ellipse>
                            </g>
                            <g transform="translate(120.049011, 35.814426)" fill="#FFC891">
                                <polygon id="Shape" points="7.79265511 61.5165436 27.2742929 74.2622658 61.4987917 9.7962989 53.9167489 4.84548117"></polygon>
                                <ellipse id="Oval" transform="translate(16.852564, 68.860724) rotate(-56.928094) translate(-16.852564, -68.860724) " cx="16.8525644" cy="68.8607235" rx="11.6891726" ry="11.6925467"></ellipse>
                                <ellipse id="Oval" transform="translate(55.794456, 10.304568) rotate(-1.579287) translate(-55.794456, -10.304568) " cx="55.7944556" cy="10.304568" rx="10.0038827" ry="10.0067703"></ellipse>
                            </g>
                            <rect id="Rectangle-path" fill="#454563" transform="translate(103.366621, 264.888341) rotate(-180.000000) translate(-103.366621, -264.888341) " x="68.668245" y="225.439804" width="69.396753" height="78.8970739"></rect>
                            <path d="M67.1853238,119.451645 L108.254722,102.176451 C114.151867,99.6483737 121.417991,103.545826 124.471869,110.814048 C127.525748,118.082269 125.209013,125.982511 119.311868,128.405251 L78.2424696,145.680445 L67.1853238,119.451645 Z" id="Shape" fill="#00067D"></path>
                            <g transform="translate(50.546952, 213.833191)">
                                <path d="M18.7444947,235.953866 L48.9673598,218.467999 C54.022055,215.518576 55.8122596,208.98771 52.8636874,203.931556 L50.9681767,200.560786 C48.0196045,195.504632 41.4906232,193.71391 36.435928,196.663334 L6.21306286,214.149201 C1.15836765,217.098624 -0.631836901,223.62949 2.3167353,228.685644 L4.21224601,232.056414 C7.16081821,237.112568 13.6897995,238.903289 18.7444947,235.953866 Z" id="Shape" fill="#454563"></path>
                                <g transform="translate(14.742861, 0.000000)" fill="#FFC891">
                                    <rect id="Rectangle-path" transform="translate(20.204775, 52.740324) rotate(-180.000000) translate(-20.204775, -52.740324) " x="0.828443483" y="0.335391566" width="38.7526633" height="104.809865"></rect>
                                    <ellipse id="Oval" cx="20.2187808" cy="105.125874" rx="19.3763316" ry="19.3819247"></ellipse>
                                </g>
                                <g transform="translate(4.212246, 82.162507)" fill="#FFC891">
                                    <path d="M49.3885844,28.4408678 L11.4783704,21.172646 L0.2106123,133.777415 C-0.2106123,138.096213 2.7379599,141.993666 6.95020591,142.731022 C11.1624519,143.573714 15.1640856,141.045637 16.4277594,137.042848 L49.3885844,28.4408678 Z" id="Shape"></path>
                                    <ellipse id="Oval" transform="translate(30.784063, 22.975650) rotate(-79.199085) translate(-30.784063, -22.975650) " cx="30.7840626" cy="22.9756495" rx="19.3766421" ry="19.3822353"></ellipse>
                                </g>
                            </g>
                            <g transform="translate(85.297982, 235.953866)">
                                <path d="M18.5338824,235.953866 L48.7567475,218.467999 C53.8114427,215.518576 55.6016473,208.98771 52.6530751,203.931556 L50.7575644,200.560786 C47.8089922,195.504632 41.2800109,193.71391 36.2253157,196.663334 L6.00245056,214.149201 C0.947755351,217.098624 -0.842449201,223.62949 2.106123,228.685644 L4.00163371,232.056414 C6.95020591,237.112568 13.4791872,238.903289 18.5338824,235.953866 Z" id="Shape" fill="#454563"></path>
                                <g transform="translate(14.742861, 0.000000)" fill="#FFC891">
                                    <rect id="Rectangle-path" transform="translate(19.980578, 52.648470) rotate(-180.000000) translate(-19.980578, -52.648470) " x="0.60424669" y="0.243538097" width="38.7526633" height="104.809865"></rect>
                                    <ellipse id="Oval" cx="20.0081685" cy="105.020538" rx="19.3763316" ry="19.3819247"></ellipse>
                                </g>
                                <g transform="translate(4.159185, 82.162507)" fill="#FFC891">
                                    <path d="M49.1257275,28.3355312 L11.2155134,21.0673095 L0.0530615015,133.672078 C-0.368163099,137.990877 2.58040911,141.888329 6.79265511,142.625685 C11.0049011,143.468377 15.0065348,140.9403 16.2702086,136.937511 L49.1257275,28.3355312 Z" id="Shape"></path>
                                    <ellipse id="Oval" transform="translate(30.562475, 22.908887) rotate(-79.199085) translate(-30.562475, -22.908887) " cx="30.5624752" cy="22.9088872" rx="19.3766421" ry="19.3822353"></ellipse>
                                </g>
                            </g>
                            <ellipse id="Oval" fill="#FFC891" cx="90.7739014" cy="39.5012052" rx="34.4351111" ry="34.445051"></ellipse>
                            <path d="M143.426977,133.145396 C139.425343,104.177845 115.836765,94.3815463 95.1967597,94.3815463 C74.5567543,94.3815463 52.3371566,115.02751 49.1779721,138.096213 C44.4391954,172.857274 65.0792008,183.074919 62.8677716,225.841557 C59.8138933,285.778053 20.8506177,348.031952 20.8506177,348.031952 L137.951057,386.585128 C137.951057,386.479792 160.381267,256.073146 143.426977,133.145396 Z" id="Shape" fill="#E36F6F"></path>
                            <path d="M104.884926,67.8367364 L104.990232,100.38573 C104.990232,105.020538 98.6718627,108.91799 90.7739014,108.91799 C82.8759402,108.91799 76.5575712,105.231211 76.5575712,100.491066 L76.452265,67.942073 L104.884926,67.8367364 Z" id="Shape" fill="#FFC891"></path>
                            <g transform="translate(128.473503, 151.684628)" fill="#FFC891">
                                <rect id="Rectangle-path" transform="translate(20.126938, 24.569797) rotate(155.626222) translate(-20.126938, -24.569797) " x="8.3849495" y="3.81787367" width="23.4839771" height="41.5038468"></rect>
                                <ellipse id="Oval" transform="translate(28.752244, 43.543664) rotate(-24.373778) translate(-28.752244, -43.543664) " cx="28.7522436" cy="43.5436638" rx="11.6893339" ry="11.6927081"></ellipse>
                            </g>
                            <g transform="translate(140.057180, 178.018765)" fill="#FFC891">
                                <polygon id="Shape" points="24.7469453 8.21625069 11.4783704 27.4928388 74.8726728 63.4126015 80.0326741 55.9337066"></polygon>
                                <ellipse id="Oval" transform="translate(17.113366, 17.209253) rotate(-55.346882) translate(-17.113366, -17.209253) " cx="17.1133656" cy="17.2092531" rx="11.6888466" ry="11.6922206"></ellipse>
                                <ellipse id="Oval" cx="74.4514482" cy="57.7244279" rx="10.0040843" ry="10.006972"></ellipse>
                            </g>
                            <path d="M142.584527,125.666501 L159.74943,166.747754 C162.171471,172.646601 158.38045,179.914823 151.114325,182.969583 C143.848201,186.024342 135.95024,183.601602 133.528198,177.702755 L116.363296,136.621502 L142.584527,125.666501 Z" id="Shape" fill="#E36F6F"></path>
                            <g transform="translate(17.902046, 0.000000)" fill="#454563">
                                <path d="M70.6604268,0.948028925 C76.7681835,0.948028925 82.5600217,2.42274059 87.7200231,5.05615427 C90.9845137,10.6389913 92.7747183,17.0645207 92.7747183,23.9113962 C92.7747183,27.2821657 92.3534937,30.5475987 91.5110445,33.7076951 C90.3526768,33.2863489 89.1943092,33.0756758 87.9306354,33.0756758 C81.9281848,33.0756758 77.0841019,37.921157 77.0841019,43.9253402 C77.0841019,46.9801001 78.3477757,49.8241869 80.4538987,51.8255813 C73.7143051,57.935101 64.8685885,61.6218801 55.0751165,61.6218801 C48.9673598,61.6218801 43.1755216,60.1471685 38.0155202,57.5137548 C34.7510296,51.9309178 32.960825,45.5053884 32.960825,38.6585128 C33.0661311,17.8018765 49.9151152,0.948028925 70.6604268,0.948028925 Z" id="Shape"></path>
                                <ellipse id="Oval" cx="41.7012355" cy="57.0924086" rx="15.4800041" ry="15.4844724"></ellipse>
                                <ellipse id="Oval" cx="34.2244988" cy="76.8956795" rx="19.7975562" ry="19.8032709"></ellipse>
                                <ellipse id="Oval" cx="28.1167421" cy="100.38573" rx="27.5902113" ry="27.5981754"></ellipse>
                            </g>
                        </g>
                    </g>
                    <g id="Group" transform="translate(1325.278909, 676.260633)">
                        <g transform="translate(0.000000, 13.693751)">
                            <g transform="translate(25.273476, 91.642796)">
                                <ellipse id="Oval" fill="#FFC891" transform="translate(40.672005, 141.342781) rotate(-69.248805) translate(-40.672005, -141.342781) " cx="40.6720047" cy="141.342781" rx="10.0037866" ry="10.0066743"></ellipse>
                                <path d="M16.3224533,37.4998108 C16.3224533,37.4998108 1.8955107,71.207506 0.421224601,86.6919784 C-1.0530615,102.071114 33.5926619,143.468377 33.5926619,143.468377 L43.49144,135.357463 C43.49144,135.357463 25.273476,106.17924 23.6938838,89.5360652 C22.3249038,75.1049582 37.8049079,46.1374077 37.8049079,46.1374077 L16.3224533,37.4998108 Z" id="Shape" fill="#FFC891"></path>
                                <path d="M50.9681767,20.3299536 L34.5404173,61.7272167 C32.2236819,67.7313999 24.3257207,70.1541405 17.0595963,67.3100537 C9.79347196,64.4659669 5.79183826,57.1977452 8.10857356,51.2988985 L24.536333,9.90163544 C31.6971512,-8.32158723 58.4449133,2.0013944 50.9681767,20.3299536 Z" id="Shape" fill="#CAD0E6"></path>
                            </g>
                            <ellipse id="Oval" fill="#CAD0E6" cx="90.9845137" cy="447.469653" rx="90.5632891" ry="50.3508696"></ellipse>
                            <path d="M106.569824,480.545329 L133.422892,465.060856 C139.425343,461.58475 141.531466,453.895182 138.056363,447.890999 C134.58126,441.886816 126.893911,439.780085 120.89146,443.256191 L94.0383921,458.740663 C88.0359415,462.216769 85.9298185,469.906337 89.4049215,475.910521 C92.8800244,481.914704 100.567373,484.021435 106.569824,480.545329 Z" id="Shape" fill="#FFFFFF"></path>
                            <path d="M76.2416527,457.265952 L103.094721,441.781479 C109.097172,438.305373 111.203295,430.615805 107.728192,424.611622 C104.253089,418.607439 96.5657397,416.500708 90.5632891,419.976814 L63.7102208,435.461286 C57.7077703,438.937392 55.6016473,446.62696 59.0767502,452.631144 C62.5518532,458.740663 70.2392022,460.742058 76.2416527,457.265952 Z" id="Shape" fill="#FFFFFF"></path>
                            <g transform="translate(52.653075, 211.726460)" fill="#454563">
                                <rect id="Rectangle-path" transform="translate(43.760813, 39.614653) rotate(-180.000000) translate(-43.760813, -39.614653) " x="1.00651618" y="0.166115735" width="85.5085939" height="78.8970739"></rect>
                                <path d="M47.703686,24.1220693 C47.703686,24.1220693 47.8089922,105.231211 47.8089922,127.141213 C47.8089922,149.051214 38.7526633,252.491704 38.7526633,252.491704 C38.6473571,264.078724 53.7061366,262.07733 55.4963411,255.862473 C55.4963411,255.862473 86.5616554,149.156551 86.5616554,118.608952 C86.5616554,88.0613535 86.5616554,24.1220693 86.5616554,24.1220693 L47.703686,24.1220693 Z" id="Shape"></path>
                                <path d="M0.947755351,24.1220693 C0.947755351,24.1220693 1.0530615,67.2047172 1.0530615,89.114719 C1.0530615,111.024721 9.26694121,228.474971 9.26694121,228.474971 C9.26694121,237.533914 24.4310268,240.799347 26.0106191,231.845741 C26.0106191,231.845741 39.7004186,120.083664 39.7004186,89.5360652 C39.7004186,58.9884665 39.7004186,24.1220693 39.7004186,24.1220693 L0.947755351,24.1220693 Z" id="Shape"></path>
                            </g>
                            <ellipse id="Oval" fill="#FFC891" transform="translate(100.061957, 39.352312) rotate(-81.691634) translate(-100.061957, -39.352312) " cx="100.061957" cy="39.352312" rx="34.0137249" ry="34.0235432"></ellipse>
                            <path d="M144.585344,245.539492 C144.585344,245.539492 144.585344,143.784387 144.585344,119.662318 C144.585344,95.5402484 116.995133,80.8984683 96.3551274,80.8984683 C75.715122,80.8984683 48.9673598,92.0641423 48.9673598,115.343519 C48.9673598,138.622896 48.9673598,165.799725 48.9673598,222.260115 C48.9673598,278.720504 144.585344,245.539492 144.585344,245.539492 Z" id="Shape" fill="#E1E6F0"></path>
                            <ellipse id="Oval" fill="#454563" transform="translate(96.539769, 94.031926) rotate(-2.387844) translate(-96.539769, -94.031926) " cx="96.5397687" cy="94.0319263" rx="23.4825266" ry="13.79865"></ellipse>
                            <path d="M108.991865,60.0418319 L111.413907,92.4854885 C111.729825,97.1202966 105.727375,101.439095 97.8294135,102.071114 C90.0367584,102.703134 83.4024709,99.3323641 82.9812463,94.697556 L80.5592049,62.2538994 L108.991865,60.0418319 Z" id="Shape" fill="#FFC891"></path>
                            <g transform="translate(115.783704, 102.176451)">
                                <ellipse id="Oval" fill="#FFC891" transform="translate(53.555157, 153.042648) rotate(-57.234824) translate(-53.555157, -153.042648) " cx="53.5551569" cy="153.042648" rx="10.0041355" ry="10.0070233"></ellipse>
                                <path d="M4.16000136,44.4520229 C4.16000136,44.4520229 5.10775671,81.1091414 10.1624519,95.7509215 C15.2171471,110.392702 46.2824614,153.475349 46.2824614,153.475349 L57.6555256,147.576503 C57.6555256,147.576503 36.0677649,102.703134 32.4873557,88.5880362 C28.9069466,74.4729389 27.3273544,43.2933209 27.3273544,43.2933209 L4.16000136,44.4520229 Z" id="Shape" fill="#FFC891"></path>
                                <path d="M28.485722,14.431107 L30.8024573,58.8831299 C31.1183758,65.3086593 25.0106191,70.7861598 17.217964,71.207506 C9.32000272,71.6288521 2.79102141,66.783371 2.3697968,60.3578416 L0.0530615015,15.9058186 C-0.89469385,-3.58144261 27.6432728,-5.26682736 28.485722,14.431107 Z" id="Shape" fill="#CAD0E6"></path>
                            </g>
                        </g>
                        <path d="M119.627787,42.4506285 C114.362479,49.1921676 120.89146,57.3030817 118.258807,64.9926497 C114.573091,75.9476506 92.564106,85.6386129 77.4000204,76.3689968 C62.6571593,67.4153902 64.7632823,46.4534173 65.0792008,43.6093306 C65.3951192,40.6599072 67.3959361,26.1234637 79.927368,17.3805303 C96.5657397,5.7935101 122.471053,11.165674 127.525748,22.1206749 C129.000034,25.3861079 129.526565,31.0742814 127.104523,35.3930799 C124.9984,39.3958687 122.155134,39.1851956 119.627787,42.4506285 Z" id="Shape" fill="#B3553B"></path>
                        <ellipse id="Oval" fill="#B3553B" cx="115.520847" cy="20.5406267" rx="20.0081685" ry="20.013944"></ellipse>
                    </g>
                    <g id="Group" transform="translate(1521.148348, 141.150973)">
                        <polygon id="Shape" fill="#21D3B5" points="198.186175 713.339098 0 834.265454 341.823763 1026.60999 548.118512 910.423778"></polygon>
                        <g transform="translate(197.975562, 62.148563)" id="Shape">
                            <polygon fill="#E5E5E5" points="0.2106123 202.667517 350.142949 0.632019284 699.232837 195.399295 350.142949 404.808351"></polygon>
                            <polygon fill="#CAD0E6" points="350.142949 48.3494752 350.142949 26.0181272 659.321806 202.667517 659.321806 224.998865"></polygon>
                            <polygon fill="#CAD0E6" points="350.142949 26.0181272 350.142949 48.3494752 39.7004186 229.528336 39.7004186 207.196988"></polygon>
                            <polygon fill="#CAD0E6" points="350.142949 848.275215 699.232837 652.87592 699.232837 195.399295 350.142949 404.176332"></polygon>
                            <polygon fill="url(#linearGradient-1)" points="0.2106123 202.667517 0.2106123 651.190535 350.142949 848.275215 350.142949 404.176332"></polygon>
                            <polygon fill="#E1E6F0" points="699.232837 195.399295 350.142949 404.176332 350.142949 361.936376 662.270378 174.858668"></polygon>
                            <polygon fill="#E1E6F0" points="0.631836901 202.667517 349.721725 404.176332 349.721725 364.8858 37.4889895 184.970977"></polygon>
                            <polygon fill="url(#linearGradient-2)" points="350.142949 48.3494752 618.041795 201.403478 349.721725 364.8858 75.0832851 206.564969"></polygon>
                        </g>
                        <g transform="translate(590.767502, 337.076951)" id="Shape">
                            <g>
                                <g transform="translate(203.240870, 0.000000)">
                                    <g>
                                        <polygon fill="#EEE1D2" points="60.340424 68.7847654 60.340424 2.63341368 3.1591845 36.2357723 3.1591845 102.913807"></polygon>
                                        <polygon fill="#FFFFFF" points="20.0081685 35.3930799 22.8514346 33.7076951 30.0122528 29.4942332 35.8040911 26.1234637 52.4424628 16.3271648 52.4424628 35.603753 52.4424628 42.345292 52.4424628 50.6668792 52.4424628 54.0376487 52.4424628 64.3606304 47.9142983 67.0993806 40.7534801 71.3128425 38.1208264 72.8928907 35.6987849 74.3676024 11.0571458 89.114719 11.0571458 60.252505 11.0571458 57.4084183 11.0571458 54.3536584 11.0571458 45.9267346 11.0571458 40.6599072"></polygon>
                                        <g transform="translate(10.530615, 15.800482)" fill="#4C7FF7">
                                            <polygon points="12.3208196 17.907213 41.9118478 34.8663971 41.9118478 38.2371667 9.47755351 19.5925978"></polygon>
                                            <polygon points="19.4816378 13.6937511 41.9118478 26.5448099 41.9118478 34.8663971 12.3208196 17.907213"></polygon>
                                            <polygon points="25.273476 10.3229816 41.9118478 19.8032709 41.9118478 26.5448099 19.4816378 13.6937511"></polygon>
                                            <polygon points="41.9118478 0.526682736 41.9118478 19.8032709 25.273476 10.3229816"></polygon>
                                            <polygon points="0.526530751 30.1262525 37.3836833 51.2988985 30.2228651 55.5123604 0.526530751 38.5531763"></polygon>
                                            <polygon points="0.526530751 24.8594252 9.47755351 19.5925978 41.9118478 38.2371667 41.9118478 48.5601483 37.3836833 51.2988985 0.526530751 30.1262525"></polygon>
                                            <polygon points="0.526530751 44.4520229 25.1681699 58.5671203 0.526530751 73.3142369"></polygon>
                                            <polygon points="0.526530751 41.6079362 27.5902113 57.0924086 25.1681699 58.5671203 0.526530751 44.4520229"></polygon>
                                            <polygon points="0.526530751 38.5531763 30.2228651 55.5123604 27.5902113 57.0924086 0.526530751 41.6079362"></polygon>
                                        </g>
                                        <polygon fill="#D4C0B1" points="3.1591845 36.2357723 11.0571458 40.6599072 52.4424628 16.3271648 60.340424 2.63341368"></polygon>
                                        <polygon fill="#D4C0B1" points="3.1591845 102.913807 11.0571458 89.114719 52.4424628 64.3606304 60.340424 68.7847654"></polygon>
                                        <polygon fill="#EEE1D2" points="52.4424628 64.3606304 50.2310336 62.4645725 11.0571458 85.9546226 11.0571458 89.114719"></polygon>
                                        <polygon fill="#D4C0B1" points="50.2310336 62.4645725 50.2310336 17.5912034 52.4424628 16.3271648 52.4424628 64.3606304"></polygon>
                                        <polygon fill="#D4C0B1" points="3.1591845 102.913807 0.10530615 101.123085 0.10530615 34.1290413 3.1591845 36.2357723"></polygon>
                                        <polygon fill="#EEE1D2" points="60.340424 2.63341368 57.3918518 0.526682736 0.10530615 34.1290413 3.1591845 36.2357723"></polygon>
                                    </g>
                                    <g transform="translate(0.000000, 57.935101)">
                                        <polygon fill="#EEE1D2" points="60.340424 68.5740923 60.340424 2.42274059 3.1591845 36.0250992 3.1591845 102.703134"></polygon>
                                        <polygon fill="#FFFFFF" points="20.0081685 35.1824068 22.8514346 33.497022 30.0122528 29.2835601 35.8040911 25.9127906 52.4424628 16.1164917 52.4424628 35.3930799 52.4424628 42.1346189 52.4424628 50.4562061 52.4424628 53.8269757 52.4424628 64.1499573 47.9142983 66.8887075 40.7534801 71.1021694 38.1208264 72.6822176 35.6987849 74.1569293 11.0571458 88.9040459 11.0571458 60.0418319 11.0571458 57.1977452 11.0571458 54.1429853 11.0571458 45.7160615 11.0571458 40.4492341"></polygon>
                                        <g transform="translate(10.530615, 15.800482)" fill="#4C7FF7">
                                            <polygon points="12.3208196 17.6965399 41.9118478 34.6557241 41.9118478 38.0264936 9.47755351 19.3819247"></polygon>
                                            <polygon points="19.4816378 13.483078 41.9118478 26.3341368 41.9118478 34.6557241 12.3208196 17.6965399"></polygon>
                                            <polygon points="25.273476 10.1123085 41.9118478 19.5925978 41.9118478 26.3341368 19.4816378 13.483078"></polygon>
                                            <polygon points="41.9118478 0.316009642 41.9118478 19.5925978 25.273476 10.1123085"></polygon>
                                            <polygon points="0.526530751 29.9155794 37.3836833 51.0882254 30.2228651 55.3016873 0.526530751 38.3425032"></polygon>
                                            <polygon points="0.526530751 24.6487521 9.47755351 19.3819247 41.9118478 38.0264936 41.9118478 48.3494752 37.3836833 51.0882254 0.526530751 29.9155794"></polygon>
                                            <polygon points="0.526530751 44.2413499 25.1681699 58.3564472 0.526530751 73.1035638"></polygon>
                                            <polygon points="0.526530751 41.3972631 27.5902113 56.8817355 25.1681699 58.3564472 0.526530751 44.2413499"></polygon>
                                            <polygon points="0.526530751 38.3425032 30.2228651 55.3016873 27.5902113 56.8817355 0.526530751 41.3972631"></polygon>
                                        </g>
                                        <polygon fill="#D4C0B1" points="3.1591845 36.0250992 11.0571458 40.4492341 52.4424628 16.1164917 60.340424 2.42274059"></polygon>
                                        <polygon fill="#D4C0B1" points="3.1591845 102.703134 11.0571458 88.9040459 52.4424628 64.1499573 60.340424 68.5740923"></polygon>
                                        <polygon fill="#EEE1D2" points="52.4424628 64.1499573 50.2310336 62.2538994 11.0571458 85.6386129 11.0571458 88.9040459"></polygon>
                                        <polygon fill="#D4C0B1" points="50.2310336 62.2538994 50.2310336 17.3805303 52.4424628 16.1164917 52.4424628 64.1499573"></polygon>
                                        <polygon fill="#D4C0B1" points="3.1591845 102.703134 0.10530615 100.912412 0.10530615 33.9183682 3.1591845 36.0250992"></polygon>
                                        <polygon fill="#EEE1D2" points="60.340424 2.42274059 57.3918518 0.316009642 0.10530615 33.9183682 3.1591845 36.0250992"></polygon>
                                    </g>
                                </g>
                                <g transform="translate(0.000000, 124.297126)">
                                    <g>
                                        <polygon fill="#EEE1D2" points="60.4457302 69.2061116 60.4457302 3.05475987 3.26449065 36.6571184 3.26449065 103.335153"></polygon>
                                        <polygon fill="#FFFFFF" points="20.0081685 35.8144261 22.9567407 34.1290413 30.1175589 29.9155794 35.9093972 26.5448099 52.5477689 16.748511 52.5477689 36.0250992 52.5477689 42.7666382 52.5477689 51.0882254 52.5477689 54.4589949 52.5477689 64.7819766 48.0196045 67.5207268 40.8587863 71.7341887 38.2261325 73.3142369 35.8040911 74.7889486 11.1624519 89.5360652 11.1624519 60.6738512 11.1624519 57.8297644 11.1624519 54.7750046 11.1624519 46.3480808 11.1624519 41.0812534"></polygon>
                                        <g transform="translate(10.530615, 15.800482)" fill="#4C7FF7">
                                            <polygon points="12.4261257 18.3285592 42.0171539 35.2877433 42.0171539 38.6585128 9.47755351 20.013944"></polygon>
                                            <polygon points="19.5869439 14.1150973 42.0171539 26.9661561 42.0171539 35.2877433 12.4261257 18.3285592"></polygon>
                                            <polygon points="25.3787822 10.7443278 42.0171539 20.2246171 42.0171539 26.9661561 19.5869439 14.1150973"></polygon>
                                            <polygon points="42.0171539 0.948028925 42.0171539 20.2246171 25.3787822 10.7443278"></polygon>
                                            <polygon points="0.631836901 30.5475987 37.4889895 51.7202447 30.3281712 55.9337066 0.631836901 38.9745225"></polygon>
                                            <polygon points="0.631836901 25.2807713 9.47755351 20.013944 42.0171539 38.6585128 42.0171539 48.9814945 37.4889895 51.7202447 0.631836901 30.5475987"></polygon>
                                            <polygon points="0.631836901 44.8733691 25.273476 58.9884665 0.631836901 73.7355831"></polygon>
                                            <polygon points="0.631836901 42.0292824 27.6955175 57.5137548 25.273476 58.9884665 0.631836901 44.8733691"></polygon>
                                            <polygon points="0.631836901 38.9745225 30.3281712 55.9337066 27.6955175 57.5137548 0.631836901 42.0292824"></polygon>
                                        </g>
                                        <polygon fill="#D4C0B1" points="3.26449065 36.6571184 11.1624519 41.0812534 52.5477689 16.748511 60.4457302 3.05475987"></polygon>
                                        <polygon fill="#D4C0B1" points="3.26449065 103.335153 11.1624519 89.5360652 52.5477689 64.7819766 60.4457302 69.2061116"></polygon>
                                        <polygon fill="#EEE1D2" points="52.5477689 64.7819766 50.3363398 62.8859187 11.1624519 86.3759688 11.1624519 89.5360652"></polygon>
                                        <polygon fill="#D4C0B1" points="50.3363398 62.8859187 50.3363398 18.0125496 52.5477689 16.748511 52.5477689 64.7819766"></polygon>
                                        <polygon fill="#D4C0B1" points="3.26449065 103.335153 0.2106123 101.544432 0.2106123 34.5503875 3.26449065 36.6571184"></polygon>
                                        <polygon fill="#EEE1D2" points="60.4457302 3.05475987 57.497158 0.948028925 0.2106123 34.5503875 3.26449065 36.6571184"></polygon>
                                    </g>
                                    <g transform="translate(0.000000, 57.935101)">
                                        <polygon fill="#EEE1D2" points="60.4457302 68.9954385 60.4457302 2.84408678 3.26449065 36.4464454 3.26449065 103.12448"></polygon>
                                        <polygon fill="#FFFFFF" points="20.0081685 35.603753 22.9567407 33.9183682 30.1175589 29.7049063 35.9093972 26.3341368 52.5477689 16.5378379 52.5477689 35.8144261 52.5477689 42.5559651 52.5477689 50.8775523 52.5477689 54.2483218 52.5477689 64.5713035 48.0196045 67.3100537 40.8587863 71.5235156 38.2261325 73.1035638 35.8040911 74.5782755 11.1624519 89.3253921 11.1624519 60.4631781 11.1624519 57.6190914 11.1624519 54.5643315 11.1624519 46.1374077 11.1624519 40.8705803"></polygon>
                                        <g transform="translate(10.530615, 15.800482)" fill="#4C7FF7">
                                            <polygon points="12.4261257 18.1178861 42.0171539 35.0770702 42.0171539 38.4478398 9.47755351 19.8032709"></polygon>
                                            <polygon points="19.5869439 13.9044242 42.0171539 26.755483 42.0171539 35.0770702 12.4261257 18.1178861"></polygon>
                                            <polygon points="25.3787822 10.5336547 42.0171539 20.013944 42.0171539 26.755483 19.5869439 13.9044242"></polygon>
                                            <polygon points="42.0171539 0.737355831 42.0171539 20.013944 25.3787822 10.5336547"></polygon>
                                            <polygon points="0.631836901 30.3369256 37.4889895 51.5095716 30.3281712 55.7230335 0.631836901 38.7638494"></polygon>
                                            <polygon points="0.631836901 25.0700982 9.47755351 19.8032709 42.0171539 38.4478398 42.0171539 48.7708214 37.4889895 51.5095716 0.631836901 30.3369256"></polygon>
                                            <polygon points="0.631836901 44.662696 25.273476 58.7777934 0.631836901 73.52491"></polygon>
                                            <polygon points="0.631836901 41.8186093 27.6955175 57.3030817 25.273476 58.7777934 0.631836901 44.662696"></polygon>
                                            <polygon points="0.631836901 38.7638494 30.3281712 55.7230335 27.6955175 57.3030817 0.631836901 41.8186093"></polygon>
                                        </g>
                                        <polygon fill="#D4C0B1" points="3.26449065 36.4464454 11.1624519 40.8705803 52.5477689 16.5378379 60.4457302 2.84408678"></polygon>
                                        <polygon fill="#D4C0B1" points="3.26449065 103.12448 11.1624519 89.3253921 52.5477689 64.5713035 60.4457302 68.9954385"></polygon>
                                        <polygon fill="#EEE1D2" points="52.5477689 64.5713035 50.3363398 62.6752456 11.1624519 86.0599591 11.1624519 89.3253921"></polygon>
                                        <polygon fill="#D4C0B1" points="50.3363398 62.6752456 50.3363398 17.8018765 52.5477689 16.5378379 52.5477689 64.5713035"></polygon>
                                        <polygon fill="#D4C0B1" points="3.26449065 103.12448 0.2106123 101.333758 0.2106123 34.3397144 3.26449065 36.4464454"></polygon>
                                        <polygon fill="#EEE1D2" points="60.4457302 2.84408678 57.497158 0.737355831 0.2106123 34.3397144 3.26449065 36.4464454"></polygon>
                                    </g>
                                </g>
                            </g>
                            <g transform="translate(0.000000, 191.712516)">
                                <g transform="translate(203.240870, 0.000000)">
                                    <g>
                                        <polygon fill="#EEE1D2" points="60.340424 68.3634192 60.340424 2.21206749 3.1591845 35.8144261 3.1591845 102.49246"></polygon>
                                        <polygon fill="#FFFFFF" points="20.0081685 34.9717337 22.8514346 33.2863489 30.0122528 29.072887 35.8040911 25.7021175 52.4424628 15.9058186 52.4424628 35.1824068 52.4424628 41.9239458 52.4424628 50.245533 52.4424628 53.6163026 52.4424628 63.9392842 47.9142983 66.6780344 40.7534801 70.8914963 38.1208264 72.4715445 35.6987849 73.9462562 11.0571458 88.6933728 11.0571458 59.8311588 11.0571458 56.9870721 11.0571458 53.9323122 11.0571458 45.5053884 11.0571458 40.2385611"></polygon>
                                        <g transform="translate(10.530615, 15.800482)" fill="#4C7FF7">
                                            <polygon points="12.3208196 17.4858668 41.9118478 34.445051 41.9118478 37.8158205 9.47755351 19.1712516"></polygon>
                                            <polygon points="19.4816378 13.272405 41.9118478 26.1234637 41.9118478 34.445051 12.3208196 17.4858668"></polygon>
                                            <polygon points="25.273476 9.90163544 41.9118478 19.3819247 41.9118478 26.1234637 19.4816378 13.272405"></polygon>
                                            <polygon points="41.9118478 0.105336547 41.9118478 19.3819247 25.273476 9.90163544"></polygon>
                                            <polygon points="0.526530751 29.7049063 37.3836833 50.8775523 30.2228651 55.0910142 0.526530751 38.1318301"></polygon>
                                            <polygon points="0.526530751 24.438079 9.47755351 19.1712516 41.9118478 37.8158205 41.9118478 48.1388021 37.3836833 50.8775523 0.526530751 29.7049063"></polygon>
                                            <polygon points="0.526530751 44.0306768 25.1681699 58.1457741 0.526530751 72.8928907"></polygon>
                                            <polygon points="0.526530751 41.18659 27.5902113 56.6710624 25.1681699 58.1457741 0.526530751 44.0306768"></polygon>
                                            <polygon points="0.526530751 38.1318301 30.2228651 55.0910142 27.5902113 56.6710624 0.526530751 41.18659"></polygon>
                                        </g>
                                        <polygon fill="#D4C0B1" points="3.1591845 35.8144261 11.0571458 40.2385611 52.4424628 15.9058186 60.340424 2.21206749"></polygon>
                                        <polygon fill="#D4C0B1" points="3.1591845 102.49246 11.0571458 88.6933728 52.4424628 63.9392842 60.340424 68.3634192"></polygon>
                                        <polygon fill="#EEE1D2" points="52.4424628 63.9392842 50.2310336 62.0432263 11.0571458 85.4279398 11.0571458 88.6933728"></polygon>
                                        <polygon fill="#D4C0B1" points="50.2310336 62.0432263 50.2310336 17.1698572 52.4424628 15.9058186 52.4424628 63.9392842"></polygon>
                                        <polygon fill="#D4C0B1" points="3.1591845 102.49246 0.10530615 100.701739 0.10530615 33.7076951 3.1591845 35.8144261"></polygon>
                                        <polygon fill="#EEE1D2" points="60.340424 2.21206749 57.3918518 0.105336547 0.10530615 33.7076951 3.1591845 35.8144261"></polygon>
                                    </g>
                                    <g transform="translate(0.000000, 56.881736)">
                                        <polygon fill="#EEE1D2" points="60.340424 69.2061116 60.340424 3.05475987 3.1591845 36.6571184 3.1591845 103.335153"></polygon>
                                        <polygon fill="#FFFFFF" points="20.0081685 35.8144261 22.8514346 34.1290413 30.0122528 29.9155794 35.8040911 26.5448099 52.4424628 16.748511 52.4424628 36.0250992 52.4424628 42.7666382 52.4424628 51.0882254 52.4424628 54.4589949 52.4424628 64.7819766 47.9142983 67.5207268 40.7534801 71.7341887 38.1208264 73.3142369 35.6987849 74.7889486 11.0571458 89.4307286 11.0571458 60.6738512 11.0571458 57.8297644 11.0571458 54.7750046 11.0571458 46.3480808 11.0571458 41.0812534"></polygon>
                                        <g transform="translate(10.530615, 15.800482)" fill="#4C7FF7">
                                            <polygon points="12.3208196 18.3285592 41.9118478 35.2877433 41.9118478 38.6585128 9.47755351 20.013944"></polygon>
                                            <polygon points="19.4816378 14.1150973 41.9118478 26.9661561 41.9118478 35.2877433 12.3208196 18.3285592"></polygon>
                                            <polygon points="25.273476 10.7443278 41.9118478 20.2246171 41.9118478 26.9661561 19.4816378 14.1150973"></polygon>
                                            <polygon points="41.9118478 0.948028925 41.9118478 20.2246171 25.273476 10.7443278"></polygon>
                                            <polygon points="0.526530751 30.5475987 37.3836833 51.7202447 30.2228651 55.9337066 0.526530751 38.9745225"></polygon>
                                            <polygon points="0.526530751 25.2807713 9.47755351 20.013944 41.9118478 38.6585128 41.9118478 48.9814945 37.3836833 51.7202447 0.526530751 30.5475987"></polygon>
                                            <polygon points="0.526530751 44.8733691 25.1681699 58.9884665 0.526530751 73.6302465"></polygon>
                                            <polygon points="0.526530751 42.0292824 27.5902113 57.5137548 25.1681699 58.9884665 0.526530751 44.8733691"></polygon>
                                            <polygon points="0.526530751 38.9745225 30.2228651 55.9337066 27.5902113 57.5137548 0.526530751 42.0292824"></polygon>
                                        </g>
                                        <polygon fill="#D4C0B1" points="3.1591845 36.6571184 11.0571458 41.0812534 52.4424628 16.748511 60.340424 3.05475987"></polygon>
                                        <polygon fill="#D4C0B1" points="3.1591845 103.335153 11.0571458 89.4307286 52.4424628 64.7819766 60.340424 69.2061116"></polygon>
                                        <polygon fill="#EEE1D2" points="52.4424628 64.7819766 50.2310336 62.8859187 11.0571458 86.2706322 11.0571458 89.4307286"></polygon>
                                        <polygon fill="#D4C0B1" points="50.2310336 62.8859187 50.2310336 18.0125496 52.4424628 16.748511 52.4424628 64.7819766"></polygon>
                                        <polygon fill="#D4C0B1" points="3.1591845 103.335153 0.10530615 101.544432 0.10530615 34.5503875 3.1591845 36.6571184"></polygon>
                                        <polygon fill="#EEE1D2" points="60.340424 3.05475987 57.3918518 0.948028925 0.10530615 34.5503875 3.1591845 36.6571184"></polygon>
                                    </g>
                                </g>
                                <g transform="translate(0.000000, 124.297126)">
                                    <g>
                                        <polygon fill="#EEE1D2" points="60.4457302 68.7847654 60.4457302 2.63341368 3.26449065 36.2357723 3.26449065 102.913807"></polygon>
                                        <polygon fill="#FFFFFF" points="20.0081685 35.3930799 22.9567407 33.7076951 30.1175589 29.4942332 35.9093972 26.1234637 52.5477689 16.3271648 52.5477689 35.603753 52.5477689 42.345292 52.5477689 50.6668792 52.5477689 54.0376487 52.5477689 64.3606304 48.0196045 67.0993806 40.8587863 71.3128425 38.2261325 72.8928907 35.8040911 74.3676024 11.1624519 89.114719 11.1624519 60.252505 11.1624519 57.4084183 11.1624519 54.3536584 11.1624519 45.9267346 11.1624519 40.6599072"></polygon>
                                        <g transform="translate(10.530615, 15.800482)" fill="#4C7FF7">
                                            <polygon points="12.4261257 17.907213 42.0171539 34.8663971 42.0171539 38.2371667 9.47755351 19.5925978"></polygon>
                                            <polygon points="19.5869439 13.6937511 42.0171539 26.5448099 42.0171539 34.8663971 12.4261257 17.907213"></polygon>
                                            <polygon points="25.3787822 10.3229816 42.0171539 19.8032709 42.0171539 26.5448099 19.5869439 13.6937511"></polygon>
                                            <polygon points="42.0171539 0.526682736 42.0171539 19.8032709 25.3787822 10.3229816"></polygon>
                                            <polygon points="0.631836901 30.1262525 37.4889895 51.2988985 30.3281712 55.5123604 0.631836901 38.5531763"></polygon>
                                            <polygon points="0.631836901 24.8594252 9.47755351 19.5925978 42.0171539 38.2371667 42.0171539 48.5601483 37.4889895 51.2988985 0.631836901 30.1262525"></polygon>
                                            <polygon points="0.631836901 44.4520229 25.273476 58.5671203 0.631836901 73.3142369"></polygon>
                                            <polygon points="0.631836901 41.6079362 27.6955175 57.0924086 25.273476 58.5671203 0.631836901 44.4520229"></polygon>
                                            <polygon points="0.631836901 38.5531763 30.3281712 55.5123604 27.6955175 57.0924086 0.631836901 41.6079362"></polygon>
                                        </g>
                                        <polygon fill="#D4C0B1" points="3.26449065 36.2357723 11.1624519 40.6599072 52.5477689 16.3271648 60.4457302 2.63341368"></polygon>
                                        <polygon fill="#D4C0B1" points="3.26449065 102.913807 11.1624519 89.114719 52.5477689 64.3606304 60.4457302 68.7847654"></polygon>
                                        <polygon fill="#EEE1D2" points="52.5477689 64.3606304 50.3363398 62.4645725 11.1624519 85.9546226 11.1624519 89.114719"></polygon>
                                        <polygon fill="#D4C0B1" points="50.3363398 62.4645725 50.3363398 17.5912034 52.5477689 16.3271648 52.5477689 64.3606304"></polygon>
                                        <polygon fill="#D4C0B1" points="3.26449065 102.913807 0.2106123 101.123085 0.2106123 34.1290413 3.26449065 36.2357723"></polygon>
                                        <polygon fill="#EEE1D2" points="60.4457302 2.63341368 57.497158 0.526682736 0.2106123 34.1290413 3.26449065 36.2357723"></polygon>
                                    </g>
                                    <g transform="translate(0.000000, 57.935101)">
                                        <polygon fill="#EEE1D2" points="60.4457302 68.5740923 60.4457302 2.42274059 3.26449065 36.0250992 3.26449065 102.703134"></polygon>
                                        <polygon fill="#FFFFFF" points="20.0081685 35.1824068 22.9567407 33.497022 30.1175589 29.2835601 35.9093972 25.9127906 52.5477689 16.1164917 52.5477689 35.3930799 52.5477689 42.1346189 52.5477689 50.4562061 52.5477689 53.8269757 52.5477689 64.1499573 48.0196045 66.8887075 40.8587863 71.1021694 38.2261325 72.6822176 35.8040911 74.1569293 11.1624519 88.7987093 11.1624519 60.0418319 11.1624519 57.1977452 11.1624519 54.1429853 11.1624519 45.7160615 11.1624519 40.4492341"></polygon>
                                        <g transform="translate(10.530615, 15.800482)" fill="#4C7FF7">
                                            <polygon points="12.4261257 17.6965399 42.0171539 34.6557241 42.0171539 38.0264936 9.47755351 19.3819247"></polygon>
                                            <polygon points="19.5869439 13.483078 42.0171539 26.3341368 42.0171539 34.6557241 12.4261257 17.6965399"></polygon>
                                            <polygon points="25.3787822 10.1123085 42.0171539 19.5925978 42.0171539 26.3341368 19.5869439 13.483078"></polygon>
                                            <polygon points="42.0171539 0.316009642 42.0171539 19.5925978 25.3787822 10.1123085"></polygon>
                                            <polygon points="0.631836901 29.9155794 37.4889895 51.0882254 30.3281712 55.3016873 0.631836901 38.3425032"></polygon>
                                            <polygon points="0.631836901 24.6487521 9.47755351 19.3819247 42.0171539 38.0264936 42.0171539 48.3494752 37.4889895 51.0882254 0.631836901 29.9155794"></polygon>
                                            <polygon points="0.631836901 44.2413499 25.273476 58.3564472 0.631836901 72.9982273"></polygon>
                                            <polygon points="0.631836901 41.3972631 27.6955175 56.8817355 25.273476 58.3564472 0.631836901 44.2413499"></polygon>
                                            <polygon points="0.631836901 38.3425032 30.3281712 55.3016873 27.6955175 56.8817355 0.631836901 41.3972631"></polygon>
                                        </g>
                                        <polygon fill="#D4C0B1" points="3.26449065 36.0250992 11.1624519 40.4492341 52.5477689 16.1164917 60.4457302 2.42274059"></polygon>
                                        <polygon fill="#D4C0B1" points="3.26449065 102.703134 11.1624519 88.7987093 52.5477689 64.1499573 60.4457302 68.5740923"></polygon>
                                        <polygon fill="#EEE1D2" points="52.5477689 64.1499573 50.3363398 62.2538994 11.1624519 85.6386129 11.1624519 88.7987093"></polygon>
                                        <polygon fill="#D4C0B1" points="50.3363398 62.2538994 50.3363398 17.3805303 52.5477689 16.1164917 52.5477689 64.1499573"></polygon>
                                        <polygon fill="#D4C0B1" points="3.26449065 102.703134 0.2106123 100.912412 0.2106123 33.9183682 3.26449065 36.0250992"></polygon>
                                        <polygon fill="#EEE1D2" points="60.4457302 2.42274059 57.497158 0.316009642 0.2106123 33.9183682 3.26449065 36.0250992"></polygon>
                                    </g>
                                </g>
                            </g>
                        </g>
                        <g transform="translate(441.232769, 459.267346)" id="Shape">
                            <polygon fill="#EEE1D2" points="0.421224601 68.4687557 0.421224601 2.21206749 57.6024641 35.8144261 57.6024641 102.597797"></polygon>
                            <polygon fill="#FFFFFF" points="40.7534801 35.0770702 37.9102141 33.3916855 30.7493958 29.1782236 24.8522514 25.7021175 8.31918586 16.0111552 8.31918586 35.2877433 8.31918586 42.0292824 8.31918586 50.3508696 8.31918586 53.6163026 8.31918586 64.0446207 12.8473503 66.6780344 20.0081685 70.9968329 22.6408223 72.5768811 25.0628637 74.0515927 49.7045029 88.6933728 49.7045029 59.9364954 49.7045029 57.0924086 49.7045029 53.9323122 49.7045029 45.610725 49.7045029 40.3438976"></polygon>
                            <g transform="translate(7.371431, 15.800482)" fill="#4C7FF7">
                                <polygon points="30.5387835 17.5912034 0.947755351 34.5503875 0.947755351 37.8158205 33.3820496 19.2765881"></polygon>
                                <polygon points="23.3779653 13.3777415 0.947755351 26.2288003 0.947755351 34.5503875 30.5387835 17.5912034"></polygon>
                                <polygon points="17.4808209 9.90163544 0.947755351 19.4872612 0.947755351 26.2288003 23.3779653 13.3777415"></polygon>
                                <polygon points="0.947755351 0.210673095 0.947755351 19.4872612 17.4808209 9.90163544"></polygon>
                                <polygon points="42.3330724 29.8102429 5.47591981 50.8775523 12.636738 55.1963508 42.3330724 38.1318301"></polygon>
                                <polygon points="42.3330724 24.5434155 33.3820496 19.2765881 0.947755351 37.8158205 0.947755351 48.2441386 5.47591981 50.8775523 42.3330724 29.8102429"></polygon>
                                <polygon points="42.3330724 44.1360133 17.6914332 58.2511106 42.3330724 72.8928907"></polygon>
                                <polygon points="42.3330724 41.2919265 15.2693918 56.776399 17.6914332 58.2511106 42.3330724 44.1360133"></polygon>
                                <polygon points="42.3330724 38.1318301 12.636738 55.1963508 15.2693918 56.776399 42.3330724 41.2919265"></polygon>
                            </g>
                            <polygon fill="#D4C0B1" points="57.6024641 35.8144261 49.7045029 40.3438976 8.31918586 16.0111552 0.421224601 2.21206749"></polygon>
                            <polygon fill="#D4C0B1" points="57.6024641 102.597797 49.7045029 88.6933728 8.31918586 64.0446207 0.421224601 68.4687557"></polygon>
                            <polygon fill="#EEE1D2" points="8.31918586 64.0446207 10.530615 62.1485629 49.7045029 85.5332764 49.7045029 88.6933728"></polygon>
                            <polygon fill="#D4C0B1" points="10.530615 62.1485629 10.530615 17.2751938 8.31918586 16.0111552 8.31918586 64.0446207"></polygon>
                            <polygon fill="#D4C0B1" points="57.6024641 102.597797 60.6563425 100.807076 60.6563425 33.8130317 57.6024641 35.8144261"></polygon>
                            <polygon fill="#EEE1D2" points="0.421224601 2.21206749 3.3697968 0.105336547 60.6563425 33.8130317 57.6024641 35.8144261"></polygon>
                        </g>
                        <g transform="translate(330.661311, 399.225514)" id="Shape">
                            <polygon fill="#EEE1D2" points="0.947755351 68.4687557 0.947755351 2.21206749 58.1289949 35.8144261 58.1289949 102.597797"></polygon>
                            <polygon fill="#FFFFFF" points="41.2800109 35.0770702 38.4367448 33.3916855 31.2759266 29.1782236 25.3787822 25.7021175 8.84571661 16.0111552 8.84571661 35.1824068 8.84571661 42.0292824 8.84571661 50.3508696 8.84571661 53.6163026 8.84571661 64.0446207 13.3738811 66.6780344 20.5346993 70.9968329 23.167353 72.5768811 25.5893945 74.0515927 50.2310336 88.6933728 50.2310336 59.9364954 50.2310336 56.9870721 50.2310336 53.9323122 50.2310336 45.610725 50.2310336 40.3438976"></polygon>
                            <g transform="translate(8.424492, 15.800482)" fill="#4C7FF7">
                                <polygon points="30.0122528 17.5912034 0.421224601 34.5503875 0.421224601 37.8158205 32.8555188 19.2765881"></polygon>
                                <polygon points="22.8514346 13.3777415 0.421224601 26.2288003 0.421224601 34.5503875 30.0122528 17.5912034"></polygon>
                                <polygon points="16.9542902 9.90163544 0.421224601 19.3819247 0.421224601 26.2288003 22.8514346 13.3777415"></polygon>
                                <polygon points="0.421224601 0.210673095 0.421224601 19.3819247 16.9542902 9.90163544"></polygon>
                                <polygon points="41.8065416 29.8102429 4.94938906 50.8775523 12.1102073 55.1963508 41.8065416 38.1318301"></polygon>
                                <polygon points="41.8065416 24.5434155 32.8555188 19.2765881 0.421224601 37.8158205 0.421224601 48.2441386 4.94938906 50.8775523 41.8065416 29.8102429"></polygon>
                                <polygon points="41.8065416 44.1360133 17.1649025 58.2511106 41.8065416 72.8928907"></polygon>
                                <polygon points="41.8065416 41.18659 14.742861 56.776399 17.1649025 58.2511106 41.8065416 44.1360133"></polygon>
                                <polygon points="41.8065416 38.1318301 12.1102073 55.1963508 14.742861 56.776399 41.8065416 41.18659"></polygon>
                            </g>
                            <polygon fill="#D4C0B1" points="58.1289949 35.8144261 50.2310336 40.3438976 8.84571661 16.0111552 0.947755351 2.21206749"></polygon>
                            <polygon fill="#D4C0B1" points="58.1289949 102.597797 50.2310336 88.6933728 8.84571661 64.0446207 0.947755351 68.4687557"></polygon>
                            <polygon fill="#EEE1D2" points="8.84571661 64.0446207 11.0571458 62.1485629 50.2310336 85.5332764 50.2310336 88.6933728"></polygon>
                            <polygon fill="#D4C0B1" points="11.0571458 62.1485629 11.0571458 17.2751938 8.84571661 16.0111552 8.84571661 64.0446207"></polygon>
                            <polygon fill="#D4C0B1" points="58.1289949 102.597797 61.1828732 100.701739 61.1828732 33.8130317 58.1289949 35.8144261"></polygon>
                            <polygon fill="#EEE1D2" points="0.947755351 2.21206749 3.89632756 0.105336547 61.1828732 33.8130317 58.1289949 35.8144261"></polygon>
                        </g>
                        <g transform="translate(225.355161, 341.290413)" id="Shape">
                            <polygon fill="#EEE1D2" points="0.947755351 68.6794288 0.947755351 2.52807713 58.1289949 36.1304357 58.1289949 102.80847"></polygon>
                            <polygon fill="#FFFFFF" points="41.2800109 35.2877433 38.4367448 33.6023586 31.2759266 29.3888967 25.3787822 26.0181272 8.84571661 16.2218283 8.84571661 35.4984164 8.84571661 42.2399555 8.84571661 50.5615427 8.84571661 53.9323122 8.84571661 64.2552938 13.3738811 66.9940441 20.5346993 71.207506 23.167353 72.7875542 25.5893945 74.2622658 50.2310336 89.0093824 50.2310336 60.1471685 50.2310336 57.3030817 50.2310336 54.2483218 50.2310336 45.8213981 50.2310336 40.5545707"></polygon>
                            <g transform="translate(8.424492, 15.800482)" fill="#4C7FF7">
                                <polygon points="30.0122528 17.8018765 0.421224601 34.7610606 0.421224601 38.1318301 32.8555188 19.4872612"></polygon>
                                <polygon points="22.8514346 13.5884146 0.421224601 26.4394734 0.421224601 34.7610606 30.0122528 17.8018765"></polygon>
                                <polygon points="16.9542902 10.2176451 0.421224601 19.6979343 0.421224601 26.4394734 22.8514346 13.5884146"></polygon>
                                <polygon points="0.421224601 0.421346189 0.421224601 19.6979343 16.9542902 10.2176451"></polygon>
                                <polygon points="41.8065416 30.020916 4.94938906 51.193562 12.1102073 55.4070239 41.8065416 38.4478398"></polygon>
                                <polygon points="41.8065416 24.7540886 32.8555188 19.4872612 0.421224601 38.1318301 0.421224601 48.4548117 4.94938906 51.193562 41.8065416 30.020916"></polygon>
                                <polygon points="41.8065416 44.3466864 17.1649025 58.4617837 41.8065416 73.2089003"></polygon>
                                <polygon points="41.8065416 41.5025996 14.742861 56.9870721 17.1649025 58.4617837 41.8065416 44.3466864"></polygon>
                                <polygon points="41.8065416 38.4478398 12.1102073 55.4070239 14.742861 56.9870721 41.8065416 41.5025996"></polygon>
                            </g>
                            <polygon fill="#D4C0B1" points="58.1289949 36.1304357 50.2310336 40.5545707 8.84571661 16.2218283 0.947755351 2.52807713"></polygon>
                            <polygon fill="#D4C0B1" points="58.1289949 102.80847 50.2310336 89.0093824 8.84571661 64.2552938 0.947755351 68.6794288"></polygon>
                            <polygon fill="#EEE1D2" points="8.84571661 64.2552938 11.0571458 62.359236 50.2310336 85.7439495 50.2310336 89.0093824"></polygon>
                            <polygon fill="#D4C0B1" points="11.0571458 62.359236 11.0571458 17.4858668 8.84571661 16.2218283 8.84571661 64.2552938"></polygon>
                            <polygon fill="#D4C0B1" points="58.1289949 102.80847 61.1828732 101.017749 61.1828732 34.0237048 58.1289949 36.1304357"></polygon>
                            <polygon fill="#EEE1D2" points="0.947755351 2.52807713 3.89632756 0.421346189 61.1828732 34.0237048 58.1289949 36.1304357"></polygon>
                        </g>
                        <g transform="translate(316.971512, 594.098127)" id="Shape">
                            <g>
                                <polygon fill="#EEE1D2" points="0.631836901 160.638235 0.631836901 2.10673095 46.6506245 29.1782236 46.6506245 188.131073"></polygon>
                                <polygon fill="#FFFFFF" points="33.1714373 28.5462043 30.854702 27.1768292 25.0628637 23.8060597 20.324087 21.0673095 7.05551206 13.1670684 7.05551206 28.6515409 7.05551206 34.1290413 7.05551206 40.8705803 7.05551206 158.004821 7.05551206 157.056792 10.6359212 159.268859 16.4277594 162.639629 18.5338824 163.903668 20.5346993 165.06237 40.3322555 176.965399 40.3322555 153.791359 40.3322555 151.473955 40.3322555 158.215494 40.3322555 37.0784646 40.3322555 32.7596662"></polygon>
                                <g transform="translate(6.318369, 12.640386)" fill="#4C7FF7">
                                    <polygon points="0.737143051 113.236788 34.0138865 94.1708733 34.0138865 90.6947672 0.737143051 109.760682"></polygon>
                                    <polygon points="0.737143051 109.760682 34.0138865 90.6947672 34.0138865 54.669668 0.737143051 73.7355831"></polygon>
                                    <polygon points="0.737143051 138.20155 34.0138865 119.135635 34.0138865 101.228422 0.737143051 120.294337"></polygon>
                                    <polygon points="0.737143051 120.294337 34.0138865 101.228422 34.0138865 94.1708733 0.737143051 113.236788"></polygon>
                                    <polygon points="0.737143051 145.364435 0.737143051 144.416406 4.31755216 146.628474 10.1093904 149.999243 12.2155134 151.263282 14.2163303 152.421984 34.0138865 164.325014 34.0138865 141.150973 34.0138865 138.833569 34.0138865 145.575108 34.0138865 119.135635 0.737143051 138.20155"></polygon>
                                    <polygon points="0.737143051 73.7355831 34.0138865 54.669668 34.0138865 51.0882254 0.737143051 70.259477"></polygon>
                                    <polygon points="14.005718 8.42692378 0.737143051 0.526682736 0.737143051 16.0111552 0.737143051 21.3833191 18.6391886 11.0603375"></polygon>
                                    <polygon points="0.737143051 70.259477 34.0138865 51.0882254 34.0138865 44.1360133 0.737143051 63.2019284"></polygon>
                                    <polygon points="18.7444947 11.165674 18.6391886 11.0603375 0.737143051 21.3833191 0.737143051 21.4886556 0.737143051 28.2301947 0.737143051 28.3355312 24.6416391 14.6417801 24.536333 14.5364435"></polygon>
                                    <polygon points="0.737143051 63.2019284 34.0138865 44.1360133 34.0138865 37.8158205 0.737143051 56.8817355"></polygon>
                                    <polygon points="0.737143051 56.8817355 34.0138865 37.8158205 34.0138865 24.438079 34.0138865 20.1192805 26.8530683 15.9058186 24.6416391 14.6417801 0.737143051 28.3355312"></polygon>
                                </g>
                                <polygon fill="#D4C0B1" points="46.6506245 29.1782236 40.3322555 32.7596662 7.05551206 13.1670684 0.631836901 2.10673095"></polygon>
                                <polygon fill="#D4C0B1" points="46.6506245 188.131073 40.3322555 176.965399 7.05551206 157.056792 0.631836901 160.638235"></polygon>
                                <polygon fill="#EEE1D2" points="7.05551206 157.056792 8.84571661 155.58208 40.3322555 174.437322 40.3322555 176.965399"></polygon>
                                <polygon fill="#D4C0B1" points="8.84571661 155.58208 8.84571661 14.2204339 7.05551206 13.1670684 7.05551206 157.056792"></polygon>
                                <polygon fill="#D4C0B1" points="46.6506245 188.131073 49.1779721 186.656362 49.1779721 27.4928388 46.6506245 29.1782236"></polygon>
                                <polygon fill="#EEE1D2" points="0.631836901 2.10673095 3.05387835 0.421346189 49.1779721 27.4928388 46.6506245 29.1782236"></polygon>
                            </g>
                            <g transform="translate(40.016337, 23.174040)">
                                <polygon fill="#EEE1D2" points="0.31591845 160.743571 0.31591845 2.31740404 46.3347061 29.2835601 46.3347061 188.23641"></polygon>
                                <polygon fill="#FFFFFF" points="32.8555188 28.7568774 30.5387835 27.3875023 24.7469453 23.9113962 20.0081685 21.172646 6.63428746 13.3777415 6.63428746 28.862214 6.63428746 34.3397144 6.63428746 40.9759169 6.63428746 158.110157 6.63428746 157.162129 10.3200027 159.374196 16.111841 162.850302 18.217964 164.114341 20.1134747 165.273043 40.0163371 177.070736 40.0163371 153.896696 40.0163371 151.579292 40.0163371 158.320831 40.0163371 37.1838012 40.0163371 32.9703393"></polygon>
                                <g transform="translate(6.318369, 12.640386)" fill="#4C7FF7">
                                    <polygon points="0.31591845 113.342125 33.697968 94.2762098 33.697968 90.8001037 0.31591845 109.866019"></polygon>
                                    <polygon points="0.31591845 109.866019 33.697968 90.8001037 33.697968 54.8803411 0.31591845 73.9462562"></polygon>
                                    <polygon points="0.31591845 138.412223 33.697968 119.346308 33.697968 101.333758 0.31591845 120.50501"></polygon>
                                    <polygon points="0.31591845 120.50501 33.697968 101.333758 33.697968 94.2762098 0.31591845 113.342125"></polygon>
                                    <polygon points="0.31591845 145.469772 0.31591845 144.521743 4.00163371 146.73381 9.79347196 150.209916 11.899595 151.473955 13.7951057 152.632657 33.697968 164.43035 33.697968 141.25631 33.697968 138.938906 33.697968 145.680445 33.697968 119.346308 0.31591845 138.412223"></polygon>
                                    <polygon points="0.31591845 73.9462562 33.697968 54.8803411 33.697968 51.2988985 0.31591845 70.3648136"></polygon>
                                    <polygon points="13.6897995 8.53226033 0.31591845 0.737355831 0.31591845 16.2218283 0.31591845 21.4886556 18.3232701 11.2710106"></polygon>
                                    <polygon points="0.31591845 70.3648136 33.697968 51.2988985 33.697968 44.2413499 0.31591845 63.3072649"></polygon>
                                    <polygon points="18.4285763 11.2710106 18.3232701 11.2710106 0.31591845 21.4886556 0.31591845 21.6993287 0.31591845 28.3355312 0.31591845 28.4408678 24.3257207 14.7471166 24.2204145 14.7471166"></polygon>
                                    <polygon points="0.31591845 63.3072649 33.697968 44.2413499 33.697968 37.921157 0.31591845 56.9870721"></polygon>
                                    <polygon points="0.31591845 56.9870721 33.697968 37.921157 33.697968 24.5434155 33.697968 20.3299536 26.5371498 16.1164917 24.3257207 14.7471166 0.31591845 28.4408678"></polygon>
                                </g>
                                <polygon fill="#D4C0B1" points="46.3347061 29.2835601 40.0163371 32.9703393 6.63428746 13.3777415 0.31591845 2.31740404"></polygon>
                                <polygon fill="#D4C0B1" points="46.3347061 188.23641 40.0163371 177.070736 6.63428746 157.162129 0.31591845 160.743571"></polygon>
                                <polygon fill="#EEE1D2" points="6.63428746 157.162129 8.42449201 155.687417 40.0163371 174.542659 40.0163371 177.070736"></polygon>
                                <polygon fill="#D4C0B1" points="8.42449201 155.687417 8.42449201 14.3257704 6.63428746 13.3777415 6.63428746 157.162129"></polygon>
                                <polygon fill="#D4C0B1" points="46.3347061 188.23641 48.7567475 186.761698 48.7567475 27.7035119 46.3347061 29.2835601"></polygon>
                                <polygon fill="#EEE1D2" points="0.31591845 2.31740404 2.7379599 0.526682736 48.7567475 27.7035119 46.3347061 29.2835601"></polygon>
                            </g>
                        </g>
                        <g transform="translate(110.571458, 455.053884)" id="Shape">
                            <g transform="translate(0.000000, 265.448099)">
                                <polygon fill="url(#linearGradient-3)" points="0.31591845 91.3267865 147.007386 0 377.417242 134.304098 231.252306 221.838769"></polygon>
                                <polygon fill="#CAD0E6" points="231.252306 238.692616 377.417242 154.634051 377.417242 134.304098 231.252306 221.417422"></polygon>
                                <polygon fill="url(#linearGradient-4)" points="0.31591845 91.3267865 0.31591845 108.60198 231.252306 238.692616 231.252306 221.417422"></polygon>
                            </g>
                            <g>
                                <polygon fill="url(#linearGradient-5)" points="0.31591845 88.6933728 147.007386 0.210673095 377.417242 128.826597 231.252306 218.994682"></polygon>
                                <polygon fill="#CAD0E6" points="231.252306 255.862473 377.417242 166.431745 377.417242 128.826597 231.252306 218.467999"></polygon>
                                <polygon fill="url(#linearGradient-6)" points="0.31591845 88.6933728 0.31591845 123.24376 231.252306 255.862473 231.252306 218.467999"></polygon>
                            </g>
                        </g>
                        <g transform="translate(437.020523, 0.000000)" id="Shape">
                            <polygon fill="#CAD0E6" points="200.186991 279.984543 305.493142 222.997471 305.493142 126.825203 200.186991 190.027131"></polygon>
                            <polygon fill="url(#linearGradient-7)" points="27.1689867 79.2130835 113.414724 29.9155794 286.538035 130.195972 200.186991 179.493477"></polygon>
                            <polygon fill="#BBCAD8" points="113.414724 29.9155794 113.414724 14.1150973 286.538035 114.39549 286.538035 130.195972"></polygon>
                            <polygon fill="#E1E6F0" points="113.414724 14.1150973 113.414724 0 314.02294 116.291548 286.538035 114.39549"></polygon>
                            <polygon fill="#E1E6F0" points="113.414724 0 0 65.3086593 27.1689867 63.4126015 113.414724 14.1150973"></polygon>
                            <polygon fill="#BBCAD8" points="113.414724 14.1150973 113.414724 29.9155794 27.1689867 79.2130835 27.1689867 63.4126015"></polygon>
                            <polygon fill="#E1E6F0" points="314.02294 116.291548 200.186991 179.38814 200.186991 159.900879 286.538035 114.39549"></polygon>
                            <polygon fill="#E1E6F0" points="27.1689867 63.4126015 200.186991 159.900879 200.186991 179.38814 0 65.3086593"></polygon>
                            <polygon fill="#BBCAD8" points="313.707021 116.291548 313.707021 125.982511 199.871073 190.027131 199.871073 179.38814"></polygon>
                            <polygon fill="#BBCAD8" points="200.186991 190.027131 0 74.683612 0 65.3086593 200.186991 179.38814"></polygon>
                            <polygon fill="url(#linearGradient-8)" points="7.79265511 79.2130835 7.79265511 171.277226 200.186991 279.984543 200.186991 190.027131"></polygon>
                        </g>
                    </g>
                    <g id="Group" transform="translate(1376.878922, 159.058186)">
                        <g id="Shape">
                            <path d="M96.1445151,82.37318 C94.1436982,115.343519 71.6081821,133.250732 45.9134815,122.401068 C20.2187808,111.551404 0.947755351,76.0529871 3.05387835,43.1879844 C5.16000136,10.3229816 27.5902113,-7.68956795 53.284912,3.16009642 C78.9796126,14.0097608 98.1453319,49.4028407 96.1445151,82.37318 Z" fill="#2E7EFF"></path>
                            <path d="M93.7224736,121.347702 C91.7216568,154.318042 69.1861407,172.225255 43.49144,161.37559 C17.7967394,150.525926 -1.4742861,115.02751 0.631836901,82.1625069 C2.63265375,49.1921676 25.1681699,31.2849545 50.8628705,42.1346189 C76.5575712,52.9842833 95.7232905,88.3773632 93.7224736,121.347702 Z" fill="#2D47FE"></path>
                            <path d="M120.786154,111.34073 C118.785337,144.31107 96.2498212,162.218283 70.5551206,151.368618 C44.86042,140.518954 25.5893945,105.020538 27.6955175,72.1555349 C29.6963343,39.1851956 52.2318505,21.2779825 77.9265511,32.1276469 C103.515946,42.8719747 122.786971,78.3703912 120.786154,111.34073 Z" fill="#60D0FE"></path>
                            <path d="M96.1445151,82.37318 C94.1436982,115.343519 71.6081821,133.250732 45.9134815,122.401068 C20.2187808,111.551404 0.947755351,76.0529871 3.05387835,43.1879844 C5.16000136,10.3229816 27.5902113,-7.68956795 53.284912,3.16009642 C78.9796126,14.0097608 98.1453319,49.4028407 96.1445151,82.37318 Z" fill="#2E7EFF"></path>
                            <path d="M27.5902113,72.0501983 C26.642456,87.7453439 30.4334774,103.967172 37.4889895,117.871596 C40.2269494,119.662318 42.9649093,121.137029 45.8081753,122.401068 C71.502876,133.250732 94.0383921,115.343519 96.0392089,82.37318 C96.9869643,66.6780344 93.1959429,50.4562061 86.1404308,36.5517819 C83.4024709,34.7610606 80.664511,33.2863489 77.821245,32.0223104 C52.1265443,21.2779825 29.5910282,39.1851956 27.5902113,72.0501983 Z" fill="#47A8FF"></path>
                            <path d="M50.8628705,42.1346189 C30.4334774,33.497022 12.1102073,42.9773113 4.31755216,63.7286111 C9.16163506,89.7467383 25.4840883,113.868808 45.9134815,122.401068 C66.3428746,131.038665 84.6661447,121.558376 92.4587998,100.807076 C87.5094108,74.7889486 71.1869575,50.6668792 50.8628705,42.1346189 Z" fill="#2C62FA"></path>
                            <path d="M50.8628705,42.1346189 C47.1771553,40.5545707 43.5967462,39.6065418 40.1216432,39.1851956 C33.1714373,46.6640904 28.5379667,58.0404375 27.6955175,72.0501983 C25.6947006,105.020538 44.86042,140.518954 70.5551206,151.263282 C74.2408359,152.84333 77.821245,153.791359 81.2963479,154.212705 C88.2465538,146.73381 92.8800244,135.357463 93.7224736,121.347702 C95.7232905,88.3773632 76.5575712,52.9842833 50.8628705,42.1346189 Z" fill="#478DFF"></path>
                            <path d="M48.6514414,41.2919265 C48.2302168,41.18659 47.8089922,40.9759169 47.3877676,40.8705803 C47.2824614,40.8705803 47.0718491,40.7652438 46.966543,40.7652438 C46.4400122,40.5545707 45.9134815,40.4492341 45.3869507,40.3438976 C45.2816446,40.3438976 45.0710323,40.2385611 44.9657261,40.2385611 C44.5445015,40.1332245 44.2285831,40.027888 43.8073585,39.9225514 C43.5967462,39.9225514 43.3861339,39.8172149 43.1755216,39.8172149 C42.754297,39.7118783 42.3330724,39.7118783 42.0171539,39.6065418 C41.9118478,39.6065418 41.7012355,39.5012052 41.5959293,39.5012052 C41.1747047,39.3958687 40.7534801,39.3958687 40.2269494,39.2905321 C33.2767434,46.769427 28.6432728,58.1457741 27.8008236,72.1555349 C26.8530683,87.8506804 30.6440897,104.072509 37.6996018,117.976933 C40.4375617,119.767654 43.1755216,121.242366 46.0187876,122.506404 C66.4481807,131.144001 84.7714509,121.663712 92.564106,100.912412 C92.2481875,99.3323641 91.9322691,97.6469793 91.5110445,96.0669311 C91.5110445,96.0669311 91.5110445,95.9615946 91.5110445,95.9615946 C91.0898199,94.3815463 90.6685953,92.8014981 90.2473707,91.3267865 C90.2473707,91.3267865 90.2473707,91.2214499 90.2473707,91.2214499 C89.5102276,88.9040459 88.7730846,86.5866419 87.8253292,84.2692378 C87.8253292,84.2692378 87.8253292,84.1639013 87.8253292,84.1639013 C87.2987985,82.6891896 86.6669616,81.2144779 86.0351247,79.7397663 C86.0351247,79.7397663 86.0351247,79.6344297 85.9298185,79.6344297 C85.2979816,78.1597181 84.5608386,76.790343 83.9290017,75.4209678 C83.9290017,75.4209678 83.9290017,75.3156313 83.8236955,75.3156313 C83.5077771,74.5782755 83.0865525,73.9462562 82.770634,73.3142369 C82.770634,73.3142369 82.770634,73.2089003 82.6653279,73.2089003 C81.9281848,71.8395252 81.1910418,70.5754867 80.3485926,69.2061116 C80.3485926,69.100775 80.2432864,69.100775 80.2432864,68.9954385 C79.4008372,67.7313999 78.6636942,66.4673613 77.821245,65.3086593 C77.7159388,65.2033228 77.7159388,65.2033228 77.6106327,65.0979862 C77.1894081,64.4659669 76.7681835,63.9392842 76.3469589,63.3072649 C76.3469589,63.3072649 76.2416527,63.2019284 76.2416527,63.2019284 C75.8204281,62.6752456 75.3992035,62.0432263 74.9779789,61.5165436 C74.9779789,61.5165436 74.8726728,61.4112071 74.8726728,61.4112071 C74.4514482,60.8845243 74.0302236,60.252505 73.5036928,59.7258223 C73.3983867,59.6204858 73.3983867,59.5151492 73.2930805,59.5151492 C72.3453252,58.4617837 71.502876,57.4084183 70.4498145,56.3550528 C70.3445083,56.2497162 70.2392022,56.1443797 70.2392022,56.0390431 C69.8179776,55.5123604 69.2914468,55.0910142 68.7649161,54.5643315 C68.7649161,54.5643315 68.6596099,54.4589949 68.6596099,54.4589949 C68.2383853,54.0376487 67.7118545,53.6163026 67.2906299,53.1949564 C67.1853238,53.0896198 67.0800176,53.0896198 67.0800176,52.9842833 C66.5534869,52.5629371 66.1322623,52.1415909 65.6057315,51.7202447 C65.5004254,51.6149082 65.3951192,51.5095716 65.2898131,51.5095716 C64.8685885,51.0882254 64.3420577,50.6668792 63.815527,50.3508696 C63.815527,50.3508696 63.7102208,50.245533 63.7102208,50.245533 C63.1836901,49.8241869 62.6571593,49.4028407 62.1306286,49.086831 C62.0253224,48.9814945 61.9200163,48.8761579 61.8147101,48.8761579 C61.2881794,48.4548117 60.7616486,48.1388021 60.2351179,47.7174559 C60.2351179,47.7174559 60.1298117,47.6121194 60.1298117,47.6121194 C59.603281,47.2961097 59.1820564,46.9801001 58.6555256,46.6640904 C58.5502195,46.5587539 58.4449133,46.5587539 58.3396072,46.4534173 C57.8130764,46.1374077 57.2865457,45.8213981 56.7600149,45.5053884 C56.6547088,45.4000519 56.5494026,45.4000519 56.4440965,45.2947153 C55.9175657,44.9787057 55.4963411,44.7680326 54.9698104,44.4520229 C54.8645042,44.4520229 54.7591981,44.3466864 54.7591981,44.3466864 C54.2326673,44.0306768 53.7061366,43.8200037 53.0742997,43.503994 C52.9689935,43.3986575 52.8636874,43.3986575 52.6530751,43.2933209 C52.1265443,43.0826478 51.4947074,42.7666382 50.9681767,42.5559651 C50.4416459,42.345292 49.809809,42.1346189 49.2832783,41.9239458 C48.9673598,41.3972631 48.7567475,41.2919265 48.6514414,41.2919265 Z" fill="#3C77FF"></path>
                        </g>
                        <path d="M58.6555256,47.7174559 C43.0702154,41.6079362 29.2751097,52.5629371 27.6955175,72.366208 C27.6955175,72.6822176 27.6955175,72.8928907 27.5902113,73.2089003 C27.5902113,73.2089003 27.5902113,73.2089003 27.5902113,73.3142369 C27.5902113,73.3142369 27.5902113,73.3142369 27.5902113,73.3142369 C26.3265375,94.0655367 38.4367448,116.502221 54.6538919,123.349097 C64.8685885,127.667895 74.346142,124.718472 80.2432864,116.818231 C81.9281848,114.606163 80.4538987,110.182028 77.821245,109.023326 C76.2416527,108.391307 74.7673666,108.707317 73.7143051,109.866019 C68.9755284,115.554192 61.709404,117.239577 53.9167489,113.447461 C43.5967462,108.391307 35.6987849,94.8028925 34.8563357,81.3198145 L78.3477757,99.6483737 L82.3494094,101.333758 C83.1918586,101.755105 84.0343078,101.649768 84.7714509,101.228422 C84.7714509,101.228422 84.7714509,101.228422 84.7714509,101.228422 C84.7714509,101.228422 84.7714509,101.228422 84.876757,101.228422 C85.7192062,100.701739 86.245737,99.6483737 86.3510431,98.2789986 C86.3510431,98.2789986 86.3510431,98.2789986 86.3510431,98.2789986 C87.7200231,76.8956795 75.2938974,54.1429853 58.6555256,47.7174559 Z M35.5934788,71.7341887 C38.1208264,59.093803 47.9142983,52.7736102 58.7608318,57.4084183 C69.7126714,62.0432263 78.1371634,76.0529871 79.0849188,90.0627479 L35.5934788,71.7341887 Z" id="Shape" fill="#FFFFFF"></path>
                    </g>
                    <polygon id="Shape" fill="#CAD0E6" points="1864.97293 1076.53951 1884.45457 1063.05643 1884.45457 989.531525 1864.97293 1005.22667"></polygon>
                    <polygon id="Shape" fill="url(#linearGradient-9)" points="1845.49129 990.690227 1845.49129 1062.74043 1864.97293 1076.53951 1864.97293 1005.22667"></polygon>
                    <polygon id="Shape" fill="#21C1A7" points="1864.13048 1005.85869 1913.94029 974.363062 1913.94029 897.046037 1864.13048 928.647001"></polygon>
                    <polygon id="Shape" fill="#21DEB6" points="1792.83822 887.77642 1792.83822 963.197388 1864.13048 1005.85869 1864.13048 928.647001"></polygon>
                    <polygon id="Shape" fill="#21D3B5" points="1792.83822 887.987093 1839.69945 857.334158 1914.67743 898.099402 1864.13048 928.647001"></polygon>
                    <path d="M1803.89536,939.180655 L1814.42598,960.563975 C1814.74189,962.249359 1815.90026,963.513398 1817.37455,964.040081 C1819.16475,964.6721 1820.74435,963.724071 1820.95496,963.618734 L1850.23007,934.75652 C1853.59986,931.701761 1851.59905,929.59503 1848.01864,932.439116 C1843.27986,936.125896 1833.48639,944.026137 1830.85374,945.606185 C1830.53782,945.816858 1826.32557,948.239598 1822.74516,948.660945 C1816.84802,949.292964 1810.31904,944.658156 1805.89618,937.495271 C1805.36965,937.179261 1804.73781,937.284598 1804.31659,937.600607 C1804.00067,938.021953 1803.79006,938.548636 1803.89536,939.180655 Z" id="Shape" fill="#FFFFFF"></path>
                </g>
            </g>
        </g>
    </g>
</svg>