<?xml version="1.0" encoding="UTF-8"?>
<svg width="284px" height="72px" viewBox="0 0 284 72" version="1.1" xmlns="http://www.w3.org/2000/svg" xmlns:xlink="http://www.w3.org/1999/xlink">
    <!-- Generator: Sketch 46.2 (44496) - http://www.bohemiancoding.com/sketch -->
    <title>Credit_Suisse_Logo</title>
    <desc>Created with Sketch.</desc>
    <defs></defs>
    <g id="V2" stroke="none" stroke-width="1" fill="none" fill-rule="evenodd">
        <g id="Advanced-Description-Straightforward" transform="translate(-280.000000, -349.000000)">
            <g id="Logos" transform="translate(280.000000, 349.000000)">
                <g id="Credit_Suisse_Logo">
                    <path d="M125.594,44.00775 L106.918,44.00775 L106.918,48.78 L107.498,48.7125 L107.512,48.632625 C107.637,47.92725 108.76,46.57725 110.143,46.57725 C110.143,46.57725 114.127,46.57725 114.314,46.57725 C114.314,46.7955 114.316,71.064 114.316,71.064 L118.391,71.064 C118.391,71.064 118.367,46.814625 118.367,46.59525 C118.555,46.59525 122.634,46.59525 122.634,46.59525 C124.043,46.59525 124.967,47.464875 125.124,48.28275 L125.142,48.371625 L125.733,48.351375 L125.693,44.00775 L125.594,44.00775 L125.594,44.00775 Z" id="Shape" fill="#9BB2CC" fill-rule="nonzero"></path>
                    <path d="M4.424,42.366375 C4.424,42.366375 4.459,42.404625 4.494,42.442875 C4.459,42.404625 4.424,42.366375 4.424,42.366375 C1.722,45.5265 0.173,49.858875 0.173,54.255375 C0.173,59.148 1.927,63.59625 5.114,66.78 C8.158,69.822 12.228,71.496 16.575,71.496 C18.852,71.496 23.317,71.060625 27.625,68.14125 L27.792,68.027625 L28.305,61.138125 L27.5,61.02225 L27.381,61.3035 C24.218,68.74425 19.238,68.74425 17.363,68.74425 C8.965,68.74425 5.139,60.9075 5.139,53.6265 C5.139,46.584 8.928,39.47625 17.393,39.47625 C19.989,39.47625 24.709,40.431375 27.165,46.819125 L27.301,47.172375 L28.091,46.900125 L27.575,39.71925 L27.365,39.618 C23.42,37.681875 20.238,36.820125 17.049,36.820125 C11.895,36.820125 7.529,38.73825 4.424,42.366375 Z" id="Shape" fill="#9BB2CC" fill-rule="nonzero"></path>
                    <path d="M32.32,44.004375 L32.22,44.004375 L32.227,44.629875 L32.278,44.659125 C32.62,44.863875 33,45.905625 33,47.07225 L33,71.062875 L37,71.062875 C37,71.062875 36.985,58.95675 36.984,58.735125 C37.16,58.74075 38.734,58.78575 38.734,58.78575 C40.306,58.88475 40.926,60.055875 41.712,61.538625 C41.712,61.53975 41.81,61.722 41.81,61.722 L42.313,62.677125 C43.168,64.3005 44.34,66.526875 45.558,68.560875 C46.433,70.0245 47.526,70.864875 48.898,71.1315 C49.877,71.32275 51.832,71.2485 52.568,70.99425 C52.564,70.995375 53.449,70.73775 53.449,70.73775 L53.783,70.641 L52.568,70.219125 C52.078,70.04925 51.306,69.667875 50.268,68.320125 C49.625,67.485375 48.585,65.619 47.011,62.791875 C47.008,62.785125 45.451,59.999625 45.451,59.999625 C45.45,59.997375 45.421,59.950125 45.421,59.950125 C45.004,59.263875 44.306,58.152375 43.133,57.445875 C45.386,56.61675 47.598,54.307125 47.598,50.866875 C47.598,49.890375 47.375,48.016125 45.886,46.42875 C44.376,44.818875 42.024,44.00325 38.894,44.00325 L32.32,44.00325 L32.32,44.004375 Z M39.165,46.443375 C43.269,46.638 43.387,50.54175 43.387,50.985 C43.387,54.9135 40.808,56.307375 38.6,56.307375 C38.6,56.307375 37.164,56.273625 36.996,56.269125 C36.996,56.059875 36.996,46.684125 36.996,46.485 C37.414,46.44675 38.182,46.39725 39.165,46.443375 Z" id="Shape" fill="#9BB2CC" fill-rule="nonzero"></path>
                    <path d="M73.258,44.004375 L73.147,44.004375 L73.222,44.674875 L73.269,44.70075 C73.618,44.8965 73.947,45.865125 73.947,46.695375 L73.924,71.06175 L80.781,71.06175 C85.308,71.06175 89.055,69.476625 91.616,66.479625 C93.743,63.99 94.963,60.5745 94.963,57.108375 C94.963,55.013625 94.335,51.850125 92.572,49.25475 C90.208,45.770625 86.46,44.004375 81.43,44.004375 L73.258,44.004375 L73.258,44.004375 Z M78,46.600875 C78.18,46.600875 80.146,46.6065 80.146,46.6065 C80.717,46.6155 82.159,46.654875 83.172,46.828125 C89.909,47.97675 90.636,54.4005 90.636,57.1095 C90.636,59.329125 90.284,62.488125 88.609,64.931625 C86.966,67.329 84.39,68.544 80.951,68.544 C80.131,68.544 79.111,68.54175 77.999,68.484375 C78,68.274 78,46.818 78,46.600875 Z" id="Shape" fill="#9BB2CC" fill-rule="nonzero"></path>
                    <path d="M103.245,44.004375 L98.545,44.004375 L98.561,44.659125 L98.614,44.6895 C99.047,44.931375 99.327,45.811125 99.327,46.9305 L99.326,71.06175 L103.338,71.06175 L103.344,44.00325 L103.245,44.00325 L103.245,44.004375 Z" id="Shape" fill="#9BB2CC" fill-rule="nonzero"></path>
                    <path d="M184.058,44.004375 L179.329,44.004375 L179.376,44.613 L179.425,44.641125 C179.851,44.88075 180.138,45.799875 180.138,46.9305 L180.138,71.06175 L184.15,71.06175 L184.156,44.00325 L184.058,44.00325 L184.058,44.004375 Z" id="Shape" fill="#9BB2CC" fill-rule="nonzero"></path>
                    <path d="M68.073,44.004375 L54.627,44.004375 L54.703,44.638875 L54.749,44.66475 C55.116,44.8695 55.496,45.82575 55.496,47.071125 L55.494,71.06175 L68.922,71.06175 L69.898,66.267 L69.357,66.04875 L69.205,66.315375 C68.094,68.28075 66.966,68.54175 63.07,68.54175 C61.682,68.574375 60.328,68.43825 59.48,68.349375 C59.48,68.153625 59.48,57.52125 59.48,57.3075 C59.67,57.3075 66.273,57.3075 66.273,57.3075 L66.273,54.8685 C66.273,54.8685 59.668,54.867375 59.48,54.867375 C59.48,54.655875 59.48,46.663875 59.48,46.450125 C59.671,46.452375 64.987,46.521 64.987,46.521 C66.228,46.521 67.592,47.8575 67.712,48.664125 L67.727,48.758625 L68.277,48.744 L68.169,44.002125 L68.073,44.002125 L68.073,44.004375 Z" id="Shape" fill="#9BB2CC" fill-rule="nonzero"></path>
                    <path d="M239.974,44.004375 L226.572,44.004375 L226.599,44.69625 L226.652,44.724375 C227.013,44.928 227.398,45.820125 227.398,47.071125 L227.396,71.06175 L240.824,71.06175 L241.801,66.2625 L241.194,66.051 L241.044,66.315375 C239.933,68.28075 238.817,68.54175 234.974,68.54175 C233.585,68.574375 232.232,68.43825 231.384,68.349375 C231.384,68.153625 231.384,57.52125 231.384,57.3075 C231.575,57.3075 238.177,57.3075 238.177,57.3075 L238.177,54.8685 C238.177,54.8685 231.573,54.867375 231.384,54.867375 C231.384,54.655875 231.384,46.663875 231.384,46.450125 C231.577,46.452375 236.892,46.521 236.892,46.521 C238.412,46.521 239.554,47.82375 239.554,48.66975 L239.554,48.78675 L240.179,48.740625 L240.072,44.00325 L239.974,44.00325 L239.974,44.004375 Z" id="Shape" fill="#9BB2CC" fill-rule="nonzero"></path>
                    <path d="M137.281,38.94525 C135.866,40.089375 134.173,42.193125 134.14,45.7245 C134.14,45.759375 134.14,45.79425 134.14,45.828 C134.14,50.169375 136.599,52.450875 140.561,54.712125 C140.561,54.712125 140.553,54.687375 140.547,54.667125 C140.649,54.761625 140.994,54.961875 142.07,55.578375 C145.379,57.447 147.768,58.798125 147.768,62.59725 C147.768,63.901125 147.33,65.781 146.104,67.14675 C145.083,68.284125 143.711,68.851125 142.025,68.830875 C136.974,68.772375 135.186,63.790875 134.652,61.65 L134.56,61.27875 L133.711,61.437375 L133.946,68.509125 L134.129,68.626125 C135.741,69.681375 138.439,71.445375 142.302,71.48925 C145.039,71.519625 147.814,70.266375 149.726,68.135625 C151.406,66.265875 152.292,63.896625 152.292,61.28325 C152.292,55.546875 148.64,53.39475 144.767,51.11325 L144.04,50.6835 C140.075,48.443625 138.209,47.080125 138.235,44.267625 C138.253,42.357375 139.532,39.337875 142.89,39.376125 C146.794,39.42 148.95,42.72525 149.391,44.796375 L149.471,45.172125 L150.311,45.050625 L150.024,38.928375 L149.868,38.809125 C147.555,37.05525 144.655,36.837 143.514,36.824625 C141.252,36.799875 138.979,37.571625 137.281,38.94525 Z" id="Shape" fill="#9BB2CC" fill-rule="nonzero"></path>
                    <path d="M190.534,50.846625 L190.534,50.846625 C190.501,54.595125 192.501,56.494125 195.741,58.343625 C195.741,58.343625 196.962,59.043375 196.964,59.043375 C199.515,60.485625 201.202,61.437375 201.202,64.132875 C201.202,64.603125 201.116,66.234375 200.003,67.474125 C199.232,68.333625 198.161,68.761125 196.825,68.745375 C192.999,68.702625 191.595,65.354625 191.098,63.363375 L191.004,62.992125 L190.193,63.142875 L190.382,68.842125 L190.566,68.96025 C191.841,69.795 193.974,71.19 197.041,71.226 C199.217,71.251875 201.424,70.255125 202.945,68.558625 C204.283,67.069125 204.99,65.181375 204.99,63.097875 C204.99,58.359375 202.076,56.642625 198.992,54.824625 C198.992,54.824625 198.449,54.504 198.447,54.502875 C195.134,52.630875 193.978,51.7905 193.996,49.701375 C194.008,48.2355 194.986,46.0665 197.621,46.09575 C200.844,46.132875 202.252,48.756375 202.547,50.139 L202.625,50.515875 L203.436,50.39775 L203.204,45.446625 L203.046,45.3285 C201.206,43.932375 198.905,43.759125 197.999,43.750125 C194.411,43.7085 190.577,46.182375 190.534,50.846625 Z" id="Shape" fill="#9BB2CC" fill-rule="nonzero"></path>
                    <path d="M208.542,50.846625 C208.509,54.594 210.509,56.494125 213.751,58.34475 L214.972,59.043375 C217.525,60.485625 219.21,61.4385 219.21,64.132875 C219.21,64.603125 219.122,66.234375 218.011,67.474125 C217.24,68.333625 216.169,68.761125 214.833,68.745375 C211.009,68.702625 209.603,65.354625 209.106,63.363375 L209.012,62.992125 L208.201,63.142875 L208.39,68.841 L208.574,68.96025 C209.849,69.795 211.984,71.19 215.049,71.226 C217.225,71.251875 219.432,70.255125 220.953,68.558625 C222.291,67.069125 222.998,65.181375 222.998,63.097875 C222.998,58.359375 220.086,56.642625 217,54.824625 C217,54.824625 216.457,54.504 216.455,54.502875 C213.142,52.632 211.986,51.7905 212.004,49.701375 C212.012,48.77775 212.375,47.831625 212.973,47.172375 C213.621,46.45575 214.541,46.083375 215.631,46.09575 C218.854,46.132875 220.26,48.756375 220.553,50.140125 L220.635,50.515875 L221.444,50.39775 L221.212,45.446625 L221.054,45.3285 C219.214,43.932375 216.911,43.759125 216.009,43.750125 C212.421,43.7085 208.585,46.182375 208.542,50.846625 Z" id="Shape" fill="#9BB2CC" fill-rule="nonzero"></path>
                    <path d="M174.079,43.981875 L170.919,44.0055 L170.97,44.614125 L171.019,44.641125 C171.177,44.73 171.697,45.154125 171.697,46.864125 L171.715,62.244 C171.715,65.223 170.744,68.77575 166.117,68.77575 C161.746,68.77575 160.849,65.835 160.849,61.41825 L160.853,44.004375 L155.853,44.004375 L155.89,44.607375 L155.937,44.6355 C156.257,44.825625 156.796,45.54 156.796,47.001375 L156.796,61.417125 C156.796,70.372125 162.028,71.40825 165.966,71.40825 C167.888,71.40825 174.161,70.752375 174.161,62.30925 L174.179,43.979625 L174.079,43.981875 Z" id="Shape" fill="#9BB2CC" fill-rule="nonzero"></path>
                    <g id="Group" transform="translate(226.000000, 0.000000)">
                        <path d="M48.487,36.275625 C51.315,37.297125 54.315,38.72925 57.462,40.708125 C49.737,26.353125 35.917,10.71675 22.358,0.585 C25.854,4.4775 31.526,13.046625 32.997,22.235625 C38.552,26.688375 43.794,31.426875 48.487,36.275625 Z" id="Shape" fill="#9BB2CC" fill-rule="nonzero"></path>
                        <path d="M48.478,36.27 C41.851,33.8715 36.203,33.75225 32.011,34.237125 C33.486,30.348 33.636,26.245125 33.001,22.255875 C22.739,14.031 11.429,6.7635 0.554,1.575 C8.534,7.653375 17.331,25.187625 21.023,43.9965 C28.888,41.376375 41.002,39.569625 56.617,45.480375 C54.161,42.39675 51.427,39.312 48.478,36.27 Z" id="Shape" fill="#9BB2CC" fill-rule="nonzero"></path>
                        <path d="M32.997,22.23675 C33.638,26.231625 33.487,30.34125 32.011,34.23825 C36.204,33.75225 41.857,33.872625 48.488,36.275625 C43.794,31.426875 38.552,26.688375 32.997,22.23675 Z" id="Shape"></path>
                    </g>
                </g>
            </g>
        </g>
    </g>
</svg>