<?xml version="1.0" encoding="UTF-8"?>
<svg width="200px" height="72px" viewBox="0 0 200 72" version="1.1" xmlns="http://www.w3.org/2000/svg" xmlns:xlink="http://www.w3.org/1999/xlink">
    <!-- Generator: Sketch 46.2 (44496) - http://www.bohemiancoding.com/sketch -->
    <title>UBS_Logo</title>
    <desc>Created with Sketch.</desc>
    <defs></defs>
    <g id="V2" stroke="none" stroke-width="1" fill="none" fill-rule="evenodd">
        <g id="Advanced-Description-Straightforward" transform="translate(-1360.000000, -349.000000)" fill-rule="nonzero" fill="#9BB2CC">
            <g id="Logos" transform="translate(280.000000, 349.000000)">
                <g id="UBS_Logo" transform="translate(1080.000000, 0.000000)">
                    <path d="M116.730173,43.1498008 C116.730173,58.150479 108.523443,59.9489327 100.317271,59.9489327 C86.2067373,59.9489327 83.2038922,52.7485866 83.2038922,42.4492282 L83.2038922,13.4006794 L78,13.4006794 L78,10.6016622 L97.7153682,10.6016622 L97.7153682,13.4006794 L92.111159,13.4006794 L92.111159,41.6003151 C92.111159,51.5502015 94.7131017,56.5004115 101.868453,56.5004115 C109.17392,56.5004115 112.727232,52.9002384 112.727232,42.5497712 L112.727232,13.4006794 L107.47324,13.4006794 L107.47324,10.6016622 L121.483736,10.6016622 L121.483736,13.4006794 L116.730173,13.4006794 L116.730173,43.1498008 L116.730173,43.1498008 Z M130.526436,56.5993219 L130.526436,13.4006794 L125.037049,13.4006794 L125.037049,10.6016622 L146.903984,10.6016622 C156.210962,10.6016622 160.814341,15.8502293 160.814341,22.0005348 C160.814341,28.5496995 154.859921,32.2487823 149.555972,33.3499298 C159.863631,34.2994281 162.665716,40.899703 162.665716,45.7510421 C162.665716,55.649823 154.209437,59.3999677 145.902575,59.3999677 L124.686111,59.3999677 L124.686111,56.5993219 L130.526436,56.5993219 L130.526436,56.5993219 Z M151.907741,22.5510888 C151.907741,18.0014181 149.555972,13.4006794 144.402132,13.4006794 L138.718813,13.4006794 L138.718813,32.1498725 L143.80166,32.1498725 C149.255093,32.1498725 151.907741,27.5491339 151.907741,22.5510888 L151.907741,22.5510888 Z M153.659024,45.7510421 C153.659024,39.2496348 150.856926,34.8994544 144.302041,34.8994544 L138.718813,34.8994544 L138.718813,56.5993213 L143.250621,56.5993213 C150.206449,56.5993219 153.659024,52.4996998 153.659024,45.7510421 L153.659024,45.7510421 Z M184.483271,12.7512177 C179.328853,12.7512177 176.026374,15.8007946 176.026374,21.1004699 C176.026374,25.8990241 181.230885,28.2002308 186.284674,29.8997747 C189.286214,30.9514908 193.08972,32.3493253 195.691663,34.849982 C198.54384,37.5501298 200.094948,41.1502612 199.995496,45.6982974 C199.794735,54.2008769 193.840282,59.9489334 183.331787,60 C179.378858,60 173.224289,59.099978 169.521487,56.9504198 L169.120598,44.150408 L172.223527,44.150408 C172.473721,52.7485866 176.526762,57.2487823 183.631993,57.2487823 C189.3363,57.2487823 192.489248,53.4491558 192.489248,47.6500354 C192.489248,42.6503564 188.336204,40.4991254 182.030799,38.400719 C179.979323,37.7001068 175.92629,36.2000572 173.073534,33.4010386 C170.521596,30.849273 169.321352,27.6513134 169.321352,24.2506313 C169.321352,14.3007027 176.426664,10 185.233914,10 C188.735835,10 193.990418,11.2511252 197.042656,13.0001032 L197.342929,24.100614 L194.240605,24.100614 C193.590094,16.2013721 190.137486,12.7512177 184.483271,12.7512177 Z" id="UBS"></path>
                    <path d="M54.0797418,20.8074844 L52.7713197,21.8878672 L54.152777,26.3520182 L50.0089741,24.1191299 L48.6275141,25.1994747 L53.2075128,27.6488052 L48.3373853,31.535827 L47.0289185,29.8079045 L48.7735419,28.4406237 L47.4644163,26.9274358 L45.7204937,28.2963449 L44.4126852,26.6405405 L46.1566504,25.2716348 L44.8481837,23.615831 L35.9073249,30.9604094 L44.4126852,37.7279425 L45.9382429,35.8557385 C47.0289185,35.9278566 47.8282359,36.7196784 48.2644324,37.7279425 L46.7382192,39.6001471 L47.6828663,40.3198475 C49.7906085,38.4476429 52.5535252,37.2246016 55.3882112,37.2246016 C61.3483582,37.2246016 66,42.047812 66,47.9513632 C66,49.8956899 65.4914245,51.984336 64.4014071,53.7122592 L66,54.9352578 C65.9275812,56.08776 64.8375577,57.3108007 63.7468814,57.5993236 L62.2200134,56.3747007 C60.112924,58.3911868 57.3505778,59.4715669 54.4429052,59.4715669 C48.4821412,59.4715669 43.8305007,54.7926453 43.8305007,48.8169694 C43.8305007,46.8726047 44.4126852,44.8561172 45.2843397,43.2003162 L44.4126852,42.4068287 L42.8858104,44.4233155 C41.7951348,44.280699 40.8504053,43.557706 40.5602805,42.4068287 L42.0865356,40.6067428 L34.8896845,34.7031916 L34.8896845,44.0626325 L37.2888693,44.1347932 C37.5796503,44.4954342 37.798016,45.0003994 37.798016,45.5758203 C37.798016,46.0791166 37.5796503,46.6562031 37.3612037,47.0873813 L34.8896845,47.0873813 L34.8896845,48.2398855 C40.1235074,49.1038674 44.4850615,53.4958576 44.4850615,58.8223229 C44.4850615,64.36686 40.1958864,68.7605106 34.8896845,69.6228335 L34.8896845,71.4966998 C34.3811515,71.7819261 33.7266326,72 33.14572,72 C32.4912004,72 31.7642599,71.7819261 31.1826918,71.4966998 L31.1826918,69.6228335 C25.8771481,68.7605106 21.7333426,64.36686 21.7333426,58.8223229 C21.7333426,53.4958576 25.8771481,49.1038674 31.1826918,48.3120069 L31.1826918,47.0873813 L28.7117882,47.0873813 C28.4203456,46.6562031 28.2750577,46.0791166 28.2750577,45.5758203 C28.2750577,45.0003994 28.4203456,44.4954342 28.7117882,44.0626325 L31.1826918,44.0626325 L31.1826918,34.7031916 L23.9141193,40.6067428 L25.5133279,42.4068287 C25.149592,43.557706 24.2048612,44.280699 23.1148431,44.4233155 L21.5879696,42.4068287 L20.6426663,43.2003162 C21.6609636,44.8561172 22.1694973,46.8726047 22.1694973,48.8169694 C22.1694973,54.7926453 17.5178568,59.4715669 11.5577503,59.4715669 C8.72241149,59.4715669 5.88707231,58.3911868 3.8524051,56.3747007 L2.25315474,57.5993236 C1.23543159,57.3108007 0.145412591,56.08776 0,54.9352585 L1.5262156,53.7122592 C0.58156807,51.984336 0,49.8956899 0,47.9513632 C0,42.047812 4.65164058,37.2246016 10.612445,37.2246016 C13.5194641,37.2246016 16.2818096,38.4476429 18.3895106,40.3198475 L19.2625194,39.6706422 L17.7356054,37.7279425 C18.099425,36.7196784 19.0440721,35.9999787 20.134132,35.8557385 L21.6609636,37.7279425 L30.1656671,30.9604094 L21.2248495,23.615831 L19.9163821,25.2716348 L21.6609636,26.6405405 L20.3525381,28.2963449 L18.6079174,26.9274358 L17.29945,28.4406237 L18.9710781,29.8079045 L17.6632696,31.535827 L12.8655602,27.6488052 L17.3724859,25.1994747 L16.0640178,24.1191299 L11.9209117,26.3520182 L13.3017148,21.8878672 L11.9932481,20.8074838 L10.4670329,25.7044365 L5.59698611,21.8157065 L6.90479545,20.2320642 L8.57703921,21.6009699 L9.95854041,20.0172876 L8.21326216,18.5041003 L9.52172818,16.9909125 L11.2663084,18.2893237 L12.5017399,16.7761372 L8.72241082,13.8251734 C9.08561402,12.5989235 9.88550591,11.5922851 11.0486003,10.8709597 L31.1826918,27.1454643 L31.1826918,16.2712134 L29.1479416,16.2712134 L29.1479416,18.3598202 L27.112579,18.3598202 L27.112579,16.2712134 L25.0041785,16.2712134 L25.0041785,18.3598202 L22.8964363,18.3598202 L22.8964363,12.2398661 L27.6934889,14.2547279 L27.6934889,12.5268035 L23.2602141,10.7283439 L27.6934889,9.00038005 L27.6934889,7.34457766 L22.8964363,9.21678227 L22.8964363,3.0247086 L25.0041785,3.0247086 L25.0041785,5.25597116 L27.1125797,5.25597116 L27.1125797,3.0247086 L29.1479422,3.0247086 L29.1479422,5.25597116 L31.1826918,5.25597116 L31.1826918,0.360642008 C31.7642599,0.14424066 32.4187816,0 33.0726848,0 C33.6542138,0 34.3081589,0.14424066 34.8896851,0.360642008 L34.8896851,27.145465 L55.0244733,10.8709597 C56.1144907,11.5922858 56.9144272,12.5989235 57.3505778,13.8251734 L53.4982574,16.7761372 L54.8066856,18.2893237 L56.5513063,16.9909125 L57.8591533,18.5041003 L56.1144907,20.0172876 L57.4229608,21.6009699 L59.1681979,20.2320642 L60.4760455,21.8157065 L55.6059996,25.7044365 L54.0797418,20.8074844 Z M12.9378959,50.2547479 C12.9378959,51.984336 14.2470195,53.0630505 15.7732341,53.2073354 L13.2293365,55.1516594 C11.4847557,54.5024567 9.88550591,52.4154722 9.88550591,50.6153863 C9.88550591,50.0399687 10.0308775,49.6792857 10.1762485,49.2481502 C9.95854041,49.2481502 9.81251192,49.3202683 9.66714098,49.3202683 C7.34160768,49.3202683 5.37857986,47.1595027 4.94308133,44.9282807 L7.55935623,42.9117525 C7.48632173,43.2003162 7.48632173,43.4150928 7.48632173,43.6314937 C7.48632173,45.0708938 8.86778176,46.3676809 10.3216606,46.3676809 C11.8478772,46.3676809 13.3017148,45.0708938 13.3017148,43.557706 C13.3017148,41.6887526 11.8478772,40.4641297 10.0308775,40.4641297 C6.46929632,40.4641297 2.98005283,43.8478952 2.98005283,48.3120069 C2.98005283,49.6071663 3.27018001,50.8317932 3.85240483,51.910549 L5.45161402,50.6875497 C6.54167394,51.1908493 7.4139853,52.2712354 7.70476903,53.4958583 L6.10617548,54.7188576 C7.63239141,56.0156439 9.52172683,56.5911009 11.484755,56.5911009 C15.5548698,56.5911009 18.826364,53.3515728 18.826364,50.4711488 C18.826364,48.8169694 17.6632689,47.3759036 15.9186064,47.3759036 C14.3194383,47.3759036 12.9378959,48.5989029 12.9378959,50.2547479 Z M34.5265238,56.4484464 C34.5265238,58.0305004 35.8349905,59.3272874 37.3612037,59.3272874 C38.45188,59.3272874 38.8874203,58.8961099 39.6873926,58.246902 L39.6873926,61.4880537 C38.8874203,61.9191951 38.0881441,62.135596 37.2158341,62.135596 C35.4718271,62.135596 34.01803,61.6306729 33.0726841,60.1191092 C32.0550018,61.6306729 30.6011655,62.135596 28.8565023,62.135596 C28.0572666,62.135596 27.1849566,61.9191951 26.3856804,61.4880537 L26.3856804,58.246902 C27.112579,58.9666077 27.6934889,59.3272874 28.7117882,59.3272874 C30.3110367,59.3272874 31.5464682,58.0305004 31.5464682,56.4484464 C31.5464682,54.9352585 30.5288277,53.5679804 28.8565023,53.5679804 C25.8771481,53.5679804 24.6410179,56.3747007 24.6410179,58.9666077 C24.6410179,62.783175 27.4763567,66.0226611 31.1826918,66.6718724 L31.1826918,64.7275397 C31.7642599,64.4389814 32.4187816,64.36686 33.0003079,64.36686 C33.6542138,64.36686 34.3081589,64.4389814 34.8896845,64.7275397 L34.8896845,66.6718724 C38.3065104,66.1669379 41.4319741,62.5667742 41.4319741,58.9666077 C41.4319741,56.3025373 40.3412559,53.5679804 37.2158341,53.5679804 C35.6171994,53.5679804 34.5265238,54.9352585 34.5265238,56.4484464 L34.5265238,56.4484464 Z M52.625944,43.557706 C52.625944,45.0003994 54.152777,46.3676809 55.6789923,46.3676809 C57.1322155,46.3676809 58.5136722,45.0708938 58.5136722,43.6314937 C58.5136722,43.4150928 58.4406431,43.2003162 58.4406431,42.9117525 L60.9851948,44.9282807 C60.5483853,47.3759036 58.3683033,49.5350062 55.8244044,49.2481502 C55.96978,49.6792857 56.0421144,50.0399687 56.0421144,50.6153863 C56.0421144,52.4154722 54.4429052,54.5024567 52.6989373,55.1516594 L50.1543856,53.2073354 C51.7536374,53.0630505 53.0621007,51.984336 53.0621007,50.2547479 C53.0621007,48.5989029 51.6082246,47.3759036 50.0089741,47.3759036 C48.3373853,47.3759036 47.1019537,48.8169694 47.1019537,50.5432702 C47.1019537,52.6318731 49.6452363,56.5911009 54.5158978,56.5911009 C56.4789294,56.5911009 58.3683033,56.0156439 59.8221429,54.7188576 L58.2228912,53.4958583 C58.5860127,52.2712354 59.3129511,51.1908493 60.4760448,50.6875497 L62.0752541,51.910549 C62.6568229,50.8317932 63.0206026,49.6071663 63.0206026,48.3120069 C63.0206026,44.8561172 60.3306334,40.4641297 56.0421144,40.4641297 C54.2251168,40.4641297 52.625944,41.6887526 52.625944,43.557706 L52.625944,43.557706 Z" id="Key"></path>
                </g>
            </g>
        </g>
    </g>
</svg>