<?xml version="1.0" encoding="utf-8"?>
<!-- Generator: Adobe Illustrator 21.1.0, SVG Export Plug-In . SVG Version: 6.00 Build 0)  -->
<svg version="1.1" id="Calque_1" xmlns="http://www.w3.org/2000/svg" xmlns:xlink="http://www.w3.org/1999/xlink" x="0px" y="0px"
	 viewBox="0 0 300 300" style="enable-background:new 0 0 300 300;" xml:space="preserve">
<style type="text/css">
	.st0{fill:#2D6DFF;}
	.st1{fill:#2E7EFF;}
	.st2{fill:#2D47FE;}
	.st3{fill:#60D0FE;}
	.st4{fill:#47A8FF;}
	.st5{fill:#2C62FA;}
	.st6{fill:#478DFF;}
	.st7{fill:#3C77FF;}
	.st8{fill:#FFFFFF;}
	.st9{fill:#2060F6;}
</style>
<g>
	
		<rect x="172.1" y="40.3" transform="matrix(0.4763 -0.8793 0.8793 0.4763 35.5864 198.4996)" class="st0" width="24.6" height="58.1"/>
	
		<rect x="176.2" y="197.5" transform="matrix(0.5378 0.843 -0.843 0.5378 278.1078 -54.2564)" class="st0" width="24.6" height="58.1"/>
	<g>
		<rect x="39.6" y="121" class="st0" width="24.6" height="58.1"/>
		<g>
			<g>
				<circle class="st1" cx="126.1" cy="121.7" r="86.5"/>
				<circle class="st2" cx="126.1" cy="178.3" r="86.5"/>
				<circle class="st3" cx="173.9" cy="148" r="86.5"/>
				<circle class="st1" cx="126.1" cy="121.7" r="86.5"/>
				<path class="st4" d="M87.4,148c0,22.7,8.8,43.4,23.1,58.8c5.1,0.9,10.3,1.4,15.6,1.4c47.8,0,86.5-38.7,86.5-86.5
					c0-22.7-8.8-43.4-23.1-58.8c-5.1-0.9-10.3-1.4-15.6-1.4C126.1,61.5,87.4,100.2,87.4,148z"/>
				<path class="st5" d="M126.1,91.8c-37.9,0-70.1,24.3-81.8,58.2c11.7,33.9,43.9,58.2,81.8,58.2s70.1-24.3,81.8-58.2
					C196.2,116.1,164,91.8,126.1,91.8z"/>
				<path class="st6" d="M126.1,91.8c-6.8,0-13.5,0.8-19.8,2.3c-11.8,14.8-18.9,33.5-18.9,53.9c0,47.8,38.7,86.5,86.5,86.5
					c6.8,0,13.5-0.8,19.8-2.3c11.8-14.8,18.9-33.5,18.9-53.9C212.6,130.5,173.9,91.8,126.1,91.8z"/>
				<path class="st7" d="M122,91.9c-0.8,0-1.6,0.1-2.4,0.1c-0.3,0-0.6,0-0.8,0.1c-1,0.1-2,0.2-3,0.3c-0.3,0-0.6,0.1-0.9,0.1
					c-0.7,0.1-1.5,0.2-2.2,0.3c-0.4,0.1-0.8,0.1-1.1,0.2c-0.7,0.1-1.5,0.3-2.2,0.4c-0.3,0.1-0.6,0.1-0.8,0.2
					c-0.8,0.2-1.6,0.4-2.4,0.5c-11.8,14.8-18.9,33.5-18.9,53.9c0,22.7,8.8,43.4,23.1,58.8c5.1,0.9,10.3,1.4,15.6,1.4
					c37.9,0,70.1-24.3,81.8-58.2c-0.7-2.1-1.5-4.2-2.4-6.2c0,0,0-0.1-0.1-0.1c-0.9-2-1.8-4-2.8-5.9c0,0,0-0.1-0.1-0.1
					c-1.5-2.9-3.2-5.7-5.1-8.4c0,0-0.1-0.1-0.1-0.1c-1.2-1.8-2.5-3.5-3.8-5.1c0-0.1-0.1-0.1-0.1-0.2c-1.3-1.6-2.7-3.2-4.2-4.8
					c0,0-0.1-0.1-0.1-0.1c-0.7-0.8-1.5-1.5-2.2-2.3c0,0-0.1-0.1-0.1-0.1c-1.5-1.5-3-2.9-4.6-4.2c-0.1-0.1-0.2-0.2-0.3-0.2
					c-1.6-1.3-3.2-2.6-4.9-3.8c-0.1-0.1-0.2-0.2-0.3-0.2c-0.8-0.6-1.7-1.2-2.5-1.7c-0.1-0.1-0.2-0.1-0.2-0.2
					c-0.8-0.5-1.6-1.1-2.5-1.6c-0.1,0-0.2-0.1-0.2-0.1c-0.9-0.5-1.7-1-2.6-1.5c-0.1-0.1-0.3-0.2-0.4-0.2c-1.8-1-3.6-1.9-5.4-2.8
					c-0.2-0.1-0.3-0.2-0.5-0.2c-0.9-0.4-1.8-0.8-2.7-1.2c-0.1,0-0.2-0.1-0.3-0.1c-0.9-0.4-1.7-0.7-2.6-1c-0.2-0.1-0.3-0.1-0.5-0.2
					c-0.9-0.3-1.9-0.7-2.8-1c-0.2-0.1-0.4-0.1-0.5-0.2c-0.9-0.3-1.8-0.6-2.7-0.8c-0.1,0-0.2-0.1-0.2-0.1c-1-0.3-1.9-0.5-2.9-0.8
					c-0.2-0.1-0.4-0.1-0.6-0.2c-1-0.2-2-0.5-3-0.7c-0.1,0-0.2,0-0.2,0c-0.9-0.2-1.9-0.4-2.8-0.5c-0.2,0-0.4-0.1-0.6-0.1
					c-1-0.2-2-0.3-3-0.4c-0.2,0-0.4,0-0.6-0.1c-0.9-0.1-1.8-0.2-2.8-0.3c-0.2,0-0.3,0-0.5,0c-1-0.1-2-0.1-3.1-0.2
					c-0.2,0-0.5,0-0.7,0c-1,0-2.1-0.1-3.2-0.1c-1.1,0-2.1,0-3.2,0.1C122.6,91.8,122.3,91.9,122,91.9z"/>
			</g>
			<g>
				<g>
					<path class="st8" d="M140.9,95c-29,0.7-52.6,24.3-53.3,53.3c0,0.4,0,0.8,0,1.2c0,0,0,0.1,0,0.1c0,0,0,0,0,0
						c0,30.2,24.5,54.6,54.6,54.6c19.1,0,35.8-9.8,45.6-24.5c2.7-4.1-0.3-9.6-5.2-9.6h0c-2.9,0-5.6,1.3-7.3,3.6
						c-7.9,10.8-20.9,17.6-35.4,16.8c-19.2-1-35-15.5-38.1-34.1h80.8h7.4h0c1.6,0,3.1-0.6,4.3-1.5c0,0,0,0,0,0c0,0,0.1-0.1,0.1-0.1
						c1.5-1.2,2.4-3.1,2.4-5.1c0,0,0,0,0-0.1C196.9,119,171.7,94.3,140.9,95z M101.8,142.8c3.3-19.4,20.1-34.1,40.4-34.1
						c20.3,0,37.1,14.8,40.4,34.1H101.8z"/>
				</g>
			</g>
		</g>
	</g>
</g>
</svg>
