<?xml version="1.0" encoding="utf-8"?>
<!-- Generator: Adobe Illustrator 21.1.0, SVG Export Plug-In . SVG Version: 6.00 Build 0)  -->
<svg version="1.1" id="Calque_1" xmlns="http://www.w3.org/2000/svg" xmlns:xlink="http://www.w3.org/1999/xlink" x="0px" y="0px"
	 viewBox="0 0 300 300" style="enable-background:new 0 0 300 300;" xml:space="preserve">
<style type="text/css">
	.st0{fill:#FFFFFF;}
	.st1{fill:#72B0FC;}
	.st2{fill:#2E7EFF;}
	.st3{fill:#6A95FF;}
	.st4{fill:#AFDAFA;}
	.st5{fill:#81BAFE;}
	.st6{fill:#96CAFF;}
	.st7{fill:#72A2FC;}
</style>
<g>
	<polygon class="st1" points="215.8,72.6 204.1,94.1 153,66.5 164.8,45 	"/>
	<polygon class="st1" points="170.7,252.3 157.4,231.6 206.4,200.4 219.6,221.1 	"/>
	<g>
		<rect x="39.6" y="121" class="st1" width="24.6" height="58"/>
		<g>
			<g>
				<ellipse class="st2" cx="126.1" cy="121.8" rx="86.5" ry="86.3"/>
				<ellipse class="st3" cx="126.1" cy="178.2" rx="86.5" ry="86.3"/>
				<ellipse class="st4" cx="173.9" cy="148" rx="86.5" ry="86.3"/>
				<ellipse class="st5" cx="126.1" cy="121.8" rx="86.5" ry="86.3"/>
				<path class="st6" d="M87.4,148c0,22.7,8.8,43.3,23.1,58.7c5.1,0.9,10.3,1.4,15.6,1.4c47.8,0,86.5-38.6,86.5-86.3
					c0-22.7-8.8-43.3-23.1-58.7c-5.1-0.9-10.3-1.4-15.6-1.4C126.1,61.7,87.4,100.3,87.4,148z"/>
				<path class="st7" d="M126.1,91.9c-37.9,0-70.1,24.3-81.8,58.1c11.7,33.8,43.9,58.1,81.8,58.1s70.1-24.3,81.8-58.1
					C196.2,116.2,164,91.9,126.1,91.9z"/>
				<path class="st6" d="M126.1,91.9c-6.8,0-13.5,0.8-19.8,2.3c-11.8,14.8-18.9,33.5-18.9,53.8c0,47.7,38.7,86.3,86.5,86.3
					c6.8,0,13.5-0.8,19.8-2.3c11.8-14.8,18.9-33.5,18.9-53.8C212.6,130.5,173.9,91.9,126.1,91.9z"/>
				<path class="st1" d="M122,92c-0.8,0-1.6,0.1-2.4,0.1c-0.3,0-0.6,0-0.8,0.1c-1,0.1-2,0.2-3,0.3c-0.3,0-0.6,0.1-0.9,0.1
					c-0.7,0.1-1.5,0.2-2.2,0.3c-0.4,0.1-0.8,0.1-1.1,0.2c-0.7,0.1-1.5,0.3-2.2,0.4c-0.3,0.1-0.6,0.1-0.8,0.2
					c-0.8,0.2-1.6,0.4-2.4,0.5c-11.8,14.8-18.9,33.5-18.9,53.8c0,22.7,8.8,43.3,23.1,58.7c5.1,0.9,10.3,1.4,15.6,1.4
					c37.9,0,70.1-24.3,81.8-58.1c-0.7-2.1-1.5-4.2-2.4-6.2c0,0,0-0.1-0.1-0.1c-0.9-2-1.8-3.9-2.8-5.9c0,0,0-0.1-0.1-0.1
					c-1.5-2.9-3.2-5.7-5.1-8.4c0,0-0.1-0.1-0.1-0.1c-1.2-1.8-2.5-3.5-3.8-5.1c0-0.1-0.1-0.1-0.1-0.2c-1.3-1.6-2.7-3.2-4.2-4.8
					c0,0-0.1-0.1-0.1-0.1c-0.7-0.8-1.5-1.5-2.2-2.2c0,0-0.1-0.1-0.1-0.1c-1.5-1.5-3-2.9-4.6-4.2c-0.1-0.1-0.2-0.2-0.3-0.2
					c-1.6-1.3-3.2-2.6-4.9-3.8c-0.1-0.1-0.2-0.2-0.3-0.2c-0.8-0.6-1.7-1.2-2.5-1.7c-0.1-0.1-0.2-0.1-0.2-0.2
					c-0.8-0.5-1.6-1.1-2.5-1.6c-0.1,0-0.2-0.1-0.2-0.1c-0.9-0.5-1.7-1-2.6-1.5c-0.1-0.1-0.3-0.2-0.4-0.2c-1.8-1-3.6-1.9-5.4-2.8
					c-0.2-0.1-0.3-0.2-0.5-0.2c-0.9-0.4-1.8-0.8-2.7-1.2c-0.1,0-0.2-0.1-0.3-0.1c-0.9-0.4-1.7-0.7-2.6-1c-0.2-0.1-0.3-0.1-0.5-0.2
					c-0.9-0.3-1.9-0.7-2.8-1c-0.2-0.1-0.4-0.1-0.5-0.2c-0.9-0.3-1.8-0.6-2.7-0.8c-0.1,0-0.2-0.1-0.2-0.1c-1-0.3-1.9-0.5-2.9-0.8
					c-0.2-0.1-0.4-0.1-0.6-0.2c-1-0.2-2-0.5-3-0.7c-0.1,0-0.2,0-0.2,0c-0.9-0.2-1.9-0.4-2.8-0.5c-0.2,0-0.4-0.1-0.6-0.1
					c-1-0.2-2-0.3-3-0.4c-0.2,0-0.4,0-0.6-0.1c-0.9-0.1-1.8-0.2-2.8-0.3c-0.2,0-0.3,0-0.5,0c-1-0.1-2-0.1-3.1-0.2
					c-0.2,0-0.5,0-0.7,0c-1,0-2.1-0.1-3.2-0.1c-1.1,0-2.1,0-3.2,0.1C122.6,92,122.3,92,122,92z"/>
			</g>
			<g>
				<g>
					<path class="st0" d="M140.9,95.1c-29,0.7-52.6,24.3-53.3,53.2c0,0.4,0,0.8,0,1.2c0,0,0,0.1,0,0.1c0,0,0,0,0,0
						c0,30.1,24.5,54.5,54.6,54.5c19.1,0,35.8-9.7,45.6-24.5c2.7-4.1-0.3-9.6-5.2-9.6h0c-2.9,0-5.6,1.3-7.3,3.6
						c-7.9,10.8-20.9,17.6-35.4,16.8c-19.2-1-35-15.5-38.1-34h80.8h7.4h0c1.6,0,3.1-0.6,4.3-1.5c0,0,0,0,0,0c0,0,0.1-0.1,0.1-0.1
						c1.5-1.2,2.4-3.1,2.4-5.1c0,0,0,0,0-0.1C196.9,119.1,171.7,94.4,140.9,95.1z M101.8,142.8c3.3-19.3,20.1-34.1,40.4-34.1
						c20.3,0,37.1,14.8,40.4,34.1H101.8z"/>
				</g>
			</g>
		</g>
	</g>
</g>
</svg>
