<?xml version="1.0" encoding="utf-8"?>
<!-- Generator: Adobe Illustrator 21.1.0, SVG Export Plug-In . SVG Version: 6.00 Build 0)  -->
<svg version="1.1" id="Calque_1" xmlns="http://www.w3.org/2000/svg" xmlns:xlink="http://www.w3.org/1999/xlink" x="0px" y="0px"
	 viewBox="0 0 800 300" style="enable-background:new 0 0 800 300;" xml:space="preserve">
<style type="text/css">
	.st0{fill:#FFFFFF;}
	.st1{fill:#72B0FC;}
	.st2{fill:#2E7EFF;}
	.st3{fill:#6A95FF;}
	.st4{fill:#AFDAFA;}
	.st5{fill:#81BAFE;}
	.st6{fill:#96CAFF;}
	.st7{fill:#72A2FC;}
</style>
<g>
	<path class="st0" d="M390.9,97.9c28,0,50.7,22.7,50.7,50.6s-22.8,50.6-50.7,50.6s-50.7-22.7-50.7-50.6S362.9,97.9,390.9,97.9
		 M390.9,81c-37.4,0-67.7,30.2-67.7,67.5s30.3,67.5,67.7,67.5s67.7-30.2,67.7-67.5S428.2,81,390.9,81L390.9,81z"/>
	<path class="st0" d="M552.7,81h-84.6c-4.7,0-8.5,3.8-8.5,8.4c0,4.7,3.8,8.4,8.5,8.4h33.8v109.7c0,4.7,3.8,8.4,8.5,8.4
		c4.7,0,8.5-3.8,8.5-8.4V97.9h33.8c4.7,0,8.5-3.8,8.5-8.4C561.1,84.8,557.4,81,552.7,81z"/>
	<g>
		<path class="st0" d="M663,199.2h-67.7V157c0,0,0,0,0,0H663c4.8,0,8.7-4.1,8.4-9c-0.3-4.5-4.2-7.9-8.8-7.9h-67.3c0,0,0,0,0,0V97.9
			c0,0,0,0,0,0H663c4.8,0,8.7-4.1,8.4-9c-0.3-4.5-4.2-7.9-8.8-7.9h-74.8c-5.2,0-9.4,4.2-9.4,9.4v117.2l0,0c0,0,0,0,0,0
			c0,4.7,3.8,8.4,8.5,8.4H663c4.7,0,8.5-3.8,8.5-8.4C671.5,202.9,667.7,199.2,663,199.2z"/>
	</g>
	<path class="st0" d="M780.4,204l-41.2-67.8l40-40.6c3.4-3.5,3.1-8.8-0.7-11.9c-3.8-3.1-9.7-2.8-13.1,0.7l-58.1,59V89.5
		c0-4.7-4.2-8.4-9.3-8.4c-5.1,0-9.3,3.8-9.3,8.4v118.1c0,4.7,4.2,8.4,9.3,8.4c5.1,0,9.3-3.8,9.3-8.4v-39l18.8-19.1l38.1,62.6
		c1.7,2.8,4.9,4.4,8.1,4.4c1.5,0,3.1-0.3,4.5-1.1C781.3,213.2,782.9,208.1,780.4,204z"/>
	<path class="st0" d="M235.2,216c-4.5-0.3-7.9-4.2-7.9-8.7V90.4c0-5.2,4.2-9.4,9.4-9.4h36.4c20.8,0,38.3,16.3,38.8,37.1
		c0.5,21.4-16.8,38.9-38,38.9h-29.6v50.6C244.2,212.5,240.1,216.3,235.2,216z M244.2,140.1h29.6c11.7,0,21.1-9.5,21.1-21.1
		s-9.5-21.1-21.1-21.1h-29.6V140.1z"/>
	<g>
		<polygon class="st1" points="155.5,89.8 146.4,106.6 106.7,85.1 115.8,68.3 		"/>
		<polygon class="st1" points="120.4,229.6 110.1,213.5 148.2,189.2 158.5,205.3 		"/>
		<g>
			<rect x="18.4" y="127.5" class="st1" width="19.1" height="45.1"/>
			<g>
				<g>
					<ellipse class="st2" cx="85.7" cy="128.1" rx="67.3" ry="67.1"/>
					<ellipse class="st3" cx="85.7" cy="171.9" rx="67.3" ry="67.1"/>
					<ellipse class="st4" cx="122.9" cy="148.4" rx="67.3" ry="67.1"/>
					<ellipse class="st5" cx="85.7" cy="128.1" rx="67.3" ry="67.1"/>
					<path class="st6" d="M55.6,148.4c0,17.6,6.8,33.7,18,45.7c3.9,0.7,8,1.1,12.1,1.1c37.2,0,67.3-30.1,67.3-67.1
						c0-17.6-6.8-33.7-18-45.7c-3.9-0.7-8-1.1-12.1-1.1C85.7,81.3,55.6,111.3,55.6,148.4z"/>
					<path class="st7" d="M85.7,104.8c-29.5,0-54.5,18.9-63.6,45.2c9.1,26.3,34.2,45.2,63.6,45.2s54.5-18.9,63.6-45.2
						C140.2,123.7,115.2,104.8,85.7,104.8z"/>
					<path class="st6" d="M85.7,104.8c-5.3,0-10.5,0.6-15.4,1.8c-9.2,11.5-14.7,26-14.7,41.9c0,37.1,30.1,67.1,67.3,67.1
						c5.3,0,10.5-0.6,15.4-1.8c9.2-11.5,14.7-26,14.7-41.9C153,134.9,122.9,104.8,85.7,104.8z"/>
					<path class="st1" d="M82.6,104.9c-0.6,0-1.2,0.1-1.8,0.1c-0.2,0-0.4,0-0.7,0c-0.8,0.1-1.6,0.1-2.3,0.2c-0.2,0-0.4,0.1-0.7,0.1
						c-0.6,0.1-1.1,0.2-1.7,0.2c-0.3,0-0.6,0.1-0.9,0.1c-0.6,0.1-1.1,0.2-1.7,0.3c-0.2,0-0.4,0.1-0.6,0.1c-0.6,0.1-1.3,0.3-1.9,0.4
						c-9.2,11.5-14.7,26-14.7,41.8c0,17.6,6.8,33.7,18,45.7c3.9,0.7,8,1.1,12.2,1.1c29.5,0,54.5-18.9,63.6-45.2
						c-0.6-1.6-1.2-3.2-1.9-4.8c0,0,0-0.1,0-0.1c-0.7-1.5-1.4-3.1-2.2-4.6c0,0,0-0.1,0-0.1c-1.2-2.2-2.5-4.4-4-6.5
						c0,0,0-0.1-0.1-0.1c-0.9-1.4-1.9-2.7-3-4c0,0-0.1-0.1-0.1-0.1c-1-1.3-2.1-2.5-3.2-3.7c0,0-0.1-0.1-0.1-0.1
						c-0.6-0.6-1.1-1.2-1.7-1.7c0,0-0.1-0.1-0.1-0.1c-1.2-1.1-2.4-2.2-3.6-3.3c-0.1-0.1-0.1-0.1-0.2-0.2c-1.2-1-2.5-2-3.8-3
						c-0.1-0.1-0.2-0.1-0.2-0.2c-0.6-0.5-1.3-0.9-1.9-1.4c-0.1,0-0.1-0.1-0.2-0.1c-0.6-0.4-1.3-0.8-1.9-1.2c-0.1,0-0.1-0.1-0.2-0.1
						c-0.7-0.4-1.3-0.8-2-1.2c-0.1-0.1-0.2-0.1-0.3-0.2c-1.4-0.8-2.8-1.5-4.2-2.2c-0.1-0.1-0.3-0.1-0.4-0.2
						c-0.7-0.3-1.4-0.6-2.1-0.9c-0.1,0-0.1-0.1-0.2-0.1c-0.7-0.3-1.4-0.5-2-0.8c-0.1,0-0.2-0.1-0.4-0.1c-0.7-0.3-1.4-0.5-2.2-0.8
						c-0.1,0-0.3-0.1-0.4-0.1c-0.7-0.2-1.4-0.4-2.1-0.6c-0.1,0-0.1,0-0.2-0.1c-0.7-0.2-1.5-0.4-2.3-0.6c-0.2,0-0.3-0.1-0.5-0.1
						c-0.8-0.2-1.5-0.4-2.3-0.5c-0.1,0-0.1,0-0.2,0c-0.7-0.1-1.5-0.3-2.2-0.4c-0.2,0-0.3-0.1-0.5-0.1c-0.8-0.1-1.5-0.2-2.3-0.3
						c-0.1,0-0.3,0-0.4,0c-0.7-0.1-1.4-0.2-2.1-0.2c-0.1,0-0.2,0-0.4,0c-0.8-0.1-1.6-0.1-2.4-0.1c-0.2,0-0.4,0-0.5,0
						c-0.8,0-1.6,0-2.5,0c-0.8,0-1.6,0-2.5,0C83,104.9,82.8,104.9,82.6,104.9z"/>
				</g>
				<g>
					<g>
						<path class="st0" d="M97.3,107.3c-22.5,0.5-40.9,18.9-41.5,41.4c0,0.3,0,0.6,0,0.9c0,0,0,0.1,0,0.1c0,0,0,0,0,0
							c0,23.4,19,42.4,42.5,42.4c14.8,0,27.9-7.6,35.5-19c2.1-3.2-0.2-7.5-4.1-7.5h0c-2.2,0-4.3,1-5.7,2.8
							c-6.1,8.4-16.2,13.7-27.5,13c-14.9-0.8-27.2-12.1-29.7-26.5h62.9h5.7h0c1.3,0,2.4-0.4,3.3-1.2c0,0,0,0,0,0c0,0,0.1,0,0.1-0.1
							c1.1-1,1.9-2.4,1.9-4c0,0,0,0,0-0.1C140.8,125.9,121.2,106.7,97.3,107.3z M66.9,144.4c2.5-15,15.7-26.5,31.4-26.5
							c15.8,0,28.9,11.5,31.4,26.5H66.9z"/>
					</g>
				</g>
			</g>
		</g>
	</g>
</g>
</svg>
