<?xml version="1.0" encoding="UTF-8"?>
<svg width="1210px" height="937px" viewBox="0 0 1210 937" version="1.1" xmlns="http://www.w3.org/2000/svg" xmlns:xlink="http://www.w3.org/1999/xlink">
    <!-- Generator: Sketch 41.2 (35397) - http://www.bohemiancoding.com/sketch -->
    <title>webapp</title>
    <desc>Created with Sketch.</desc>
    <defs></defs>
    <g id="Page-1" stroke="none" stroke-width="1" fill="none" fill-rule="evenodd">
        <g id="webapp">
            <rect id="Rectangle-3" fill="#FFFFFF" x="0" y="0" width="1210" height="937"></rect>
            <g id="logo_black" transform="translate(317.000000, 293.000000)">
                <g id="Calque_1">
                    <path d="M195.685672,34.6355056 C190.878759,38.1707865 185.978095,38.9564045 177.548951,38.9564045 L163.631064,38.9564045 L163.631064,75.5730337 L160.690665,75.5730337 L160.690665,0 L177.57452,0 C186.19969,0 190.904328,0.785617978 195.711241,4.32089888 C200.425839,7.66315713 203.180741,13.1292105 203.066499,18.9146067 C203.040931,25.5069663 199.998257,31.4930337 195.685672,34.6355056 L195.685672,34.6355056 Z M194.117459,6.67775281 C190.000901,3.62921348 185.884343,2.64719101 177.651226,2.64719101 L163.631064,2.64719101 L163.631064,36.3092135 L177.651226,36.3092135 C185.790591,36.3092135 189.992378,34.908764 194.108936,31.868764 C197.637415,29.3069663 200.074963,24.5249438 200.074963,19.0597753 C200.100532,13.3213483 197.645938,9.23955056 194.117459,6.68629213 L194.117459,6.67775281 Z" id="Shape" fill="#0E1C2D"></path>
                    <path d="M283.190236,75.5132584 C262.411418,75.5132584 245.544609,59.698427 245.544609,37.8975281 C245.544609,16.0966292 262.402895,0.281797753 283.190236,0.281797753 C303.977578,0.281797753 320.835864,16.0966292 320.835864,37.8975281 C320.835864,59.698427 303.977578,75.5132584 283.190236,75.5132584 L283.190236,75.5132584 Z M283.190236,2.92898876 C263.979631,2.92898876 248.485007,17.7617978 248.485007,37.8975281 C248.485007,58.0332584 263.971108,72.8660674 283.190236,72.8660674 C302.409365,72.8660674 317.895465,58.0332584 317.895465,37.8975281 C317.895465,17.7617978 302.409365,2.92898876 283.190236,2.92898876 L283.190236,2.92898876 Z" id="Shape" fill="#0E1C2D"></path>
                    <polygon id="Shape" fill="#0E1C2D" points="386.129764 75.5132584 383.189365 75.5132584 383.189365 2.87775281 363.484431 2.87775281 363.484431 0.187865169 405.834697 0.187865169 405.834697 2.84359551 386.129764 2.84359551"></polygon>
                    <polygon id="Shape" fill="#0E1C2D" points="449.096913 0 488.898833 0 488.898833 2.65573034 452.011743 2.65573034 452.011743 36.3177528 488.873264 36.3177528 488.873264 38.7173034 452.011743 38.7173034 452.011743 72.8746067 488.873264 72.8746067 488.873264 75.5303371 449.071344 75.5303371"></polygon>
                    <polygon id="Shape" fill="#0E1C2D" points="546.240871 39.7591011 534.479276 55.2750562 534.479276 75.5559551 531.538877 75.5559551 531.538877 0 534.479276 0 534.479276 50.6552809 534.683826 50.6552809 572.755598 4.85404476e-14 576.284077 4.85404476e-14 548.115908 37.3937079 576.284077 75.5559551 572.755598 75.5559551"></polygon>
                    <polygon id="Path-2" fill="#0E1C2D" points="96.3087149 36.2921348 96.3087149 38.8539326 138.923191 38.8539326 138.923191 36.2921348"></polygon>
                    <path d="M70.7315066,48.6229213 C66.3422157,63.0714607 53.234003,72.8489888 37.6456278,72.8489888 C18.6992319,72.8489888 3.38358936,58.4175281 2.9659675,38.6916854 L75.2997784,38.6916854 L75.2997784,37.8377528 C75.2997784,16.0368539 58.4414919,0.222022472 37.6541507,0.222022472 C16.8668095,0.222022472 0.00852289513,16.0368539 0.00852289513,37.8377528 C0.00852289513,59.6386517 16.8668095,75.4534831 37.6541507,75.4534831 C54.8363072,75.4534831 69.2996603,64.6341573 73.8082718,48.5716854 L70.7400295,48.5716854 L70.7315066,48.6229213 Z M37.6456278,2.92044944 C56.3448597,2.92044944 71.515613,16.9761798 72.3082422,36.2921348 L2.98301329,36.2921348 C3.77564254,16.9761798 18.9463959,2.92898876 37.6456278,2.92898876 L37.6456278,2.92044944 Z" id="Shape" fill="#4990E2"></path>
                </g>
            </g>
        </g>
    </g>
</svg>