<?xml version="1.0" encoding="UTF-8"?>
<svg width="550px" height="221px" viewBox="0 0 550 221" version="1.1" xmlns="http://www.w3.org/2000/svg" xmlns:xlink="http://www.w3.org/1999/xlink">
    <!-- Generator: Sketch 40.3 (33839) - http://www.bohemiancoding.com/sketch -->
    <title>Untitled</title>
    <desc>Created with Sketch.</desc>
    <defs>
        <polygon id="path-1" points="158.5 218.5 0.5 217.353942 0.5 216.646058 158.5 215.5"></polygon>
        <mask id="mask-2" maskContentUnits="userSpaceOnUse" maskUnits="objectBoundingBox" x="0" y="0" width="158" height="3" fill="white">
            <use xlink:href="#path-1"></use>
        </mask>
        <polygon id="path-3" points="158 219 0 217.853942 0 217.146058 158 216"></polygon>
        <mask id="mask-4" maskContentUnits="userSpaceOnUse" maskUnits="objectBoundingBox" x="0" y="0" width="158" height="3" fill="white">
            <use xlink:href="#path-3"></use>
        </mask>
    </defs>
    <g id="Page-1" stroke="none" stroke-width="1" fill="none" fill-rule="evenodd">
        <g id="Right" transform="translate(0.000000, 2.000000)" stroke="#000000" fill="#000000">
            <use id="Rectangle" mask="url(#mask-2)" stroke-width="2" xlink:href="#path-1"></use>
            <path d="M157,217 L157,177" id="Line" stroke-width="3" stroke-linecap="square"></path>
            <path d="M157,177 L197,177" id="Line" stroke-width="3" stroke-linecap="square"></path>
            <path d="M197,177 L197,95" id="Line" stroke-width="3" stroke-linecap="square"></path>
            <path d="M197,95 L157,95" id="Line" stroke-width="3" stroke-linecap="square"></path>
            <path d="M157.5,93.5 L274.900393,0.134333183" id="Line" stroke-width="3" stroke-linecap="square"></path>
        </g>
        <g id="Left" transform="translate(412.500000, 111.500000) scale(-1, 1) translate(-412.500000, -111.500000) translate(275.000000, 2.000000)" stroke="#000000" fill="#000000">
            <use id="Rectangle" mask="url(#mask-4)" stroke-width="2" xlink:href="#path-3"></use>
            <path d="M157,217 L157,177" id="Line" stroke-width="3" stroke-linecap="square"></path>
            <path d="M157,177 L197,177" id="Line" stroke-width="3" stroke-linecap="square"></path>
            <path d="M197,177 L197,95" id="Line" stroke-width="3" stroke-linecap="square"></path>
            <path d="M197,95 L157,95" id="Line" stroke-width="3" stroke-linecap="square"></path>
            <path d="M157.5,93.5 L274.900393,0.134333183" id="Line" stroke-width="3" stroke-linecap="square"></path>
        </g>
        <g id="Windows" transform="translate(248.000000, 69.000000)" fill="#000000">
            <rect id="Rectangle-2" x="0" y="0" width="26" height="25"></rect>
            <rect id="Rectangle-2" x="28" y="0" width="26" height="25"></rect>
            <rect id="Rectangle-2" x="0" y="27" width="26" height="25"></rect>
            <rect id="Rectangle-2" x="28" y="27" width="26" height="25"></rect>
        </g>
    </g>
</svg>