<?xml version="1.0" encoding="UTF-8"?>
<svg width="628px" height="90px" viewBox="0 0 628 90" version="1.1" xmlns="http://www.w3.org/2000/svg" xmlns:xlink="http://www.w3.org/1999/xlink">
    <!-- Generator: Sketch 40.3 (33839) - http://www.bohemiancoding.com/sketch -->
    <title>Logo/White</title>
    <desc>Created with Sketch.</desc>
    <defs></defs>
    <g id="Symbols" stroke="none" stroke-width="1" fill="none" fill-rule="evenodd">
        <g id="Logo/White">
            <g id="logo_white">
                <g id="Calque_1">
                    <path d="M180.6,41.56 C174.96,45.7 169.21,46.62 159.32,46.62 L142.99,46.62 L142.99,89.5 L139.54,89.5 L139.54,0.99 L159.32,0.99 C169.44,0.99 174.96,1.91 180.6,6.05 C186.131686,9.96396033 189.364041,16.3649965 189.23,23.14 C189.23,30.86 185.66,37.88 180.6,41.56 L180.6,41.56 Z M178.76,8.82 C173.93,5.25 169.1,4.1 159.44,4.1 L142.99,4.1 L142.99,43.51 L159.42,43.51 C168.97,43.51 173.9,41.87 178.73,38.31 C182.87,35.31 185.73,29.71 185.73,23.31 C185.78,16.6 182.9,11.81 178.76,8.82 L178.76,8.82 Z" id="Shape" fill="#FFFFFF"></path>
                    <path d="M283.27,89.42 C258.89,89.42 239.1,70.9 239.1,45.37 C239.1,19.84 258.88,1.32 283.27,1.32 C307.66,1.32 327.42,19.84 327.42,45.37 C327.42,70.9 307.66,89.42 283.27,89.42 L283.27,89.42 Z M283.27,4.42 C260.73,4.42 242.55,21.79 242.55,45.37 C242.55,68.95 260.72,86.32 283.27,86.32 C305.82,86.32 323.99,68.95 323.99,45.37 C323.99,21.79 305.82,4.42 283.27,4.42 L283.27,4.42 Z" id="Shape" fill="#FFFFFF"></path>
                    <polygon id="Shape" fill="#FFFFFF" points="404.05 4.37 404.05 89.43 400.6 89.43 400.6 4.37 377.48 4.37 377.48 1.26 427.17 1.26 427.17 4.37"></polygon>
                    <polygon id="Shape" fill="#FFFFFF" points="477.93 89.48 477.93 0.99 524.63 0.99 524.63 4.1 481.42 4.1 481.42 43.52 524.67 43.52 524.67 46.33 481.42 46.33 481.42 86.33 524.67 86.33 524.67 89.44 477.97 89.44"></polygon>
                    <polygon id="Shape" fill="#FFFFFF" points="623.01 89.48 591.91 47.56 578.11 65.73 578.11 89.48 574.66 89.48 574.66 0.99 578.11 0.99 578.11 60.31 578.34 60.31 623.01 0.99 627.15 0.99 594.1 44.78 627.15 89.47 623.01 89.47"></polygon>
                    <path d="M83.99,57.99 C78.84,74.91 63.46,86.36 45.17,86.36 C22.94,86.36 4.97,69.46 4.48,46.36 L89.32,46.36 L89.32,45.36 C89.32,19.83 69.54,1.31 45.15,1.31 C20.76,1.31 0.98,19.83 0.98,45.36 C0.98,70.89 20.76,89.41 45.15,89.41 C65.31,89.41 82.28,76.74 87.57,57.93 L83.97,57.93 L83.99,57.99 Z M45.17,4.47 C67.11,4.47 84.91,20.93 85.84,43.55 L4.5,43.55 C5.42,20.88 23.23,4.42 45.17,4.42 L45.17,4.47 Z" id="Shape" fill="#4990E2"></path>
                </g>
            </g>
        </g>
    </g>
</svg>