<svg id="Calque_1" data-name="Calque 1" xmlns="http://www.w3.org/2000/svg" viewBox="0 0 626.15 88.5"><defs><style>.cls-1{fill:#1a0f21;}.cls-2{fill:#88a83e;}</style></defs><title>logo_black</title><path class="cls-1" d="M826.25,536.34c-5.64,4.14-11.39,5.06-21.28,5.06H788.64v42.88h-3.45v-88.5H805c10.12,0,15.64.92,21.28,5.06a20.44,20.44,0,0,1,8.63,17.09C834.88,525.65,831.31,532.66,826.25,536.34Zm-1.84-32.74c-4.83-3.57-9.66-4.72-19.32-4.72H788.64V538.3h16.45c9.55,0,14.48-1.64,19.31-5.2,4.14-3,7-8.6,7-15C831.43,511.38,828.55,506.6,824.41,503.61Z" transform="translate(-646.65 -495.78)"/><path class="cls-1" d="M928.92,584.21c-24.38,0-44.17-18.52-44.17-44.05s19.78-44.05,44.17-44.05,44.17,18.52,44.17,44.05S953.31,584.21,928.92,584.21Zm0-85c-22.54,0-40.72,17.37-40.72,40.95s18.17,40.95,40.72,40.95,40.72-17.37,40.72-40.95S951.47,499.21,928.92,499.21Z" transform="translate(-646.65 -495.78)"/><path class="cls-1" d="M1049.7,499.15v85.06h-3.45V499.15h-23.12V496h49.69v3.11H1049.7Z" transform="translate(-646.65 -495.78)"/><path class="cls-1" d="M1123.58,584.26V495.78h46.7v3.11H1127v39.42h43.25v2.81H1127v40h43.25v3.11h-46.7Z" transform="translate(-646.65 -495.78)"/><path class="cls-1" d="M1268.66,584.26l-31.1-41.92-13.8,18.17v23.75h-3.45V495.78h3.45v59.32H1224l44.67-59.32h4.14l-33.05,43.79,33.05,44.69h-4.14Z" transform="translate(-646.65 -495.78)"/><path class="cls-2" d="M729.64,552.72c-5.15,16.92-20.53,28.37-38.82,28.37-22.23,0-40.2-16.9-40.69-40H735s0-.64,0-1c0-25.53-19.78-44.05-44.17-44.05s-44.17,18.52-44.17,44.05,19.78,44.05,44.17,44.05c20.16,0,37.13-12.67,42.42-31.48h-3.6Zm-38.82-53.52c21.94,0,39.74,16.46,40.67,39.08H650.15C651.08,515.66,668.88,499.21,690.82,499.21Z" transform="translate(-646.65 -495.78)"/></svg>