<svg id="Calque_1" data-name="Calque 1" xmlns="http://www.w3.org/2000/svg" viewBox="0 0 626.15 88.5"><defs><style>.cls-1{fill:#fff;}.cls-2{fill:#88a83e;}</style></defs><title>logo_white</title><path class="cls-1" d="M826.18,536.57c-5.64,4.14-11.39,5.06-21.28,5.06H788.57v42.88h-3.45V496H804.9c10.12,0,15.64.92,21.28,5.06a20.44,20.44,0,0,1,8.63,17.09C834.81,525.87,831.24,532.89,826.18,536.57Zm-1.84-32.74c-4.83-3.57-9.66-4.72-19.32-4.72H788.57v39.41H805c9.55,0,14.48-1.64,19.31-5.2,4.14-3,7-8.6,7-15C831.36,511.61,828.48,506.82,824.34,503.83Z" transform="translate(-646.58 -496.01)"/><path class="cls-1" d="M928.85,584.43c-24.38,0-44.17-18.52-44.17-44.05s19.78-44.05,44.17-44.05S973,514.85,973,540.38,953.24,584.43,928.85,584.43Zm0-85c-22.54,0-40.72,17.37-40.72,40.95s18.17,40.95,40.72,40.95,40.72-17.37,40.72-40.95S951.4,499.43,928.85,499.43Z" transform="translate(-646.58 -496.01)"/><path class="cls-1" d="M1049.63,499.38v85.06h-3.45V499.38h-23.12v-3.11h49.69v3.11h-23.12Z" transform="translate(-646.58 -496.01)"/><path class="cls-1" d="M1123.51,584.49V496h46.7v3.11H1127v39.42h43.25v2.81H1127v40h43.25v3.11h-46.7Z" transform="translate(-646.58 -496.01)"/><path class="cls-1" d="M1268.59,584.49l-31.1-41.92-13.8,18.17v23.75h-3.45V496h3.45v59.32h0.23L1268.59,496h4.14l-33.05,43.79,33.05,44.69h-4.14Z" transform="translate(-646.58 -496.01)"/><path class="cls-2" d="M729.57,553c-5.15,16.92-20.53,28.37-38.82,28.37-22.23,0-40.2-16.9-40.69-40H734.9s0-.64,0-1c0-25.53-19.78-44.05-44.17-44.05s-44.17,18.52-44.17,44.05,19.78,44.05,44.17,44.05c20.16,0,37.13-12.67,42.42-31.48h-3.6Zm-38.82-53.52c21.94,0,39.74,16.46,40.67,39.08H650.08C651,515.89,668.81,499.43,690.75,499.43Z" transform="translate(-646.58 -496.01)"/></svg>