<?xml version="1.0" encoding="UTF-8"?>
<svg width="435px" height="850px" viewBox="0 0 435 850" version="1.1" xmlns="http://www.w3.org/2000/svg" xmlns:xlink="http://www.w3.org/1999/xlink">
    <!-- Generator: Sketch 41.2 (35397) - http://www.bohemiancoding.com/sketch -->
    <title>Group</title>
    <desc>Created with Sketch.</desc>
    <defs></defs>
    <g id="Page-1" stroke="none" stroke-width="1" fill="none" fill-rule="evenodd">
        <g id="Group">
            <rect id="Rectangle-2" fill="#FFFFFF" x="0" y="0" width="435" height="850"></rect>
            <g id="logo_black" transform="translate(77.000000, 307.000000)">
                <g id="Calque_1">
                    <path d="M95.2992614,16.8620225 C92.9582866,18.5831461 90.5716544,18.965618 86.466647,18.965618 L79.6886115,18.965618 L79.6886115,36.7921348 L78.2566322,36.7921348 L78.2566322,0 L86.479099,0 C90.6795716,0 92.9707386,0.38247191 95.3117134,2.10359551 C97.607731,3.73074755 98.949373,6.39185248 98.8937371,9.20842697 C98.8812851,12.4178652 97.3994978,15.3321348 95.2992614,16.8620225 L95.2992614,16.8620225 Z M94.5355391,3.25101124 C92.5307681,1.76685393 90.525997,1.28876404 86.5164549,1.28876404 L79.6886115,1.28876404 L79.6886115,17.6768539 L86.5164549,17.6768539 C90.4803397,17.6768539 92.5266174,16.9950562 94.5313885,15.5150562 C96.2497637,14.2678652 97.4368538,11.9397753 97.4368538,9.27910112 C97.4493058,6.48539326 96.2539143,4.49820225 94.5355391,3.25516854 L94.5355391,3.25101124 Z" id="Shape" fill="#0E1C2D"></path>
                    <path d="M137.914136,36.7630337 C127.794815,36.7630337 119.58065,29.0637079 119.58065,18.4501124 C119.58065,7.83651685 127.790665,0.137191011 137.914136,0.137191011 C148.037607,0.137191011 156.247622,7.83651685 156.247622,18.4501124 C156.247622,29.0637079 148.037607,36.7630337 137.914136,36.7630337 L137.914136,36.7630337 Z M137.914136,1.42595506 C128.558538,1.42595506 121.012629,8.64719101 121.012629,18.4501124 C121.012629,28.2530337 128.554387,35.4742697 137.914136,35.4742697 C147.273885,35.4742697 154.815643,28.2530337 154.815643,18.4501124 C154.815643,8.64719101 147.273885,1.42595506 137.914136,1.42595506 L137.914136,1.42595506 Z" id="Shape" fill="#0E1C2D"></path>
                    <polygon id="Shape" fill="#0E1C2D" points="188.045864 36.7630337 186.613885 36.7630337 186.613885 1.40101124 177.017548 1.40101124 177.017548 0.0914606742 197.642201 0.0914606742 197.642201 1.38438202 188.045864 1.38438202"></polygon>
                    <polygon id="Shape" fill="#0E1C2D" points="218.710975 0 238.094579 0 238.094579 1.29292135 220.130502 1.29292135 220.130502 17.6810112 238.082127 17.6810112 238.082127 18.8492135 220.130502 18.8492135 220.130502 35.478427 238.082127 35.478427 238.082127 36.7713483 218.698523 36.7713483"></polygon>
                    <polygon id="Shape" fill="#0E1C2D" points="266.020251 19.3564045 260.292334 26.9102247 260.292334 36.7838202 258.860355 36.7838202 258.860355 0 260.292334 0 260.292334 24.6611236 260.39195 24.6611236 278.932969 2.36315337e-14 280.651344 2.36315337e-14 266.933397 18.2048315 280.651344 36.7838202 278.932969 36.7838202"></polygon>
                    <polygon id="Path-2" fill="#0E1C2D" points="46.9025111 17.6685393 46.9025111 18.9157303 67.6558346 18.9157303 67.6558346 17.6685393"></polygon>
                    <path d="M34.4463663,23.6716854 C32.308774,30.7058427 25.9250517,35.4659551 18.333486,35.4659551 C9.10655835,35.4659551 1.64781388,28.4401124 1.44443131,18.8367416 L36.6711226,18.8367416 L36.6711226,18.4210112 C36.6711226,7.80741573 28.4611078,0.108089888 18.3376366,0.108089888 C8.21416544,0.108089888 0.0041506647,7.80741573 0.0041506647,18.4210112 C0.0041506647,29.0346067 8.21416544,36.7339326 18.3376366,36.7339326 C26.7053767,36.7339326 33.7490547,31.4666292 35.9447563,23.6467416 L34.450517,23.6467416 L34.4463663,23.6716854 Z M18.333486,1.42179775 C27.4400443,1.42179775 34.8282275,8.2647191 35.2142393,17.6685393 L1.45273264,17.6685393 C1.83874446,8.2647191 9.22692762,1.42595506 18.333486,1.42595506 L18.333486,1.42179775 Z" id="Shape" fill="#4990E2"></path>
                </g>
            </g>
        </g>
    </g>
</svg>