<?xml version="1.0" encoding="UTF-8"?>
<svg width="278px" height="105px" viewBox="0 0 278 105" version="1.1" xmlns="http://www.w3.org/2000/svg" xmlns:xlink="http://www.w3.org/1999/xlink">
    <!-- Generator: Sketch 40.3 (33839) - http://www.bohemiancoding.com/sketch -->
    <title>multi_house</title>
    <desc>Created with Sketch.</desc>
    <defs>
        <polygon id="path-1" points="100 44.9487749 0 45 0 44.3431132 100 43"></polygon>
        <mask id="mask-2" maskContentUnits="userSpaceOnUse" maskUnits="objectBoundingBox" x="0" y="0" width="100" height="2" fill="white">
            <use xlink:href="#path-1"></use>
        </mask>
        <polygon id="path-3" points="273 1.94877488 197 2 197 1.34311316 273 0"></polygon>
        <mask id="mask-4" maskContentUnits="userSpaceOnUse" maskUnits="objectBoundingBox" x="0" y="0" width="76" height="2" fill="white">
            <use xlink:href="#path-3"></use>
        </mask>
    </defs>
    <g id="Page-1" stroke="none" stroke-width="1" fill="none" fill-rule="evenodd">
        <g id="multi_house">
            <g id="Ground" transform="translate(3.000000, 57.000000)" stroke="#DADADA" stroke-width="2" fill="#DADADA">
                <use id="Rectangle-2" mask="url(#mask-2)" xlink:href="#path-1"></use>
                <path d="M99.5858845,44.1498991 L197,1" id="Path-3" stroke-linecap="round"></path>
                <use id="Rectangle-2" mask="url(#mask-4)" transform="translate(235.000000, 1.000000) scale(-1, 1) translate(-235.000000, -1.000000) " xlink:href="#path-3"></use>
            </g>
            <g id="Small-House" transform="translate(123.000000, 36.000000)">
                <polyline id="-" stroke="#DADADA" stroke-width="2" stroke-linejoin="round" points="8.8422547 51.7543189 8.8422547 37.1023152 8.8422547 19.4335549 0 19.4335549 26.4477844 0 37.0479293 7.77343957 37.0479293 1.76737204 42.3458907 1.76737204 42.3458907 11.6586113 52.9228151 19.4150225 44.0978049 19.4150225 44.0978049 37.1023152"></polyline>
                <g id="Group-2" transform="translate(21.000000, 14.000000)" fill="#DADADA">
                    <path d="M11,2.27035582 C11,1.01647292 10.2514495,0 9.3350724,0 L6,0 L6,6.81818182 L11,6.81818182 L11,2.27035582" id="Path-2"></path>
                    <path d="M11,10.452174 C11,9.19829111 10.2514495,8.18181818 9.3350724,8.18181818 L6,8.18181818 L6,15 L11,15 L11,10.452174" id="Path-2" transform="translate(8.500000, 11.590909) scale(1, -1) translate(-8.500000, -11.590909) "></path>
                    <path d="M5,2.27035582 C5,1.01647292 4.25144948,0 3.3350724,0 L0,0 L1.18423789e-15,6.81818182 L5,6.81818182 L5,2.27035582" id="Path-2" transform="translate(2.500000, 3.409091) scale(-1, 1) translate(-2.500000, -3.409091) "></path>
                    <path d="M5,10.452174 C5,9.19829111 4.25144948,8.18181818 3.3350724,8.18181818 L0,8.18181818 L1.18423789e-15,15 L5,15 L5,10.452174" id="Path-2" transform="translate(2.500000, 11.590909) scale(-1, -1) translate(-2.500000, -11.590909) "></path>
                </g>
            </g>
            <g id="Tall-House" transform="translate(147.000000, 5.000000)">
                <polyline id="-" stroke="#DADADA" stroke-width="2" stroke-linejoin="round" points="8.88275077 35.7470732 8.88275077 19.4335549 0.0404960708 19.4335549 26.4882805 0 37.0884253 7.77343957 37.0884253 1.76737204 42.3863868 1.76737204 42.3863868 11.6586113 52.9633112 19.4150225 44.1383009 19.4150225 44.1383009 57.1023152"></polyline>
                <g id="Group" transform="translate(21.000000, 14.000000)" fill="#DADADA">
                    <path d="M11,2.27035582 C11,1.01647292 10.2514495,0 9.3350724,0 L6,0 L6,6.81818182 L11,6.81818182 L11,2.27035582" id="Path-2"></path>
                    <path d="M11,10.452174 C11,9.19829111 10.2514495,8.18181818 9.3350724,8.18181818 L6,8.18181818 L6,15 L11,15 L11,10.452174" id="Path-2" transform="translate(8.500000, 11.590909) scale(1, -1) translate(-8.500000, -11.590909) "></path>
                    <path d="M5,2.27035582 C5,1.01647292 4.25144948,0 3.3350724,0 L0,0 L1.18423789e-15,6.81818182 L5,6.81818182 L5,2.27035582" id="Path-2" transform="translate(2.500000, 3.409091) scale(-1, 1) translate(-2.500000, -3.409091) "></path>
                    <path d="M5,10.452174 C5,9.19829111 4.25144948,8.18181818 3.3350724,8.18181818 L0,8.18181818 L1.18423789e-15,15 L5,15 L5,10.452174" id="Path-2" transform="translate(2.500000, 11.590909) scale(-1, -1) translate(-2.500000, -11.590909) "></path>
                </g>
            </g>
        </g>
    </g>
</svg>