<?xml version="1.0" encoding="utf-8"?>
<!-- Generator: Adobe Illustrator 24.1.0, SVG Export Plug-In . SVG Version: 6.00 Build 0)  -->
<svg version="1.1" id="Calque_1" xmlns="http://www.w3.org/2000/svg" xmlns:xlink="http://www.w3.org/1999/xlink" x="0px" y="0px"
	 viewBox="0 0 248.27 338.56" style="enable-background:new 0 0 248.27 338.56;" xml:space="preserve">
<style type="text/css">
	.st0{fill:url(#SVGID_1_);}
	.st1{fill:url(#SVGID_2_);}
</style>
<g>
	<linearGradient id="SVGID_1_" gradientUnits="userSpaceOnUse" x1="32.5586" y1="285.7669" x2="187.4909" y2="17.4164">
		<stop  offset="0" style="stop-color:#4AB6FA"/>
		<stop  offset="1" style="stop-color:#8CDBFC"/>
	</linearGradient>
	<path class="st0" d="M237.28,174.75c6.94-15.48,10.81-32.64,10.81-50.7C248.09,55.54,192.55,0,124.05,0S0,55.54,0,124.05
		c0,23.76,6.69,45.96,18.28,64.83c30.01,57.68,105.71,149.68,105.71,149.68C202.24,256.03,228.84,198.54,237.28,174.75z"/>
	<linearGradient id="SVGID_2_" gradientUnits="userSpaceOnUse" x1="46.56" y1="261.939" x2="177.781" y2="34.6575">
		<stop  offset="0" style="stop-color:#DEF6FE"/>
		<stop  offset="0.3736" style="stop-color:#E2F7FE"/>
		<stop  offset="0.7695" style="stop-color:#EFFAFE"/>
		<stop  offset="1" style="stop-color:#FAFDFE"/>
	</linearGradient>
	<path class="st1" d="M219.95,167.91c5.88-13.11,9.15-27.65,9.15-42.94c0-58.02-47.04-105.06-105.06-105.06
		c-58.02,0-105.06,47.04-105.06,105.06c0,20.13,5.66,38.93,15.48,54.91C59.88,228.73,124,306.65,124,306.65
		C190.28,236.75,212.8,188.06,219.95,167.91z"/>
</g>
</svg>
