<?xml version="1.0" encoding="utf-8"?>
<!-- Generator: Adobe Illustrator 24.1.0, SVG Export Plug-In . SVG Version: 6.00 Build 0)  -->
<svg version="1.1" id="Calque_1" xmlns="http://www.w3.org/2000/svg" xmlns:xlink="http://www.w3.org/1999/xlink" x="0px" y="0px"
	 viewBox="0 0 1327.79 1327.79" style="enable-background:new 0 0 1327.79 1327.79;" xml:space="preserve">
<style type="text/css">
	.st0{fill:url(#SVGID_1_);}
</style>

<!-- Soft glow filter -->
<defs>
	<filter id="sofGlow" height="300%" width="300%" x="-75%" y="-75%">
		<!-- Thicken out the original shape -->
		<feMorphology operator="dilate" radius="5" in="SourceAlpha" result="thicken" />

		<!-- Use a gaussian blur to create the soft blurriness of the glow -->
		<feGaussianBlur in="thicken" stdDeviation="30" result="blurred" />

		<!-- Change the colour -->
		<feFlood flood-color="rgba(78,208,251, 0.7)" result="glowColor" />

		<!-- Color in the glows -->
		<feComposite in="glowColor" in2="blurred" operator="in" result="softGlow_colored" />

		<!--	Layer the effects together -->
		<feMerge>
			<feMergeNode in="softGlow_colored"/>
			<feMergeNode in="SourceGraphic"/>
		</feMerge>

	</filter>
</defs>

<g filter="url(#sofGlow)">
	<g>
		<linearGradient id="SVGID_1_" gradientUnits="userSpaceOnUse" x1="663.8959" y1="820.2258" x2="663.8959" y2="-357.8802" gradientTransform="matrix(1 0 0 1 0 432.7231)">
			<stop  offset="4.888180e-07" style="stop-color:#4ED0FB"/>
			<stop  offset="1" style="stop-color:#2D8FFA"/>
		</linearGradient>
		<path class="st0" d="M134.39,1041.39l-1.82,0.1l-10.32,0.59l-9.02,1.74l-6.94,0.69l-4.51-0.35c0,0-6.25,2.08-7.29-14.58
			l-0.69-6.94c0,0-4.86-11.8-13.54-22.21c0,0,10.07-11.11,21.52-10.07c0,0,28.11-0.69,34.71-6.25c0,0,9.37-2.78,15.62-12.15
			c0,0,30.2-43.73,26.73-82.61c0,0,4.17-13.54-17.7-25.68c0,0-26.03-15.62-20.48-37.83c0,0,18.05-38.18,41.3-65.25l-11.45-37.49
			l38.18-28.46c0,0,15.97-13.19,27.77-29.85c0,0,54.15-31.24,63.52-43.39s44.08-34.36,24.64-50.33c0,0-4.51-10.07,4.86-24.3
			c0,0,12.84-34.36,5.9-43.04c0,0-8.33-15.27-3.12-24.99c0,0,13.88-13.19,15.27-18.4c0,0,0.35-4.86,21.17-3.82
			c0,0,12.84-4.17,28.81-13.19l21.17-7.98c0,0,18.05-18.4,28.81-22.91c0,0,24.99-20.48,12.15-25.34c0,0-9.72-3.47,0-10.07
			c0,0,24.99-10.07,23.95-18.74c0,0-0.69-9.37,11.45-14.58l27.77-25.68c0,0,39.57-32.63,48.94-49.98c0,0,9.37-3.47,10.41-6.59
			c0,0,3.47-26.03,1.39-31.58c0,0-0.69-5.21,15.62-5.9c0,0,5.55-3.47,4.86-12.15c0,0,6.25-8.33,26.73-13.54
			c0,0,13.54-9.02-6.94-26.73c0,0-52.06,3.12-72.19,10.07c0,0-0.69-25.34,10.07-31.93c0,0,15.27-1.74,15.27-11.45
			c0,0,9.72-22.56,21.52-28.11c0,0,13.19-9.02,4.86-16.31c0,0-6.25-21.52,15.27-18.74c0,0,11.8,11.11,35.06,7.29
			c0,0,10.07-7.98,35.75-4.86l-1.74,23.25c0,0-5.55,8.68,19.78,17.01c0,0,9.37,4.86,15.97,14.23l42.34-14.92
			c0,0,21.17,14.23,40.61,0c0,0,99.27,80.52,54.15,248.51c0,0-19.44,39.22-68.72,65.25c0,0-17.01,6.25-50.33,88.85l-17.01,53.45
			c0,0,3.47,8.68,0,13.19c0,0-28.81,26.03-60.05,44.43c0,0-2.78,8.68,5.21,15.97c0,0,28.11,28.11,57.27,82.95
			c0,0,8.68-0.69,11.8,87.81c0,0,7.29,55.19,77.4,38.87c0,0,148.9-58.31,196.45-37.83c0,0,24.99,4.51,54.15,34.36
			c0,0,7.98,18.4,99.61,9.72c0,0,74.28-7.29,78.09-15.97l3.12,11.8l-1.04,18.4c0,0-18.74,16.66-21.52,17.01
			c0,0-15.62,9.37-15.97,12.5c-0.35,3.12,2.43,28.11-31.58,25.34l-5.21,1.04l-7.98,4.51l-18.4,13.54c0,0-10.41,3.12,3.12,21.17
			l25.34,48.94c0,0,7.98,22.56-4.51,25.68c0,0-16.66,2.78-14.23,10.07c2.43,7.29-20.48,22.91-27.42,23.6
			c-6.94,0.69-21.52,12.5-21.52,12.5s0.35,12.15,3.12,16.66l1.74,24.99c0,0-25.34,12.5-27.77,15.97c0,0-21.87,7.64-24.3,6.59
			c0,0-11.11,2.78-10.41,7.98c0,0-2.08,6.59-5.21,9.02c0,0-15.62,20.13-11.11,37.14c0,0-4.51,1.74-10.07-0.69
			c-5.55-2.43-36.79-5.9-38.53-12.5c-1.74-6.59-23.6,5.9-23.6,5.9s-9.02-12.15-8.68-24.64c0,0-11.8,1.39-18.74-8.33
			c0,0-29.16,1.39-31.58,2.78l-24.64-17.35c0,0-9.37,7.29-7.64,19.78c0,0-3.47,5.21-14.92,2.08c-11.45-3.12-25.34,10.07-18.4,16.66
			c0,0-0.69,9.37-22.21,14.92l-21.87,14.23c0,0-33.67-10.76-36.79-16.66s-56.23,26.38-66.64,44.08c0,0-7.64,7.29-10.07-9.37
			c0,0-4.17-17.01-28.81,5.55l-41.65-63.52l2.43-15.62l-46.16-66.99c0,0-4.17-2.78-12.84,14.58c0,0-21.57,2.33-10.91-13.65
			c10.65-15.98,7.38-35.24,7.38-35.24l-50.41-17.21c0,0-9.02-4.51,0.41-15.57c0,0,9.84-50.41,29.92-72.12
			c0,0,10.24-15.98-19.26-39.75c0,0-21.31-31.96-8.61-33.6c0,0,12.7,5.74,7.38-40.16c0,0-4.1-15.16-38.52-16.8
			c0,0-35.24-11.47-40.98-11.06l-74.99-0.82c0,0-28.69,31.55-86.06,39.34c0,0-56.55,27.05-52.86,70.08c0,0,8.61,10.65,8.2,28.28
			c0,0,1.23,10.24,22.95,6.15c0,0,11.06,11.47-20.9,29.51l-22.54,16.8l-14.75,12.29l-10.25,8.61c0,0-8.2,6.56-15.57,7.38
			c-7.38,0.82-20.49,2.46-20.49,2.46L134.39,1041.39z"/>
	</g>
</g>
</svg>
