<?xml version="1.0" encoding="utf-8"?>
<!-- Generator: Adobe Illustrator 21.0.2, SVG Export Plug-In . SVG Version: 6.00 Build 0)  -->
<svg version="1.1" id="Layer_1" xmlns="http://www.w3.org/2000/svg" xmlns:xlink="http://www.w3.org/1999/xlink" x="0px" y="0px"
	 viewBox="0 0 1040 886" style="enable-background:new 0 0 1040 886;" xml:space="preserve">
<style type="text/css">
	.st0{fill:#CAD0E6;}
	.st1{fill:#E1E6F0;}
	.st2{fill:#FFFFFF;}
	.st3{fill:#6F99FB;}
	.st4{fill:#6490FF;}
	.st5{fill:#4C7FF7;}
	.st6{fill:#FFC891;}
	.st7{fill:#B3553B;}
	.st8{fill:#454563;}
	.st9{fill:#FFBF91;}
	.st10{fill:#005BEA;}
	.st11{fill:url(#SVGID_1_);}
	.st12{fill:url(#SVGID_2_);}
	.st13{fill:#21D3B5;}
	.st14{fill:#E5E5E5;}
	.st15{fill:url(#SVGID_3_);}
	.st16{fill:url(#SVGID_4_);}
	.st17{fill:#EEE1D2;}
	.st18{fill:#D4C0B1;}
	.st19{fill:url(#SVGID_5_);}
	.st20{fill:url(#SVGID_6_);}
	.st21{fill:url(#SVGID_7_);}
	.st22{fill:url(#SVGID_8_);}
	.st23{fill:url(#SVGID_9_);}
	.st24{fill:#BBCAD8;}
	.st25{fill:url(#SVGID_10_);}
	.st26{fill:url(#SVGID_11_);}
	.st27{fill:url(#SVGID_12_);}
	.st28{fill:url(#SVGID_13_);}
	.st29{fill:url(#SVGID_14_);}
	.st30{fill:url(#SVGID_15_);}
	.st31{fill:url(#SVGID_16_);}
	.st32{fill:url(#SVGID_17_);}
	.st33{fill:url(#SVGID_18_);}
	.st34{fill:url(#SVGID_19_);}
	.st35{fill:url(#SVGID_20_);}
	.st36{fill:url(#SVGID_21_);}
	.st37{fill:url(#SVGID_22_);}
	.st38{fill:url(#SVGID_23_);}
	.st39{enable-background:new    ;}
	.st40{fill:url(#SVGID_24_);}
	.st41{fill:#D9D9D9;}
	.st42{fill:#FF5643;}
	.st43{fill:#E6E6E6;}
	.st44{clip-path:url(#SVGID_34_);enable-background:new    ;}
	.st45{clip-path:url(#SVGID_36_);}
	.st46{opacity:0.7;enable-background:new    ;}
	.st47{clip-path:url(#SVGID_38_);}
	.st48{clip-path:url(#SVGID_40_);}
	.st49{opacity:6.000000e-02;fill:#94C5FF;}
	.st50{clip-path:url(#SVGID_42_);}
	.st51{opacity:0.14;fill:#0092FF;}
	.st52{clip-path:url(#SVGID_44_);}
	.st53{opacity:8.000000e-02;fill:#0092FF;}
	.st54{fill:url(#SVGID_47_);}
	.st55{fill:url(#SVGID_48_);}
	.st56{fill:#9BB2CC;}
	.st57{fill:url(#SVGID_49_);}
	.st58{fill:url(#SVGID_50_);}
	.st59{fill:url(#SVGID_51_);}
	.st60{fill:url(#SVGID_52_);}
	.st61{fill:url(#SVGID_53_);}
	.st62{fill:url(#SVGID_54_);}
	.st63{fill:url(#SVGID_55_);}
	.st64{fill:url(#SVGID_56_);}
	.st65{fill:#21C1A7;}
	.st66{fill:#21DEB6;}
	.st67{fill:#00067D;}
	.st68{fill:#E36F6F;}
	.st69{fill:url(#SVGID_57_);}
	.st70{fill:url(#SVGID_58_);}
	.st71{fill:url(#SVGID_59_);}
	.st72{fill:url(#SVGID_60_);}
	.st73{fill:url(#SVGID_61_);}
	.st74{fill:url(#SVGID_62_);}
	.st75{fill:url(#SVGID_63_);}
	.st76{fill:url(#SVGID_64_);}
	.st77{fill:#72B0FC;}
	.st78{fill:#2E7EFF;}
	.st79{fill:#6A95FF;}
	.st80{fill:#AFDAFA;}
	.st81{fill:#81BAFE;}
	.st82{fill:#96CAFF;}
	.st83{fill:#72A2FC;}
	.st84{fill:#2D47FE;}
	.st85{fill:#60D0FE;}
	.st86{fill:#47A8FF;}
	.st87{fill:#2C62FA;}
	.st88{fill:#478DFF;}
	.st89{fill:#3C77FF;}
	.st90{fill:url(#SVGID_65_);}
</style>
<g>
	<path class="st0" d="M84.2,600.5L438.4,805c35.6,20.6,79.5,20.6,115.2,0l354.2-204.5c26.2-15.1,26.2-53,0-68.1L553.5,327.9
		c-35.6-20.6-79.5-20.6-115.2,0L84.2,532.4C58,547.5,58,585.4,84.2,600.5z"/>
	<g>
		<path class="st1" d="M553.5,708.5l354.2-204.5c13.1-7.6,19.7-20.8,19.7-34.1v-89.4L496,629.6V724
			C515.8,724,535.7,718.8,553.5,708.5z"/>
		<path class="st1" d="M84.2,504.1l354.2,204.5c17.8,10.3,37.7,15.4,57.6,15.4v-94.3L64.6,380.6V470
			C64.6,483.2,71.1,496.5,84.2,504.1z"/>
	</g>
	<path class="st2" d="M84.2,414.6l354.2,204.5c35.6,20.6,79.5,20.6,115.2,0l354.2-204.5c26.2-15.1,26.2-53,0-68.1L553.5,142
		c-35.6-20.6-79.5-20.6-115.2,0L84.2,346.5C58,361.7,58,399.5,84.2,414.6z"/>
</g>
<g>
	<g>
		<g>
			<g>
				<path class="st3" d="M616.1,348.2h-6.3v17.7c0,19,20.4,35.1,48.7,40.8V325C639.6,328.9,624.2,337.3,616.1,348.2z"/>
				<path class="st3" d="M669.7,323.3v85.1c3.9,0.4,7.9,0.6,12,0.6v-86.3C677.6,322.7,673.6,323,669.7,323.3z"/>
				<path class="st3" d="M681.6,322.7V409c4,0,7.9-0.2,11.8-0.6v-85.1C689.6,323,685.7,322.7,681.6,322.7z"/>
				<path class="st4" d="M747.2,348.2c-8.2-10.9-23.6-19.3-42.6-23.2v81.8c28.4-5.8,48.9-21.9,48.9-40.9v-17.7H747.2z"/>
				<path class="st3" d="M693.4,323.3v85.1c3.9-0.4,7.6-0.9,11.2-1.7V325C701,324.3,697.3,323.7,693.4,323.3z"/>
				<path class="st3" d="M658.5,325v81.7c3.6,0.7,7.4,1.3,11.2,1.7v-85.1C665.8,323.7,662.1,324.3,658.5,325z"/>
			</g>
			<g>
				<ellipse class="st5" cx="681.6" cy="348.2" rx="71.9" ry="43.1"/>
			</g>
		</g>
	</g>
	<g>
		<g>
			<g>
				<path class="st3" d="M474.2,296.2h-6.3v17.7c0,19,20.4,35.1,48.7,40.8V273C497.7,276.9,482.3,285.4,474.2,296.2z"/>
				<path class="st3" d="M527.8,271.4v85.1c3.9,0.4,7.9,0.6,12,0.6v-86.3C535.7,270.8,531.7,271,527.8,271.4z"/>
				<path class="st3" d="M539.8,270.8V357c4,0,7.9-0.2,11.8-0.6v-85.1C547.7,271,543.8,270.8,539.8,270.8z"/>
				<path class="st4" d="M605.4,296.2c-8.2-10.9-23.6-19.3-42.6-23.2v81.8c28.4-5.8,48.9-21.9,48.9-40.9v-17.7H605.4z"/>
				<path class="st3" d="M551.6,271.3v85.1c3.8-0.4,7.6-0.9,11.2-1.7V273C559.1,272.3,555.4,271.7,551.6,271.3z"/>
				<path class="st3" d="M516.6,273v81.7c3.6,0.7,7.4,1.3,11.2,1.7v-85.1C524,271.7,520.2,272.3,516.6,273z"/>
			</g>
			<g>
				<ellipse class="st5" cx="539.8" cy="296.2" rx="71.9" ry="43.1"/>
			</g>
			<g>
				<ellipse class="st2" cx="539.8" cy="296.2" rx="43.3" ry="26"/>
			</g>
		</g>
	</g>
	<g>
		<g>
			<g>
				<path class="st3" d="M474.2,271.5h-6.3v17.7c0,19,20.4,35.1,48.7,40.8v-81.7C497.7,252.2,482.3,260.7,474.2,271.5z"/>
				<path class="st3" d="M527.8,246.7v85.1c3.9,0.4,7.9,0.6,12,0.6v-86.3C535.7,246.1,531.7,246.3,527.8,246.7z"/>
				<path class="st3" d="M539.8,246.1v86.3c4,0,7.9-0.2,11.8-0.6v-85.1C547.7,246.3,543.8,246.1,539.8,246.1z"/>
				<path class="st4" d="M605.4,271.5c-8.2-10.9-23.6-19.3-42.6-23.2v81.8c28.4-5.8,48.9-21.9,48.9-40.9v-17.7H605.4z"/>
				<path class="st3" d="M551.6,246.6v85.1c3.9-0.4,7.6-0.9,11.2-1.7v-81.8C559.1,247.6,555.4,247,551.6,246.6z"/>
				<path class="st3" d="M516.6,248.3V330c3.6,0.7,7.4,1.3,11.2,1.7v-85.1C524,247,520.2,247.6,516.6,248.3z"/>
			</g>
			<g>
				<ellipse class="st5" cx="539.8" cy="271.5" rx="71.9" ry="43.1"/>
			</g>
		</g>
	</g>
	<g>
		<g>
			<g>
				<path class="st3" d="M474.2,246h-6.3v17.7c0,19,20.4,35.1,48.7,40.8v-81.7C497.7,226.7,482.3,235.1,474.2,246z"/>
				<path class="st3" d="M527.8,221.1v85.1c3.9,0.4,7.9,0.6,12,0.6v-86.3C535.7,220.5,531.7,220.7,527.8,221.1z"/>
				<path class="st3" d="M539.8,220.5v86.3c4,0,7.9-0.2,11.8-0.6v-85.1C547.7,220.7,543.8,220.5,539.8,220.5z"/>
				<path class="st4" d="M605.4,246c-8.2-10.9-23.6-19.3-42.6-23.2v81.8c28.4-5.8,48.9-21.9,48.9-40.9V246H605.4z"/>
				<path class="st3" d="M551.6,221.1v85.1c3.9-0.4,7.6-0.9,11.2-1.7v-81.8C559.1,222,555.4,221.5,551.6,221.1z"/>
				<path class="st3" d="M516.6,222.8v81.7c3.6,0.7,7.4,1.3,11.2,1.7v-85.1C524,221.5,520.2,222.1,516.6,222.8z"/>
			</g>
			<g>
				<ellipse class="st5" cx="539.8" cy="246" rx="71.9" ry="43.1"/>
			</g>
		</g>
	</g>
	<g>
		<g>
			<g>
				<path class="st3" d="M474.2,220.4h-6.3v17.7c0,19,20.4,35.1,48.7,40.8v-81.7C497.7,201.2,482.3,209.6,474.2,220.4z"/>
				<path class="st3" d="M527.8,195.6v85.1c3.9,0.4,7.9,0.6,12,0.6V195C535.7,195,531.7,195.2,527.8,195.6z"/>
				<path class="st3" d="M539.8,195v86.3c4,0,7.9-0.2,11.8-0.6v-85.1C547.7,195.2,543.8,195,539.8,195z"/>
				<path class="st4" d="M605.4,220.4c-8.2-10.9-23.6-19.3-42.6-23.2V279c28.4-5.8,48.9-21.9,48.9-40.9v-17.7H605.4z"/>
				<path class="st3" d="M551.6,195.6v85.1c3.9-0.4,7.6-0.9,11.2-1.7v-81.8C559.1,196.5,555.4,196,551.6,195.6z"/>
				<path class="st3" d="M516.6,197.3V279c3.6,0.7,7.4,1.3,11.2,1.7v-85.1C524,196,520.2,196.6,516.6,197.3z"/>
			</g>
			<g>
				<ellipse class="st5" cx="539.8" cy="220.4" rx="71.9" ry="43.1"/>
			</g>
		</g>
	</g>
	<g>
		<g>
			<g>
				<path class="st3" d="M474.2,194.9h-6.3v17.7c0,19,20.4,35.1,48.7,40.8v-81.7C497.7,175.6,482.3,184.1,474.2,194.9z"/>
				<path class="st3" d="M527.8,170.1v85.1c3.9,0.4,7.9,0.6,12,0.6v-86.3C535.7,169.5,531.7,169.7,527.8,170.1z"/>
				<path class="st3" d="M539.8,169.5v86.3c4,0,7.9-0.2,11.8-0.6v-85.1C547.7,169.7,543.8,169.5,539.8,169.5z"/>
				<path class="st4" d="M605.4,194.9c-8.2-10.9-23.6-19.3-42.6-23.2v81.8c28.4-5.8,48.9-21.9,48.9-40.9v-17.7H605.4z"/>
				<path class="st3" d="M551.6,170.1v85.1c3.9-0.4,7.6-0.9,11.2-1.7v-81.8C559.1,171,555.4,170.4,551.6,170.1z"/>
				<path class="st3" d="M516.6,171.8v81.7c3.6,0.7,7.4,1.3,11.2,1.7v-85.1C524,170.5,520.2,171,516.6,171.8z"/>
			</g>
			<g>
				<ellipse class="st5" cx="539.8" cy="194.9" rx="71.9" ry="43.1"/>
			</g>
		</g>
	</g>
	<g>
		<g>
			<g>
				<path class="st3" d="M474.2,169.4h-6.3v17.7c0,19,20.4,35.1,48.7,40.8v-81.7C497.7,150.1,482.3,158.6,474.2,169.4z"/>
				<path class="st3" d="M527.8,144.6v85.1c3.9,0.4,7.9,0.6,12,0.6V144C535.7,144,531.7,144.2,527.8,144.6z"/>
				<path class="st3" d="M539.8,144v86.3c4,0,7.9-0.2,11.8-0.6v-85.1C547.7,144.2,543.8,144,539.8,144z"/>
				<path class="st4" d="M605.4,169.4c-8.2-10.9-23.6-19.3-42.6-23.2V228c28.4-5.8,48.9-21.9,48.9-40.9v-17.7H605.4z"/>
				<path class="st3" d="M551.6,144.5v85.1c3.9-0.4,7.6-0.9,11.2-1.7v-81.8C559.1,145.5,555.4,144.9,551.6,144.5z"/>
				<path class="st3" d="M516.6,146.2v81.7c3.6,0.7,7.4,1.3,11.2,1.7v-85.1C524,144.9,520.2,145.5,516.6,146.2z"/>
			</g>
			<g>
				<ellipse class="st5" cx="539.8" cy="169.4" rx="71.9" ry="43.1"/>
			</g>
		</g>
	</g>
	<g>
		<g>
			<g>
				<path class="st3" d="M474.2,143.9h-6.3v17.7c0,19,20.4,35.1,48.7,40.8v-81.7C497.7,124.6,482.3,133,474.2,143.9z"/>
				<path class="st3" d="M527.8,119v85.1c3.9,0.4,7.9,0.6,12,0.6v-86.3C535.7,118.4,531.7,118.6,527.8,119z"/>
				<path class="st3" d="M539.8,118.4v86.3c4,0,7.9-0.2,11.8-0.6V119C547.7,118.6,543.8,118.4,539.8,118.4z"/>
				<path class="st4" d="M605.4,143.9c-8.2-10.9-23.6-19.3-42.6-23.2v81.8c28.4-5.8,48.9-21.9,48.9-40.9v-17.7H605.4z"/>
				<path class="st3" d="M551.6,119v85.1c3.9-0.4,7.6-0.9,11.2-1.7v-81.8C559.1,120,555.4,119.4,551.6,119z"/>
				<path class="st3" d="M516.6,120.7v81.7c3.6,0.7,7.4,1.3,11.2,1.7V119C524,119.4,520.2,120,516.6,120.7z"/>
			</g>
			<g>
				<ellipse class="st5" cx="539.8" cy="143.9" rx="71.9" ry="43.1"/>
			</g>
		</g>
	</g>
	<g>
		<g>
			<g>
				<path class="st3" d="M373.2,373.5h-6.3v17.7c0,19,20.4,35.1,48.7,40.8v-81.7C396.7,354.2,381.3,362.7,373.2,373.5z"/>
				<path class="st3" d="M426.8,348.7v85.1c3.9,0.4,7.9,0.6,12,0.6v-86.3C434.7,348.1,430.7,348.3,426.8,348.7z"/>
				<path class="st3" d="M438.7,348.1v86.3c4,0,7.9-0.2,11.8-0.6v-85.1C446.7,348.3,442.7,348.1,438.7,348.1z"/>
				<path class="st4" d="M504.3,373.5c-8.2-10.9-23.6-19.3-42.6-23.2v81.8c28.4-5.8,48.9-21.9,48.9-40.9v-17.7H504.3z"/>
				<path class="st3" d="M450.5,348.7v85.1c3.9-0.4,7.6-0.9,11.2-1.7v-81.8C458.1,349.6,454.3,349,450.5,348.7z"/>
				<path class="st3" d="M415.6,350.4v81.7c3.6,0.7,7.4,1.3,11.2,1.7v-85.1C422.9,349.1,419.2,349.6,415.6,350.4z"/>
			</g>
			<g>
				<ellipse class="st5" cx="438.7" cy="373.5" rx="71.9" ry="43.1"/>
			</g>
			<g>
				<ellipse class="st2" cx="438.7" cy="373.5" rx="43.3" ry="26"/>
			</g>
		</g>
	</g>
	<g>
		<g>
			<g>
				<path class="st3" d="M373.2,348.8h-6.3v17.7c0,19,20.4,35.1,48.7,40.8v-81.7C396.7,329.5,381.3,338,373.2,348.8z"/>
				<path class="st3" d="M426.8,324v85.1c3.9,0.4,7.9,0.6,12,0.6v-86.3C434.7,323.4,430.7,323.6,426.8,324z"/>
				<path class="st3" d="M438.7,323.4v86.3c4,0,7.9-0.2,11.8-0.6V324C446.7,323.6,442.7,323.4,438.7,323.4z"/>
				<path class="st4" d="M504.3,348.8c-8.2-10.9-23.6-19.3-42.6-23.2v81.8c28.4-5.8,48.9-21.9,48.9-40.9v-17.7H504.3z"/>
				<path class="st3" d="M450.5,324v85.1c3.8-0.4,7.6-0.9,11.2-1.7v-81.8C458.1,324.9,454.3,324.3,450.5,324z"/>
				<path class="st3" d="M415.6,325.7v81.7c3.6,0.7,7.4,1.3,11.2,1.7V324C422.9,324.4,419.2,324.9,415.6,325.7z"/>
			</g>
			<g>
				<ellipse class="st5" cx="438.7" cy="348.8" rx="71.9" ry="43.1"/>
			</g>
		</g>
	</g>
	<g>
		<g>
			<g>
				<path class="st3" d="M373.2,323.3h-6.3V341c0,19,20.4,35.1,48.7,40.8v-81.7C396.7,304,381.3,312.5,373.2,323.3z"/>
				<path class="st3" d="M426.8,298.5v85.1c3.9,0.4,7.9,0.6,12,0.6v-86.3C434.7,297.9,430.7,298.1,426.8,298.5z"/>
				<path class="st3" d="M438.7,297.9v86.3c4,0,7.9-0.2,11.8-0.6v-85.1C446.7,298.1,442.7,297.9,438.7,297.9z"/>
				<path class="st4" d="M504.3,323.3c-8.2-10.9-23.6-19.3-42.6-23.2v81.8c28.4-5.8,48.9-21.9,48.9-40.9v-17.7H504.3z"/>
				<path class="st3" d="M450.5,298.4v85.1c3.8-0.4,7.6-0.9,11.2-1.7v-81.8C458.1,299.4,454.3,298.8,450.5,298.4z"/>
				<path class="st3" d="M415.6,300.1v81.7c3.6,0.7,7.4,1.3,11.2,1.7v-85.1C422.9,298.8,419.2,299.4,415.6,300.1z"/>
			</g>
			<g>
				<ellipse class="st5" cx="438.7" cy="323.3" rx="71.9" ry="43.1"/>
			</g>
		</g>
	</g>
	<g>
		<g>
			<g>
				<path class="st3" d="M373.2,297.8h-6.3v17.7c0,19,20.4,35.1,48.7,40.8v-81.7C396.7,278.5,381.3,286.9,373.2,297.8z"/>
				<path class="st3" d="M426.8,272.9V358c3.9,0.4,7.9,0.6,12,0.6v-86.3C434.7,272.3,430.7,272.5,426.8,272.9z"/>
				<path class="st3" d="M438.7,272.3v86.3c4,0,7.9-0.2,11.8-0.6v-85.1C446.7,272.5,442.7,272.3,438.7,272.3z"/>
				<path class="st4" d="M504.3,297.8c-8.2-10.9-23.6-19.3-42.6-23.2v81.8c28.4-5.8,48.9-21.9,48.9-40.9v-17.7H504.3z"/>
				<path class="st3" d="M450.5,272.9V358c3.8-0.4,7.6-0.9,11.2-1.7v-81.8C458.1,273.9,454.3,273.3,450.5,272.9z"/>
				<path class="st3" d="M415.6,274.6v81.7c3.6,0.7,7.4,1.3,11.2,1.7v-85.1C422.9,273.3,419.2,273.9,415.6,274.6z"/>
			</g>
			<g>
				<ellipse class="st5" cx="438.7" cy="297.8" rx="71.9" ry="43.1"/>
			</g>
		</g>
	</g>
	<g>
		<g>
			<g>
				<path class="st3" d="M445.1,485.8h-6.3v17.7c0,19,20.4,35.1,48.7,40.8v-81.7C468.6,466.5,453.2,474.9,445.1,485.8z"/>
				<path class="st3" d="M498.7,461V546c3.9,0.4,7.9,0.6,12,0.6v-86.3C506.6,460.3,502.6,460.6,498.7,461z"/>
				<path class="st3" d="M510.6,460.3v86.3c4,0,7.9-0.2,11.8-0.6v-85.1C518.6,460.6,514.6,460.3,510.6,460.3z"/>
				<path class="st4" d="M576.2,485.8c-8.2-10.9-23.6-19.3-42.6-23.2v81.8c28.4-5.8,48.9-21.9,48.9-40.9v-17.7H576.2z"/>
				<path class="st3" d="M522.4,460.9V546c3.8-0.4,7.6-0.9,11.2-1.7v-81.8C530,461.9,526.3,461.3,522.4,460.9z"/>
				<path class="st3" d="M487.5,462.6v81.7c3.6,0.7,7.4,1.3,11.2,1.7V461C494.8,461.3,491.1,461.9,487.5,462.6z"/>
			</g>
			<g>
				<ellipse class="st5" cx="510.6" cy="485.8" rx="71.9" ry="43.1"/>
			</g>
			<g>
				<ellipse class="st2" cx="510.6" cy="485.8" rx="43.3" ry="26"/>
			</g>
		</g>
	</g>
	<g>
		<g>
			<g>
				<path class="st3" d="M445.1,459h-6.3v17.7c0,19,20.4,35.1,48.7,40.8v-81.7C468.6,439.7,453.2,448.2,445.1,459z"/>
				<path class="st3" d="M498.7,434.2v85.1c3.9,0.4,7.9,0.6,12,0.6v-86.3C506.6,433.6,502.6,433.8,498.7,434.2z"/>
				<path class="st3" d="M510.6,433.6v86.3c4,0,7.9-0.2,11.8-0.6v-85.1C518.6,433.8,514.6,433.6,510.6,433.6z"/>
				<path class="st4" d="M576.2,459c-8.2-10.9-23.6-19.3-42.6-23.2v81.8c28.4-5.8,48.9-21.9,48.9-40.9V459H576.2z"/>
				<path class="st3" d="M522.4,434.2v85.1c3.8-0.4,7.6-0.9,11.2-1.7v-81.8C530,435.1,526.3,434.5,522.4,434.2z"/>
				<path class="st3" d="M487.5,435.9v81.7c3.6,0.7,7.4,1.3,11.2,1.7v-85.1C494.8,434.6,491.1,435.1,487.5,435.9z"/>
			</g>
			<g>
				<ellipse class="st5" cx="510.6" cy="459" rx="71.9" ry="43.1"/>
			</g>
		</g>
	</g>
	<g>
		<g>
			<g>
				<path class="st3" d="M250.2,419.3h-6.3V437c0,19,20.4,35.1,48.7,40.8v-81.7C273.7,400,258.4,408.5,250.2,419.3z"/>
				<path class="st3" d="M303.8,394.5v85.1c3.9,0.4,7.9,0.6,12,0.6v-86.3C311.7,393.9,307.7,394.1,303.8,394.5z"/>
				<path class="st3" d="M315.8,393.9v86.3c4,0,7.9-0.2,11.8-0.6v-85.1C323.7,394.1,319.8,393.9,315.8,393.9z"/>
				<path class="st4" d="M381.4,419.3c-8.2-10.9-23.6-19.3-42.6-23.2v81.8c28.4-5.8,48.9-21.9,48.9-40.9v-17.7H381.4z"/>
				<path class="st3" d="M327.6,394.5v85.1c3.9-0.4,7.6-0.9,11.2-1.7v-81.8C335.2,395.4,331.4,394.8,327.6,394.5z"/>
				<path class="st3" d="M292.6,396.2v81.7c3.6,0.7,7.4,1.3,11.2,1.7v-85.1C300,394.9,296.2,395.4,292.6,396.2z"/>
			</g>
			<g>
				<ellipse class="st5" cx="315.8" cy="419.3" rx="71.9" ry="43.1"/>
			</g>
		</g>
	</g>
</g>
<g>
	<g>
		<g>
			
				<rect x="711.7" y="207.4" transform="matrix(0.9297 0.3684 -0.3684 0.9297 134.4886 -250.3217)" class="st6" width="22.3" height="39.4"/>
			
				<ellipse transform="matrix(0.3684 -0.9297 0.9297 0.3684 223.8319 820.2362)" class="st6" cx="715.6" cy="245.4" rx="11.1" ry="11.1"/>
		</g>
		<g>
			<polygon class="st6" points="706.3,239.2 723.4,253.3 674.9,302.6 668.2,297.1 			"/>
			
				<ellipse transform="matrix(0.6354 -0.7722 0.7722 0.6354 71.4247 642.0389)" class="st6" cx="715.6" cy="245.4" rx="11.1" ry="11.1"/>
			
				<ellipse transform="matrix(0.9617 -0.274 0.274 0.9617 -55.6699 195.9623)" class="st6" cx="673.7" cy="297.3" rx="9.5" ry="9.5"/>
		</g>
		<path class="st0" d="M726.3,178.8l-14.4,39.8c-2.1,5.7,1.9,12.4,9,15c7,2.5,14.4-0.1,16.5-5.8l14.4-39.8L726.3,178.8z"/>
	</g>
	
		<ellipse transform="matrix(0.9645 -0.2641 0.2641 0.9645 -8.8463 194.3461)" class="st6" cx="718.5" cy="130.1" rx="32.3" ry="32.3"/>
	<path class="st1" d="M739,249c0,0-10-26.3-16-48.4c-6.1-22.1,15.5-42.4,34.5-47.6c19-5.2,46.2-1.6,52.1,19.7
		c5.8,21.3,38.6,141.1,38.6,141.1L739,249z"/>
	<path class="st6" d="M721.3,154.6l22.1,21.6c3.2,3.1,10,1.3,15.2-4c5.2-5.3,6.9-12.2,3.7-15.3l-22.1-21.6L721.3,154.6z"/>
	<g>
		<g>
			
				<rect x="795.1" y="237.4" transform="matrix(0.9968 -7.981398e-02 7.981398e-02 0.9968 -17.9493 65.1706)" class="st6" width="22.3" height="39.4"/>
			
				<ellipse transform="matrix(0.9968 -7.981398e-02 7.981398e-02 0.9968 -19.5122 65.3588)" class="st6" cx="807.8" cy="276.8" rx="11.1" ry="11.1"/>
		</g>
		<g>
			<polygon class="st6" points="796.8,275.3 818.4,280.4 796.6,346.1 788.1,344.1 			"/>
			
				<ellipse transform="matrix(0.2292 -0.9734 0.9734 0.2292 353.2432 999.6257)" class="st6" cx="807.8" cy="276.8" rx="11.1" ry="11.1"/>
			
				<ellipse transform="matrix(0.742 -0.6704 0.6704 0.742 -24.5117 619.9073)" class="st6" cx="793.2" cy="341.8" rx="9.5" ry="9.5"/>
		</g>
		<path class="st0" d="M797.1,184.6c-7.6,0.8-12.9,7.7-11.9,15.3l7.5,54.5c0.7,6.1,7.2,10.3,14.6,9.5c7.4-0.8,12.9-6.4,12.2-12.5
			l-7.6-55.2C810.9,188.9,804.3,183.8,797.1,184.6L797.1,184.6z"/>
	</g>
	<g>
		<path class="st7" d="M704.5,98.1c-14.8,6.3-22.1,20.6-25.5,33.7c-2.2,8.4,5.6,16,13.9,13.6l33.8-9.7c0.5-4.6,4-8.5,8.9-9.2
			c4.5-0.7,9,1.7,10.9,5.8c1.1,2.2,1.3,4.6,0.8,6.7l6.1,1c1.7-6.7,1.6-14.1-1-21.2C745.5,99.4,723.3,90.1,704.5,98.1z"/>
	</g>
</g>
</svg>
