<?xml version="1.0" encoding="utf-8"?>
<!-- Generator: Adobe Illustrator 21.0.2, SVG Export Plug-In . SVG Version: 6.00 Build 0)  -->
<svg version="1.1" id="Layer_1" xmlns="http://www.w3.org/2000/svg" xmlns:xlink="http://www.w3.org/1999/xlink" x="0px" y="0px"
	 viewBox="0 0 1486 1264" style="enable-background:new 0 0 1486 1264;" xml:space="preserve">
<style type="text/css">
	.st0{fill:#CAD0E6;}
	.st1{fill:#E1E6F0;}
	.st2{fill:#FFFFFF;}
	.st3{fill:#6F99FB;}
	.st4{fill:#6490FF;}
	.st5{fill:#4C7FF7;}
	.st6{fill:#FFC891;}
	.st7{fill:#B3553B;}
	.st8{fill:#454563;}
	.st9{fill:#FFBF91;}
	.st10{fill:#005BEA;}
	.st11{fill:url(#SVGID_1_);}
	.st12{fill:url(#SVGID_2_);}
	.st13{fill:#21D3B5;}
	.st14{fill:#E5E5E5;}
	.st15{fill:url(#SVGID_3_);}
	.st16{fill:url(#SVGID_4_);}
	.st17{fill:#EEE1D2;}
	.st18{fill:#D4C0B1;}
	.st19{fill:url(#SVGID_5_);}
	.st20{fill:url(#SVGID_6_);}
	.st21{fill:url(#SVGID_7_);}
	.st22{fill:url(#SVGID_8_);}
	.st23{fill:url(#SVGID_9_);}
	.st24{fill:#BBCAD8;}
	.st25{fill:url(#SVGID_10_);}
	.st26{fill:url(#SVGID_11_);}
	.st27{fill:url(#SVGID_12_);}
	.st28{fill:url(#SVGID_13_);}
	.st29{fill:url(#SVGID_14_);}
	.st30{fill:url(#SVGID_15_);}
	.st31{fill:url(#SVGID_16_);}
	.st32{fill:url(#SVGID_17_);}
	.st33{fill:url(#SVGID_18_);}
	.st34{fill:url(#SVGID_19_);}
	.st35{fill:url(#SVGID_20_);}
	.st36{fill:url(#SVGID_21_);}
	.st37{fill:url(#SVGID_22_);}
	.st38{fill:url(#SVGID_23_);}
	.st39{enable-background:new    ;}
	.st40{fill:url(#SVGID_24_);}
	.st41{fill:#D9D9D9;}
	.st42{fill:#FF5643;}
	.st43{fill:#E6E6E6;}
	.st44{clip-path:url(#SVGID_34_);enable-background:new    ;}
	.st45{clip-path:url(#SVGID_36_);}
	.st46{opacity:0.7;enable-background:new    ;}
	.st47{clip-path:url(#SVGID_38_);}
	.st48{clip-path:url(#SVGID_40_);}
	.st49{opacity:6.000000e-02;fill:#94C5FF;}
	.st50{clip-path:url(#SVGID_42_);}
	.st51{opacity:0.14;fill:#0092FF;}
	.st52{clip-path:url(#SVGID_44_);}
	.st53{opacity:8.000000e-02;fill:#0092FF;}
	.st54{fill:url(#SVGID_47_);}
	.st55{fill:url(#SVGID_48_);}
	.st56{fill:#9BB2CC;}
	.st57{fill:url(#SVGID_49_);}
	.st58{fill:url(#SVGID_50_);}
	.st59{fill:url(#SVGID_51_);}
	.st60{fill:url(#SVGID_52_);}
	.st61{fill:url(#SVGID_53_);}
	.st62{fill:url(#SVGID_54_);}
	.st63{fill:url(#SVGID_55_);}
	.st64{fill:url(#SVGID_56_);}
	.st65{fill:#21C1A7;}
	.st66{fill:#21DEB6;}
	.st67{fill:#00067D;}
	.st68{fill:#E36F6F;}
	.st69{fill:url(#SVGID_57_);}
	.st70{fill:url(#SVGID_58_);}
	.st71{fill:url(#SVGID_59_);}
	.st72{fill:url(#SVGID_60_);}
	.st73{fill:url(#SVGID_61_);}
	.st74{fill:url(#SVGID_62_);}
	.st75{fill:url(#SVGID_63_);}
	.st76{fill:url(#SVGID_64_);}
	.st77{fill:#72B0FC;}
	.st78{fill:#2E7EFF;}
	.st79{fill:#6A95FF;}
	.st80{fill:#AFDAFA;}
	.st81{fill:#81BAFE;}
	.st82{fill:#96CAFF;}
	.st83{fill:#72A2FC;}
	.st84{fill:#2D47FE;}
	.st85{fill:#60D0FE;}
	.st86{fill:#47A8FF;}
	.st87{fill:#2C62FA;}
	.st88{fill:#478DFF;}
	.st89{fill:#3C77FF;}
	.st90{fill:url(#SVGID_65_);}
</style>
<g>
	<g>
		<defs>
			<line id="SVGID_33_" x1="2493" y1="5731" x2="4370" y2="5731"/>
		</defs>
		<clipPath id="SVGID_1_">
			<use xlink:href="#SVGID_33_"  style="overflow:visible;"/>
		</clipPath>
		<g style="clip-path:url(#SVGID_1_);enable-background:new    ;">
			<g>
				<defs>
					<polyline id="SVGID_35_" points="5028,-1270 1190,-1270 1190,1135 					"/>
				</defs>
				<clipPath id="SVGID_2_">
					<use xlink:href="#SVGID_35_"  style="overflow:visible;"/>
				</clipPath>
				<g style="clip-path:url(#SVGID_2_);">
					<g class="st46">
						<g>
							<defs>
								<polyline id="SVGID_37_" points="5028,-1270 1190,-1270 1190,1135 								"/>
							</defs>
							<clipPath id="SVGID_3_">
								<use xlink:href="#SVGID_37_"  style="overflow:visible;"/>
							</clipPath>
							<g style="clip-path:url(#SVGID_3_);">
								<defs>
									<path id="SVGID_39_" d="M1190.6,472.4l581.5-1416.9c80.5-196.2,272-324.4,484.6-324.4l1727.3-0.2"/>
								</defs>
								<clipPath id="SVGID_4_">
									<use xlink:href="#SVGID_39_"  style="overflow:visible;"/>
								</clipPath>
								<g style="clip-path:url(#SVGID_4_);">
									<polyline class="st49" points="3989,-1274.2 1185.6,-1274.2 1185.6,477.4 									"/>
								</g>
							</g>
						</g>
					</g>
				</g>
			</g>
		</g>
	</g>
</g>
<g>
	<g>
		<path class="st1" d="M167.6,889.3l23.3-40.3l252.6-145.8l297.8-171.9c17.4-10,28.1-28.6,28.1-48.6l0-353.8l22.9-39.6l-35.9-20.7
			c-6-3.5-13.8-4-20.7,0L149,407.2c-17.4,10-28.1,28.6-28.1,48.6l0,394.6c0,8.2,4.5,14.8,10.8,18.2L167.6,889.3z"/>
		<path class="st0" d="M771.5,89.2L184.9,427.9c-17.4,10-28.1,28.6-28.1,48.6v394.6c0,16,17.3,25.9,31.1,18l586.6-338.7
			c17.4-10,28.1-28.6,28.1-48.6V107.2C802.6,91.2,785.3,81.3,771.5,89.2z"/>
		<path class="st10" d="M704.2,147.7L260.2,404.1c-14.5,8.4-23.4,23.8-23.4,40.6v368.6c0,14.1,15.3,23,27.5,15.9l444.1-256.4
			c14.5-8.4,23.4-23.8,23.4-40.6l0-368.6C731.8,149.5,716.5,140.6,704.2,147.7z"/>
		<path class="st1" d="M620.2,249.7l-133.1,76.9c-20.3,11.7-32.8,33.3-32.8,56.8l0,89.6c0,17.2,18.7,28,33.6,19.4L621,415.5
			c20.3-11.7,32.8-33.3,32.8-56.8l0-89.6C653.8,251.9,635.2,241.1,620.2,249.7z"/>
		<path class="st2" d="M388.5,543.3c0-6.2-3.7-9-8.4-6.3l-65.9,38.1c-4.6,2.7-8.4,9.8-8.4,16c0,6.2,3.7,9,8.4,6.3l65.9-38.1
			C384.8,556.7,388.5,549.5,388.5,543.3z"/>
		<linearGradient id="SVGID_5_" gradientUnits="userSpaceOnUse" x1="236.7527" y1="621.8289" x2="732" y2="621.8289">
			<stop  offset="0" style="stop-color:#E1E6F0"/>
			<stop  offset="1" style="stop-color:#FFFFFF"/>
		</linearGradient>
		<path class="st19" d="M236.8,690.5v122.8c0,14.1,15.3,23,27.5,15.9l444.1-256.4c14.5-8.4,23.4-23.8,23.4-40.6L732,412L236.8,690.5
			z"/>
	</g>
	<path class="st10" d="M616.5,289.6c0-6.2-3.7-9-8.4-6.3l-108.9,62.9c-4.6,2.7-8.4,9.8-8.4,16c0,6.2,3.7,9,8.4,6.3l108.9-62.9
		C612.8,302.9,616.5,295.8,616.5,289.6z"/>
	<path class="st10" d="M616.5,334.8c0-6.2-3.7-9-8.4-6.3l-108.9,62.9c-4.6,2.7-8.4,9.8-8.4,16c0,6.2,3.7,9,8.4,6.3l108.9-62.9
		C612.8,348.1,616.5,340.9,616.5,334.8z"/>
	<path class="st1" d="M620.2,265.7l-133.1,76.9c-20.3,11.7-32.8,33.3-32.8,56.8l0,89.6c0,17.2,18.7,28,33.6,19.4L621,431.5
		c20.3-11.7,32.8-33.3,32.8-56.8l0-89.6C653.8,267.9,635.2,257.1,620.2,265.7z"/>
	<path class="st1" d="M639.1,243.3c-2.3-1.4-5.3-1.5-8,0l-44.3,25.6V449l46.5-26.8c6.7-3.9,10.9-11,10.9-18.8l0-136.8l8.8-15.3
		L639.1,243.3z"/>
	<path class="st2" d="M637.7,253.2l-133.1,76.9c-20.3,11.7-31.3,34.8-31.3,58.3l0,89.6c0,17.2,18.7,28,33.6,19.4L640,420.5
		c20.3-11.7,24-33.3,24-56.8l0-89.6C664,256.9,652.7,244.6,637.7,253.2z"/>
	<path class="st10" d="M631.5,293.6c0-6.2-3.7-9-8.4-6.3l-108.9,62.9c-4.6,2.7-8.4,9.8-8.4,16c0,6.2,3.7,9,8.4,6.3l108.9-62.9
		C627.8,306.9,631.5,299.8,631.5,293.6z"/>
	<path class="st10" d="M631.5,388.6c0-6.2-3.7-9-8.4-6.3l-108.9,62.9c-4.6,2.7-8.4,9.8-8.4,16c0,6.2,3.7,9,8.4,6.3l108.9-62.9
		C627.8,401.9,631.5,394.8,631.5,388.6z"/>
	<path class="st0" d="M640,334c-3-6-7-1-12.4,1.8l-108.9,62.9c-4.6,2.7-7.1,4.7-7.2,6.8c-0.4,6.1,2.6,6.1,7.2,3.5l108.9-62.9
		C633,343,642.8,339.5,640,334z"/>
	<path class="st1" d="M531.2,395.4c0-8.1-4.9-11.9-11-8.3l-2.9,1.6c-6.1,3.5-11.1,13-11.1,21.1c0,8.1,4.9,11.9,11,8.3l2.9-1.6
		C526.2,413,531.2,403.5,531.2,395.4z"/>
	<linearGradient id="SVGID_6_" gradientUnits="userSpaceOnUse" x1="510.8303" y1="402.3899" x2="535.0967" y2="402.3899">
		<stop  offset="6.300000e-07" style="stop-color:#FFFFFF"/>
		<stop  offset="1" style="stop-color:#E1E6F0"/>
	</linearGradient>
	<path class="st20" d="M524.4,387.3l-2.8,1.6c-5.9,3.4-10.7,12.6-10.7,20.5c0,7.9,4.8,11.5,10.7,8.1l2.8-1.6
		c5.9-3.4,10.7-12.6,10.7-20.5C535.1,387.5,530.3,383.9,524.4,387.3z"/>
	<path class="st56" d="M431.5,633.8c0-6.2-3.7-9-8.4-6.3l-108.9,62.9c-4.6,2.7-8.4,9.8-8.4,16c0,6.2,3.7,9,8.4,6.3l108.9-62.9
		C427.8,647.1,431.5,639.9,431.5,633.8z"/>
	<path class="st56" d="M369.6,715.9c0-6.2-3.7-9-8.4-6.3l-47.2,27.2c-4.6,2.7-8.4,9.8-8.4,16c0,6.2,3.7,9,8.4,6.3l47.2-27.2
		C365.9,729.2,369.6,722.1,369.6,715.9z"/>
	<path class="st56" d="M428.5,681.2c0-6.2-3.7-9-8.4-6.3l-29.9,17.3c-4.6,2.7-8.4,9.8-8.4,16c0,6.2,3.7,9,8.4,6.3l29.9-17.3
		C424.8,694.5,428.5,687.4,428.5,681.2z"/>
</g>
<g>
	<g>
		<path class="st0" d="M515.2,847.5L869.4,1052c35.6,20.6,79.5,20.6,115.2,0l354.2-204.5c26.2-15.1,26.2-53,0-68.1L984.5,574.9
			c-35.6-20.6-79.5-20.6-115.2,0L515.2,779.4C489,794.5,489,832.4,515.2,847.5z"/>
		<g>
			<path class="st1" d="M984.5,955.5l354.2-204.5c13.1-7.6,19.7-20.8,19.7-34.1v-89.4L927,876.6V971
				C946.8,971,966.7,965.8,984.5,955.5z"/>
			<path class="st1" d="M515.2,751.1l354.2,204.5c17.8,10.3,37.7,15.4,57.6,15.4v-94.3L495.6,627.6V717
				C495.6,730.2,502.1,743.5,515.2,751.1z"/>
		</g>
		<path class="st2" d="M515.2,661.6l354.2,204.5c35.6,20.6,79.5,20.6,115.2,0l354.2-204.5c26.2-15.1,26.2-53,0-68.1L984.5,389
			c-35.6-20.6-79.5-20.6-115.2,0L515.2,593.5C489,608.7,489,646.5,515.2,661.6z"/>
	</g>
	<g>
		<g>
			<polygon class="st13" points="769,582.8 656.5,651.4 850.5,760.6 967.6,694.6 			"/>
		</g>
		<g>
			<g>
				<polygon class="st14" points="769,328.3 967.6,213.6 1165.8,324.2 967.6,443 				"/>
				<polygon class="st0" points="967.6,240.7 967.6,228 1143.1,328.3 1143.1,340.9 				"/>
				<polygon class="st0" points="967.6,228 967.6,240.7 791.4,343.5 791.4,330.8 				"/>
				<polygon class="st0" points="967.6,694.6 1165.8,583.8 1165.8,324.2 967.6,442.6 				"/>
				<linearGradient id="SVGID_7_" gradientUnits="userSpaceOnUse" x1="768.9701" y1="511.4615" x2="967.5969" y2="511.4615">
					<stop  offset="0" style="stop-color:#E1E6F0"/>
					<stop  offset="1" style="stop-color:#FFFFFF"/>
				</linearGradient>
				<polygon class="st21" points="769,328.3 769,582.8 967.6,694.6 967.6,442.6 				"/>
				<polygon class="st1" points="1165.8,324.2 967.6,442.6 967.6,418.7 1144.8,312.5 				"/>
				<polygon class="st1" points="769.2,328.3 967.4,442.6 967.4,420.3 790.1,318.2 				"/>
				<linearGradient id="SVGID_8_" gradientUnits="userSpaceOnUse" x1="811.4741" y1="330.5012" x2="1119.6815" y2="330.5012">
					<stop  offset="6.300000e-07" style="stop-color:#FFFFFF"/>
					<stop  offset="1" style="stop-color:#E1E6F0"/>
				</linearGradient>
				<polygon class="st22" points="967.6,240.7 1119.7,327.5 967.4,420.3 811.5,330.5 				"/>
			</g>
		</g>
		<g>
			<g>
				<g>
					<g>
						<g>
							<g>
								<g>
									<polygon class="st17" points="1141.4,408.3 1141.4,370.8 1109,389.8 1109,427.7 									"/>
									<polygon class="st2" points="1118.5,389.4 1120.2,388.4 1124.2,386 1127.6,384.1 1137,378.5 1137,389.5 1137,393.3 
										1137,398 1137,399.9 1137,405.8 1134.4,407.3 1130.3,409.8 1128.9,410.7 1127.5,411.5 1113.5,419.8 1113.5,403.5 
										1113.5,401.8 1113.5,400.1 1113.5,395.4 1113.5,392.4 									"/>
									<g>
										<g>
											<polygon class="st5" points="1120.2,388.4 1137,398 1137,399.9 1118.5,389.4 											"/>
											<polygon class="st5" points="1124.2,386 1137,393.3 1137,398 1120.2,388.4 											"/>
											<polygon class="st5" points="1127.6,384.1 1137,389.5 1137,393.3 1124.2,386 											"/>
											<polygon class="st5" points="1137,378.5 1137,389.5 1127.6,384.1 											"/>
											<polygon class="st5" points="1113.5,395.4 1134.4,407.3 1130.3,409.8 1113.5,400.1 											"/>
											<polygon class="st5" points="1113.5,392.4 1118.5,389.4 1137,399.9 1137,405.8 1134.4,407.3 1113.5,395.4 											"/>
											<polygon class="st5" points="1113.5,403.5 1127.5,411.5 1113.5,419.8 											"/>
											<polygon class="st5" points="1113.5,401.8 1128.9,410.7 1127.5,411.5 1113.5,403.5 											"/>
											<polygon class="st5" points="1113.5,400.1 1130.3,409.8 1128.9,410.7 1113.5,401.8 											"/>
										</g>
									</g>
									<polygon class="st18" points="1109,389.8 1113.5,392.4 1137,378.5 1141.4,370.8 									"/>
									<polygon class="st18" points="1109,427.7 1113.5,419.8 1137,405.8 1141.4,408.3 									"/>
									<polygon class="st17" points="1137,405.8 1135.7,404.8 1113.5,418 1113.5,419.8 									"/>
									<polygon class="st18" points="1135.7,404.8 1135.7,379.3 1137,378.5 1137,405.8 									"/>
									<polygon class="st18" points="1109,427.7 1107.3,426.7 1107.3,388.7 1109,389.8 									"/>
									<polygon class="st17" points="1141.4,370.8 1139.8,369.6 1107.3,388.7 1109,389.8 									"/>
								</g>
							</g>
						</g>
					</g>
					<g>
						<g>
							<g>
								<g>
									<polygon class="st17" points="1141.4,441.1 1141.4,403.5 1109,422.6 1109,460.4 									"/>
									<polygon class="st2" points="1118.5,422.1 1120.2,421.2 1124.2,418.8 1127.6,416.8 1137,411.3 1137,422.2 1137,426.1 
										1137,430.8 1137,432.7 1137,438.6 1134.4,440.1 1130.3,442.5 1128.9,443.4 1127.5,444.2 1113.5,452.6 1113.5,436.2 
										1113.5,434.6 1113.5,432.9 1113.5,428.1 1113.5,425.1 									"/>
									<g>
										<g>
											<polygon class="st5" points="1120.2,421.2 1137,430.8 1137,432.7 1118.5,422.1 											"/>
											<polygon class="st5" points="1124.2,418.8 1137,426.1 1137,430.8 1120.2,421.2 											"/>
											<polygon class="st5" points="1127.6,416.8 1137,422.2 1137,426.1 1124.2,418.8 											"/>
											<polygon class="st5" points="1137,411.3 1137,422.2 1127.6,416.8 											"/>
											<polygon class="st5" points="1113.5,428.1 1134.4,440.1 1130.3,442.5 1113.5,432.9 											"/>
											<polygon class="st5" points="1113.5,425.1 1118.5,422.1 1137,432.7 1137,438.6 1134.4,440.1 1113.5,428.1 											"/>
											<polygon class="st5" points="1113.5,436.2 1127.5,444.2 1113.5,452.6 											"/>
											<polygon class="st5" points="1113.5,434.6 1128.9,443.4 1127.5,444.2 1113.5,436.2 											"/>
											<polygon class="st5" points="1113.5,432.9 1130.3,442.5 1128.9,443.4 1113.5,434.6 											"/>
										</g>
									</g>
									<polygon class="st18" points="1109,422.6 1113.5,425.1 1137,411.3 1141.4,403.5 									"/>
									<polygon class="st18" points="1109,460.4 1113.5,452.6 1137,438.6 1141.4,441.1 									"/>
									<polygon class="st17" points="1137,438.6 1135.7,437.5 1113.5,450.8 1113.5,452.6 									"/>
									<polygon class="st18" points="1135.7,437.5 1135.7,412 1137,411.3 1137,438.6 									"/>
									<polygon class="st18" points="1109,460.4 1107.3,459.4 1107.3,421.4 1109,422.6 									"/>
									<polygon class="st17" points="1141.4,403.5 1139.8,402.3 1107.3,421.4 1109,422.6 									"/>
								</g>
							</g>
						</g>
					</g>
				</g>
				<g>
					<g>
						<g>
							<g>
								<g>
									<polygon class="st17" points="1026.1,479.1 1026.1,441.5 993.7,460.6 993.7,498.5 									"/>
									<polygon class="st2" points="1003.2,460.2 1004.8,459.2 1008.9,456.8 1012.2,454.9 1021.6,449.3 1021.6,460.3 
										1021.6,464.1 1021.6,468.8 1021.6,470.7 1021.6,476.6 1019.1,478.1 1015,480.5 1013.5,481.4 1012.1,482.3 998.1,490.6 
										998.1,474.3 998.1,472.6 998.1,470.9 998.1,466.1 998.1,463.1 									"/>
									<g>
										<g>
											<polygon class="st5" points="1004.8,459.2 1021.6,468.8 1021.6,470.7 1003.2,460.2 											"/>
											<polygon class="st5" points="1008.9,456.8 1021.6,464.1 1021.6,468.8 1004.8,459.2 											"/>
											<polygon class="st5" points="1012.2,454.9 1021.6,460.3 1021.6,464.1 1008.9,456.8 											"/>
											<polygon class="st5" points="1021.6,449.3 1021.6,460.3 1012.2,454.9 											"/>
											<polygon class="st5" points="998.1,466.1 1019.1,478.1 1015,480.5 998.1,470.9 											"/>
											<polygon class="st5" points="998.1,463.1 1003.2,460.2 1021.6,470.7 1021.6,476.6 1019.1,478.1 998.1,466.1 											
												"/>
											<polygon class="st5" points="998.1,474.3 1012.1,482.3 998.1,490.6 											"/>
											<polygon class="st5" points="998.1,472.6 1013.5,481.4 1012.1,482.3 998.1,474.3 											"/>
											<polygon class="st5" points="998.1,470.9 1015,480.5 1013.5,481.4 998.1,472.6 											"/>
										</g>
									</g>
									<polygon class="st18" points="993.7,460.6 998.1,463.1 1021.6,449.3 1026.1,441.5 									"/>
									<polygon class="st18" points="993.7,498.5 998.1,490.6 1021.6,476.6 1026.1,479.1 									"/>
									<polygon class="st17" points="1021.6,476.6 1020.4,475.5 998.1,488.8 998.1,490.6 									"/>
									<polygon class="st18" points="1020.4,475.5 1020.4,450.1 1021.6,449.3 1021.6,476.6 									"/>
									<polygon class="st18" points="993.7,498.5 991.9,497.4 991.9,459.4 993.7,460.6 									"/>
									<polygon class="st17" points="1026.1,441.5 1024.4,440.3 991.9,459.4 993.7,460.6 									"/>
								</g>
							</g>
						</g>
					</g>
					<g>
						<g>
							<g>
								<g>
									<polygon class="st17" points="1026.1,511.9 1026.1,474.3 993.7,493.4 993.7,531.2 									"/>
									<polygon class="st2" points="1003.2,492.9 1004.8,492 1008.9,489.6 1012.2,487.6 1021.6,482.1 1021.6,493 1021.6,496.9 
										1021.6,501.6 1021.6,503.5 1021.6,509.3 1019.1,510.9 1015,513.3 1013.5,514.2 1012.1,515 998.1,523.4 998.1,507 
										998.1,505.4 998.1,503.6 998.1,498.9 998.1,495.9 									"/>
									<g>
										<g>
											<polygon class="st5" points="1004.8,492 1021.6,501.6 1021.6,503.5 1003.2,492.9 											"/>
											<polygon class="st5" points="1008.9,489.6 1021.6,496.9 1021.6,501.6 1004.8,492 											"/>
											<polygon class="st5" points="1012.2,487.6 1021.6,493 1021.6,496.9 1008.9,489.6 											"/>
											<polygon class="st5" points="1021.6,482.1 1021.6,493 1012.2,487.6 											"/>
											<polygon class="st5" points="998.1,498.9 1019.1,510.9 1015,513.3 998.1,503.6 											"/>
											<polygon class="st5" points="998.1,495.9 1003.2,492.9 1021.6,503.5 1021.6,509.3 1019.1,510.9 998.1,498.9 											
												"/>
											<polygon class="st5" points="998.1,507 1012.1,515 998.1,523.4 											"/>
											<polygon class="st5" points="998.1,505.4 1013.5,514.2 1012.1,515 998.1,507 											"/>
											<polygon class="st5" points="998.1,503.6 1015,513.3 1013.5,514.2 998.1,505.4 											"/>
										</g>
									</g>
									<polygon class="st18" points="993.7,493.4 998.1,495.9 1021.6,482.1 1026.1,474.3 									"/>
									<polygon class="st18" points="993.7,531.2 998.1,523.4 1021.6,509.3 1026.1,511.9 									"/>
									<polygon class="st17" points="1021.6,509.3 1020.4,508.3 998.1,521.6 998.1,523.4 									"/>
									<polygon class="st18" points="1020.4,508.3 1020.4,482.8 1021.6,482.1 1021.6,509.3 									"/>
									<polygon class="st18" points="993.7,531.2 991.9,530.2 991.9,492.2 993.7,493.4 									"/>
									<polygon class="st17" points="1026.1,474.3 1024.4,473.1 991.9,492.2 993.7,493.4 									"/>
								</g>
							</g>
						</g>
					</g>
				</g>
			</g>
			<g>
				<g>
					<g>
						<g>
							<g>
								<g>
									<polygon class="st17" points="1141.4,516.9 1141.4,479.3 1109,498.4 1109,536.2 									"/>
									<polygon class="st2" points="1118.5,497.9 1120.2,497 1124.2,494.6 1127.6,492.6 1137,487.1 1137,498 1137,501.9 
										1137,506.6 1137,508.5 1137,514.4 1134.4,515.9 1130.3,518.3 1128.9,519.2 1127.5,520 1113.5,528.4 1113.5,512 
										1113.5,510.4 1113.5,508.7 1113.5,503.9 1113.5,500.9 									"/>
									<g>
										<g>
											<polygon class="st5" points="1120.2,497 1137,506.6 1137,508.5 1118.5,497.9 											"/>
											<polygon class="st5" points="1124.2,494.6 1137,501.9 1137,506.6 1120.2,497 											"/>
											<polygon class="st5" points="1127.6,492.6 1137,498 1137,501.9 1124.2,494.6 											"/>
											<polygon class="st5" points="1137,487.1 1137,498 1127.6,492.6 											"/>
											<polygon class="st5" points="1113.5,503.9 1134.4,515.9 1130.3,518.3 1113.5,508.7 											"/>
											<polygon class="st5" points="1113.5,500.9 1118.5,497.9 1137,508.5 1137,514.4 1134.4,515.9 1113.5,503.9 											"/>
											<polygon class="st5" points="1113.5,512 1127.5,520 1113.5,528.4 											"/>
											<polygon class="st5" points="1113.5,510.4 1128.9,519.2 1127.5,520 1113.5,512 											"/>
											<polygon class="st5" points="1113.5,508.7 1130.3,518.3 1128.9,519.2 1113.5,510.4 											"/>
										</g>
									</g>
									<polygon class="st18" points="1109,498.4 1113.5,500.9 1137,487.1 1141.4,479.3 									"/>
									<polygon class="st18" points="1109,536.2 1113.5,528.4 1137,514.4 1141.4,516.9 									"/>
									<polygon class="st17" points="1137,514.4 1135.7,513.3 1113.5,526.6 1113.5,528.4 									"/>
									<polygon class="st18" points="1135.7,513.3 1135.7,487.8 1137,487.1 1137,514.4 									"/>
									<polygon class="st18" points="1109,536.2 1107.3,535.2 1107.3,497.2 1109,498.4 									"/>
									<polygon class="st17" points="1141.4,479.3 1139.8,478.1 1107.3,497.2 1109,498.4 									"/>
								</g>
							</g>
						</g>
					</g>
					<g>
						<g>
							<g>
								<g>
									<polygon class="st17" points="1141.4,549.6 1141.4,512.1 1109,531.1 1109,569 									"/>
									<polygon class="st2" points="1118.5,530.7 1120.2,529.7 1124.2,527.3 1127.6,525.4 1137,519.9 1137,530.8 1137,534.6 
										1137,539.4 1137,541.2 1137,547.1 1134.4,548.7 1130.3,551.1 1128.9,552 1127.5,552.8 1113.5,561.1 1113.5,544.8 
										1113.5,543.2 1113.5,541.4 1113.5,536.7 1113.5,533.7 									"/>
									<g>
										<g>
											<polygon class="st5" points="1120.2,529.7 1137,539.4 1137,541.2 1118.5,530.7 											"/>
											<polygon class="st5" points="1124.2,527.3 1137,534.6 1137,539.4 1120.2,529.7 											"/>
											<polygon class="st5" points="1127.6,525.4 1137,530.8 1137,534.6 1124.2,527.3 											"/>
											<polygon class="st5" points="1137,519.9 1137,530.8 1127.6,525.4 											"/>
											<polygon class="st5" points="1113.5,536.7 1134.4,548.7 1130.3,551.1 1113.5,541.4 											"/>
											<polygon class="st5" points="1113.5,533.7 1118.5,530.7 1137,541.2 1137,547.1 1134.4,548.7 1113.5,536.7 											"/>
											<polygon class="st5" points="1113.5,544.8 1127.5,552.8 1113.5,561.1 											"/>
											<polygon class="st5" points="1113.5,543.2 1128.9,552 1127.5,552.8 1113.5,544.8 											"/>
											<polygon class="st5" points="1113.5,541.4 1130.3,551.1 1128.9,552 1113.5,543.2 											"/>
										</g>
									</g>
									<polygon class="st18" points="1109,531.1 1113.5,533.7 1137,519.9 1141.4,512.1 									"/>
									<polygon class="st18" points="1109,569 1113.5,561.1 1137,547.1 1141.4,549.6 									"/>
									<polygon class="st17" points="1137,547.1 1135.7,546.1 1113.5,559.3 1113.5,561.1 									"/>
									<polygon class="st18" points="1135.7,546.1 1135.7,520.6 1137,519.9 1137,547.1 									"/>
									<polygon class="st18" points="1109,569 1107.3,568 1107.3,530 1109,531.1 									"/>
									<polygon class="st17" points="1141.4,512.1 1139.8,510.9 1107.3,530 1109,531.1 									"/>
								</g>
							</g>
						</g>
					</g>
				</g>
				<g>
					<g>
						<g>
							<g>
								<g>
									<polygon class="st17" points="1026.1,587.7 1026.1,550.1 993.7,569.2 993.7,607 									"/>
									<polygon class="st2" points="1003.2,568.7 1004.8,567.8 1008.9,565.4 1012.2,563.4 1021.6,557.9 1021.6,568.8 
										1021.6,572.7 1021.6,577.4 1021.6,579.3 1021.6,585.2 1019.1,586.7 1015,589.1 1013.5,590 1012.1,590.8 998.1,599.2 
										998.1,582.8 998.1,581.2 998.1,579.4 998.1,574.7 998.1,571.7 									"/>
									<g>
										<g>
											<polygon class="st5" points="1004.8,567.8 1021.6,577.4 1021.6,579.3 1003.2,568.7 											"/>
											<polygon class="st5" points="1008.9,565.4 1021.6,572.7 1021.6,577.4 1004.8,567.8 											"/>
											<polygon class="st5" points="1012.2,563.4 1021.6,568.8 1021.6,572.7 1008.9,565.4 											"/>
											<polygon class="st5" points="1021.6,557.9 1021.6,568.8 1012.2,563.4 											"/>
											<polygon class="st5" points="998.1,574.7 1019.1,586.7 1015,589.1 998.1,579.4 											"/>
											<polygon class="st5" points="998.1,571.7 1003.2,568.7 1021.6,579.3 1021.6,585.2 1019.1,586.7 998.1,574.7 											
												"/>
											<polygon class="st5" points="998.1,582.8 1012.1,590.8 998.1,599.2 											"/>
											<polygon class="st5" points="998.1,581.2 1013.5,590 1012.1,590.8 998.1,582.8 											"/>
											<polygon class="st5" points="998.1,579.4 1015,589.1 1013.5,590 998.1,581.2 											"/>
										</g>
									</g>
									<polygon class="st18" points="993.7,569.2 998.1,571.7 1021.6,557.9 1026.1,550.1 									"/>
									<polygon class="st18" points="993.7,607 998.1,599.2 1021.6,585.2 1026.1,587.7 									"/>
									<polygon class="st17" points="1021.6,585.2 1020.4,584.1 998.1,597.4 998.1,599.2 									"/>
									<polygon class="st18" points="1020.4,584.1 1020.4,558.6 1021.6,557.9 1021.6,585.2 									"/>
									<polygon class="st18" points="993.7,607 991.9,606 991.9,568 993.7,569.2 									"/>
									<polygon class="st17" points="1026.1,550.1 1024.4,548.9 991.9,568 993.7,569.2 									"/>
								</g>
							</g>
						</g>
					</g>
					<g>
						<g>
							<g>
								<g>
									<polygon class="st17" points="1026.1,620.4 1026.1,582.9 993.7,601.9 993.7,639.8 									"/>
									<polygon class="st2" points="1003.2,601.5 1004.8,600.5 1008.9,598.1 1012.2,596.2 1021.6,590.6 1021.6,601.6 
										1021.6,605.4 1021.6,610.1 1021.6,612 1021.6,617.9 1019.1,619.4 1015,621.9 1013.5,622.7 1012.1,623.6 998.1,631.9 
										998.1,615.6 998.1,613.9 998.1,612.2 998.1,607.5 998.1,604.5 									"/>
									<g>
										<g>
											<polygon class="st5" points="1004.8,600.5 1021.6,610.1 1021.6,612 1003.2,601.5 											"/>
											<polygon class="st5" points="1008.9,598.1 1021.6,605.4 1021.6,610.1 1004.8,600.5 											"/>
											<polygon class="st5" points="1012.2,596.2 1021.6,601.6 1021.6,605.4 1008.9,598.1 											"/>
											<polygon class="st5" points="1021.6,590.6 1021.6,601.6 1012.2,596.2 											"/>
											<polygon class="st5" points="998.1,607.5 1019.1,619.4 1015,621.9 998.1,612.2 											"/>
											<polygon class="st5" points="998.1,604.5 1003.2,601.5 1021.6,612 1021.6,617.9 1019.1,619.4 998.1,607.5 											"/>
											<polygon class="st5" points="998.1,615.6 1012.1,623.6 998.1,631.9 											"/>
											<polygon class="st5" points="998.1,613.9 1013.5,622.7 1012.1,623.6 998.1,615.6 											"/>
											<polygon class="st5" points="998.1,612.2 1015,621.9 1013.5,622.7 998.1,613.9 											"/>
										</g>
									</g>
									<polygon class="st18" points="993.7,601.9 998.1,604.5 1021.6,590.6 1026.1,582.9 									"/>
									<polygon class="st18" points="993.7,639.8 998.1,631.9 1021.6,617.9 1026.1,620.4 									"/>
									<polygon class="st17" points="1021.6,617.9 1020.4,616.8 998.1,630.1 998.1,631.9 									"/>
									<polygon class="st18" points="1020.4,616.8 1020.4,591.4 1021.6,590.6 1021.6,617.9 									"/>
									<polygon class="st18" points="993.7,639.8 991.9,638.8 991.9,600.8 993.7,601.9 									"/>
									<polygon class="st17" points="1026.1,582.9 1024.4,581.7 991.9,600.8 993.7,601.9 									"/>
								</g>
							</g>
						</g>
					</g>
				</g>
			</g>
		</g>
		<g>
			<g>
				<g>
					<g>
						<polygon class="st17" points="907.2,477.5 907.2,439.9 939.6,459 939.6,496.8 						"/>
						<polygon class="st2" points="930.1,458.5 928.5,457.6 924.4,455.2 921.1,453.2 911.7,447.7 911.7,458.6 911.7,462.5 
							911.7,467.2 911.7,469.1 911.7,475 914.2,476.5 918.3,478.9 919.8,479.8 921.2,480.6 935.2,489 935.2,472.6 935.2,471 
							935.2,469.3 935.2,464.5 935.2,461.5 						"/>
						<g>
							<g>
								<polygon class="st5" points="928.5,457.6 911.7,467.2 911.7,469.1 930.1,458.5 								"/>
								<polygon class="st5" points="924.4,455.2 911.7,462.5 911.7,467.2 928.5,457.6 								"/>
								<polygon class="st5" points="921.1,453.2 911.7,458.6 911.7,462.5 924.4,455.2 								"/>
								<polygon class="st5" points="911.7,447.7 911.7,458.6 921.1,453.2 								"/>
								<polygon class="st5" points="935.2,464.5 914.2,476.5 918.3,478.9 935.2,469.3 								"/>
								<polygon class="st5" points="935.2,461.5 930.1,458.5 911.7,469.1 911.7,475 914.2,476.5 935.2,464.5 								"/>
								<polygon class="st5" points="935.2,472.6 921.2,480.6 935.2,489 								"/>
								<polygon class="st5" points="935.2,471 919.8,479.8 921.2,480.6 935.2,472.6 								"/>
								<polygon class="st5" points="935.2,469.3 918.3,478.9 919.8,479.8 935.2,471 								"/>
							</g>
						</g>
						<polygon class="st18" points="939.6,459 935.2,461.5 911.7,447.7 907.2,439.9 						"/>
						<polygon class="st18" points="939.6,496.8 935.2,489 911.7,475 907.2,477.5 						"/>
						<polygon class="st17" points="911.7,475 912.9,473.9 935.2,487.2 935.2,489 						"/>
						<polygon class="st18" points="912.9,473.9 912.9,448.4 911.7,447.7 911.7,475 						"/>
						<polygon class="st18" points="939.6,496.8 941.3,495.8 941.3,457.8 939.6,459 						"/>
						<polygon class="st17" points="907.2,439.9 908.9,438.7 941.3,457.8 939.6,459 						"/>
					</g>
				</g>
			</g>
		</g>
		<g>
			<g>
				<g>
					<g>
						<polygon class="st17" points="844.7,443.4 844.7,405.8 877.2,424.9 877.2,462.7 						"/>
						<polygon class="st2" points="867.6,424.5 866,423.5 861.9,421.1 858.6,419.2 849.2,413.6 849.2,424.5 849.2,428.4 
							849.2,433.1 849.2,435 849.2,440.9 851.7,442.4 855.8,444.8 857.3,445.7 858.7,446.5 872.7,454.9 872.7,438.5 872.7,436.9 
							872.7,435.2 872.7,430.4 872.7,427.4 						"/>
						<g>
							<g>
								<polygon class="st5" points="866,423.5 849.2,433.1 849.2,435 867.6,424.5 								"/>
								<polygon class="st5" points="861.9,421.1 849.2,428.4 849.2,433.1 866,423.5 								"/>
								<polygon class="st5" points="858.6,419.2 849.2,424.5 849.2,428.4 861.9,421.1 								"/>
								<polygon class="st5" points="849.2,413.6 849.2,424.5 858.6,419.2 								"/>
								<polygon class="st5" points="872.7,430.4 851.7,442.4 855.8,444.8 872.7,435.2 								"/>
								<polygon class="st5" points="872.7,427.4 867.6,424.5 849.2,435 849.2,440.9 851.7,442.4 872.7,430.4 								"/>
								<polygon class="st5" points="872.7,438.5 858.7,446.5 872.7,454.9 								"/>
								<polygon class="st5" points="872.7,436.9 857.3,445.7 858.7,446.5 872.7,438.5 								"/>
								<polygon class="st5" points="872.7,435.2 855.8,444.8 857.3,445.7 872.7,436.9 								"/>
							</g>
						</g>
						<polygon class="st18" points="877.2,424.9 872.7,427.4 849.2,413.6 844.7,405.8 						"/>
						<polygon class="st18" points="877.2,462.7 872.7,454.9 849.2,440.9 844.7,443.4 						"/>
						<polygon class="st17" points="849.2,440.9 850.4,439.8 872.7,453.1 872.7,454.9 						"/>
						<polygon class="st18" points="850.4,439.8 850.4,414.4 849.2,413.6 849.2,440.9 						"/>
						<polygon class="st18" points="877.2,462.7 878.9,461.7 878.9,423.7 877.2,424.9 						"/>
						<polygon class="st17" points="844.7,405.8 846.4,404.6 878.9,423.7 877.2,424.9 						"/>
					</g>
				</g>
			</g>
		</g>
		<g>
			<g>
				<g>
					<g>
						<polygon class="st17" points="784.9,410.7 784.9,373.1 817.4,392.2 817.4,430 						"/>
						<polygon class="st2" points="807.8,391.7 806.2,390.8 802.1,388.4 798.8,386.4 789.4,380.9 789.4,391.8 789.4,395.6 
							789.4,400.4 789.4,402.3 789.4,408.1 792,409.7 796,412.1 797.5,413 798.9,413.8 812.9,422.2 812.9,405.8 812.9,404.2 
							812.9,402.4 812.9,397.7 812.9,394.7 						"/>
						<g>
							<g>
								<polygon class="st5" points="806.2,390.8 789.4,400.4 789.4,402.3 807.8,391.7 								"/>
								<polygon class="st5" points="802.1,388.4 789.4,395.6 789.4,400.4 806.2,390.8 								"/>
								<polygon class="st5" points="798.8,386.4 789.4,391.8 789.4,395.6 802.1,388.4 								"/>
								<polygon class="st5" points="789.4,380.9 789.4,391.8 798.8,386.4 								"/>
								<polygon class="st5" points="812.9,397.7 792,409.7 796,412.1 812.9,402.4 								"/>
								<polygon class="st5" points="812.9,394.7 807.8,391.7 789.4,402.3 789.4,408.1 792,409.7 812.9,397.7 								"/>
								<polygon class="st5" points="812.9,405.8 798.9,413.8 812.9,422.2 								"/>
								<polygon class="st5" points="812.9,404.2 797.5,413 798.9,413.8 812.9,405.8 								"/>
								<polygon class="st5" points="812.9,402.4 796,412.1 797.5,413 812.9,404.2 								"/>
							</g>
						</g>
						<polygon class="st18" points="817.4,392.2 812.9,394.7 789.4,380.9 784.9,373.1 						"/>
						<polygon class="st18" points="817.4,430 812.9,422.2 789.4,408.1 784.9,410.7 						"/>
						<polygon class="st17" points="789.4,408.1 790.7,407.1 812.9,420.4 812.9,422.2 						"/>
						<polygon class="st18" points="790.7,407.1 790.7,381.6 789.4,380.9 789.4,408.1 						"/>
						<polygon class="st18" points="817.4,430 819.1,429 819.1,391 817.4,392.2 						"/>
						<polygon class="st17" points="784.9,373.1 786.6,371.9 819.1,391 817.4,392.2 						"/>
					</g>
				</g>
			</g>
		</g>
		<g>
			<g>
				<g>
					<g>
						<g>
							<polygon class="st17" points="836.8,606.3 836.8,516.4 862.9,531.7 862.9,621.9 							"/>
							<polygon class="st2" points="855.2,531.4 853.9,530.6 850.6,528.7 848,527.1 840.4,522.6 840.4,531.4 840.4,534.5 
								840.4,538.3 840.4,604.8 840.4,604.3 842.4,605.5 845.7,607.5 846.9,608.2 848,608.9 859.3,615.6 859.3,602.4 859.3,601.1 
								859.3,604.9 859.3,536.2 859.3,533.8 							"/>
							<g>
								<polygon class="st5" points="840.4,586.6 859.3,575.7 859.3,573.8 840.4,584.6 								"/>
								<polygon class="st5" points="840.4,584.6 859.3,573.8 859.3,553.4 840.4,564.2 								"/>
								<polygon class="st5" points="840.4,600.8 859.3,590 859.3,579.8 840.4,590.6 								"/>
								<polygon class="st5" points="840.4,590.6 859.3,579.8 859.3,575.7 840.4,586.6 								"/>
								<polygon class="st5" points="840.4,604.8 840.4,604.3 842.4,605.5 845.7,607.5 846.9,608.2 848,608.9 859.3,615.6 
									859.3,602.4 859.3,601.1 859.3,604.9 859.3,590 840.4,600.8 								"/>
								<polygon class="st5" points="840.4,564.2 859.3,553.4 859.3,551.3 840.4,562.2 								"/>
								<polygon class="st5" points="848,527.1 840.4,522.6 840.4,531.4 840.4,534.5 850.6,528.6 								"/>
								<polygon class="st5" points="840.4,562.2 859.3,551.3 859.3,547.3 840.4,558.2 								"/>
								<polygon class="st5" points="850.6,528.7 850.6,528.6 840.4,534.5 840.4,534.5 840.4,538.3 840.4,538.4 854,530.6 
									853.9,530.6 								"/>
								<polygon class="st5" points="840.4,558.2 859.3,547.3 859.3,543.8 840.4,554.6 								"/>
								<polygon class="st5" points="840.4,554.6 859.3,543.8 859.3,536.2 859.3,533.8 855.2,531.4 854,530.6 840.4,538.4 								
									"/>
							</g>
							<polygon class="st18" points="862.9,531.7 859.3,533.8 840.4,522.6 836.8,516.4 							"/>
							<polygon class="st18" points="862.9,621.9 859.3,615.6 840.4,604.3 836.8,606.3 							"/>
							<polygon class="st17" points="840.4,604.3 841.4,603.4 859.3,614.1 859.3,615.6 							"/>
							<polygon class="st18" points="841.4,603.4 841.4,523.2 840.4,522.6 840.4,604.3 							"/>
							<polygon class="st18" points="862.9,621.9 864.3,621.1 864.3,530.8 862.9,531.7 							"/>
							<polygon class="st17" points="836.8,516.4 838.1,515.4 864.3,530.8 862.9,531.7 							"/>
						</g>
					</g>
				</g>
			</g>
			<g>
				<g>
					<g>
						<g>
							<polygon class="st17" points="859.3,619.5 859.3,529.6 885.4,544.9 885.4,635.1 							"/>
							<polygon class="st2" points="877.7,544.6 876.4,543.8 873.2,541.9 870.5,540.3 862.9,535.9 862.9,544.7 862.9,547.8 
								862.9,551.6 862.9,618 862.9,617.5 865,618.7 868.2,620.7 869.4,621.4 870.6,622.1 881.8,628.8 881.8,615.6 881.8,614.3 
								881.8,618.2 881.8,549.4 881.8,547 							"/>
							<g>
								<polygon class="st5" points="862.9,599.8 881.8,589 881.8,587 862.9,597.8 								"/>
								<polygon class="st5" points="862.9,597.8 881.8,587 881.8,566.6 862.9,577.4 								"/>
								<polygon class="st5" points="862.9,614 881.8,603.2 881.8,593 862.9,603.8 								"/>
								<polygon class="st5" points="862.9,603.8 881.8,593 881.8,589 862.9,599.8 								"/>
								<polygon class="st5" points="862.9,618 862.9,617.5 865,618.7 868.2,620.7 869.4,621.4 870.6,622.1 881.8,628.8 
									881.8,615.6 881.8,614.3 881.8,618.2 881.8,603.2 862.9,614 								"/>
								<polygon class="st5" points="862.9,577.4 881.8,566.6 881.8,564.6 862.9,575.4 								"/>
								<polygon class="st5" points="870.5,540.3 862.9,535.9 862.9,544.7 862.9,547.7 873.1,541.9 								"/>
								<polygon class="st5" points="862.9,575.4 881.8,564.6 881.8,560.6 862.9,571.4 								"/>
								<polygon class="st5" points="873.2,541.9 873.1,541.9 862.9,547.7 862.9,547.8 862.9,551.6 862.9,551.6 876.5,543.8 
									876.4,543.8 								"/>
								<polygon class="st5" points="862.9,571.4 881.8,560.6 881.8,557 862.9,567.8 								"/>
								<polygon class="st5" points="862.9,567.8 881.8,557 881.8,549.4 881.8,547 877.7,544.6 876.5,543.8 862.9,551.6 								"/>
							</g>
							<polygon class="st18" points="885.4,544.9 881.8,547 862.9,535.9 859.3,529.6 							"/>
							<polygon class="st18" points="885.4,635.1 881.8,628.8 862.9,617.5 859.3,619.5 							"/>
							<polygon class="st17" points="862.9,617.5 863.9,616.7 881.8,627.4 881.8,628.8 							"/>
							<polygon class="st18" points="863.9,616.7 863.9,536.5 862.9,535.9 862.9,617.5 							"/>
							<polygon class="st18" points="885.4,635.1 886.8,634.3 886.8,544 885.4,544.9 							"/>
							<polygon class="st17" points="859.3,529.6 860.6,528.6 886.8,544 885.4,544.9 							"/>
						</g>
					</g>
				</g>
			</g>
		</g>
		<g>
			<g>
				<linearGradient id="SVGID_9_" gradientUnits="userSpaceOnUse" x1="719.397" y1="649.8187" x2="933.4846" y2="649.8187">
					<stop  offset="6.300000e-07" style="stop-color:#FFFFFF"/>
					<stop  offset="1" style="stop-color:#E1E6F0"/>
				</linearGradient>
				<polygon class="st23" points="719.4,638.7 802.7,586.9 933.5,663.1 850.5,712.8 				"/>
				<polygon class="st0" points="850.5,722.3 933.5,674.6 933.5,663.1 850.5,712.5 				"/>
				<linearGradient id="SVGID_10_" gradientUnits="userSpaceOnUse" x1="719.397" y1="680.5187" x2="850.4732" y2="680.5187">
					<stop  offset="0" style="stop-color:#E1E6F0"/>
					<stop  offset="1" style="stop-color:#FFFFFF"/>
				</linearGradient>
				<polygon class="st25" points="719.4,638.7 719.4,648.5 850.5,722.3 850.5,712.5 				"/>
			</g>
			<g>
				<linearGradient id="SVGID_11_" gradientUnits="userSpaceOnUse" x1="719.397" y1="498.4322" x2="933.4846" y2="498.4322">
					<stop  offset="6.300000e-07" style="stop-color:#FFFFFF"/>
					<stop  offset="1" style="stop-color:#E1E6F0"/>
				</linearGradient>
				<polygon class="st26" points="719.4,486.6 802.7,436.4 933.5,509.3 850.5,560.5 				"/>
				<polygon class="st0" points="850.5,581.4 933.5,530.7 933.5,509.3 850.5,560.2 				"/>
				<linearGradient id="SVGID_12_" gradientUnits="userSpaceOnUse" x1="719.397" y1="534.0101" x2="850.4732" y2="534.0101">
					<stop  offset="0" style="stop-color:#E1E6F0"/>
					<stop  offset="1" style="stop-color:#FFFFFF"/>
				</linearGradient>
				<polygon class="st27" points="719.4,486.6 719.4,506.2 850.5,581.4 850.5,560.2 				"/>
			</g>
		</g>
		<g>
			<polygon class="st0" points="1018.2,336.9 1078,304.6 1078,250 1018.2,285.8 			"/>
			<linearGradient id="SVGID_13_" gradientUnits="userSpaceOnUse" x1="919.9631" y1="237.4028" x2="1067.2047" y2="237.4028">
				<stop  offset="6.300000e-07" style="stop-color:#FFFFFF"/>
				<stop  offset="1" style="stop-color:#E1E6F0"/>
			</linearGradient>
			<polygon class="st28" points="920,222.9 969,195 1067.2,251.9 1018.2,279.8 			"/>
			<polygon class="st24" points="969,195 969,186 1067.2,242.9 1067.2,251.9 			"/>
			<polygon class="st1" points="969,186 969,178 1082.8,244 1067.2,242.9 			"/>
			<polygon class="st1" points="969,178 904.5,215 920,214 969,186 			"/>
			<polygon class="st24" points="969,186 969,195 920,222.9 920,214 			"/>
			<polygon class="st1" points="1082.8,244 1018.2,279.8 1018.2,268.7 1067.2,242.9 			"/>
			<polygon class="st1" points="920,214 1018.2,268.7 1018.2,279.8 904.5,215 			"/>
			<polygon class="st24" points="1082.6,244 1082.6,249.5 1018,285.8 1018,279.8 			"/>
			<polygon class="st24" points="1018.2,285.8 904.5,220.4 904.5,215 1018.2,279.8 			"/>
			<linearGradient id="SVGID_14_" gradientUnits="userSpaceOnUse" x1="908.9766" y1="279.8969" x2="1018.2096" y2="279.8969">
				<stop  offset="0" style="stop-color:#E1E6F0"/>
				<stop  offset="1" style="stop-color:#FFFFFF"/>
			</linearGradient>
			<polygon class="st29" points="909,222.9 909,275.2 1018.2,336.9 1018.2,285.8 			"/>
		</g>
	</g>
</g>
<g>
	<g>
		<path class="st65" d="M410.2,989.8l98.4-55.5c3.6-2.1,5.5-5.7,5.5-9.2v-56.4l-119.8,67.6V994C399.7,994,405.2,992.6,410.2,989.8z"
			/>
		<path class="st66" d="M279.8,934.3l98.4,55.5c4.9,2.8,10.5,4.2,16,4.2v-57.7l-119.8-67.6v56.4
			C274.4,928.7,276.2,932.3,279.8,934.3z"/>
	</g>
	<path class="st13" d="M279.8,878l98.4,55.5c9.9,5.6,22.1,5.6,32,0l98.4-55.5c7.3-4.1,7.3-14.4,0-18.5L410.2,804
		c-9.9-5.6-22.1-5.6-32,0l-98.4,55.5C272.6,863.6,272.6,873.9,279.8,878z"/>
</g>
<path class="st2" d="M353.4,892.9l45.6,12c2.8,1.7,6.3,1.7,9.1,0.1c3.3-2,3.9-5.5,4-6l-5-81c-0.2-8.9-5.9-8.7-6.3,0.2
	c-0.7,11.8-1.6,36.7-2.7,42.8c-0.1,0.8-1.9,10.1-6,16c-6.7,9.6-22.1,13.3-38.5,10.6c-1.1,0.4-1.8,1.4-1.9,2.6
	C351.6,891.2,352.2,892.3,353.4,892.9z"/>
<g>
	<polygon class="st77" points="373.1,415.4 369.1,429 348.6,424 352.6,410.5 	"/>
	<polygon class="st77" points="360,518.6 354.4,510.2 372.6,484.6 378.3,493 	"/>
	<g>
		<polygon class="st77" points="316.8,500 307.2,504.7 305.8,474.1 315.4,469.5 		"/>
		<g>
			<g>
				<path class="st78" d="M373.1,442c1.2,25.1-12.9,52.8-31.5,61.8c-18.6,9-34.6-4.1-35.8-29.2c-1.2-25.1,12.9-52.8,31.5-61.8
					C355.9,403.7,371.9,416.8,373.1,442z"/>
				<path class="st79" d="M374.5,471.7c1.2,25.1-12.9,52.8-31.5,61.8c-18.6,9-34.6-4.1-35.8-29.2c-1.2-25.1,12.9-52.8,31.5-61.8
					C357.3,433.5,373.3,446.6,374.5,471.7z"/>
				<path class="st80" d="M392.3,446.8c1.2,25.1-12.9,52.8-31.5,61.8c-18.6,9-34.6-4.1-35.8-29.2c-1.2-25.1,12.9-52.8,31.5-61.8
					C375.1,408.6,391.1,421.6,392.3,446.8z"/>
				<path class="st81" d="M373.1,442c1.2,25.1-12.9,52.8-31.5,61.8c-18.6,9-34.6-4.1-35.8-29.2c-1.2-25.1,12.9-52.8,31.5-61.8
					C355.9,403.7,371.9,416.8,373.1,442z"/>
				<path class="st82" d="M325.1,479.3c0.6,12,4.5,21.2,10.5,26.6c2-0.5,4-1.2,6.1-2.2c18.6-9,32.7-36.7,31.5-61.8
					c-0.6-12-4.5-21.2-10.5-26.6c-2,0.5-4,1.2-6.1,2.2C338,426.5,323.9,454.2,325.1,479.3z"/>
				<path class="st83" d="M338.7,442.5c-14.7,7.1-26.6,26-30.3,46c5.4,15.6,18.5,22.4,33.3,15.2c14.7-7.1,26.6-26,30.3-46
					C366.6,442.1,353.4,435.4,338.7,442.5z"/>
				<path class="st82" d="M338.7,442.5c-2.7,1.3-5.2,3-7.7,4.9c-4.2,10-6.5,21.2-6,31.9c1.2,25.1,17.2,38.2,35.8,29.2
					c2.7-1.3,5.2-3,7.7-4.9c4.2-10,6.5-21.2,6-31.9C373.3,446.6,357.3,433.5,338.7,442.5z"/>
				<path class="st77" d="M337.1,443.3c-0.3,0.2-0.6,0.3-0.9,0.5c-0.1,0.1-0.2,0.1-0.3,0.2c-0.4,0.2-0.8,0.5-1.2,0.7
					c-0.1,0.1-0.2,0.1-0.3,0.2c-0.3,0.2-0.6,0.4-0.8,0.6c-0.1,0.1-0.3,0.2-0.4,0.3c-0.3,0.2-0.6,0.4-0.8,0.6
					c-0.1,0.1-0.2,0.2-0.3,0.2c-0.3,0.2-0.6,0.5-0.9,0.7c-4.2,10-6.5,21.2-6,31.9c0.6,12,4.5,21.2,10.4,26.6c2-0.5,4-1.2,6.1-2.2
					c14.7-7.1,26.6-26,30.3-46c-0.3-1-0.7-1.9-1.1-2.8c0,0,0,0,0-0.1c-0.4-0.9-0.8-1.7-1.2-2.6c0,0,0,0,0,0
					c-0.7-1.2-1.4-2.4-2.2-3.5c0,0,0,0,0,0c-0.5-0.7-1.1-1.4-1.6-2c0,0,0,0-0.1-0.1c-0.6-0.6-1.1-1.2-1.7-1.7c0,0,0,0-0.1,0
					c-0.3-0.3-0.6-0.5-0.9-0.8c0,0,0,0-0.1,0c-0.6-0.5-1.3-0.9-1.9-1.4c0,0-0.1,0-0.1-0.1c-0.6-0.4-1.3-0.8-2-1.1c0,0-0.1,0-0.1-0.1
					c-0.3-0.2-0.7-0.3-1-0.4c0,0-0.1,0-0.1,0c-0.3-0.1-0.7-0.3-1-0.4c0,0-0.1,0-0.1,0c-0.3-0.1-0.7-0.2-1.1-0.3c-0.1,0-0.1,0-0.2,0
					c-0.7-0.2-1.4-0.3-2.2-0.4c-0.1,0-0.1,0-0.2,0c-0.4,0-0.7-0.1-1.1-0.1c0,0-0.1,0-0.1,0c-0.3,0-0.7,0-1-0.1c-0.1,0-0.1,0-0.2,0
					c-0.4,0-0.7,0-1.1,0c-0.1,0-0.1,0-0.2,0c-0.4,0-0.7,0-1.1,0.1c0,0-0.1,0-0.1,0c-0.4,0-0.8,0.1-1.1,0.1c-0.1,0-0.2,0-0.2,0
					c-0.4,0.1-0.8,0.1-1.2,0.2c0,0-0.1,0-0.1,0c-0.4,0.1-0.7,0.2-1.1,0.3c-0.1,0-0.2,0-0.2,0.1c-0.4,0.1-0.8,0.2-1.2,0.3
					c-0.1,0-0.1,0-0.2,0.1c-0.4,0.1-0.7,0.2-1.1,0.4c-0.1,0-0.1,0-0.2,0.1c-0.4,0.1-0.8,0.3-1.2,0.5c-0.1,0-0.2,0.1-0.3,0.1
					c-0.4,0.2-0.8,0.4-1.2,0.6c-0.4,0.2-0.8,0.4-1.2,0.6C337.4,443.2,337.2,443.2,337.1,443.3z"/>
			</g>
			<g>
				<g>
					<path class="st2" d="M344.6,441.4c-11.3,5.8-19.9,22.7-19.4,38.1c0,0.2,0,0.4,0,0.6c0,0,0,0,0,0.1c0,0,0,0,0,0
						c0.8,15.9,10.9,24.1,22.6,18.4c7.4-3.6,13.7-11.9,17.1-21.5c1-2.7-0.3-5-2.3-4.1l0,0c-1.1,0.5-2.1,1.7-2.7,3.3
						c-2.8,7.2-7.7,13.2-13.3,15.5c-7.5,3.1-14-1.6-15.7-10.7l31.4-15.2l2.9-1.4l0,0c0.6-0.3,1.2-0.9,1.6-1.6l0,0c0,0,0,0,0-0.1
						c0.5-0.9,0.9-2.1,0.8-3.1c0,0,0,0,0,0C366.9,443.5,356.5,435.2,344.6,441.4z M330.5,473.9c0.8-10.8,7-21.8,14.9-25.6
						c7.9-3.8,14.8,0.8,16.6,10.3L330.5,473.9z"/>
				</g>
			</g>
		</g>
	</g>
</g>
</svg>
