<?xml version="1.0" encoding="UTF-8"?>
<svg width="35px" height="28px" viewBox="0 0 35 28" version="1.1" xmlns="http://www.w3.org/2000/svg" xmlns:xlink="http://www.w3.org/1999/xlink">
    <!-- Generator: Sketch 50.2 (55047) - http://www.bohemiancoding.com/sketch -->
    <title>Group</title>
    <desc>Created with Sketch.</desc>
    <defs></defs>
    <g id="Widget-1-V2-Copy" stroke="none" stroke-width="1" fill="none" fill-rule="evenodd">
        <g id="Variante-A2" transform="translate(-802.000000, -196.000000)" fill="#FFFFFF">
            <g id="Group" transform="translate(802.000000, 196.000000)">
                <path d="M12.8957448,18.8541984 L16.1932909,18.8541984 L16.1932909,12.9488156 L12.8957448,12.9488156 L12.8957448,18.8541984 Z M24.4313262,13.0689171 L24.4313262,8.67763039 L27.2869453,10.5252124 C27.5178201,10.6750479 27.7930043,10.7251874 28.0600263,10.6674686 C28.3287973,10.6097499 28.5590891,10.4511692 28.7083416,10.2202943 C28.857594,9.98941945 28.9077335,9.71481827 28.8500148,9.44663028 C28.7922961,9.17785928 28.6337154,8.94873346 28.4034235,8.80006403 L15.0552411,0.167325982 C14.716508,-0.051888545 14.2786619,-0.051888545 13.9387628,0.167325982 L8.77089693,3.50976451 L8.77089693,1.02902564 C8.77089693,0.461749749 8.31031321,0 7.74362034,0 L5.5928693,0 C5.02675944,0 4.56617573,0.461749749 4.56617573,1.02902564 L4.56617573,6.23070653 L0.594661473,8.80006403 C0.363786598,8.94931648 0.205205876,9.17902532 0.147487158,9.4472133 C0.0903514565,9.71540129 0.141073967,9.99000246 0.290326411,10.2202943 C0.587082247,10.680295 1.25230505,10.8225513 1.70939067,10.5263784 L4.56559271,8.6782134 L4.56559271,18.8541984 L1.15377512,18.8541984 C0.58649923,18.8541984 0.124749481,19.3153651 0.124749481,19.882058 C0.124749481,20.4487509 0.58649923,20.9099176 1.15377512,20.9099176 L5.63134845,20.9116667 L20.3566179,20.9116667 C20.292486,20.5181299 20.259837,20.1275083 20.259837,19.7450489 C20.259837,19.4523742 20.2790766,19.1538693 20.3158067,18.8536154 L18.2490101,18.8536154 L18.2490101,11.921539 C18.2490101,11.3548461 17.7878434,10.8936794 17.2211505,10.8936794 L11.8673021,10.8936794 C11.3011923,10.8936794 10.8400255,11.3548461 10.8400255,11.921539 L10.8400255,18.8541984 L6.62131192,18.8541984 L6.62131192,7.3483508 L14.4967104,2.2533621 L22.374441,7.3483508 L22.374441,14.5567774 C22.9685357,13.9486903 23.6634924,13.4449633 24.4313262,13.0689171 Z" id="Fill-1"></path>
                <path d="M31.15734,21.28921 L29.23601,21.28921 L29.23601,23.21054 C29.23601,23.5643849 28.9486111,23.8509833 28.5955667,23.8509833 C28.2417217,23.8509833 27.9551233,23.5643849 27.9551233,23.21054 L27.9551233,21.28921 L26.0337933,21.28921 C25.6799484,21.28921 25.39335,21.0026116 25.39335,20.6487667 C25.39335,20.2949217 25.6799484,20.0083233 26.0337933,20.0083233 L27.9551233,20.0083233 L27.9551233,18.0869933 C27.9551233,17.7339489 28.2417217,17.44655 28.5955667,17.44655 C28.9486111,17.44655 29.23601,17.7339489 29.23601,18.0869933 L29.23601,20.0083233 L31.15734,20.0083233 C31.5103844,20.0083233 31.7977833,20.2949217 31.7977833,20.6487667 C31.7977833,21.0026116 31.5119855,21.28921 31.15734,21.28921 M28.5955667,14.2443333 C25.0579178,14.2443333 22.1911333,17.1119184 22.1911333,20.6487667 C22.1911333,24.185615 25.0579178,27.0532 28.5955667,27.0532 C32.132415,27.0532 35,24.185615 35,20.6487667 C35,17.1119184 32.132415,14.2443333 28.5955667,14.2443333" id="Fill-3"></path>
            </g>
        </g>
    </g>
</svg>